G04 (created by PCBNEW (2014-01-10 BZR 4027)-stable) date sab 21 mar 2015 15:48:28 CET*
%MOIN*%
G04 Gerber Fmt 3.4, Leading zero omitted, Abs format*
%FSLAX34Y34*%
G01*
G70*
G90*
G04 APERTURE LIST*
%ADD10C,0.00590551*%
%ADD11C,0.0001*%
G04 APERTURE END LIST*
G54D10*
G54D11*
G36*
X55002Y-26790D02*
X55009Y-26786D01*
X55024Y-26777D01*
X55046Y-26762D01*
X55072Y-26745D01*
X55098Y-26727D01*
X55120Y-26713D01*
X55135Y-26703D01*
X55141Y-26700D01*
X55144Y-26701D01*
X55157Y-26707D01*
X55174Y-26716D01*
X55185Y-26722D01*
X55201Y-26729D01*
X55210Y-26730D01*
X55211Y-26728D01*
X55217Y-26716D01*
X55226Y-26694D01*
X55239Y-26666D01*
X55253Y-26632D01*
X55268Y-26596D01*
X55284Y-26560D01*
X55298Y-26525D01*
X55311Y-26493D01*
X55321Y-26467D01*
X55328Y-26450D01*
X55331Y-26442D01*
X55330Y-26440D01*
X55322Y-26432D01*
X55307Y-26422D01*
X55276Y-26396D01*
X55245Y-26358D01*
X55227Y-26315D01*
X55220Y-26266D01*
X55226Y-26221D01*
X55243Y-26179D01*
X55273Y-26140D01*
X55310Y-26111D01*
X55352Y-26093D01*
X55400Y-26087D01*
X55445Y-26092D01*
X55489Y-26110D01*
X55528Y-26139D01*
X55545Y-26158D01*
X55567Y-26197D01*
X55580Y-26239D01*
X55581Y-26250D01*
X55579Y-26296D01*
X55566Y-26340D01*
X55541Y-26379D01*
X55508Y-26412D01*
X55503Y-26415D01*
X55488Y-26427D01*
X55477Y-26435D01*
X55469Y-26441D01*
X55528Y-26583D01*
X55537Y-26605D01*
X55553Y-26644D01*
X55567Y-26677D01*
X55579Y-26704D01*
X55587Y-26722D01*
X55590Y-26729D01*
X55590Y-26729D01*
X55596Y-26730D01*
X55606Y-26726D01*
X55626Y-26717D01*
X55639Y-26710D01*
X55654Y-26703D01*
X55661Y-26700D01*
X55667Y-26703D01*
X55681Y-26712D01*
X55702Y-26726D01*
X55728Y-26744D01*
X55752Y-26760D01*
X55774Y-26775D01*
X55790Y-26785D01*
X55798Y-26789D01*
X55799Y-26789D01*
X55806Y-26785D01*
X55819Y-26775D01*
X55838Y-26757D01*
X55865Y-26730D01*
X55869Y-26725D01*
X55892Y-26703D01*
X55910Y-26684D01*
X55922Y-26670D01*
X55927Y-26664D01*
X55927Y-26664D01*
X55923Y-26656D01*
X55912Y-26640D01*
X55898Y-26617D01*
X55880Y-26591D01*
X55833Y-26523D01*
X55859Y-26459D01*
X55867Y-26439D01*
X55877Y-26415D01*
X55884Y-26398D01*
X55888Y-26391D01*
X55895Y-26388D01*
X55912Y-26384D01*
X55938Y-26379D01*
X55968Y-26373D01*
X55997Y-26368D01*
X56023Y-26363D01*
X56042Y-26359D01*
X56051Y-26358D01*
X56053Y-26356D01*
X56055Y-26352D01*
X56056Y-26343D01*
X56056Y-26327D01*
X56057Y-26302D01*
X56057Y-26266D01*
X56057Y-26262D01*
X56056Y-26228D01*
X56056Y-26200D01*
X56055Y-26183D01*
X56054Y-26176D01*
X56054Y-26176D01*
X56045Y-26174D01*
X56027Y-26170D01*
X56001Y-26165D01*
X55970Y-26159D01*
X55968Y-26158D01*
X55937Y-26152D01*
X55910Y-26147D01*
X55892Y-26143D01*
X55885Y-26140D01*
X55883Y-26138D01*
X55877Y-26126D01*
X55868Y-26107D01*
X55857Y-26083D01*
X55847Y-26059D01*
X55839Y-26037D01*
X55833Y-26020D01*
X55831Y-26013D01*
X55831Y-26013D01*
X55836Y-26005D01*
X55846Y-25989D01*
X55861Y-25967D01*
X55880Y-25940D01*
X55881Y-25938D01*
X55899Y-25912D01*
X55913Y-25890D01*
X55923Y-25874D01*
X55927Y-25867D01*
X55926Y-25866D01*
X55921Y-25859D01*
X55907Y-25844D01*
X55888Y-25824D01*
X55865Y-25800D01*
X55858Y-25793D01*
X55832Y-25768D01*
X55814Y-25752D01*
X55803Y-25743D01*
X55798Y-25741D01*
X55798Y-25741D01*
X55790Y-25746D01*
X55773Y-25757D01*
X55751Y-25772D01*
X55724Y-25790D01*
X55722Y-25792D01*
X55696Y-25810D01*
X55674Y-25824D01*
X55659Y-25835D01*
X55652Y-25839D01*
X55651Y-25839D01*
X55640Y-25836D01*
X55621Y-25829D01*
X55598Y-25820D01*
X55574Y-25810D01*
X55552Y-25801D01*
X55535Y-25794D01*
X55528Y-25789D01*
X55527Y-25789D01*
X55525Y-25779D01*
X55520Y-25760D01*
X55514Y-25733D01*
X55508Y-25700D01*
X55507Y-25695D01*
X55501Y-25664D01*
X55496Y-25638D01*
X55493Y-25620D01*
X55491Y-25613D01*
X55486Y-25612D01*
X55471Y-25611D01*
X55448Y-25610D01*
X55420Y-25610D01*
X55390Y-25610D01*
X55361Y-25611D01*
X55337Y-25611D01*
X55319Y-25613D01*
X55311Y-25614D01*
X55311Y-25615D01*
X55308Y-25624D01*
X55304Y-25644D01*
X55299Y-25671D01*
X55292Y-25703D01*
X55291Y-25709D01*
X55285Y-25740D01*
X55280Y-25766D01*
X55276Y-25784D01*
X55274Y-25791D01*
X55272Y-25792D01*
X55259Y-25798D01*
X55238Y-25806D01*
X55212Y-25817D01*
X55152Y-25841D01*
X55078Y-25791D01*
X55071Y-25786D01*
X55045Y-25768D01*
X55023Y-25753D01*
X55008Y-25744D01*
X55001Y-25740D01*
X55001Y-25740D01*
X54993Y-25747D01*
X54979Y-25760D01*
X54959Y-25780D01*
X54936Y-25803D01*
X54918Y-25820D01*
X54898Y-25841D01*
X54885Y-25855D01*
X54878Y-25864D01*
X54876Y-25869D01*
X54876Y-25873D01*
X54881Y-25880D01*
X54892Y-25897D01*
X54907Y-25919D01*
X54925Y-25945D01*
X54940Y-25967D01*
X54956Y-25992D01*
X54966Y-26009D01*
X54970Y-26018D01*
X54969Y-26022D01*
X54964Y-26036D01*
X54955Y-26058D01*
X54944Y-26084D01*
X54918Y-26142D01*
X54880Y-26150D01*
X54857Y-26154D01*
X54824Y-26160D01*
X54793Y-26166D01*
X54745Y-26176D01*
X54743Y-26353D01*
X54751Y-26356D01*
X54758Y-26358D01*
X54776Y-26362D01*
X54801Y-26367D01*
X54832Y-26373D01*
X54857Y-26378D01*
X54883Y-26383D01*
X54902Y-26386D01*
X54910Y-26388D01*
X54912Y-26391D01*
X54919Y-26403D01*
X54928Y-26423D01*
X54938Y-26447D01*
X54949Y-26472D01*
X54958Y-26495D01*
X54964Y-26513D01*
X54967Y-26522D01*
X54963Y-26529D01*
X54953Y-26544D01*
X54939Y-26566D01*
X54921Y-26592D01*
X54904Y-26617D01*
X54889Y-26640D01*
X54879Y-26655D01*
X54874Y-26663D01*
X54876Y-26668D01*
X54887Y-26680D01*
X54906Y-26700D01*
X54935Y-26729D01*
X54940Y-26733D01*
X54963Y-26756D01*
X54982Y-26774D01*
X54996Y-26786D01*
X55002Y-26790D01*
X55002Y-26790D01*
G37*
G36*
X60384Y-23465D02*
X60384Y-23571D01*
X59108Y-23571D01*
X59106Y-23575D01*
X59104Y-23586D01*
X59103Y-23606D01*
X59101Y-23635D01*
X59096Y-23683D01*
X59088Y-23732D01*
X59075Y-23780D01*
X59060Y-23822D01*
X59044Y-23857D01*
X59036Y-23870D01*
X59029Y-23883D01*
X59021Y-23903D01*
X59012Y-23927D01*
X59010Y-23936D01*
X59002Y-23964D01*
X58997Y-23985D01*
X58996Y-24006D01*
X58998Y-24028D01*
X59002Y-24066D01*
X59009Y-24099D01*
X59018Y-24131D01*
X59031Y-24164D01*
X59049Y-24199D01*
X59072Y-24237D01*
X59102Y-24282D01*
X59126Y-24317D01*
X59155Y-24360D01*
X59177Y-24395D01*
X59193Y-24425D01*
X59205Y-24452D01*
X59211Y-24476D01*
X59215Y-24501D01*
X59215Y-24524D01*
X59213Y-24554D01*
X59207Y-24587D01*
X59197Y-24618D01*
X59186Y-24644D01*
X59178Y-24655D01*
X59164Y-24671D01*
X59146Y-24636D01*
X59117Y-24581D01*
X59093Y-24537D01*
X59072Y-24500D01*
X59055Y-24471D01*
X59039Y-24449D01*
X59025Y-24432D01*
X59011Y-24418D01*
X58999Y-24409D01*
X58978Y-24398D01*
X58955Y-24393D01*
X58928Y-24395D01*
X58897Y-24405D01*
X58866Y-24417D01*
X58836Y-24431D01*
X58814Y-24440D01*
X58798Y-24445D01*
X58785Y-24447D01*
X58774Y-24445D01*
X58761Y-24441D01*
X58758Y-24440D01*
X58742Y-24432D01*
X58727Y-24420D01*
X58712Y-24403D01*
X58696Y-24379D01*
X58679Y-24347D01*
X58659Y-24306D01*
X58652Y-24290D01*
X58632Y-24246D01*
X58615Y-24212D01*
X58601Y-24186D01*
X58588Y-24165D01*
X58577Y-24149D01*
X58567Y-24138D01*
X58553Y-24126D01*
X58537Y-24116D01*
X58523Y-24110D01*
X58514Y-24110D01*
X58514Y-24111D01*
X58515Y-24117D01*
X58522Y-24131D01*
X58532Y-24149D01*
X58535Y-24153D01*
X58549Y-24176D01*
X58563Y-24202D01*
X58576Y-24230D01*
X58588Y-24256D01*
X58597Y-24278D01*
X58601Y-24293D01*
X58601Y-24295D01*
X58603Y-24309D01*
X58609Y-24330D01*
X58617Y-24357D01*
X58627Y-24385D01*
X58638Y-24412D01*
X58648Y-24435D01*
X58650Y-24440D01*
X58672Y-24479D01*
X58694Y-24510D01*
X58720Y-24534D01*
X58750Y-24553D01*
X58788Y-24569D01*
X58825Y-24580D01*
X58857Y-24590D01*
X58880Y-24597D01*
X58896Y-24604D01*
X58909Y-24610D01*
X58921Y-24619D01*
X58934Y-24630D01*
X58936Y-24632D01*
X58952Y-24648D01*
X58965Y-24666D01*
X58976Y-24688D01*
X58987Y-24716D01*
X58998Y-24750D01*
X59006Y-24776D01*
X59014Y-24799D01*
X59020Y-24816D01*
X59023Y-24820D01*
X59027Y-24831D01*
X59026Y-24836D01*
X59018Y-24833D01*
X59002Y-24823D01*
X58990Y-24815D01*
X58958Y-24796D01*
X58930Y-24781D01*
X58906Y-24773D01*
X58895Y-24771D01*
X58882Y-24775D01*
X58867Y-24785D01*
X58863Y-24787D01*
X58845Y-24804D01*
X58852Y-24878D01*
X58855Y-24930D01*
X58855Y-24971D01*
X58851Y-25001D01*
X58842Y-25021D01*
X58828Y-25031D01*
X58810Y-25033D01*
X58785Y-25025D01*
X58755Y-25010D01*
X58750Y-25007D01*
X58715Y-24988D01*
X58687Y-24977D01*
X58665Y-24974D01*
X58657Y-24975D01*
X58655Y-24978D01*
X58662Y-24986D01*
X58679Y-24999D01*
X58685Y-25004D01*
X58707Y-25021D01*
X58733Y-25043D01*
X58757Y-25066D01*
X58762Y-25072D01*
X58797Y-25105D01*
X58827Y-25129D01*
X58854Y-25143D01*
X58875Y-25146D01*
X58892Y-25139D01*
X58895Y-25136D01*
X58902Y-25125D01*
X58911Y-25107D01*
X58918Y-25091D01*
X58932Y-25059D01*
X58947Y-25039D01*
X58965Y-25029D01*
X58985Y-25030D01*
X59009Y-25042D01*
X59038Y-25064D01*
X59056Y-25080D01*
X59073Y-25098D01*
X59085Y-25113D01*
X59090Y-25124D01*
X59090Y-25125D01*
X59086Y-25135D01*
X59076Y-25150D01*
X59063Y-25165D01*
X59048Y-25182D01*
X59040Y-25195D01*
X59037Y-25207D01*
X59037Y-25222D01*
X59042Y-25262D01*
X59057Y-25304D01*
X59072Y-25332D01*
X59090Y-25361D01*
X59092Y-26061D01*
X59092Y-26167D01*
X59092Y-26262D01*
X59092Y-26346D01*
X59093Y-26421D01*
X59093Y-26485D01*
X59093Y-26542D01*
X59094Y-26590D01*
X59094Y-26631D01*
X59094Y-26665D01*
X59095Y-26693D01*
X59096Y-26715D01*
X59097Y-26733D01*
X59098Y-26746D01*
X59098Y-26756D01*
X59100Y-26763D01*
X59101Y-26768D01*
X59103Y-26771D01*
X59104Y-26773D01*
X59105Y-26774D01*
X59108Y-26777D01*
X59112Y-26780D01*
X59118Y-26782D01*
X59128Y-26784D01*
X59143Y-26785D01*
X59163Y-26786D01*
X59190Y-26786D01*
X59226Y-26786D01*
X59271Y-26786D01*
X59317Y-26786D01*
X59373Y-26786D01*
X59417Y-26786D01*
X59453Y-26785D01*
X59481Y-26785D01*
X59501Y-26783D01*
X59515Y-26782D01*
X59523Y-26780D01*
X59528Y-26778D01*
X59530Y-26776D01*
X59532Y-26774D01*
X59533Y-26769D01*
X59535Y-26763D01*
X59536Y-26754D01*
X59537Y-26740D01*
X59537Y-26723D01*
X59538Y-26700D01*
X59539Y-26671D01*
X59539Y-26636D01*
X59540Y-26593D01*
X59540Y-26542D01*
X59540Y-26482D01*
X59541Y-26413D01*
X59541Y-26334D01*
X59541Y-26243D01*
X59541Y-26214D01*
X59541Y-26134D01*
X59542Y-26057D01*
X59542Y-25985D01*
X59542Y-25917D01*
X59543Y-25856D01*
X59544Y-25801D01*
X59544Y-25754D01*
X59544Y-25716D01*
X59545Y-25687D01*
X59546Y-25667D01*
X59546Y-25659D01*
X59546Y-25659D01*
X59555Y-25662D01*
X59570Y-25672D01*
X59588Y-25685D01*
X59606Y-25700D01*
X59622Y-25713D01*
X59632Y-25723D01*
X59645Y-25742D01*
X59655Y-25763D01*
X59664Y-25791D01*
X59671Y-25827D01*
X59677Y-25859D01*
X59684Y-25893D01*
X59692Y-25924D01*
X59701Y-25950D01*
X59711Y-25969D01*
X59720Y-25980D01*
X59724Y-25981D01*
X59729Y-25979D01*
X59729Y-25971D01*
X59726Y-25957D01*
X59723Y-25943D01*
X59724Y-25929D01*
X59727Y-25913D01*
X59735Y-25889D01*
X59737Y-25884D01*
X59749Y-25841D01*
X59753Y-25804D01*
X59750Y-25773D01*
X59740Y-25748D01*
X59730Y-25733D01*
X59712Y-25712D01*
X59687Y-25684D01*
X59654Y-25651D01*
X59635Y-25632D01*
X59542Y-25543D01*
X59542Y-25462D01*
X59543Y-25382D01*
X59601Y-25444D01*
X59634Y-25478D01*
X59663Y-25503D01*
X59689Y-25520D01*
X59714Y-25530D01*
X59738Y-25533D01*
X59744Y-25534D01*
X59764Y-25532D01*
X59782Y-25526D01*
X59802Y-25515D01*
X59825Y-25497D01*
X59842Y-25482D01*
X59865Y-25462D01*
X59884Y-25449D01*
X59900Y-25442D01*
X59918Y-25439D01*
X59938Y-25438D01*
X59959Y-25439D01*
X59978Y-25443D01*
X59997Y-25451D01*
X60018Y-25463D01*
X60041Y-25481D01*
X60069Y-25505D01*
X60102Y-25537D01*
X60132Y-25567D01*
X60175Y-25610D01*
X60212Y-25644D01*
X60243Y-25670D01*
X60268Y-25687D01*
X60288Y-25697D01*
X60303Y-25700D01*
X60309Y-25699D01*
X60307Y-25694D01*
X60296Y-25685D01*
X60294Y-25684D01*
X60278Y-25670D01*
X60259Y-25653D01*
X60249Y-25643D01*
X60228Y-25619D01*
X60209Y-25590D01*
X60191Y-25554D01*
X60174Y-25510D01*
X60163Y-25479D01*
X60150Y-25442D01*
X60137Y-25412D01*
X60122Y-25388D01*
X60105Y-25369D01*
X60083Y-25355D01*
X60055Y-25346D01*
X60020Y-25339D01*
X59976Y-25334D01*
X59922Y-25332D01*
X59901Y-25331D01*
X59854Y-25329D01*
X59814Y-25326D01*
X59782Y-25324D01*
X59761Y-25321D01*
X59751Y-25319D01*
X59708Y-25296D01*
X59670Y-25263D01*
X59636Y-25219D01*
X59616Y-25184D01*
X59605Y-25162D01*
X59600Y-25148D01*
X59599Y-25139D01*
X59602Y-25135D01*
X59603Y-25135D01*
X59612Y-25132D01*
X59630Y-25131D01*
X59655Y-25130D01*
X59684Y-25129D01*
X59688Y-25129D01*
X59729Y-25128D01*
X59760Y-25126D01*
X59782Y-25120D01*
X59798Y-25112D01*
X59810Y-25100D01*
X59814Y-25093D01*
X59822Y-25074D01*
X59826Y-25051D01*
X59827Y-25023D01*
X59824Y-24989D01*
X59817Y-24948D01*
X59807Y-24897D01*
X59801Y-24869D01*
X59789Y-24802D01*
X59785Y-24744D01*
X59785Y-24716D01*
X59786Y-24695D01*
X59789Y-24679D01*
X59795Y-24664D01*
X59801Y-24650D01*
X59821Y-24619D01*
X59849Y-24595D01*
X59884Y-24577D01*
X59927Y-24566D01*
X59981Y-24560D01*
X60002Y-24559D01*
X60035Y-24558D01*
X60060Y-24556D01*
X60080Y-24553D01*
X60098Y-24547D01*
X60106Y-24544D01*
X60128Y-24533D01*
X60150Y-24518D01*
X60171Y-24502D01*
X60187Y-24485D01*
X60197Y-24471D01*
X60199Y-24465D01*
X60198Y-24460D01*
X60193Y-24456D01*
X60184Y-24456D01*
X60167Y-24457D01*
X60143Y-24460D01*
X60115Y-24465D01*
X60056Y-24475D01*
X59977Y-24443D01*
X59921Y-24423D01*
X59872Y-24411D01*
X59831Y-24406D01*
X59795Y-24410D01*
X59764Y-24423D01*
X59737Y-24443D01*
X59728Y-24453D01*
X59713Y-24473D01*
X59701Y-24497D01*
X59690Y-24526D01*
X59682Y-24563D01*
X59674Y-24609D01*
X59671Y-24633D01*
X59666Y-24666D01*
X59660Y-24699D01*
X59654Y-24727D01*
X59649Y-24745D01*
X59632Y-24783D01*
X59609Y-24812D01*
X59581Y-24831D01*
X59549Y-24839D01*
X59513Y-24837D01*
X59475Y-24823D01*
X59446Y-24806D01*
X59431Y-24795D01*
X59448Y-24734D01*
X59463Y-24670D01*
X59470Y-24613D01*
X59468Y-24563D01*
X59460Y-24529D01*
X59451Y-24502D01*
X59439Y-24476D01*
X59423Y-24450D01*
X59403Y-24424D01*
X59378Y-24395D01*
X59345Y-24362D01*
X59305Y-24324D01*
X59262Y-24286D01*
X59218Y-24243D01*
X59181Y-24199D01*
X59154Y-24156D01*
X59146Y-24140D01*
X59135Y-24112D01*
X59128Y-24082D01*
X59124Y-24049D01*
X59123Y-24010D01*
X59125Y-23964D01*
X59128Y-23917D01*
X59134Y-23844D01*
X59137Y-23777D01*
X59137Y-23718D01*
X59134Y-23667D01*
X59129Y-23625D01*
X59121Y-23594D01*
X59115Y-23581D01*
X59111Y-23574D01*
X59108Y-23571D01*
X60384Y-23571D01*
X60384Y-25200D01*
X60384Y-26935D01*
X59400Y-26935D01*
X58416Y-26935D01*
X58416Y-25200D01*
X58416Y-23465D01*
X59400Y-23465D01*
X60384Y-23465D01*
X60384Y-23465D01*
X60384Y-23465D01*
G37*
G36*
X59317Y-25427D02*
X59322Y-25430D01*
X59326Y-25441D01*
X59330Y-25456D01*
X59418Y-25456D01*
X59452Y-25456D01*
X59476Y-25456D01*
X59491Y-25455D01*
X59501Y-25453D01*
X59505Y-25450D01*
X59507Y-25446D01*
X59508Y-25443D01*
X59512Y-25432D01*
X59517Y-25428D01*
X59521Y-25430D01*
X59524Y-25440D01*
X59525Y-25460D01*
X59525Y-25471D01*
X59524Y-25495D01*
X59522Y-25509D01*
X59519Y-25514D01*
X59517Y-25514D01*
X59512Y-25507D01*
X59508Y-25494D01*
X59508Y-25493D01*
X59506Y-25474D01*
X59467Y-25474D01*
X59428Y-25474D01*
X59428Y-25474D01*
X59381Y-25474D01*
X59356Y-25479D01*
X59343Y-25488D01*
X59332Y-25499D01*
X59327Y-25511D01*
X59326Y-25529D01*
X59326Y-25534D01*
X59327Y-25553D01*
X59331Y-25566D01*
X59340Y-25577D01*
X59343Y-25579D01*
X59364Y-25591D01*
X59385Y-25593D01*
X59405Y-25587D01*
X59423Y-25575D01*
X59435Y-25558D01*
X59441Y-25538D01*
X59438Y-25516D01*
X59431Y-25504D01*
X59416Y-25486D01*
X59400Y-25477D01*
X59381Y-25474D01*
X59428Y-25474D01*
X59441Y-25490D01*
X59450Y-25508D01*
X59453Y-25533D01*
X59453Y-25535D01*
X59452Y-25554D01*
X59448Y-25567D01*
X59437Y-25581D01*
X59430Y-25588D01*
X59414Y-25602D01*
X59400Y-25609D01*
X59385Y-25611D01*
X59385Y-25611D01*
X59356Y-25606D01*
X59332Y-25592D01*
X59315Y-25572D01*
X59307Y-25547D01*
X59307Y-25520D01*
X59317Y-25494D01*
X59325Y-25481D01*
X59325Y-25475D01*
X59320Y-25474D01*
X59314Y-25471D01*
X59311Y-25459D01*
X59311Y-25450D01*
X59313Y-25434D01*
X59317Y-25427D01*
X59317Y-25427D01*
X59317Y-25427D01*
G37*
G36*
X59393Y-26596D02*
X59417Y-26602D01*
X59434Y-26613D01*
X59381Y-26613D01*
X59357Y-26617D01*
X59352Y-26620D01*
X59339Y-26632D01*
X59329Y-26651D01*
X59323Y-26671D01*
X59323Y-26675D01*
X59328Y-26701D01*
X59342Y-26721D01*
X59362Y-26734D01*
X59385Y-26738D01*
X59410Y-26733D01*
X59417Y-26729D01*
X59435Y-26714D01*
X59444Y-26695D01*
X59445Y-26669D01*
X59445Y-26667D01*
X59441Y-26647D01*
X59431Y-26632D01*
X59425Y-26627D01*
X59405Y-26617D01*
X59381Y-26613D01*
X59434Y-26613D01*
X59439Y-26616D01*
X59454Y-26636D01*
X59463Y-26660D01*
X59464Y-26687D01*
X59454Y-26714D01*
X59436Y-26737D01*
X59412Y-26751D01*
X59386Y-26755D01*
X59359Y-26750D01*
X59334Y-26735D01*
X59331Y-26732D01*
X59314Y-26708D01*
X59306Y-26681D01*
X59308Y-26654D01*
X59320Y-26629D01*
X59339Y-26610D01*
X59366Y-26598D01*
X59393Y-26596D01*
X59393Y-26596D01*
X59393Y-26596D01*
G37*
G36*
X59387Y-26428D02*
X59413Y-26434D01*
X59436Y-26448D01*
X59452Y-26470D01*
X59462Y-26498D01*
X59464Y-26528D01*
X59457Y-26558D01*
X59449Y-26575D01*
X59440Y-26586D01*
X59433Y-26589D01*
X59432Y-26588D01*
X59431Y-26580D01*
X59435Y-26567D01*
X59437Y-26560D01*
X59447Y-26527D01*
X59446Y-26499D01*
X59434Y-26475D01*
X59427Y-26467D01*
X59412Y-26453D01*
X59401Y-26446D01*
X59401Y-26446D01*
X59365Y-26446D01*
X59358Y-26450D01*
X59346Y-26458D01*
X59345Y-26458D01*
X59331Y-26476D01*
X59324Y-26499D01*
X59325Y-26524D01*
X59326Y-26527D01*
X59332Y-26541D01*
X59343Y-26556D01*
X59355Y-26567D01*
X59364Y-26572D01*
X59367Y-26566D01*
X59370Y-26549D01*
X59370Y-26523D01*
X59371Y-26509D01*
X59370Y-26483D01*
X59369Y-26463D01*
X59367Y-26450D01*
X59365Y-26446D01*
X59401Y-26446D01*
X59395Y-26448D01*
X59391Y-26458D01*
X59389Y-26478D01*
X59389Y-26509D01*
X59389Y-26519D01*
X59389Y-26591D01*
X59369Y-26587D01*
X59341Y-26576D01*
X59321Y-26558D01*
X59313Y-26545D01*
X59306Y-26514D01*
X59309Y-26485D01*
X59321Y-26460D01*
X59341Y-26441D01*
X59367Y-26431D01*
X59387Y-26428D01*
X59387Y-26428D01*
X59387Y-26428D01*
G37*
G36*
X59319Y-26269D02*
X59325Y-26276D01*
X59328Y-26287D01*
X59330Y-26303D01*
X59385Y-26303D01*
X59411Y-26303D01*
X59428Y-26304D01*
X59439Y-26307D01*
X59446Y-26311D01*
X59452Y-26319D01*
X59453Y-26319D01*
X59462Y-26340D01*
X59464Y-26367D01*
X59459Y-26397D01*
X59455Y-26406D01*
X59447Y-26421D01*
X59440Y-26428D01*
X59437Y-26426D01*
X59437Y-26414D01*
X59438Y-26412D01*
X59444Y-26377D01*
X59445Y-26351D01*
X59442Y-26334D01*
X59437Y-26328D01*
X59430Y-26324D01*
X59419Y-26322D01*
X59400Y-26321D01*
X59382Y-26321D01*
X59329Y-26321D01*
X59329Y-26363D01*
X59328Y-26385D01*
X59326Y-26398D01*
X59323Y-26404D01*
X59320Y-26405D01*
X59315Y-26402D01*
X59312Y-26393D01*
X59311Y-26376D01*
X59311Y-26363D01*
X59311Y-26321D01*
X59287Y-26321D01*
X59263Y-26321D01*
X59262Y-26367D01*
X59261Y-26386D01*
X59261Y-26395D01*
X59259Y-26395D01*
X59259Y-26391D01*
X59256Y-26369D01*
X59209Y-26369D01*
X59162Y-26369D01*
X59162Y-26348D01*
X59163Y-26334D01*
X59166Y-26327D01*
X59166Y-26327D01*
X59170Y-26332D01*
X59171Y-26343D01*
X59171Y-26352D01*
X59174Y-26357D01*
X59183Y-26359D01*
X59199Y-26360D01*
X59213Y-26360D01*
X59254Y-26360D01*
X59256Y-26331D01*
X59258Y-26303D01*
X59284Y-26303D01*
X59301Y-26303D01*
X59309Y-26300D01*
X59311Y-26292D01*
X59311Y-26285D01*
X59313Y-26272D01*
X59319Y-26269D01*
X59319Y-26269D01*
X59319Y-26269D01*
G37*
G36*
X59453Y-25916D02*
X59457Y-25925D01*
X59459Y-25942D01*
X59459Y-25945D01*
X59458Y-25965D01*
X59454Y-25974D01*
X59447Y-25973D01*
X59443Y-25966D01*
X59438Y-25961D01*
X59427Y-25959D01*
X59410Y-25958D01*
X59388Y-25958D01*
X59364Y-25960D01*
X59348Y-25961D01*
X59339Y-25965D01*
X59333Y-25970D01*
X59329Y-25976D01*
X59324Y-25989D01*
X59326Y-25998D01*
X59328Y-26001D01*
X59334Y-26006D01*
X59346Y-26009D01*
X59364Y-26010D01*
X59391Y-26011D01*
X59398Y-26011D01*
X59459Y-26011D01*
X59459Y-26029D01*
X59456Y-26043D01*
X59450Y-26047D01*
X59442Y-26042D01*
X59441Y-26038D01*
X59439Y-26033D01*
X59431Y-26030D01*
X59415Y-26029D01*
X59394Y-26029D01*
X59369Y-26029D01*
X59353Y-26031D01*
X59342Y-26035D01*
X59335Y-26041D01*
X59325Y-26053D01*
X59324Y-26063D01*
X59326Y-26073D01*
X59330Y-26077D01*
X59338Y-26080D01*
X59353Y-26082D01*
X59376Y-26082D01*
X59395Y-26082D01*
X59459Y-26082D01*
X59459Y-26100D01*
X59457Y-26114D01*
X59452Y-26121D01*
X59446Y-26120D01*
X59443Y-26113D01*
X59435Y-26103D01*
X59425Y-26100D01*
X59416Y-26101D01*
X59415Y-26103D01*
X59422Y-26110D01*
X59429Y-26116D01*
X59452Y-26142D01*
X59463Y-26172D01*
X59464Y-26205D01*
X59457Y-26230D01*
X59449Y-26247D01*
X59440Y-26258D01*
X59433Y-26261D01*
X59432Y-26260D01*
X59431Y-26252D01*
X59435Y-26238D01*
X59437Y-26232D01*
X59447Y-26199D01*
X59446Y-26171D01*
X59434Y-26147D01*
X59427Y-26138D01*
X59412Y-26125D01*
X59401Y-26118D01*
X59401Y-26118D01*
X59367Y-26118D01*
X59353Y-26124D01*
X59339Y-26137D01*
X59329Y-26156D01*
X59323Y-26176D01*
X59323Y-26181D01*
X59327Y-26201D01*
X59336Y-26220D01*
X59349Y-26235D01*
X59364Y-26243D01*
X59367Y-26244D01*
X59369Y-26238D01*
X59370Y-26223D01*
X59370Y-26201D01*
X59371Y-26181D01*
X59370Y-26155D01*
X59370Y-26135D01*
X59368Y-26121D01*
X59367Y-26118D01*
X59401Y-26118D01*
X59395Y-26120D01*
X59391Y-26130D01*
X59389Y-26150D01*
X59389Y-26181D01*
X59389Y-26190D01*
X59388Y-26220D01*
X59388Y-26240D01*
X59387Y-26252D01*
X59384Y-26259D01*
X59380Y-26261D01*
X59375Y-26261D01*
X59353Y-26256D01*
X59332Y-26241D01*
X59316Y-26220D01*
X59307Y-26195D01*
X59305Y-26181D01*
X59310Y-26154D01*
X59323Y-26130D01*
X59342Y-26113D01*
X59342Y-26112D01*
X59362Y-26100D01*
X59345Y-26100D01*
X59328Y-26096D01*
X59314Y-26084D01*
X59306Y-26069D01*
X59306Y-26054D01*
X59314Y-26041D01*
X59322Y-26028D01*
X59319Y-26016D01*
X59313Y-26010D01*
X59307Y-25999D01*
X59308Y-25984D01*
X59310Y-25966D01*
X59311Y-25945D01*
X59311Y-25941D01*
X59312Y-25924D01*
X59317Y-25916D01*
X59322Y-25917D01*
X59327Y-25927D01*
X59330Y-25933D01*
X59335Y-25936D01*
X59346Y-25938D01*
X59365Y-25939D01*
X59385Y-25939D01*
X59411Y-25939D01*
X59427Y-25938D01*
X59437Y-25936D01*
X59441Y-25932D01*
X59443Y-25927D01*
X59448Y-25916D01*
X59453Y-25916D01*
X59453Y-25916D01*
X59453Y-25916D01*
G37*
G36*
X59384Y-25772D02*
X59411Y-25778D01*
X59431Y-25790D01*
X59385Y-25790D01*
X59364Y-25795D01*
X59344Y-25808D01*
X59329Y-25827D01*
X59323Y-25847D01*
X59323Y-25849D01*
X59328Y-25876D01*
X59341Y-25897D01*
X59359Y-25911D01*
X59381Y-25917D01*
X59403Y-25915D01*
X59424Y-25904D01*
X59435Y-25893D01*
X59446Y-25870D01*
X59447Y-25846D01*
X59436Y-25822D01*
X59427Y-25810D01*
X59410Y-25797D01*
X59396Y-25791D01*
X59385Y-25790D01*
X59431Y-25790D01*
X59434Y-25792D01*
X59451Y-25813D01*
X59462Y-25837D01*
X59464Y-25864D01*
X59457Y-25890D01*
X59454Y-25896D01*
X59434Y-25917D01*
X59410Y-25930D01*
X59386Y-25933D01*
X59360Y-25929D01*
X59337Y-25917D01*
X59319Y-25898D01*
X59308Y-25873D01*
X59305Y-25851D01*
X59310Y-25828D01*
X59325Y-25805D01*
X59345Y-25787D01*
X59368Y-25775D01*
X59384Y-25772D01*
X59384Y-25772D01*
X59384Y-25772D01*
G37*
G36*
X59450Y-25614D02*
X59453Y-25620D01*
X59455Y-25636D01*
X59457Y-25660D01*
X59458Y-25682D01*
X59458Y-25712D01*
X59458Y-25732D01*
X59456Y-25743D01*
X59453Y-25747D01*
X59452Y-25747D01*
X59447Y-25740D01*
X59443Y-25722D01*
X59442Y-25711D01*
X59441Y-25677D01*
X59403Y-25677D01*
X59382Y-25677D01*
X59369Y-25680D01*
X59359Y-25685D01*
X59349Y-25696D01*
X59349Y-25696D01*
X59333Y-25717D01*
X59326Y-25733D01*
X59326Y-25747D01*
X59331Y-25757D01*
X59336Y-25770D01*
X59334Y-25776D01*
X59325Y-25774D01*
X59316Y-25766D01*
X59308Y-25746D01*
X59311Y-25724D01*
X59325Y-25698D01*
X59326Y-25697D01*
X59341Y-25677D01*
X59326Y-25677D01*
X59317Y-25676D01*
X59312Y-25670D01*
X59311Y-25658D01*
X59311Y-25650D01*
X59312Y-25632D01*
X59316Y-25624D01*
X59320Y-25623D01*
X59327Y-25628D01*
X59329Y-25641D01*
X59329Y-25659D01*
X59385Y-25659D01*
X59440Y-25659D01*
X59442Y-25637D01*
X59445Y-25622D01*
X59449Y-25614D01*
X59450Y-25614D01*
X59450Y-25614D01*
X59450Y-25614D01*
G37*
G36*
X59206Y-24837D02*
X59215Y-24839D01*
X59231Y-24844D01*
X59254Y-24852D01*
X59280Y-24861D01*
X59307Y-24871D01*
X59333Y-24880D01*
X59344Y-24884D01*
X59354Y-24892D01*
X59365Y-24907D01*
X59367Y-24912D01*
X59376Y-24927D01*
X59389Y-24949D01*
X59403Y-24973D01*
X59410Y-24984D01*
X59424Y-25007D01*
X59436Y-25028D01*
X59445Y-25044D01*
X59447Y-25049D01*
X59450Y-25062D01*
X59452Y-25083D01*
X59452Y-25107D01*
X59452Y-25131D01*
X59450Y-25150D01*
X59450Y-25153D01*
X59448Y-25164D01*
X59445Y-25182D01*
X59444Y-25189D01*
X59441Y-25215D01*
X59400Y-25222D01*
X59373Y-25227D01*
X59353Y-25229D01*
X59337Y-25227D01*
X59322Y-25222D01*
X59306Y-25211D01*
X59286Y-25196D01*
X59262Y-25174D01*
X59232Y-25146D01*
X59209Y-25122D01*
X59195Y-25105D01*
X59192Y-25098D01*
X59187Y-25084D01*
X59180Y-25063D01*
X59171Y-25036D01*
X59164Y-25013D01*
X59143Y-24947D01*
X59171Y-24892D01*
X59183Y-24869D01*
X59194Y-24851D01*
X59203Y-24839D01*
X59206Y-24837D01*
X59206Y-24837D01*
X59206Y-24837D01*
G37*
G36*
X59210Y-26651D02*
X59218Y-26652D01*
X59239Y-26661D01*
X59195Y-26661D01*
X59195Y-26661D01*
X59185Y-26666D01*
X59176Y-26679D01*
X59169Y-26696D01*
X59168Y-26709D01*
X59172Y-26725D01*
X59181Y-26740D01*
X59193Y-26749D01*
X59199Y-26751D01*
X59203Y-26747D01*
X59205Y-26735D01*
X59205Y-26713D01*
X59205Y-26706D01*
X59203Y-26681D01*
X59200Y-26666D01*
X59195Y-26661D01*
X59239Y-26661D01*
X59242Y-26662D01*
X59258Y-26680D01*
X59266Y-26704D01*
X59264Y-26732D01*
X59263Y-26737D01*
X59257Y-26750D01*
X59251Y-26756D01*
X59251Y-26756D01*
X59248Y-26752D01*
X59251Y-26745D01*
X59257Y-26724D01*
X59256Y-26701D01*
X59249Y-26681D01*
X59243Y-26674D01*
X59231Y-26664D01*
X59223Y-26662D01*
X59218Y-26669D01*
X59216Y-26686D01*
X59215Y-26708D01*
X59215Y-26731D01*
X59213Y-26749D01*
X59211Y-26758D01*
X59210Y-26759D01*
X59202Y-26758D01*
X59190Y-26752D01*
X59185Y-26749D01*
X59172Y-26738D01*
X59166Y-26726D01*
X59163Y-26708D01*
X59163Y-26690D01*
X59167Y-26678D01*
X59178Y-26667D01*
X59181Y-26664D01*
X59196Y-26654D01*
X59210Y-26651D01*
X59210Y-26651D01*
X59210Y-26651D01*
G37*
G36*
X59220Y-26424D02*
X59237Y-26433D01*
X59208Y-26433D01*
X59198Y-26435D01*
X59180Y-26447D01*
X59171Y-26464D01*
X59169Y-26483D01*
X59174Y-26501D01*
X59186Y-26515D01*
X59205Y-26523D01*
X59213Y-26524D01*
X59234Y-26519D01*
X59249Y-26505D01*
X59257Y-26485D01*
X59256Y-26462D01*
X59253Y-26455D01*
X59243Y-26444D01*
X59227Y-26436D01*
X59208Y-26433D01*
X59237Y-26433D01*
X59239Y-26434D01*
X59249Y-26443D01*
X59261Y-26456D01*
X59268Y-26465D01*
X59268Y-26468D01*
X59267Y-26477D01*
X59265Y-26488D01*
X59256Y-26509D01*
X59239Y-26523D01*
X59218Y-26530D01*
X59196Y-26527D01*
X59178Y-26518D01*
X59167Y-26506D01*
X59162Y-26492D01*
X59162Y-26479D01*
X59163Y-26460D01*
X59170Y-26448D01*
X59180Y-26438D01*
X59201Y-26425D01*
X59220Y-26424D01*
X59220Y-26424D01*
X59220Y-26424D01*
G37*
G36*
X59232Y-26081D02*
X59243Y-26082D01*
X59248Y-26084D01*
X59256Y-26090D01*
X59242Y-26090D01*
X59227Y-26091D01*
X59218Y-26100D01*
X59213Y-26119D01*
X59213Y-26131D01*
X59213Y-26150D01*
X59216Y-26160D01*
X59222Y-26164D01*
X59224Y-26165D01*
X59237Y-26162D01*
X59248Y-26150D01*
X59255Y-26132D01*
X59256Y-26115D01*
X59253Y-26099D01*
X59248Y-26091D01*
X59242Y-26090D01*
X59256Y-26090D01*
X59260Y-26094D01*
X59268Y-26108D01*
X59268Y-26118D01*
X59267Y-26126D01*
X59265Y-26133D01*
X59259Y-26147D01*
X59255Y-26154D01*
X59251Y-26161D01*
X59256Y-26164D01*
X59261Y-26172D01*
X59263Y-26180D01*
X59261Y-26188D01*
X59260Y-26184D01*
X59259Y-26182D01*
X59255Y-26176D01*
X59247Y-26173D01*
X59230Y-26172D01*
X59219Y-26172D01*
X59191Y-26170D01*
X59173Y-26164D01*
X59164Y-26152D01*
X59161Y-26133D01*
X59162Y-26118D01*
X59165Y-26104D01*
X59168Y-26098D01*
X59171Y-26099D01*
X59171Y-26111D01*
X59170Y-26121D01*
X59168Y-26139D01*
X59170Y-26150D01*
X59176Y-26157D01*
X59177Y-26158D01*
X59190Y-26165D01*
X59198Y-26164D01*
X59203Y-26152D01*
X59204Y-26134D01*
X59204Y-26113D01*
X59208Y-26101D01*
X59216Y-26092D01*
X59219Y-26089D01*
X59232Y-26081D01*
X59232Y-26081D01*
X59232Y-26081D01*
G37*
G36*
X59215Y-25855D02*
X59235Y-25859D01*
X59252Y-25871D01*
X59263Y-25890D01*
X59266Y-25901D01*
X59266Y-25919D01*
X59261Y-25937D01*
X59253Y-25951D01*
X59246Y-25960D01*
X59246Y-25960D01*
X59240Y-25961D01*
X59241Y-25955D01*
X59248Y-25943D01*
X59249Y-25943D01*
X59256Y-25924D01*
X59256Y-25902D01*
X59249Y-25881D01*
X59243Y-25875D01*
X59224Y-25864D01*
X59203Y-25864D01*
X59183Y-25874D01*
X59171Y-25891D01*
X59168Y-25911D01*
X59173Y-25931D01*
X59180Y-25939D01*
X59190Y-25950D01*
X59190Y-25956D01*
X59180Y-25957D01*
X59176Y-25957D01*
X59166Y-25956D01*
X59165Y-25952D01*
X59167Y-25949D01*
X59171Y-25940D01*
X59168Y-25936D01*
X59164Y-25929D01*
X59162Y-25914D01*
X59162Y-25909D01*
X59166Y-25885D01*
X59179Y-25868D01*
X59196Y-25858D01*
X59215Y-25855D01*
X59215Y-25855D01*
X59215Y-25855D01*
G37*
G36*
X59208Y-25737D02*
X59217Y-25738D01*
X59240Y-25745D01*
X59241Y-25746D01*
X59212Y-25746D01*
X59191Y-25751D01*
X59176Y-25764D01*
X59168Y-25781D01*
X59169Y-25801D01*
X59180Y-25820D01*
X59182Y-25823D01*
X59201Y-25836D01*
X59222Y-25836D01*
X59242Y-25825D01*
X59254Y-25809D01*
X59258Y-25789D01*
X59254Y-25769D01*
X59245Y-25757D01*
X59229Y-25749D01*
X59212Y-25746D01*
X59241Y-25746D01*
X59256Y-25760D01*
X59263Y-25775D01*
X59268Y-25789D01*
X59268Y-25799D01*
X59263Y-25812D01*
X59263Y-25812D01*
X59250Y-25829D01*
X59230Y-25841D01*
X59211Y-25844D01*
X59189Y-25839D01*
X59173Y-25825D01*
X59163Y-25807D01*
X59161Y-25786D01*
X59167Y-25764D01*
X59178Y-25751D01*
X59193Y-25740D01*
X59208Y-25737D01*
X59208Y-25737D01*
X59208Y-25737D01*
G37*
G36*
X59246Y-25629D02*
X59258Y-25633D01*
X59262Y-25640D01*
X59263Y-25652D01*
X59266Y-25670D01*
X59266Y-25672D01*
X59266Y-25690D01*
X59260Y-25705D01*
X59256Y-25710D01*
X59241Y-25721D01*
X59227Y-25721D01*
X59215Y-25711D01*
X59207Y-25694D01*
X59204Y-25671D01*
X59200Y-25655D01*
X59192Y-25645D01*
X59181Y-25644D01*
X59177Y-25647D01*
X59169Y-25660D01*
X59168Y-25678D01*
X59173Y-25696D01*
X59181Y-25706D01*
X59194Y-25718D01*
X59179Y-25718D01*
X59171Y-25718D01*
X59166Y-25714D01*
X59165Y-25704D01*
X59164Y-25685D01*
X59164Y-25682D01*
X59166Y-25660D01*
X59169Y-25646D01*
X59175Y-25639D01*
X59175Y-25639D01*
X59189Y-25635D01*
X59200Y-25644D01*
X59209Y-25663D01*
X59213Y-25676D01*
X59218Y-25697D01*
X59223Y-25708D01*
X59229Y-25712D01*
X59239Y-25711D01*
X59242Y-25710D01*
X59251Y-25707D01*
X59256Y-25700D01*
X59257Y-25686D01*
X59257Y-25677D01*
X59256Y-25657D01*
X59252Y-25645D01*
X59244Y-25638D01*
X59231Y-25629D01*
X59246Y-25629D01*
X59246Y-25629D01*
X59246Y-25629D01*
G37*
G36*
X59247Y-25516D02*
X59258Y-25517D01*
X59261Y-25521D01*
X59260Y-25529D01*
X59262Y-25544D01*
X59263Y-25547D01*
X59263Y-25574D01*
X59260Y-25587D01*
X59251Y-25601D01*
X59239Y-25605D01*
X59237Y-25605D01*
X59223Y-25602D01*
X59213Y-25591D01*
X59207Y-25571D01*
X59206Y-25565D01*
X59201Y-25543D01*
X59195Y-25531D01*
X59187Y-25529D01*
X59181Y-25531D01*
X59173Y-25543D01*
X59169Y-25560D01*
X59170Y-25577D01*
X59176Y-25589D01*
X59185Y-25599D01*
X59183Y-25603D01*
X59177Y-25603D01*
X59171Y-25598D01*
X59166Y-25585D01*
X59162Y-25567D01*
X59162Y-25550D01*
X59163Y-25542D01*
X59170Y-25529D01*
X59182Y-25523D01*
X59195Y-25525D01*
X59205Y-25535D01*
X59208Y-25546D01*
X59214Y-25575D01*
X59224Y-25593D01*
X59236Y-25599D01*
X59236Y-25599D01*
X59248Y-25596D01*
X59254Y-25586D01*
X59257Y-25567D01*
X59257Y-25557D01*
X59255Y-25539D01*
X59246Y-25527D01*
X59244Y-25525D01*
X59231Y-25516D01*
X59247Y-25516D01*
X59247Y-25516D01*
X59247Y-25516D01*
G37*
G36*
X59237Y-25391D02*
X59251Y-25395D01*
X59255Y-25401D01*
X59232Y-25401D01*
X59220Y-25409D01*
X59212Y-25425D01*
X59210Y-25447D01*
X59211Y-25467D01*
X59217Y-25477D01*
X59228Y-25478D01*
X59233Y-25477D01*
X59245Y-25468D01*
X59253Y-25452D01*
X59257Y-25434D01*
X59255Y-25416D01*
X59248Y-25404D01*
X59246Y-25402D01*
X59232Y-25401D01*
X59255Y-25401D01*
X59261Y-25409D01*
X59265Y-25427D01*
X59263Y-25448D01*
X59260Y-25455D01*
X59256Y-25467D01*
X59257Y-25474D01*
X59258Y-25474D01*
X59261Y-25479D01*
X59263Y-25490D01*
X59261Y-25499D01*
X59259Y-25497D01*
X59259Y-25496D01*
X59255Y-25490D01*
X59247Y-25487D01*
X59230Y-25486D01*
X59219Y-25486D01*
X59192Y-25485D01*
X59176Y-25480D01*
X59171Y-25477D01*
X59165Y-25464D01*
X59162Y-25445D01*
X59163Y-25426D01*
X59167Y-25415D01*
X59170Y-25415D01*
X59170Y-25425D01*
X59169Y-25435D01*
X59168Y-25454D01*
X59171Y-25465D01*
X59177Y-25472D01*
X59189Y-25479D01*
X59197Y-25478D01*
X59202Y-25467D01*
X59205Y-25445D01*
X59205Y-25444D01*
X59210Y-25416D01*
X59220Y-25398D01*
X59235Y-25391D01*
X59237Y-25391D01*
X59237Y-25391D01*
X59237Y-25391D01*
G37*
G36*
X59163Y-26537D02*
X59166Y-26539D01*
X59168Y-26543D01*
X59178Y-26550D01*
X59195Y-26554D01*
X59216Y-26555D01*
X59236Y-26553D01*
X59251Y-26548D01*
X59257Y-26543D01*
X59261Y-26539D01*
X59262Y-26544D01*
X59262Y-26557D01*
X59261Y-26569D01*
X59260Y-26572D01*
X59259Y-26570D01*
X59255Y-26564D01*
X59246Y-26561D01*
X59228Y-26560D01*
X59221Y-26560D01*
X59200Y-26560D01*
X59188Y-26563D01*
X59179Y-26570D01*
X59177Y-26573D01*
X59169Y-26591D01*
X59169Y-26608D01*
X59176Y-26619D01*
X59187Y-26623D01*
X59205Y-26626D01*
X59225Y-26626D01*
X59243Y-26624D01*
X59256Y-26621D01*
X59258Y-26619D01*
X59261Y-26617D01*
X59263Y-26627D01*
X59263Y-26631D01*
X59262Y-26643D01*
X59260Y-26646D01*
X59259Y-26645D01*
X59251Y-26640D01*
X59233Y-26637D01*
X59222Y-26637D01*
X59193Y-26635D01*
X59174Y-26627D01*
X59164Y-26613D01*
X59162Y-26599D01*
X59164Y-26583D01*
X59169Y-26572D01*
X59174Y-26565D01*
X59169Y-26561D01*
X59163Y-26554D01*
X59162Y-26546D01*
X59163Y-26537D01*
X59163Y-26537D01*
X59163Y-26537D01*
G37*
G36*
X59258Y-26208D02*
X59261Y-26213D01*
X59263Y-26227D01*
X59263Y-26245D01*
X59263Y-26264D01*
X59260Y-26281D01*
X59257Y-26291D01*
X59255Y-26293D01*
X59244Y-26293D01*
X59239Y-26291D01*
X59235Y-26287D01*
X59242Y-26285D01*
X59244Y-26285D01*
X59252Y-26284D01*
X59256Y-26279D01*
X59257Y-26267D01*
X59257Y-26252D01*
X59257Y-26234D01*
X59255Y-26223D01*
X59254Y-26220D01*
X59248Y-26223D01*
X59235Y-26233D01*
X59219Y-26248D01*
X59210Y-26255D01*
X59191Y-26271D01*
X59176Y-26283D01*
X59167Y-26290D01*
X59166Y-26291D01*
X59164Y-26286D01*
X59162Y-26271D01*
X59162Y-26251D01*
X59162Y-26249D01*
X59162Y-26228D01*
X59163Y-26215D01*
X59166Y-26210D01*
X59173Y-26208D01*
X59178Y-26208D01*
X59189Y-26209D01*
X59189Y-26210D01*
X59181Y-26214D01*
X59173Y-26219D01*
X59169Y-26229D01*
X59168Y-26246D01*
X59169Y-26262D01*
X59172Y-26272D01*
X59174Y-26273D01*
X59180Y-26270D01*
X59193Y-26260D01*
X59210Y-26245D01*
X59216Y-26240D01*
X59234Y-26225D01*
X59248Y-26214D01*
X59257Y-26208D01*
X59258Y-26208D01*
X59258Y-26208D01*
X59258Y-26208D01*
G37*
G36*
X59164Y-25984D02*
X59166Y-25992D01*
X59167Y-25996D01*
X59169Y-26005D01*
X59174Y-26011D01*
X59183Y-26014D01*
X59200Y-26015D01*
X59214Y-26016D01*
X59256Y-26017D01*
X59259Y-25995D01*
X59260Y-25990D01*
X59261Y-25996D01*
X59261Y-26011D01*
X59261Y-26023D01*
X59261Y-26045D01*
X59260Y-26056D01*
X59259Y-26055D01*
X59258Y-26050D01*
X59254Y-26026D01*
X59208Y-26024D01*
X59162Y-26022D01*
X59162Y-26000D01*
X59163Y-25986D01*
X59164Y-25984D01*
X59164Y-25984D01*
X59164Y-25984D01*
G37*
G36*
X59123Y-26357D02*
X59131Y-26360D01*
X59132Y-26363D01*
X59127Y-26368D01*
X59123Y-26369D01*
X59115Y-26366D01*
X59114Y-26363D01*
X59119Y-26358D01*
X59123Y-26357D01*
X59123Y-26357D01*
X59123Y-26357D01*
G37*
G36*
X59123Y-26011D02*
X59131Y-26014D01*
X59132Y-26017D01*
X59127Y-26022D01*
X59123Y-26023D01*
X59115Y-26020D01*
X59114Y-26017D01*
X59119Y-26012D01*
X59123Y-26011D01*
X59123Y-26011D01*
X59123Y-26011D01*
G37*
M02*
