G04 (created by PCBNEW (2014-01-10 BZR 4027)-stable) date sab 21 mar 2015 15:48:28 CET*
%MOIN*%
G04 Gerber Fmt 3.4, Leading zero omitted, Abs format*
%FSLAX34Y34*%
G01*
G70*
G90*
G04 APERTURE LIST*
%ADD10C,0.00590551*%
%ADD11R,0.02X0.045*%
%ADD12R,0.045X0.025*%
%ADD13R,0.025X0.045*%
%ADD14R,0.2085X0.0787*%
%ADD15R,0.055X0.055*%
%ADD16C,0.055*%
%ADD17C,0.0912598*%
%ADD18C,0.035*%
%ADD19C,0.027126*%
%ADD20C,0.019252*%
%ADD21C,0.01*%
G04 APERTURE END LIST*
G54D10*
G54D11*
X56450Y-23150D03*
X56950Y-23150D03*
X57450Y-23150D03*
X57950Y-23150D03*
X57950Y-25650D03*
X57450Y-25650D03*
X56950Y-25650D03*
X56450Y-25650D03*
G54D12*
X57400Y-21900D03*
X57400Y-22500D03*
X59600Y-21900D03*
X59600Y-22500D03*
X58600Y-24300D03*
X58600Y-24900D03*
X58400Y-22500D03*
X58400Y-21900D03*
G54D13*
X55300Y-22000D03*
X55900Y-22000D03*
X55100Y-25800D03*
X55700Y-25800D03*
G54D12*
X58600Y-23700D03*
X58600Y-23100D03*
X56600Y-22500D03*
X56600Y-21900D03*
G54D13*
X55300Y-22600D03*
X55900Y-22600D03*
G54D14*
X55000Y-24888D03*
X55000Y-23512D03*
G54D15*
X57900Y-28000D03*
G54D16*
X56900Y-28000D03*
G54D15*
X57100Y-19600D03*
G54D16*
X56100Y-19600D03*
G54D17*
X59800Y-19600D03*
X54400Y-19600D03*
X59800Y-27800D03*
X54400Y-27800D03*
G54D18*
X56600Y-24800D03*
X55400Y-21400D03*
X57400Y-21200D03*
X59200Y-23000D03*
X57400Y-24000D03*
G54D19*
X55000Y-23512D02*
X56112Y-23512D01*
X57500Y-24900D02*
X58600Y-24900D01*
X56112Y-23512D02*
X57500Y-24900D01*
X55000Y-23512D02*
X55000Y-22900D01*
X55000Y-22900D02*
X55300Y-22600D01*
X55000Y-23512D02*
X54512Y-23512D01*
X56100Y-20300D02*
X56100Y-19600D01*
X55600Y-20800D02*
X56100Y-20300D01*
X55000Y-20800D02*
X55600Y-20800D01*
X54000Y-21800D02*
X55000Y-20800D01*
X54000Y-23000D02*
X54000Y-21800D01*
X54512Y-23512D02*
X54000Y-23000D01*
X56950Y-25650D02*
X56950Y-25150D01*
X56950Y-25150D02*
X56600Y-24800D01*
X57400Y-21900D02*
X57400Y-21200D01*
X55300Y-21500D02*
X55300Y-22000D01*
X55400Y-21400D02*
X55300Y-21500D01*
X57200Y-20400D02*
X58000Y-20400D01*
X58400Y-20800D02*
X58400Y-21900D01*
X58000Y-20400D02*
X58400Y-20800D01*
X57200Y-20800D02*
X57200Y-20400D01*
X57200Y-20400D02*
X57200Y-19700D01*
X57200Y-19700D02*
X57100Y-19600D01*
X56600Y-21900D02*
X56600Y-21000D01*
X56600Y-21000D02*
X56800Y-20800D01*
X56800Y-20800D02*
X57200Y-20800D01*
X57950Y-25650D02*
X58750Y-25650D01*
X58750Y-25650D02*
X60200Y-24200D01*
X60200Y-24200D02*
X60200Y-22000D01*
X60200Y-22000D02*
X60100Y-21900D01*
X60100Y-21900D02*
X59600Y-21900D01*
X55900Y-22000D02*
X56500Y-22000D01*
X56500Y-22000D02*
X56600Y-21900D01*
G54D20*
X55900Y-22600D02*
X55900Y-22000D01*
G54D19*
X58400Y-21900D02*
X59600Y-21900D01*
X57950Y-25650D02*
X57950Y-27950D01*
X57950Y-27950D02*
X57900Y-28000D01*
G54D20*
X57450Y-23150D02*
X57450Y-23950D01*
X59100Y-23100D02*
X58600Y-23100D01*
X59200Y-23000D02*
X59100Y-23100D01*
X57450Y-23950D02*
X57400Y-24000D01*
G54D19*
X58600Y-24300D02*
X58100Y-24300D01*
X57950Y-24150D02*
X57950Y-23150D01*
X58100Y-24300D02*
X57950Y-24150D01*
X57950Y-23150D02*
X57950Y-22950D01*
X57950Y-22950D02*
X58400Y-22500D01*
X55100Y-25800D02*
X55100Y-26100D01*
X57450Y-26150D02*
X57450Y-25650D01*
X57200Y-26400D02*
X57450Y-26150D01*
X55400Y-26400D02*
X57200Y-26400D01*
X55100Y-26100D02*
X55400Y-26400D01*
X55100Y-25800D02*
X55100Y-24988D01*
X55100Y-24988D02*
X55000Y-24888D01*
X56450Y-23150D02*
X56450Y-22650D01*
X56450Y-22650D02*
X56600Y-22500D01*
G54D20*
X56950Y-23150D02*
X56950Y-22850D01*
X57300Y-22500D02*
X57400Y-22500D01*
X56950Y-22850D02*
X57300Y-22500D01*
X55700Y-25800D02*
X56200Y-25800D01*
X56400Y-25600D02*
X56450Y-25650D01*
X56200Y-25800D02*
X56400Y-25600D01*
X58600Y-23700D02*
X59100Y-23700D01*
X59600Y-23200D02*
X59600Y-22500D01*
X59100Y-23700D02*
X59600Y-23200D01*
G54D10*
G36*
X60640Y-28640D02*
X60582Y-28640D01*
X60582Y-27645D01*
X60582Y-19445D01*
X60463Y-19157D01*
X60243Y-18937D01*
X59956Y-18817D01*
X59645Y-18817D01*
X59357Y-18936D01*
X59137Y-19156D01*
X59017Y-19443D01*
X59017Y-19754D01*
X59136Y-20042D01*
X59356Y-20262D01*
X59643Y-20382D01*
X59954Y-20382D01*
X60242Y-20263D01*
X60462Y-20043D01*
X60582Y-19756D01*
X60582Y-19445D01*
X60582Y-27645D01*
X60463Y-27357D01*
X60243Y-27137D01*
X60075Y-27067D01*
X60075Y-22074D01*
X60075Y-21725D01*
X60037Y-21633D01*
X59966Y-21563D01*
X59874Y-21525D01*
X59775Y-21524D01*
X59712Y-21525D01*
X59650Y-21587D01*
X59650Y-21850D01*
X60012Y-21850D01*
X60075Y-21787D01*
X60075Y-21725D01*
X60075Y-22074D01*
X60075Y-22012D01*
X60012Y-21950D01*
X59650Y-21950D01*
X59650Y-21957D01*
X59550Y-21957D01*
X59550Y-21950D01*
X59550Y-21850D01*
X59550Y-21587D01*
X59487Y-21525D01*
X59424Y-21524D01*
X59325Y-21525D01*
X59233Y-21563D01*
X59162Y-21633D01*
X59124Y-21725D01*
X59125Y-21787D01*
X59187Y-21850D01*
X59550Y-21850D01*
X59550Y-21950D01*
X59187Y-21950D01*
X59125Y-22012D01*
X59124Y-22074D01*
X59162Y-22166D01*
X59233Y-22236D01*
X59281Y-22256D01*
X59247Y-22289D01*
X59225Y-22345D01*
X59224Y-22404D01*
X59224Y-22654D01*
X59233Y-22675D01*
X59135Y-22674D01*
X59016Y-22724D01*
X58924Y-22815D01*
X58910Y-22848D01*
X58910Y-22847D01*
X58854Y-22825D01*
X58795Y-22824D01*
X58478Y-22824D01*
X58528Y-22775D01*
X58654Y-22775D01*
X58709Y-22752D01*
X58752Y-22710D01*
X58774Y-22654D01*
X58775Y-22595D01*
X58775Y-22345D01*
X58752Y-22290D01*
X58718Y-22256D01*
X58766Y-22236D01*
X58837Y-22166D01*
X58875Y-22074D01*
X58875Y-21725D01*
X58837Y-21633D01*
X58766Y-21563D01*
X58674Y-21525D01*
X58575Y-21524D01*
X58512Y-21525D01*
X58450Y-21587D01*
X58450Y-21850D01*
X58812Y-21850D01*
X58875Y-21787D01*
X58875Y-21725D01*
X58875Y-22074D01*
X58875Y-22012D01*
X58812Y-21950D01*
X58450Y-21950D01*
X58450Y-21957D01*
X58350Y-21957D01*
X58350Y-21950D01*
X58350Y-21850D01*
X58350Y-21587D01*
X58287Y-21525D01*
X58224Y-21524D01*
X58125Y-21525D01*
X58033Y-21563D01*
X57962Y-21633D01*
X57924Y-21725D01*
X57925Y-21787D01*
X57987Y-21850D01*
X58350Y-21850D01*
X58350Y-21950D01*
X57987Y-21950D01*
X57925Y-22012D01*
X57924Y-22074D01*
X57962Y-22166D01*
X58033Y-22236D01*
X58081Y-22256D01*
X58047Y-22289D01*
X58025Y-22345D01*
X58024Y-22404D01*
X58024Y-22471D01*
X57748Y-22748D01*
X57686Y-22840D01*
X57683Y-22854D01*
X57677Y-22840D01*
X57635Y-22797D01*
X57579Y-22775D01*
X57654Y-22775D01*
X57709Y-22752D01*
X57752Y-22710D01*
X57774Y-22654D01*
X57775Y-22595D01*
X57775Y-22345D01*
X57752Y-22290D01*
X57710Y-22247D01*
X57654Y-22225D01*
X57595Y-22224D01*
X57145Y-22224D01*
X57090Y-22247D01*
X57047Y-22289D01*
X57025Y-22345D01*
X57024Y-22404D01*
X57024Y-22426D01*
X56975Y-22476D01*
X56975Y-22345D01*
X56952Y-22290D01*
X56918Y-22256D01*
X56966Y-22236D01*
X57037Y-22166D01*
X57056Y-22118D01*
X57089Y-22152D01*
X57145Y-22174D01*
X57204Y-22175D01*
X57346Y-22175D01*
X57400Y-22185D01*
X57453Y-22175D01*
X57654Y-22175D01*
X57709Y-22152D01*
X57752Y-22110D01*
X57774Y-22054D01*
X57775Y-21995D01*
X57775Y-21745D01*
X57752Y-21690D01*
X57710Y-21647D01*
X57685Y-21637D01*
X57685Y-21359D01*
X57724Y-21264D01*
X57725Y-21135D01*
X57675Y-21016D01*
X57625Y-20965D01*
X57625Y-19825D01*
X57625Y-19374D01*
X57624Y-19275D01*
X57586Y-19183D01*
X57516Y-19112D01*
X57424Y-19074D01*
X57212Y-19075D01*
X57150Y-19137D01*
X57150Y-19550D01*
X57562Y-19550D01*
X57625Y-19487D01*
X57625Y-19374D01*
X57625Y-19825D01*
X57625Y-19712D01*
X57562Y-19650D01*
X57150Y-19650D01*
X57150Y-20062D01*
X57212Y-20125D01*
X57424Y-20125D01*
X57516Y-20087D01*
X57586Y-20016D01*
X57624Y-19924D01*
X57625Y-19825D01*
X57625Y-20965D01*
X57584Y-20924D01*
X57464Y-20875D01*
X57335Y-20874D01*
X57216Y-20924D01*
X57124Y-21015D01*
X57075Y-21135D01*
X57074Y-21264D01*
X57114Y-21359D01*
X57114Y-21637D01*
X57090Y-21647D01*
X57056Y-21681D01*
X57050Y-21664D01*
X57050Y-20062D01*
X57050Y-19650D01*
X57050Y-19550D01*
X57050Y-19137D01*
X56987Y-19075D01*
X56775Y-19074D01*
X56683Y-19112D01*
X56613Y-19183D01*
X56575Y-19275D01*
X56574Y-19374D01*
X56575Y-19487D01*
X56637Y-19550D01*
X57050Y-19550D01*
X57050Y-19650D01*
X56637Y-19650D01*
X56575Y-19712D01*
X56574Y-19825D01*
X56575Y-19924D01*
X56613Y-20016D01*
X56683Y-20087D01*
X56775Y-20125D01*
X56987Y-20125D01*
X57050Y-20062D01*
X57050Y-21664D01*
X57037Y-21633D01*
X56966Y-21563D01*
X56874Y-21525D01*
X56775Y-21524D01*
X56712Y-21525D01*
X56650Y-21587D01*
X56650Y-21850D01*
X56657Y-21850D01*
X56657Y-21950D01*
X56650Y-21950D01*
X56650Y-21957D01*
X56550Y-21957D01*
X56550Y-21950D01*
X56542Y-21950D01*
X56542Y-21850D01*
X56550Y-21850D01*
X56550Y-21587D01*
X56487Y-21525D01*
X56424Y-21524D01*
X56325Y-21525D01*
X56233Y-21563D01*
X56199Y-21596D01*
X56166Y-21562D01*
X56074Y-21524D01*
X56012Y-21525D01*
X55950Y-21587D01*
X55950Y-21950D01*
X55957Y-21950D01*
X55957Y-22050D01*
X55950Y-22050D01*
X55950Y-22187D01*
X55950Y-22412D01*
X55950Y-22550D01*
X55957Y-22550D01*
X55957Y-22650D01*
X55950Y-22650D01*
X55950Y-22657D01*
X55850Y-22657D01*
X55850Y-22650D01*
X55842Y-22650D01*
X55842Y-22550D01*
X55850Y-22550D01*
X55850Y-22412D01*
X55850Y-22187D01*
X55850Y-22050D01*
X55842Y-22050D01*
X55842Y-21950D01*
X55850Y-21950D01*
X55850Y-21587D01*
X55787Y-21525D01*
X55725Y-21524D01*
X55694Y-21537D01*
X55724Y-21464D01*
X55725Y-21335D01*
X55675Y-21216D01*
X55584Y-21124D01*
X55490Y-21085D01*
X55600Y-21085D01*
X55709Y-21063D01*
X55801Y-21001D01*
X56301Y-20501D01*
X56363Y-20409D01*
X56385Y-20300D01*
X56385Y-19915D01*
X56460Y-19841D01*
X56524Y-19684D01*
X56525Y-19515D01*
X56460Y-19359D01*
X56341Y-19239D01*
X56184Y-19175D01*
X56015Y-19174D01*
X55859Y-19239D01*
X55739Y-19358D01*
X55675Y-19515D01*
X55674Y-19684D01*
X55739Y-19840D01*
X55814Y-19915D01*
X55814Y-20181D01*
X55481Y-20514D01*
X55182Y-20514D01*
X55182Y-19445D01*
X55063Y-19157D01*
X54843Y-18937D01*
X54556Y-18817D01*
X54245Y-18817D01*
X53957Y-18936D01*
X53737Y-19156D01*
X53617Y-19443D01*
X53617Y-19754D01*
X53736Y-20042D01*
X53956Y-20262D01*
X54243Y-20382D01*
X54554Y-20382D01*
X54842Y-20263D01*
X55062Y-20043D01*
X55182Y-19756D01*
X55182Y-19445D01*
X55182Y-20514D01*
X55000Y-20514D01*
X54890Y-20536D01*
X54798Y-20598D01*
X53798Y-21598D01*
X53736Y-21690D01*
X53714Y-21800D01*
X53714Y-23000D01*
X53736Y-23109D01*
X53798Y-23201D01*
X53807Y-23211D01*
X53807Y-23935D01*
X53830Y-23990D01*
X53872Y-24032D01*
X53927Y-24055D01*
X53987Y-24055D01*
X56072Y-24055D01*
X56127Y-24032D01*
X56169Y-23990D01*
X56174Y-23978D01*
X56675Y-24479D01*
X56664Y-24475D01*
X56535Y-24474D01*
X56416Y-24524D01*
X56324Y-24615D01*
X56275Y-24735D01*
X56274Y-24864D01*
X56324Y-24983D01*
X56415Y-25075D01*
X56511Y-25114D01*
X56664Y-25268D01*
X56664Y-25327D01*
X56635Y-25297D01*
X56579Y-25275D01*
X56520Y-25274D01*
X56320Y-25274D01*
X56265Y-25297D01*
X56222Y-25339D01*
X56200Y-25395D01*
X56199Y-25451D01*
X56097Y-25553D01*
X55975Y-25553D01*
X55975Y-25545D01*
X55952Y-25490D01*
X55910Y-25447D01*
X55870Y-25431D01*
X56072Y-25431D01*
X56127Y-25408D01*
X56169Y-25366D01*
X56192Y-25311D01*
X56192Y-25251D01*
X56192Y-24464D01*
X56169Y-24409D01*
X56127Y-24367D01*
X56072Y-24344D01*
X56012Y-24344D01*
X53927Y-24344D01*
X53872Y-24367D01*
X53830Y-24409D01*
X53807Y-24464D01*
X53807Y-24524D01*
X53807Y-25311D01*
X53830Y-25366D01*
X53872Y-25408D01*
X53927Y-25431D01*
X53987Y-25431D01*
X54814Y-25431D01*
X54814Y-25800D01*
X54814Y-26100D01*
X54836Y-26209D01*
X54898Y-26301D01*
X55198Y-26601D01*
X55198Y-26601D01*
X55290Y-26663D01*
X55290Y-26663D01*
X55378Y-26681D01*
X55399Y-26685D01*
X55399Y-26685D01*
X55400Y-26685D01*
X57200Y-26685D01*
X57309Y-26663D01*
X57401Y-26601D01*
X57651Y-26351D01*
X57713Y-26259D01*
X57735Y-26150D01*
X57735Y-26098D01*
X57800Y-26125D01*
X57837Y-26125D01*
X57900Y-26062D01*
X57900Y-25700D01*
X57892Y-25700D01*
X57892Y-25600D01*
X57900Y-25600D01*
X57900Y-25592D01*
X58000Y-25592D01*
X58000Y-25600D01*
X58237Y-25600D01*
X58300Y-25537D01*
X58300Y-25474D01*
X58299Y-25375D01*
X58261Y-25283D01*
X58191Y-25212D01*
X58125Y-25185D01*
X58600Y-25185D01*
X58653Y-25175D01*
X58854Y-25175D01*
X58909Y-25152D01*
X58952Y-25110D01*
X58974Y-25054D01*
X58975Y-24995D01*
X58975Y-24745D01*
X58952Y-24690D01*
X58910Y-24647D01*
X58854Y-24625D01*
X58795Y-24624D01*
X58653Y-24624D01*
X58600Y-24614D01*
X57618Y-24614D01*
X57324Y-24320D01*
X57335Y-24324D01*
X57464Y-24325D01*
X57583Y-24275D01*
X57671Y-24187D01*
X57686Y-24259D01*
X57748Y-24351D01*
X57898Y-24501D01*
X57990Y-24563D01*
X58100Y-24585D01*
X58600Y-24585D01*
X58653Y-24575D01*
X58854Y-24575D01*
X58909Y-24552D01*
X58952Y-24510D01*
X58974Y-24454D01*
X58975Y-24395D01*
X58975Y-24145D01*
X58952Y-24090D01*
X58910Y-24047D01*
X58854Y-24025D01*
X58795Y-24024D01*
X58653Y-24024D01*
X58600Y-24014D01*
X58235Y-24014D01*
X58235Y-23880D01*
X58247Y-23909D01*
X58289Y-23952D01*
X58345Y-23974D01*
X58404Y-23975D01*
X58854Y-23975D01*
X58909Y-23952D01*
X58915Y-23946D01*
X59100Y-23946D01*
X59194Y-23927D01*
X59194Y-23927D01*
X59274Y-23874D01*
X59774Y-23374D01*
X59827Y-23294D01*
X59827Y-23294D01*
X59846Y-23200D01*
X59846Y-23200D01*
X59846Y-22775D01*
X59854Y-22775D01*
X59909Y-22752D01*
X59952Y-22710D01*
X59974Y-22654D01*
X59975Y-22595D01*
X59975Y-22345D01*
X59952Y-22290D01*
X59918Y-22256D01*
X59966Y-22236D01*
X60037Y-22166D01*
X60075Y-22074D01*
X60075Y-27067D01*
X59956Y-27017D01*
X59645Y-27017D01*
X59357Y-27136D01*
X59137Y-27356D01*
X59017Y-27643D01*
X59017Y-27954D01*
X59136Y-28242D01*
X59356Y-28462D01*
X59643Y-28582D01*
X59954Y-28582D01*
X60242Y-28463D01*
X60462Y-28243D01*
X60582Y-27956D01*
X60582Y-27645D01*
X60582Y-28640D01*
X58425Y-28640D01*
X58425Y-28225D01*
X58425Y-27774D01*
X58424Y-27675D01*
X58386Y-27583D01*
X58316Y-27512D01*
X58300Y-27506D01*
X58300Y-25825D01*
X58300Y-25762D01*
X58237Y-25700D01*
X58000Y-25700D01*
X58000Y-26062D01*
X58062Y-26125D01*
X58099Y-26125D01*
X58191Y-26087D01*
X58261Y-26016D01*
X58299Y-25924D01*
X58300Y-25825D01*
X58300Y-27506D01*
X58224Y-27474D01*
X58012Y-27475D01*
X57950Y-27537D01*
X57950Y-27950D01*
X58362Y-27950D01*
X58425Y-27887D01*
X58425Y-27774D01*
X58425Y-28225D01*
X58425Y-28112D01*
X58362Y-28050D01*
X57950Y-28050D01*
X57950Y-28462D01*
X58012Y-28525D01*
X58224Y-28525D01*
X58316Y-28487D01*
X58386Y-28416D01*
X58424Y-28324D01*
X58425Y-28225D01*
X58425Y-28640D01*
X57850Y-28640D01*
X57850Y-28462D01*
X57850Y-28050D01*
X57850Y-27950D01*
X57850Y-27537D01*
X57787Y-27475D01*
X57575Y-27474D01*
X57483Y-27512D01*
X57413Y-27583D01*
X57375Y-27675D01*
X57374Y-27774D01*
X57375Y-27887D01*
X57437Y-27950D01*
X57850Y-27950D01*
X57850Y-28050D01*
X57437Y-28050D01*
X57375Y-28112D01*
X57374Y-28225D01*
X57375Y-28324D01*
X57413Y-28416D01*
X57483Y-28487D01*
X57575Y-28525D01*
X57787Y-28525D01*
X57850Y-28462D01*
X57850Y-28640D01*
X57325Y-28640D01*
X57325Y-27915D01*
X57260Y-27759D01*
X57141Y-27639D01*
X56984Y-27575D01*
X56815Y-27574D01*
X56659Y-27639D01*
X56539Y-27758D01*
X56475Y-27915D01*
X56474Y-28084D01*
X56539Y-28240D01*
X56658Y-28360D01*
X56815Y-28424D01*
X56984Y-28425D01*
X57140Y-28360D01*
X57260Y-28241D01*
X57324Y-28084D01*
X57325Y-27915D01*
X57325Y-28640D01*
X55182Y-28640D01*
X55182Y-27645D01*
X55063Y-27357D01*
X54843Y-27137D01*
X54556Y-27017D01*
X54245Y-27017D01*
X53957Y-27136D01*
X53737Y-27356D01*
X53617Y-27643D01*
X53617Y-27954D01*
X53736Y-28242D01*
X53956Y-28462D01*
X54243Y-28582D01*
X54554Y-28582D01*
X54842Y-28463D01*
X55062Y-28243D01*
X55182Y-27956D01*
X55182Y-27645D01*
X55182Y-28640D01*
X53559Y-28640D01*
X53559Y-18759D01*
X60640Y-18759D01*
X60640Y-28640D01*
X60640Y-28640D01*
G37*
G54D21*
X60640Y-28640D02*
X60582Y-28640D01*
X60582Y-27645D01*
X60582Y-19445D01*
X60463Y-19157D01*
X60243Y-18937D01*
X59956Y-18817D01*
X59645Y-18817D01*
X59357Y-18936D01*
X59137Y-19156D01*
X59017Y-19443D01*
X59017Y-19754D01*
X59136Y-20042D01*
X59356Y-20262D01*
X59643Y-20382D01*
X59954Y-20382D01*
X60242Y-20263D01*
X60462Y-20043D01*
X60582Y-19756D01*
X60582Y-19445D01*
X60582Y-27645D01*
X60463Y-27357D01*
X60243Y-27137D01*
X60075Y-27067D01*
X60075Y-22074D01*
X60075Y-21725D01*
X60037Y-21633D01*
X59966Y-21563D01*
X59874Y-21525D01*
X59775Y-21524D01*
X59712Y-21525D01*
X59650Y-21587D01*
X59650Y-21850D01*
X60012Y-21850D01*
X60075Y-21787D01*
X60075Y-21725D01*
X60075Y-22074D01*
X60075Y-22012D01*
X60012Y-21950D01*
X59650Y-21950D01*
X59650Y-21957D01*
X59550Y-21957D01*
X59550Y-21950D01*
X59550Y-21850D01*
X59550Y-21587D01*
X59487Y-21525D01*
X59424Y-21524D01*
X59325Y-21525D01*
X59233Y-21563D01*
X59162Y-21633D01*
X59124Y-21725D01*
X59125Y-21787D01*
X59187Y-21850D01*
X59550Y-21850D01*
X59550Y-21950D01*
X59187Y-21950D01*
X59125Y-22012D01*
X59124Y-22074D01*
X59162Y-22166D01*
X59233Y-22236D01*
X59281Y-22256D01*
X59247Y-22289D01*
X59225Y-22345D01*
X59224Y-22404D01*
X59224Y-22654D01*
X59233Y-22675D01*
X59135Y-22674D01*
X59016Y-22724D01*
X58924Y-22815D01*
X58910Y-22848D01*
X58910Y-22847D01*
X58854Y-22825D01*
X58795Y-22824D01*
X58478Y-22824D01*
X58528Y-22775D01*
X58654Y-22775D01*
X58709Y-22752D01*
X58752Y-22710D01*
X58774Y-22654D01*
X58775Y-22595D01*
X58775Y-22345D01*
X58752Y-22290D01*
X58718Y-22256D01*
X58766Y-22236D01*
X58837Y-22166D01*
X58875Y-22074D01*
X58875Y-21725D01*
X58837Y-21633D01*
X58766Y-21563D01*
X58674Y-21525D01*
X58575Y-21524D01*
X58512Y-21525D01*
X58450Y-21587D01*
X58450Y-21850D01*
X58812Y-21850D01*
X58875Y-21787D01*
X58875Y-21725D01*
X58875Y-22074D01*
X58875Y-22012D01*
X58812Y-21950D01*
X58450Y-21950D01*
X58450Y-21957D01*
X58350Y-21957D01*
X58350Y-21950D01*
X58350Y-21850D01*
X58350Y-21587D01*
X58287Y-21525D01*
X58224Y-21524D01*
X58125Y-21525D01*
X58033Y-21563D01*
X57962Y-21633D01*
X57924Y-21725D01*
X57925Y-21787D01*
X57987Y-21850D01*
X58350Y-21850D01*
X58350Y-21950D01*
X57987Y-21950D01*
X57925Y-22012D01*
X57924Y-22074D01*
X57962Y-22166D01*
X58033Y-22236D01*
X58081Y-22256D01*
X58047Y-22289D01*
X58025Y-22345D01*
X58024Y-22404D01*
X58024Y-22471D01*
X57748Y-22748D01*
X57686Y-22840D01*
X57683Y-22854D01*
X57677Y-22840D01*
X57635Y-22797D01*
X57579Y-22775D01*
X57654Y-22775D01*
X57709Y-22752D01*
X57752Y-22710D01*
X57774Y-22654D01*
X57775Y-22595D01*
X57775Y-22345D01*
X57752Y-22290D01*
X57710Y-22247D01*
X57654Y-22225D01*
X57595Y-22224D01*
X57145Y-22224D01*
X57090Y-22247D01*
X57047Y-22289D01*
X57025Y-22345D01*
X57024Y-22404D01*
X57024Y-22426D01*
X56975Y-22476D01*
X56975Y-22345D01*
X56952Y-22290D01*
X56918Y-22256D01*
X56966Y-22236D01*
X57037Y-22166D01*
X57056Y-22118D01*
X57089Y-22152D01*
X57145Y-22174D01*
X57204Y-22175D01*
X57346Y-22175D01*
X57400Y-22185D01*
X57453Y-22175D01*
X57654Y-22175D01*
X57709Y-22152D01*
X57752Y-22110D01*
X57774Y-22054D01*
X57775Y-21995D01*
X57775Y-21745D01*
X57752Y-21690D01*
X57710Y-21647D01*
X57685Y-21637D01*
X57685Y-21359D01*
X57724Y-21264D01*
X57725Y-21135D01*
X57675Y-21016D01*
X57625Y-20965D01*
X57625Y-19825D01*
X57625Y-19374D01*
X57624Y-19275D01*
X57586Y-19183D01*
X57516Y-19112D01*
X57424Y-19074D01*
X57212Y-19075D01*
X57150Y-19137D01*
X57150Y-19550D01*
X57562Y-19550D01*
X57625Y-19487D01*
X57625Y-19374D01*
X57625Y-19825D01*
X57625Y-19712D01*
X57562Y-19650D01*
X57150Y-19650D01*
X57150Y-20062D01*
X57212Y-20125D01*
X57424Y-20125D01*
X57516Y-20087D01*
X57586Y-20016D01*
X57624Y-19924D01*
X57625Y-19825D01*
X57625Y-20965D01*
X57584Y-20924D01*
X57464Y-20875D01*
X57335Y-20874D01*
X57216Y-20924D01*
X57124Y-21015D01*
X57075Y-21135D01*
X57074Y-21264D01*
X57114Y-21359D01*
X57114Y-21637D01*
X57090Y-21647D01*
X57056Y-21681D01*
X57050Y-21664D01*
X57050Y-20062D01*
X57050Y-19650D01*
X57050Y-19550D01*
X57050Y-19137D01*
X56987Y-19075D01*
X56775Y-19074D01*
X56683Y-19112D01*
X56613Y-19183D01*
X56575Y-19275D01*
X56574Y-19374D01*
X56575Y-19487D01*
X56637Y-19550D01*
X57050Y-19550D01*
X57050Y-19650D01*
X56637Y-19650D01*
X56575Y-19712D01*
X56574Y-19825D01*
X56575Y-19924D01*
X56613Y-20016D01*
X56683Y-20087D01*
X56775Y-20125D01*
X56987Y-20125D01*
X57050Y-20062D01*
X57050Y-21664D01*
X57037Y-21633D01*
X56966Y-21563D01*
X56874Y-21525D01*
X56775Y-21524D01*
X56712Y-21525D01*
X56650Y-21587D01*
X56650Y-21850D01*
X56657Y-21850D01*
X56657Y-21950D01*
X56650Y-21950D01*
X56650Y-21957D01*
X56550Y-21957D01*
X56550Y-21950D01*
X56542Y-21950D01*
X56542Y-21850D01*
X56550Y-21850D01*
X56550Y-21587D01*
X56487Y-21525D01*
X56424Y-21524D01*
X56325Y-21525D01*
X56233Y-21563D01*
X56199Y-21596D01*
X56166Y-21562D01*
X56074Y-21524D01*
X56012Y-21525D01*
X55950Y-21587D01*
X55950Y-21950D01*
X55957Y-21950D01*
X55957Y-22050D01*
X55950Y-22050D01*
X55950Y-22187D01*
X55950Y-22412D01*
X55950Y-22550D01*
X55957Y-22550D01*
X55957Y-22650D01*
X55950Y-22650D01*
X55950Y-22657D01*
X55850Y-22657D01*
X55850Y-22650D01*
X55842Y-22650D01*
X55842Y-22550D01*
X55850Y-22550D01*
X55850Y-22412D01*
X55850Y-22187D01*
X55850Y-22050D01*
X55842Y-22050D01*
X55842Y-21950D01*
X55850Y-21950D01*
X55850Y-21587D01*
X55787Y-21525D01*
X55725Y-21524D01*
X55694Y-21537D01*
X55724Y-21464D01*
X55725Y-21335D01*
X55675Y-21216D01*
X55584Y-21124D01*
X55490Y-21085D01*
X55600Y-21085D01*
X55709Y-21063D01*
X55801Y-21001D01*
X56301Y-20501D01*
X56363Y-20409D01*
X56385Y-20300D01*
X56385Y-19915D01*
X56460Y-19841D01*
X56524Y-19684D01*
X56525Y-19515D01*
X56460Y-19359D01*
X56341Y-19239D01*
X56184Y-19175D01*
X56015Y-19174D01*
X55859Y-19239D01*
X55739Y-19358D01*
X55675Y-19515D01*
X55674Y-19684D01*
X55739Y-19840D01*
X55814Y-19915D01*
X55814Y-20181D01*
X55481Y-20514D01*
X55182Y-20514D01*
X55182Y-19445D01*
X55063Y-19157D01*
X54843Y-18937D01*
X54556Y-18817D01*
X54245Y-18817D01*
X53957Y-18936D01*
X53737Y-19156D01*
X53617Y-19443D01*
X53617Y-19754D01*
X53736Y-20042D01*
X53956Y-20262D01*
X54243Y-20382D01*
X54554Y-20382D01*
X54842Y-20263D01*
X55062Y-20043D01*
X55182Y-19756D01*
X55182Y-19445D01*
X55182Y-20514D01*
X55000Y-20514D01*
X54890Y-20536D01*
X54798Y-20598D01*
X53798Y-21598D01*
X53736Y-21690D01*
X53714Y-21800D01*
X53714Y-23000D01*
X53736Y-23109D01*
X53798Y-23201D01*
X53807Y-23211D01*
X53807Y-23935D01*
X53830Y-23990D01*
X53872Y-24032D01*
X53927Y-24055D01*
X53987Y-24055D01*
X56072Y-24055D01*
X56127Y-24032D01*
X56169Y-23990D01*
X56174Y-23978D01*
X56675Y-24479D01*
X56664Y-24475D01*
X56535Y-24474D01*
X56416Y-24524D01*
X56324Y-24615D01*
X56275Y-24735D01*
X56274Y-24864D01*
X56324Y-24983D01*
X56415Y-25075D01*
X56511Y-25114D01*
X56664Y-25268D01*
X56664Y-25327D01*
X56635Y-25297D01*
X56579Y-25275D01*
X56520Y-25274D01*
X56320Y-25274D01*
X56265Y-25297D01*
X56222Y-25339D01*
X56200Y-25395D01*
X56199Y-25451D01*
X56097Y-25553D01*
X55975Y-25553D01*
X55975Y-25545D01*
X55952Y-25490D01*
X55910Y-25447D01*
X55870Y-25431D01*
X56072Y-25431D01*
X56127Y-25408D01*
X56169Y-25366D01*
X56192Y-25311D01*
X56192Y-25251D01*
X56192Y-24464D01*
X56169Y-24409D01*
X56127Y-24367D01*
X56072Y-24344D01*
X56012Y-24344D01*
X53927Y-24344D01*
X53872Y-24367D01*
X53830Y-24409D01*
X53807Y-24464D01*
X53807Y-24524D01*
X53807Y-25311D01*
X53830Y-25366D01*
X53872Y-25408D01*
X53927Y-25431D01*
X53987Y-25431D01*
X54814Y-25431D01*
X54814Y-25800D01*
X54814Y-26100D01*
X54836Y-26209D01*
X54898Y-26301D01*
X55198Y-26601D01*
X55198Y-26601D01*
X55290Y-26663D01*
X55290Y-26663D01*
X55378Y-26681D01*
X55399Y-26685D01*
X55399Y-26685D01*
X55400Y-26685D01*
X57200Y-26685D01*
X57309Y-26663D01*
X57401Y-26601D01*
X57651Y-26351D01*
X57713Y-26259D01*
X57735Y-26150D01*
X57735Y-26098D01*
X57800Y-26125D01*
X57837Y-26125D01*
X57900Y-26062D01*
X57900Y-25700D01*
X57892Y-25700D01*
X57892Y-25600D01*
X57900Y-25600D01*
X57900Y-25592D01*
X58000Y-25592D01*
X58000Y-25600D01*
X58237Y-25600D01*
X58300Y-25537D01*
X58300Y-25474D01*
X58299Y-25375D01*
X58261Y-25283D01*
X58191Y-25212D01*
X58125Y-25185D01*
X58600Y-25185D01*
X58653Y-25175D01*
X58854Y-25175D01*
X58909Y-25152D01*
X58952Y-25110D01*
X58974Y-25054D01*
X58975Y-24995D01*
X58975Y-24745D01*
X58952Y-24690D01*
X58910Y-24647D01*
X58854Y-24625D01*
X58795Y-24624D01*
X58653Y-24624D01*
X58600Y-24614D01*
X57618Y-24614D01*
X57324Y-24320D01*
X57335Y-24324D01*
X57464Y-24325D01*
X57583Y-24275D01*
X57671Y-24187D01*
X57686Y-24259D01*
X57748Y-24351D01*
X57898Y-24501D01*
X57990Y-24563D01*
X58100Y-24585D01*
X58600Y-24585D01*
X58653Y-24575D01*
X58854Y-24575D01*
X58909Y-24552D01*
X58952Y-24510D01*
X58974Y-24454D01*
X58975Y-24395D01*
X58975Y-24145D01*
X58952Y-24090D01*
X58910Y-24047D01*
X58854Y-24025D01*
X58795Y-24024D01*
X58653Y-24024D01*
X58600Y-24014D01*
X58235Y-24014D01*
X58235Y-23880D01*
X58247Y-23909D01*
X58289Y-23952D01*
X58345Y-23974D01*
X58404Y-23975D01*
X58854Y-23975D01*
X58909Y-23952D01*
X58915Y-23946D01*
X59100Y-23946D01*
X59194Y-23927D01*
X59194Y-23927D01*
X59274Y-23874D01*
X59774Y-23374D01*
X59827Y-23294D01*
X59827Y-23294D01*
X59846Y-23200D01*
X59846Y-23200D01*
X59846Y-22775D01*
X59854Y-22775D01*
X59909Y-22752D01*
X59952Y-22710D01*
X59974Y-22654D01*
X59975Y-22595D01*
X59975Y-22345D01*
X59952Y-22290D01*
X59918Y-22256D01*
X59966Y-22236D01*
X60037Y-22166D01*
X60075Y-22074D01*
X60075Y-27067D01*
X59956Y-27017D01*
X59645Y-27017D01*
X59357Y-27136D01*
X59137Y-27356D01*
X59017Y-27643D01*
X59017Y-27954D01*
X59136Y-28242D01*
X59356Y-28462D01*
X59643Y-28582D01*
X59954Y-28582D01*
X60242Y-28463D01*
X60462Y-28243D01*
X60582Y-27956D01*
X60582Y-27645D01*
X60582Y-28640D01*
X58425Y-28640D01*
X58425Y-28225D01*
X58425Y-27774D01*
X58424Y-27675D01*
X58386Y-27583D01*
X58316Y-27512D01*
X58300Y-27506D01*
X58300Y-25825D01*
X58300Y-25762D01*
X58237Y-25700D01*
X58000Y-25700D01*
X58000Y-26062D01*
X58062Y-26125D01*
X58099Y-26125D01*
X58191Y-26087D01*
X58261Y-26016D01*
X58299Y-25924D01*
X58300Y-25825D01*
X58300Y-27506D01*
X58224Y-27474D01*
X58012Y-27475D01*
X57950Y-27537D01*
X57950Y-27950D01*
X58362Y-27950D01*
X58425Y-27887D01*
X58425Y-27774D01*
X58425Y-28225D01*
X58425Y-28112D01*
X58362Y-28050D01*
X57950Y-28050D01*
X57950Y-28462D01*
X58012Y-28525D01*
X58224Y-28525D01*
X58316Y-28487D01*
X58386Y-28416D01*
X58424Y-28324D01*
X58425Y-28225D01*
X58425Y-28640D01*
X57850Y-28640D01*
X57850Y-28462D01*
X57850Y-28050D01*
X57850Y-27950D01*
X57850Y-27537D01*
X57787Y-27475D01*
X57575Y-27474D01*
X57483Y-27512D01*
X57413Y-27583D01*
X57375Y-27675D01*
X57374Y-27774D01*
X57375Y-27887D01*
X57437Y-27950D01*
X57850Y-27950D01*
X57850Y-28050D01*
X57437Y-28050D01*
X57375Y-28112D01*
X57374Y-28225D01*
X57375Y-28324D01*
X57413Y-28416D01*
X57483Y-28487D01*
X57575Y-28525D01*
X57787Y-28525D01*
X57850Y-28462D01*
X57850Y-28640D01*
X57325Y-28640D01*
X57325Y-27915D01*
X57260Y-27759D01*
X57141Y-27639D01*
X56984Y-27575D01*
X56815Y-27574D01*
X56659Y-27639D01*
X56539Y-27758D01*
X56475Y-27915D01*
X56474Y-28084D01*
X56539Y-28240D01*
X56658Y-28360D01*
X56815Y-28424D01*
X56984Y-28425D01*
X57140Y-28360D01*
X57260Y-28241D01*
X57324Y-28084D01*
X57325Y-27915D01*
X57325Y-28640D01*
X55182Y-28640D01*
X55182Y-27645D01*
X55063Y-27357D01*
X54843Y-27137D01*
X54556Y-27017D01*
X54245Y-27017D01*
X53957Y-27136D01*
X53737Y-27356D01*
X53617Y-27643D01*
X53617Y-27954D01*
X53736Y-28242D01*
X53956Y-28462D01*
X54243Y-28582D01*
X54554Y-28582D01*
X54842Y-28463D01*
X55062Y-28243D01*
X55182Y-27956D01*
X55182Y-27645D01*
X55182Y-28640D01*
X53559Y-28640D01*
X53559Y-18759D01*
X60640Y-18759D01*
X60640Y-28640D01*
M02*
