G04 (created by PCBNEW (2014-01-10 BZR 4027)-stable) date Wed 15 Apr 2015 19:22:48 CEST*
%MOIN*%
G04 Gerber Fmt 3.4, Leading zero omitted, Abs format*
%FSLAX34Y34*%
G01*
G70*
G90*
G04 APERTURE LIST*
%ADD10C,0.00590551*%
%ADD11C,0.015*%
%ADD12C,0.0039*%
%ADD13C,0.0035*%
%ADD14C,0.012*%
%ADD15C,0.008*%
G04 APERTURE END LIST*
G54D10*
G54D11*
X70000Y-64761D02*
X69409Y-64761D01*
X69409Y-64761D02*
X69409Y-64249D01*
X69409Y-64249D02*
X70000Y-64249D01*
X70000Y-63461D02*
X71024Y-63461D01*
X71024Y-63461D02*
X71024Y-66139D01*
X71024Y-66139D02*
X70000Y-66139D01*
X70000Y-66139D02*
X70000Y-63461D01*
G54D12*
X107172Y-56543D02*
X109042Y-56543D01*
X104908Y-56543D02*
X106483Y-56543D01*
X112191Y-57231D02*
X112191Y-61169D01*
X111994Y-57035D02*
X111601Y-57035D01*
X111994Y-61365D02*
X111601Y-61365D01*
X111994Y-57034D02*
G75*
G02X112191Y-57231I0J-197D01*
G74*
G01*
X112190Y-61169D02*
G75*
G02X111994Y-61365I-196J0D01*
G74*
G01*
X104908Y-56543D02*
X104908Y-56838D01*
X110321Y-56543D02*
X109534Y-56543D01*
X111601Y-62251D02*
X111601Y-56543D01*
X104908Y-61365D02*
X104908Y-62251D01*
X104908Y-62251D02*
X110617Y-62251D01*
G54D13*
X80652Y-70380D02*
X81057Y-70380D01*
X81104Y-70357D01*
X81128Y-70333D01*
X81152Y-70285D01*
X81152Y-70190D01*
X81128Y-70142D01*
X81104Y-70119D01*
X81057Y-70095D01*
X80652Y-70095D01*
X80652Y-69904D02*
X80652Y-69595D01*
X80842Y-69761D01*
X80842Y-69690D01*
X80866Y-69642D01*
X80890Y-69619D01*
X80938Y-69595D01*
X81057Y-69595D01*
X81104Y-69619D01*
X81128Y-69642D01*
X81152Y-69690D01*
X81152Y-69833D01*
X81128Y-69880D01*
X81104Y-69904D01*
X81009Y-58078D02*
X81009Y-57840D01*
X81152Y-58126D02*
X80652Y-57959D01*
X81152Y-57792D01*
X81152Y-57340D02*
X80914Y-57507D01*
X81152Y-57626D02*
X80652Y-57626D01*
X80652Y-57435D01*
X80676Y-57388D01*
X80700Y-57364D01*
X80747Y-57340D01*
X80819Y-57340D01*
X80866Y-57364D01*
X80890Y-57388D01*
X80914Y-57435D01*
X80914Y-57626D01*
X81152Y-57126D02*
X80652Y-57126D01*
X81009Y-56911D02*
X81009Y-56673D01*
X81152Y-56959D02*
X80652Y-56792D01*
X81152Y-56626D01*
X80676Y-56197D02*
X80652Y-56245D01*
X80652Y-56316D01*
X80676Y-56388D01*
X80723Y-56435D01*
X80771Y-56459D01*
X80866Y-56483D01*
X80938Y-56483D01*
X81033Y-56459D01*
X81080Y-56435D01*
X81128Y-56388D01*
X81152Y-56316D01*
X81152Y-56269D01*
X81128Y-56197D01*
X81104Y-56173D01*
X80938Y-56173D01*
X80938Y-56269D01*
X80700Y-55983D02*
X80676Y-55959D01*
X80652Y-55911D01*
X80652Y-55792D01*
X80676Y-55745D01*
X80700Y-55721D01*
X80747Y-55697D01*
X80795Y-55697D01*
X80866Y-55721D01*
X81152Y-56007D01*
X81152Y-55697D01*
X80652Y-55245D02*
X80652Y-55483D01*
X80890Y-55507D01*
X80866Y-55483D01*
X80842Y-55435D01*
X80842Y-55316D01*
X80866Y-55269D01*
X80890Y-55245D01*
X80938Y-55221D01*
X81057Y-55221D01*
X81104Y-55245D01*
X81128Y-55269D01*
X81152Y-55316D01*
X81152Y-55435D01*
X81128Y-55483D01*
X81104Y-55507D01*
X89428Y-67157D02*
X89428Y-66442D01*
X89857Y-67299D02*
X88357Y-66799D01*
X89857Y-66299D01*
X89857Y-64942D02*
X89142Y-65442D01*
X89857Y-65799D02*
X88357Y-65799D01*
X88357Y-65228D01*
X88428Y-65085D01*
X88500Y-65014D01*
X88642Y-64942D01*
X88857Y-64942D01*
X89000Y-65014D01*
X89071Y-65085D01*
X89142Y-65228D01*
X89142Y-65799D01*
X89857Y-64299D02*
X88357Y-64299D01*
X89428Y-63657D02*
X89428Y-62942D01*
X89857Y-63799D02*
X88357Y-63299D01*
X89857Y-62799D01*
X88428Y-60371D02*
X88357Y-60514D01*
X88357Y-60728D01*
X88428Y-60942D01*
X88571Y-61085D01*
X88714Y-61157D01*
X89000Y-61228D01*
X89214Y-61228D01*
X89500Y-61157D01*
X89642Y-61085D01*
X89785Y-60942D01*
X89857Y-60728D01*
X89857Y-60585D01*
X89785Y-60371D01*
X89714Y-60299D01*
X89214Y-60299D01*
X89214Y-60585D01*
X88500Y-59728D02*
X88428Y-59657D01*
X88357Y-59514D01*
X88357Y-59157D01*
X88428Y-59014D01*
X88500Y-58942D01*
X88642Y-58871D01*
X88785Y-58871D01*
X89000Y-58942D01*
X89857Y-59799D01*
X89857Y-58871D01*
X88357Y-57514D02*
X88357Y-58228D01*
X89071Y-58300D01*
X89000Y-58228D01*
X88928Y-58085D01*
X88928Y-57728D01*
X89000Y-57585D01*
X89071Y-57514D01*
X89214Y-57442D01*
X89571Y-57442D01*
X89714Y-57514D01*
X89785Y-57585D01*
X89857Y-57728D01*
X89857Y-58085D01*
X89785Y-58228D01*
X89714Y-58300D01*
X93119Y-64692D02*
X93119Y-64216D01*
X93404Y-64788D02*
X92404Y-64454D01*
X93404Y-64121D01*
X93309Y-63216D02*
X93357Y-63264D01*
X93404Y-63407D01*
X93404Y-63502D01*
X93357Y-63645D01*
X93261Y-63740D01*
X93166Y-63788D01*
X92976Y-63835D01*
X92833Y-63835D01*
X92642Y-63788D01*
X92547Y-63740D01*
X92452Y-63645D01*
X92404Y-63502D01*
X92404Y-63407D01*
X92452Y-63264D01*
X92500Y-63216D01*
X93404Y-62788D02*
X92404Y-62788D01*
X93119Y-62454D01*
X92404Y-62121D01*
X93404Y-62121D01*
X92880Y-61645D02*
X92880Y-61311D01*
X93404Y-61169D02*
X93404Y-61645D01*
X92404Y-61645D01*
X92404Y-61169D01*
X94920Y-64560D02*
X94946Y-64480D01*
X94946Y-64346D01*
X94920Y-64293D01*
X94893Y-64266D01*
X94840Y-64240D01*
X94786Y-64240D01*
X94733Y-64266D01*
X94706Y-64293D01*
X94680Y-64346D01*
X94653Y-64453D01*
X94626Y-64506D01*
X94600Y-64533D01*
X94546Y-64560D01*
X94493Y-64560D01*
X94440Y-64533D01*
X94413Y-64506D01*
X94386Y-64453D01*
X94386Y-64320D01*
X94413Y-64240D01*
X94680Y-63893D02*
X94946Y-63893D01*
X94386Y-64079D02*
X94680Y-63893D01*
X94386Y-63706D01*
X94920Y-63546D02*
X94946Y-63466D01*
X94946Y-63333D01*
X94920Y-63279D01*
X94893Y-63253D01*
X94840Y-63226D01*
X94786Y-63226D01*
X94733Y-63253D01*
X94706Y-63279D01*
X94680Y-63333D01*
X94653Y-63439D01*
X94626Y-63493D01*
X94600Y-63519D01*
X94546Y-63546D01*
X94493Y-63546D01*
X94440Y-63519D01*
X94413Y-63493D01*
X94386Y-63439D01*
X94386Y-63306D01*
X94413Y-63226D01*
X94386Y-63066D02*
X94386Y-62746D01*
X94946Y-62906D02*
X94386Y-62906D01*
X94653Y-62559D02*
X94653Y-62373D01*
X94946Y-62293D02*
X94946Y-62559D01*
X94386Y-62559D01*
X94386Y-62293D01*
X94946Y-62053D02*
X94386Y-62053D01*
X94786Y-61866D01*
X94386Y-61680D01*
X94946Y-61680D01*
X94920Y-61440D02*
X94946Y-61360D01*
X94946Y-61226D01*
X94920Y-61173D01*
X94893Y-61146D01*
X94840Y-61120D01*
X94786Y-61120D01*
X94733Y-61146D01*
X94706Y-61173D01*
X94680Y-61226D01*
X94653Y-61333D01*
X94626Y-61386D01*
X94600Y-61413D01*
X94546Y-61440D01*
X94493Y-61440D01*
X94440Y-61413D01*
X94413Y-61386D01*
X94386Y-61333D01*
X94386Y-61200D01*
X94413Y-61120D01*
X84529Y-63460D02*
X83529Y-63460D01*
X84529Y-62889D01*
X83529Y-62889D01*
G54D14*
X72497Y-64000D02*
X72525Y-64085D01*
X72525Y-64228D01*
X72497Y-64285D01*
X72468Y-64314D01*
X72411Y-64342D01*
X72354Y-64342D01*
X72297Y-64314D01*
X72268Y-64285D01*
X72240Y-64228D01*
X72211Y-64114D01*
X72183Y-64057D01*
X72154Y-64028D01*
X72097Y-64000D01*
X72040Y-64000D01*
X71983Y-64028D01*
X71954Y-64057D01*
X71925Y-64114D01*
X71925Y-64257D01*
X71954Y-64342D01*
X71925Y-64542D02*
X72525Y-64685D01*
X72097Y-64800D01*
X72525Y-64914D01*
X71925Y-65057D01*
X72525Y-65600D02*
X72525Y-65257D01*
X72525Y-65428D02*
X71925Y-65428D01*
X72011Y-65371D01*
X72068Y-65314D01*
X72097Y-65257D01*
X68797Y-61357D02*
X68825Y-61442D01*
X68825Y-61585D01*
X68797Y-61642D01*
X68768Y-61671D01*
X68711Y-61700D01*
X68654Y-61700D01*
X68597Y-61671D01*
X68568Y-61642D01*
X68540Y-61585D01*
X68511Y-61471D01*
X68483Y-61414D01*
X68454Y-61385D01*
X68397Y-61357D01*
X68340Y-61357D01*
X68283Y-61385D01*
X68254Y-61414D01*
X68225Y-61471D01*
X68225Y-61614D01*
X68254Y-61700D01*
X68225Y-62071D02*
X68225Y-62185D01*
X68254Y-62242D01*
X68311Y-62300D01*
X68425Y-62328D01*
X68625Y-62328D01*
X68740Y-62300D01*
X68797Y-62242D01*
X68825Y-62185D01*
X68825Y-62071D01*
X68797Y-62014D01*
X68740Y-61957D01*
X68625Y-61928D01*
X68425Y-61928D01*
X68311Y-61957D01*
X68254Y-62014D01*
X68225Y-62071D01*
X68825Y-62871D02*
X68825Y-62585D01*
X68225Y-62585D01*
X68825Y-63071D02*
X68225Y-63071D01*
X68225Y-63214D01*
X68254Y-63300D01*
X68311Y-63357D01*
X68368Y-63385D01*
X68483Y-63414D01*
X68568Y-63414D01*
X68683Y-63385D01*
X68740Y-63357D01*
X68797Y-63300D01*
X68825Y-63214D01*
X68825Y-63071D01*
X68511Y-63671D02*
X68511Y-63871D01*
X68825Y-63957D02*
X68825Y-63671D01*
X68225Y-63671D01*
X68225Y-63957D01*
X68825Y-64557D02*
X68540Y-64357D01*
X68825Y-64214D02*
X68225Y-64214D01*
X68225Y-64442D01*
X68254Y-64500D01*
X68283Y-64528D01*
X68340Y-64557D01*
X68425Y-64557D01*
X68483Y-64528D01*
X68511Y-64500D01*
X68540Y-64442D01*
X68540Y-64214D01*
X68883Y-64671D02*
X68883Y-65128D01*
X68797Y-65242D02*
X68825Y-65328D01*
X68825Y-65471D01*
X68797Y-65528D01*
X68768Y-65557D01*
X68711Y-65585D01*
X68654Y-65585D01*
X68597Y-65557D01*
X68568Y-65528D01*
X68540Y-65471D01*
X68511Y-65357D01*
X68483Y-65300D01*
X68454Y-65271D01*
X68397Y-65242D01*
X68340Y-65242D01*
X68283Y-65271D01*
X68254Y-65300D01*
X68225Y-65357D01*
X68225Y-65500D01*
X68254Y-65585D01*
X68225Y-65785D02*
X68825Y-65928D01*
X68397Y-66042D01*
X68825Y-66157D01*
X68225Y-66300D01*
X68825Y-66528D02*
X68225Y-66528D01*
X68225Y-66728D02*
X68225Y-67071D01*
X68825Y-66900D02*
X68225Y-66900D01*
X68768Y-67614D02*
X68797Y-67585D01*
X68825Y-67500D01*
X68825Y-67442D01*
X68797Y-67357D01*
X68740Y-67300D01*
X68683Y-67271D01*
X68568Y-67242D01*
X68483Y-67242D01*
X68368Y-67271D01*
X68311Y-67300D01*
X68254Y-67357D01*
X68225Y-67442D01*
X68225Y-67500D01*
X68254Y-67585D01*
X68283Y-67614D01*
X68825Y-67871D02*
X68225Y-67871D01*
X68511Y-67871D02*
X68511Y-68214D01*
X68825Y-68214D02*
X68225Y-68214D01*
G54D15*
X105215Y-55563D02*
X105539Y-55563D01*
X105577Y-55582D01*
X105596Y-55601D01*
X105615Y-55639D01*
X105615Y-55715D01*
X105596Y-55753D01*
X105577Y-55772D01*
X105539Y-55791D01*
X105215Y-55791D01*
X105254Y-55963D02*
X105234Y-55982D01*
X105215Y-56020D01*
X105215Y-56115D01*
X105234Y-56153D01*
X105254Y-56172D01*
X105292Y-56191D01*
X105330Y-56191D01*
X105387Y-56172D01*
X105615Y-55944D01*
X105615Y-56191D01*
M02*
