G04 (created by PCBNEW (2014-01-10 BZR 4027)-stable) date Wed 15 Apr 2015 19:22:48 CEST*
%MOIN*%
G04 Gerber Fmt 3.4, Leading zero omitted, Abs format*
%FSLAX34Y34*%
G01*
G70*
G90*
G04 APERTURE LIST*
%ADD10C,0.00590551*%
%ADD11C,0.00984252*%
%ADD12C,0.015*%
%ADD13C,0.012*%
%ADD14C,0.0118*%
%ADD15C,0.005*%
%ADD16C,0.0047*%
%ADD17C,0.0026*%
%ADD18C,0.004*%
%ADD19C,0.0079*%
%ADD20C,0.01*%
%ADD21C,0.0025*%
%ADD22C,0.0001*%
%ADD23C,0.008*%
%ADD24C,0.0045*%
%ADD25C,0.0107*%
%ADD26C,0.0078*%
%ADD27C,0.0039*%
G04 APERTURE END LIST*
G54D10*
G54D11*
X110959Y-63958D02*
X110565Y-63958D01*
X110959Y-63790D02*
X110753Y-63790D01*
X110715Y-63808D01*
X110696Y-63846D01*
X110696Y-63902D01*
X110715Y-63940D01*
X110734Y-63958D01*
X110696Y-63658D02*
X110696Y-63508D01*
X110565Y-63602D02*
X110903Y-63602D01*
X110940Y-63583D01*
X110959Y-63546D01*
X110959Y-63508D01*
X110696Y-63433D02*
X110696Y-63283D01*
X110565Y-63377D02*
X110903Y-63377D01*
X110940Y-63358D01*
X110959Y-63321D01*
X110959Y-63283D01*
X110696Y-63152D02*
X111090Y-63152D01*
X110715Y-63152D02*
X110696Y-63115D01*
X110696Y-63040D01*
X110715Y-63002D01*
X110734Y-62983D01*
X110771Y-62965D01*
X110884Y-62965D01*
X110921Y-62983D01*
X110940Y-63002D01*
X110959Y-63040D01*
X110959Y-63115D01*
X110940Y-63152D01*
X110921Y-62796D02*
X110940Y-62777D01*
X110959Y-62796D01*
X110940Y-62815D01*
X110921Y-62796D01*
X110959Y-62796D01*
X110715Y-62796D02*
X110734Y-62777D01*
X110753Y-62796D01*
X110734Y-62815D01*
X110715Y-62796D01*
X110753Y-62796D01*
X110546Y-62327D02*
X111053Y-62665D01*
X110546Y-61915D02*
X111053Y-62252D01*
X110696Y-61821D02*
X110959Y-61746D01*
X110771Y-61671D01*
X110959Y-61596D01*
X110696Y-61521D01*
X110696Y-61409D02*
X110959Y-61334D01*
X110771Y-61259D01*
X110959Y-61184D01*
X110696Y-61109D01*
X110696Y-60996D02*
X110959Y-60921D01*
X110771Y-60846D01*
X110959Y-60771D01*
X110696Y-60696D01*
X110921Y-60546D02*
X110940Y-60528D01*
X110959Y-60546D01*
X110940Y-60565D01*
X110921Y-60546D01*
X110959Y-60546D01*
X110696Y-60359D02*
X111090Y-60359D01*
X110715Y-60359D02*
X110696Y-60321D01*
X110696Y-60246D01*
X110715Y-60209D01*
X110734Y-60190D01*
X110771Y-60171D01*
X110884Y-60171D01*
X110921Y-60190D01*
X110940Y-60209D01*
X110959Y-60246D01*
X110959Y-60321D01*
X110940Y-60359D01*
X110959Y-60003D02*
X110696Y-60003D01*
X110771Y-60003D02*
X110734Y-59984D01*
X110715Y-59965D01*
X110696Y-59928D01*
X110696Y-59890D01*
X110959Y-59703D02*
X110940Y-59740D01*
X110921Y-59759D01*
X110884Y-59778D01*
X110771Y-59778D01*
X110734Y-59759D01*
X110715Y-59740D01*
X110696Y-59703D01*
X110696Y-59646D01*
X110715Y-59609D01*
X110734Y-59590D01*
X110771Y-59571D01*
X110884Y-59571D01*
X110921Y-59590D01*
X110940Y-59609D01*
X110959Y-59646D01*
X110959Y-59703D01*
X110959Y-59403D02*
X110696Y-59403D01*
X110734Y-59403D02*
X110715Y-59384D01*
X110696Y-59346D01*
X110696Y-59290D01*
X110715Y-59253D01*
X110753Y-59234D01*
X110959Y-59234D01*
X110753Y-59234D02*
X110715Y-59215D01*
X110696Y-59178D01*
X110696Y-59121D01*
X110715Y-59084D01*
X110753Y-59065D01*
X110959Y-59065D01*
X110940Y-58728D02*
X110959Y-58765D01*
X110959Y-58840D01*
X110940Y-58878D01*
X110903Y-58896D01*
X110753Y-58896D01*
X110715Y-58878D01*
X110696Y-58840D01*
X110696Y-58765D01*
X110715Y-58728D01*
X110753Y-58709D01*
X110790Y-58709D01*
X110828Y-58896D01*
X110696Y-58597D02*
X110696Y-58447D01*
X110565Y-58540D02*
X110903Y-58540D01*
X110940Y-58522D01*
X110959Y-58484D01*
X110959Y-58447D01*
X110940Y-58165D02*
X110959Y-58203D01*
X110959Y-58278D01*
X110940Y-58315D01*
X110903Y-58334D01*
X110753Y-58334D01*
X110715Y-58315D01*
X110696Y-58278D01*
X110696Y-58203D01*
X110715Y-58165D01*
X110753Y-58147D01*
X110790Y-58147D01*
X110828Y-58334D01*
X110959Y-57922D02*
X110940Y-57959D01*
X110921Y-57978D01*
X110884Y-57997D01*
X110771Y-57997D01*
X110734Y-57978D01*
X110715Y-57959D01*
X110696Y-57922D01*
X110696Y-57865D01*
X110715Y-57828D01*
X110734Y-57809D01*
X110771Y-57790D01*
X110884Y-57790D01*
X110921Y-57809D01*
X110940Y-57828D01*
X110959Y-57865D01*
X110959Y-57922D01*
X110959Y-57565D02*
X110940Y-57603D01*
X110903Y-57622D01*
X110565Y-57622D01*
X110959Y-57415D02*
X110696Y-57415D01*
X110565Y-57415D02*
X110584Y-57434D01*
X110603Y-57415D01*
X110584Y-57397D01*
X110565Y-57415D01*
X110603Y-57415D01*
X110959Y-57228D02*
X110565Y-57228D01*
X110715Y-57228D02*
X110696Y-57190D01*
X110696Y-57115D01*
X110715Y-57078D01*
X110734Y-57059D01*
X110771Y-57040D01*
X110884Y-57040D01*
X110921Y-57059D01*
X110940Y-57078D01*
X110959Y-57115D01*
X110959Y-57190D01*
X110940Y-57228D01*
X110940Y-56722D02*
X110959Y-56759D01*
X110959Y-56834D01*
X110940Y-56872D01*
X110903Y-56890D01*
X110753Y-56890D01*
X110715Y-56872D01*
X110696Y-56834D01*
X110696Y-56759D01*
X110715Y-56722D01*
X110753Y-56703D01*
X110790Y-56703D01*
X110828Y-56890D01*
X110959Y-56534D02*
X110696Y-56534D01*
X110771Y-56534D02*
X110734Y-56516D01*
X110715Y-56497D01*
X110696Y-56459D01*
X110696Y-56422D01*
X110959Y-56234D02*
X110940Y-56272D01*
X110921Y-56291D01*
X110884Y-56309D01*
X110771Y-56309D01*
X110734Y-56291D01*
X110715Y-56272D01*
X110696Y-56234D01*
X110696Y-56178D01*
X110715Y-56141D01*
X110734Y-56122D01*
X110771Y-56103D01*
X110884Y-56103D01*
X110921Y-56122D01*
X110940Y-56141D01*
X110959Y-56178D01*
X110959Y-56234D01*
X110921Y-55934D02*
X110940Y-55916D01*
X110959Y-55934D01*
X110940Y-55953D01*
X110921Y-55934D01*
X110959Y-55934D01*
X110940Y-55597D02*
X110959Y-55634D01*
X110959Y-55709D01*
X110940Y-55747D01*
X110903Y-55766D01*
X110753Y-55766D01*
X110715Y-55747D01*
X110696Y-55709D01*
X110696Y-55634D01*
X110715Y-55597D01*
X110753Y-55578D01*
X110790Y-55578D01*
X110828Y-55766D01*
X110696Y-55241D02*
X110959Y-55241D01*
X110696Y-55409D02*
X110903Y-55409D01*
X110940Y-55391D01*
X110959Y-55353D01*
X110959Y-55297D01*
X110940Y-55259D01*
X110921Y-55241D01*
X111608Y-62974D02*
X111346Y-62974D01*
X111215Y-62974D02*
X111234Y-62993D01*
X111252Y-62974D01*
X111234Y-62955D01*
X111215Y-62974D01*
X111252Y-62974D01*
X111346Y-62787D02*
X111608Y-62787D01*
X111383Y-62787D02*
X111365Y-62768D01*
X111346Y-62730D01*
X111346Y-62674D01*
X111365Y-62637D01*
X111402Y-62618D01*
X111608Y-62618D01*
X111346Y-62487D02*
X111346Y-62337D01*
X111608Y-62430D02*
X111271Y-62430D01*
X111234Y-62412D01*
X111215Y-62374D01*
X111215Y-62337D01*
X111608Y-62149D02*
X111590Y-62187D01*
X111571Y-62205D01*
X111533Y-62224D01*
X111421Y-62224D01*
X111383Y-62205D01*
X111365Y-62187D01*
X111346Y-62149D01*
X111346Y-62093D01*
X111365Y-62055D01*
X111383Y-62037D01*
X111421Y-62018D01*
X111533Y-62018D01*
X111571Y-62037D01*
X111590Y-62055D01*
X111608Y-62093D01*
X111608Y-62149D01*
X111421Y-61605D02*
X111402Y-61624D01*
X111383Y-61662D01*
X111383Y-61699D01*
X111402Y-61737D01*
X111421Y-61755D01*
X111458Y-61774D01*
X111496Y-61774D01*
X111533Y-61755D01*
X111552Y-61737D01*
X111571Y-61699D01*
X111571Y-61662D01*
X111552Y-61624D01*
X111533Y-61605D01*
X111383Y-61605D02*
X111533Y-61605D01*
X111552Y-61587D01*
X111552Y-61568D01*
X111533Y-61531D01*
X111496Y-61512D01*
X111402Y-61512D01*
X111346Y-61549D01*
X111308Y-61605D01*
X111290Y-61680D01*
X111308Y-61755D01*
X111346Y-61812D01*
X111402Y-61849D01*
X111477Y-61868D01*
X111552Y-61849D01*
X111608Y-61812D01*
X111646Y-61755D01*
X111665Y-61680D01*
X111646Y-61605D01*
X111608Y-61549D01*
X111346Y-61343D02*
X111740Y-61343D01*
X111365Y-61343D02*
X111346Y-61306D01*
X111346Y-61231D01*
X111365Y-61193D01*
X111383Y-61174D01*
X111421Y-61156D01*
X111533Y-61156D01*
X111571Y-61174D01*
X111590Y-61193D01*
X111608Y-61231D01*
X111608Y-61306D01*
X111590Y-61343D01*
X111608Y-60987D02*
X111346Y-60987D01*
X111421Y-60987D02*
X111383Y-60968D01*
X111365Y-60949D01*
X111346Y-60912D01*
X111346Y-60874D01*
X111608Y-60687D02*
X111590Y-60724D01*
X111571Y-60743D01*
X111533Y-60762D01*
X111421Y-60762D01*
X111383Y-60743D01*
X111365Y-60724D01*
X111346Y-60687D01*
X111346Y-60631D01*
X111365Y-60593D01*
X111383Y-60574D01*
X111421Y-60556D01*
X111533Y-60556D01*
X111571Y-60574D01*
X111590Y-60593D01*
X111608Y-60631D01*
X111608Y-60687D01*
X111608Y-60387D02*
X111346Y-60387D01*
X111383Y-60387D02*
X111365Y-60368D01*
X111346Y-60331D01*
X111346Y-60274D01*
X111365Y-60237D01*
X111402Y-60218D01*
X111608Y-60218D01*
X111402Y-60218D02*
X111365Y-60199D01*
X111346Y-60162D01*
X111346Y-60106D01*
X111365Y-60068D01*
X111402Y-60049D01*
X111608Y-60049D01*
X111590Y-59712D02*
X111608Y-59749D01*
X111608Y-59824D01*
X111590Y-59862D01*
X111552Y-59881D01*
X111402Y-59881D01*
X111365Y-59862D01*
X111346Y-59824D01*
X111346Y-59749D01*
X111365Y-59712D01*
X111402Y-59693D01*
X111440Y-59693D01*
X111477Y-59881D01*
X111346Y-59581D02*
X111346Y-59431D01*
X111215Y-59525D02*
X111552Y-59525D01*
X111590Y-59506D01*
X111608Y-59468D01*
X111608Y-59431D01*
X111590Y-59150D02*
X111608Y-59187D01*
X111608Y-59262D01*
X111590Y-59300D01*
X111552Y-59318D01*
X111402Y-59318D01*
X111365Y-59300D01*
X111346Y-59262D01*
X111346Y-59187D01*
X111365Y-59150D01*
X111402Y-59131D01*
X111440Y-59131D01*
X111477Y-59318D01*
X111608Y-58906D02*
X111590Y-58943D01*
X111571Y-58962D01*
X111533Y-58981D01*
X111421Y-58981D01*
X111383Y-58962D01*
X111365Y-58943D01*
X111346Y-58906D01*
X111346Y-58850D01*
X111365Y-58812D01*
X111383Y-58793D01*
X111421Y-58775D01*
X111533Y-58775D01*
X111571Y-58793D01*
X111590Y-58812D01*
X111608Y-58850D01*
X111608Y-58906D01*
X111608Y-58550D02*
X111590Y-58587D01*
X111552Y-58606D01*
X111215Y-58606D01*
X111608Y-58400D02*
X111346Y-58400D01*
X111215Y-58400D02*
X111234Y-58418D01*
X111252Y-58400D01*
X111234Y-58381D01*
X111215Y-58400D01*
X111252Y-58400D01*
X111608Y-58212D02*
X111215Y-58212D01*
X111365Y-58212D02*
X111346Y-58175D01*
X111346Y-58100D01*
X111365Y-58062D01*
X111383Y-58043D01*
X111421Y-58025D01*
X111533Y-58025D01*
X111571Y-58043D01*
X111590Y-58062D01*
X111608Y-58100D01*
X111608Y-58175D01*
X111590Y-58212D01*
X111590Y-57706D02*
X111608Y-57743D01*
X111608Y-57818D01*
X111590Y-57856D01*
X111552Y-57875D01*
X111402Y-57875D01*
X111365Y-57856D01*
X111346Y-57818D01*
X111346Y-57743D01*
X111365Y-57706D01*
X111402Y-57687D01*
X111440Y-57687D01*
X111477Y-57875D01*
X111608Y-57519D02*
X111346Y-57519D01*
X111421Y-57519D02*
X111383Y-57500D01*
X111365Y-57481D01*
X111346Y-57444D01*
X111346Y-57406D01*
X111608Y-57219D02*
X111590Y-57256D01*
X111571Y-57275D01*
X111533Y-57294D01*
X111421Y-57294D01*
X111383Y-57275D01*
X111365Y-57256D01*
X111346Y-57219D01*
X111346Y-57162D01*
X111365Y-57125D01*
X111383Y-57106D01*
X111421Y-57087D01*
X111533Y-57087D01*
X111571Y-57106D01*
X111590Y-57125D01*
X111608Y-57162D01*
X111608Y-57219D01*
X111571Y-56919D02*
X111590Y-56900D01*
X111608Y-56919D01*
X111590Y-56937D01*
X111571Y-56919D01*
X111608Y-56919D01*
X111590Y-56581D02*
X111608Y-56619D01*
X111608Y-56694D01*
X111590Y-56731D01*
X111552Y-56750D01*
X111402Y-56750D01*
X111365Y-56731D01*
X111346Y-56694D01*
X111346Y-56619D01*
X111365Y-56581D01*
X111402Y-56562D01*
X111440Y-56562D01*
X111477Y-56750D01*
X111346Y-56225D02*
X111608Y-56225D01*
X111346Y-56394D02*
X111552Y-56394D01*
X111590Y-56375D01*
X111608Y-56337D01*
X111608Y-56281D01*
X111590Y-56244D01*
X111571Y-56225D01*
X99097Y-50959D02*
X98966Y-50771D01*
X98872Y-50959D02*
X98872Y-50565D01*
X99022Y-50565D01*
X99060Y-50584D01*
X99078Y-50603D01*
X99097Y-50640D01*
X99097Y-50696D01*
X99078Y-50734D01*
X99060Y-50753D01*
X99022Y-50771D01*
X98872Y-50771D01*
X99416Y-50940D02*
X99378Y-50959D01*
X99303Y-50959D01*
X99266Y-50940D01*
X99247Y-50903D01*
X99247Y-50753D01*
X99266Y-50715D01*
X99303Y-50696D01*
X99378Y-50696D01*
X99416Y-50715D01*
X99435Y-50753D01*
X99435Y-50790D01*
X99247Y-50828D01*
X99659Y-50959D02*
X99622Y-50940D01*
X99603Y-50903D01*
X99603Y-50565D01*
X99959Y-50940D02*
X99922Y-50959D01*
X99847Y-50959D01*
X99809Y-50940D01*
X99791Y-50903D01*
X99791Y-50753D01*
X99809Y-50715D01*
X99847Y-50696D01*
X99922Y-50696D01*
X99959Y-50715D01*
X99978Y-50753D01*
X99978Y-50790D01*
X99791Y-50828D01*
X100316Y-50959D02*
X100316Y-50753D01*
X100297Y-50715D01*
X100259Y-50696D01*
X100184Y-50696D01*
X100147Y-50715D01*
X100316Y-50940D02*
X100278Y-50959D01*
X100184Y-50959D01*
X100147Y-50940D01*
X100128Y-50903D01*
X100128Y-50865D01*
X100147Y-50828D01*
X100184Y-50809D01*
X100278Y-50809D01*
X100316Y-50790D01*
X100484Y-50940D02*
X100522Y-50959D01*
X100597Y-50959D01*
X100634Y-50940D01*
X100653Y-50903D01*
X100653Y-50884D01*
X100634Y-50846D01*
X100597Y-50828D01*
X100541Y-50828D01*
X100503Y-50809D01*
X100484Y-50771D01*
X100484Y-50753D01*
X100503Y-50715D01*
X100541Y-50696D01*
X100597Y-50696D01*
X100634Y-50715D01*
X100972Y-50940D02*
X100934Y-50959D01*
X100859Y-50959D01*
X100822Y-50940D01*
X100803Y-50903D01*
X100803Y-50753D01*
X100822Y-50715D01*
X100859Y-50696D01*
X100934Y-50696D01*
X100972Y-50715D01*
X100991Y-50753D01*
X100991Y-50790D01*
X100803Y-50828D01*
X101328Y-50959D02*
X101328Y-50565D01*
X101328Y-50940D02*
X101291Y-50959D01*
X101216Y-50959D01*
X101178Y-50940D01*
X101159Y-50921D01*
X101141Y-50884D01*
X101141Y-50771D01*
X101159Y-50734D01*
X101178Y-50715D01*
X101216Y-50696D01*
X101291Y-50696D01*
X101328Y-50715D01*
X101984Y-50696D02*
X101984Y-50959D01*
X101815Y-50696D02*
X101815Y-50903D01*
X101834Y-50940D01*
X101872Y-50959D01*
X101928Y-50959D01*
X101965Y-50940D01*
X101984Y-50921D01*
X102172Y-50696D02*
X102172Y-50959D01*
X102172Y-50734D02*
X102190Y-50715D01*
X102228Y-50696D01*
X102284Y-50696D01*
X102322Y-50715D01*
X102340Y-50753D01*
X102340Y-50959D01*
X102697Y-50959D02*
X102697Y-50565D01*
X102697Y-50940D02*
X102659Y-50959D01*
X102584Y-50959D01*
X102547Y-50940D01*
X102528Y-50921D01*
X102509Y-50884D01*
X102509Y-50771D01*
X102528Y-50734D01*
X102547Y-50715D01*
X102584Y-50696D01*
X102659Y-50696D01*
X102697Y-50715D01*
X103034Y-50940D02*
X102997Y-50959D01*
X102922Y-50959D01*
X102884Y-50940D01*
X102865Y-50903D01*
X102865Y-50753D01*
X102884Y-50715D01*
X102922Y-50696D01*
X102997Y-50696D01*
X103034Y-50715D01*
X103053Y-50753D01*
X103053Y-50790D01*
X102865Y-50828D01*
X103222Y-50959D02*
X103222Y-50696D01*
X103222Y-50771D02*
X103240Y-50734D01*
X103259Y-50715D01*
X103297Y-50696D01*
X103334Y-50696D01*
X103953Y-50959D02*
X103765Y-50959D01*
X103765Y-50565D01*
X104084Y-50959D02*
X104084Y-50696D01*
X104084Y-50565D02*
X104065Y-50584D01*
X104084Y-50603D01*
X104103Y-50584D01*
X104084Y-50565D01*
X104084Y-50603D01*
X104440Y-50940D02*
X104403Y-50959D01*
X104328Y-50959D01*
X104290Y-50940D01*
X104271Y-50921D01*
X104253Y-50884D01*
X104253Y-50771D01*
X104271Y-50734D01*
X104290Y-50715D01*
X104328Y-50696D01*
X104403Y-50696D01*
X104440Y-50715D01*
X104759Y-50940D02*
X104721Y-50959D01*
X104646Y-50959D01*
X104609Y-50940D01*
X104590Y-50903D01*
X104590Y-50753D01*
X104609Y-50715D01*
X104646Y-50696D01*
X104721Y-50696D01*
X104759Y-50715D01*
X104778Y-50753D01*
X104778Y-50790D01*
X104590Y-50828D01*
X104946Y-50696D02*
X104946Y-50959D01*
X104946Y-50734D02*
X104965Y-50715D01*
X105003Y-50696D01*
X105059Y-50696D01*
X105096Y-50715D01*
X105115Y-50753D01*
X105115Y-50959D01*
X105284Y-50940D02*
X105321Y-50959D01*
X105396Y-50959D01*
X105434Y-50940D01*
X105453Y-50903D01*
X105453Y-50884D01*
X105434Y-50846D01*
X105396Y-50828D01*
X105340Y-50828D01*
X105303Y-50809D01*
X105284Y-50771D01*
X105284Y-50753D01*
X105303Y-50715D01*
X105340Y-50696D01*
X105396Y-50696D01*
X105434Y-50715D01*
X105771Y-50940D02*
X105734Y-50959D01*
X105659Y-50959D01*
X105621Y-50940D01*
X105603Y-50903D01*
X105603Y-50753D01*
X105621Y-50715D01*
X105659Y-50696D01*
X105734Y-50696D01*
X105771Y-50715D01*
X105790Y-50753D01*
X105790Y-50790D01*
X105603Y-50828D01*
X106484Y-50921D02*
X106465Y-50940D01*
X106409Y-50959D01*
X106371Y-50959D01*
X106315Y-50940D01*
X106277Y-50903D01*
X106259Y-50865D01*
X106240Y-50790D01*
X106240Y-50734D01*
X106259Y-50659D01*
X106277Y-50621D01*
X106315Y-50584D01*
X106371Y-50565D01*
X106409Y-50565D01*
X106465Y-50584D01*
X106484Y-50603D01*
X106877Y-50921D02*
X106859Y-50940D01*
X106802Y-50959D01*
X106765Y-50959D01*
X106709Y-50940D01*
X106671Y-50903D01*
X106652Y-50865D01*
X106634Y-50790D01*
X106634Y-50734D01*
X106652Y-50659D01*
X106671Y-50621D01*
X106709Y-50584D01*
X106765Y-50565D01*
X106802Y-50565D01*
X106859Y-50584D01*
X106877Y-50603D01*
X107477Y-50753D02*
X107534Y-50771D01*
X107552Y-50790D01*
X107571Y-50828D01*
X107571Y-50884D01*
X107552Y-50921D01*
X107534Y-50940D01*
X107496Y-50959D01*
X107346Y-50959D01*
X107346Y-50565D01*
X107477Y-50565D01*
X107515Y-50584D01*
X107534Y-50603D01*
X107552Y-50640D01*
X107552Y-50678D01*
X107534Y-50715D01*
X107515Y-50734D01*
X107477Y-50753D01*
X107346Y-50753D01*
X107815Y-50771D02*
X107815Y-50959D01*
X107683Y-50565D02*
X107815Y-50771D01*
X107946Y-50565D01*
X108077Y-50809D02*
X108377Y-50809D01*
X108546Y-50940D02*
X108602Y-50959D01*
X108696Y-50959D01*
X108733Y-50940D01*
X108752Y-50921D01*
X108771Y-50884D01*
X108771Y-50846D01*
X108752Y-50809D01*
X108733Y-50790D01*
X108696Y-50771D01*
X108621Y-50753D01*
X108583Y-50734D01*
X108565Y-50715D01*
X108546Y-50678D01*
X108546Y-50640D01*
X108565Y-50603D01*
X108583Y-50584D01*
X108621Y-50565D01*
X108715Y-50565D01*
X108771Y-50584D01*
X108921Y-50846D02*
X109108Y-50846D01*
X108883Y-50959D02*
X109015Y-50565D01*
X109146Y-50959D01*
X109746Y-50696D02*
X109746Y-50959D01*
X109652Y-50546D02*
X109558Y-50828D01*
X109802Y-50828D01*
X109952Y-50921D02*
X109971Y-50940D01*
X109952Y-50959D01*
X109933Y-50940D01*
X109952Y-50921D01*
X109952Y-50959D01*
X110214Y-50565D02*
X110252Y-50565D01*
X110289Y-50584D01*
X110308Y-50603D01*
X110327Y-50640D01*
X110346Y-50715D01*
X110346Y-50809D01*
X110327Y-50884D01*
X110308Y-50921D01*
X110289Y-50940D01*
X110252Y-50959D01*
X110214Y-50959D01*
X110177Y-50940D01*
X110158Y-50921D01*
X110139Y-50884D01*
X110121Y-50809D01*
X110121Y-50715D01*
X110139Y-50640D01*
X110158Y-50603D01*
X110177Y-50584D01*
X110214Y-50565D01*
G54D12*
X111550Y-70750D02*
X111550Y-73850D01*
X111450Y-73850D02*
X111650Y-73850D01*
X111650Y-73850D02*
X111650Y-70750D01*
X111650Y-70750D02*
X111450Y-70750D01*
X111450Y-70750D02*
X111450Y-73850D01*
X103950Y-71150D02*
X103950Y-73450D01*
X103950Y-73450D02*
X111550Y-73450D01*
X111550Y-71150D02*
X103950Y-71150D01*
G54D13*
X100000Y-52300D02*
X101500Y-53800D01*
X101500Y-53800D02*
X102000Y-53800D01*
X102000Y-53800D02*
X102500Y-53300D01*
X102500Y-53300D02*
X102500Y-52300D01*
X102500Y-52300D02*
X101500Y-51300D01*
X101500Y-51300D02*
X100500Y-51300D01*
X100500Y-51300D02*
X100000Y-51800D01*
X100000Y-51800D02*
X100000Y-52300D01*
G54D14*
X103461Y-57461D02*
X101099Y-57461D01*
X101099Y-57461D02*
X101099Y-55099D01*
X101099Y-55099D02*
X103461Y-55099D01*
X103461Y-55099D02*
X103461Y-57461D01*
G54D15*
X105301Y-68370D02*
G75*
G03X105301Y-68370I-141J0D01*
G74*
G01*
X104960Y-67270D02*
X105260Y-67270D01*
X105260Y-67270D02*
X105260Y-67770D01*
X105260Y-67770D02*
X104960Y-67770D01*
X109010Y-68570D02*
X104960Y-68570D01*
X104960Y-66470D02*
X109010Y-66470D01*
X104960Y-66470D02*
X104960Y-68570D01*
X109010Y-66470D02*
X109010Y-68570D01*
X76780Y-76970D02*
X74780Y-76970D01*
X74780Y-76970D02*
X74780Y-75170D01*
X74780Y-75170D02*
X76780Y-75170D01*
X76780Y-75170D02*
X76780Y-76970D01*
X76780Y-76370D02*
X76580Y-76370D01*
X76580Y-76370D02*
X76580Y-75870D01*
X76580Y-75870D02*
X76780Y-75870D01*
X73880Y-69340D02*
X75880Y-69340D01*
X75880Y-69340D02*
X75880Y-71140D01*
X75880Y-71140D02*
X73880Y-71140D01*
X73880Y-71140D02*
X73880Y-69340D01*
X73880Y-69940D02*
X74080Y-69940D01*
X74080Y-69940D02*
X74080Y-70440D01*
X74080Y-70440D02*
X73880Y-70440D01*
X72177Y-68225D02*
X72455Y-68225D01*
X72455Y-68225D02*
X72455Y-67675D01*
X72455Y-67675D02*
X72177Y-67675D01*
X71505Y-68225D02*
X71783Y-68225D01*
X71505Y-68225D02*
X71505Y-67675D01*
X71505Y-67675D02*
X71783Y-67675D01*
X110457Y-65255D02*
X110735Y-65255D01*
X110735Y-65255D02*
X110735Y-64705D01*
X110735Y-64705D02*
X110457Y-64705D01*
X109785Y-65255D02*
X110063Y-65255D01*
X109785Y-65255D02*
X109785Y-64705D01*
X109785Y-64705D02*
X110063Y-64705D01*
X106787Y-65235D02*
X107065Y-65235D01*
X107065Y-65235D02*
X107065Y-64685D01*
X107065Y-64685D02*
X106787Y-64685D01*
X106115Y-65235D02*
X106393Y-65235D01*
X106115Y-65235D02*
X106115Y-64685D01*
X106115Y-64685D02*
X106393Y-64685D01*
X70665Y-73947D02*
X70665Y-74225D01*
X70665Y-74225D02*
X71215Y-74225D01*
X71215Y-74225D02*
X71215Y-73947D01*
X70665Y-73275D02*
X70665Y-73553D01*
X70665Y-73275D02*
X71215Y-73275D01*
X71215Y-73275D02*
X71215Y-73553D01*
X73797Y-77915D02*
X74075Y-77915D01*
X74075Y-77915D02*
X74075Y-77365D01*
X74075Y-77365D02*
X73797Y-77365D01*
X73125Y-77915D02*
X73403Y-77915D01*
X73125Y-77915D02*
X73125Y-77365D01*
X73125Y-77365D02*
X73403Y-77365D01*
X74987Y-73895D02*
X75265Y-73895D01*
X75265Y-73895D02*
X75265Y-73345D01*
X75265Y-73345D02*
X74987Y-73345D01*
X74315Y-73895D02*
X74593Y-73895D01*
X74315Y-73895D02*
X74315Y-73345D01*
X74315Y-73345D02*
X74593Y-73345D01*
X72445Y-73613D02*
X72445Y-73335D01*
X72445Y-73335D02*
X71895Y-73335D01*
X71895Y-73335D02*
X71895Y-73613D01*
X72445Y-74285D02*
X72445Y-74007D01*
X72445Y-74285D02*
X71895Y-74285D01*
X71895Y-74285D02*
X71895Y-74007D01*
X72167Y-68975D02*
X72445Y-68975D01*
X72445Y-68975D02*
X72445Y-68425D01*
X72445Y-68425D02*
X72167Y-68425D01*
X71495Y-68975D02*
X71773Y-68975D01*
X71495Y-68975D02*
X71495Y-68425D01*
X71495Y-68425D02*
X71773Y-68425D01*
X75927Y-68225D02*
X76205Y-68225D01*
X76205Y-68225D02*
X76205Y-67675D01*
X76205Y-67675D02*
X75927Y-67675D01*
X75255Y-68225D02*
X75533Y-68225D01*
X75255Y-68225D02*
X75255Y-67675D01*
X75255Y-67675D02*
X75533Y-67675D01*
X76505Y-69477D02*
X76505Y-69755D01*
X76505Y-69755D02*
X77055Y-69755D01*
X77055Y-69755D02*
X77055Y-69477D01*
X76505Y-68805D02*
X76505Y-69083D01*
X76505Y-68805D02*
X77055Y-68805D01*
X77055Y-68805D02*
X77055Y-69083D01*
G54D16*
X105083Y-64744D02*
X104808Y-64744D01*
X105477Y-64744D02*
X105752Y-64744D01*
X105083Y-65256D02*
X104808Y-65256D01*
X105752Y-65256D02*
X105477Y-65256D01*
X104808Y-65250D02*
X104808Y-64750D01*
X105752Y-64750D02*
X105752Y-65250D01*
X110446Y-65963D02*
X110446Y-65688D01*
X110446Y-66357D02*
X110446Y-66632D01*
X109934Y-65963D02*
X109934Y-65688D01*
X109934Y-66632D02*
X109934Y-66357D01*
X109940Y-65688D02*
X110440Y-65688D01*
X110440Y-66632D02*
X109940Y-66632D01*
X109174Y-66347D02*
X109174Y-66622D01*
X109174Y-65953D02*
X109174Y-65678D01*
X109686Y-66347D02*
X109686Y-66622D01*
X109686Y-65678D02*
X109686Y-65953D01*
X109680Y-66622D02*
X109180Y-66622D01*
X109180Y-65678D02*
X109680Y-65678D01*
X71753Y-77454D02*
X71478Y-77454D01*
X72147Y-77454D02*
X72422Y-77454D01*
X71753Y-77966D02*
X71478Y-77966D01*
X72422Y-77966D02*
X72147Y-77966D01*
X71478Y-77960D02*
X71478Y-77460D01*
X72422Y-77460D02*
X72422Y-77960D01*
X77746Y-74743D02*
X77746Y-74468D01*
X77746Y-75137D02*
X77746Y-75412D01*
X77234Y-74743D02*
X77234Y-74468D01*
X77234Y-75412D02*
X77234Y-75137D01*
X77240Y-74468D02*
X77740Y-74468D01*
X77740Y-75412D02*
X77240Y-75412D01*
X73803Y-72244D02*
X73528Y-72244D01*
X74197Y-72244D02*
X74472Y-72244D01*
X73803Y-72756D02*
X73528Y-72756D01*
X74472Y-72756D02*
X74197Y-72756D01*
X73528Y-72750D02*
X73528Y-72250D01*
X74472Y-72250D02*
X74472Y-72750D01*
X74244Y-74697D02*
X74244Y-74972D01*
X74244Y-74303D02*
X74244Y-74028D01*
X74756Y-74697D02*
X74756Y-74972D01*
X74756Y-74028D02*
X74756Y-74303D01*
X74750Y-74972D02*
X74250Y-74972D01*
X74250Y-74028D02*
X74750Y-74028D01*
X74173Y-67724D02*
X73898Y-67724D01*
X74567Y-67724D02*
X74842Y-67724D01*
X74173Y-68236D02*
X73898Y-68236D01*
X74842Y-68236D02*
X74567Y-68236D01*
X73898Y-68230D02*
X73898Y-67730D01*
X74842Y-67730D02*
X74842Y-68230D01*
X76427Y-73876D02*
X76702Y-73876D01*
X76033Y-73876D02*
X75758Y-73876D01*
X76427Y-73364D02*
X76702Y-73364D01*
X75758Y-73364D02*
X76033Y-73364D01*
X76702Y-73370D02*
X76702Y-73870D01*
X75758Y-73870D02*
X75758Y-73370D01*
X76554Y-70897D02*
X76554Y-71172D01*
X76554Y-70503D02*
X76554Y-70228D01*
X77066Y-70897D02*
X77066Y-71172D01*
X77066Y-70228D02*
X77066Y-70503D01*
X77060Y-71172D02*
X76560Y-71172D01*
X76560Y-70228D02*
X77060Y-70228D01*
X75447Y-72816D02*
X75722Y-72816D01*
X75053Y-72816D02*
X74778Y-72816D01*
X75447Y-72304D02*
X75722Y-72304D01*
X74778Y-72304D02*
X75053Y-72304D01*
X75722Y-72310D02*
X75722Y-72810D01*
X74778Y-72810D02*
X74778Y-72310D01*
X70584Y-69727D02*
X70584Y-70002D01*
X70584Y-69333D02*
X70584Y-69058D01*
X71096Y-69727D02*
X71096Y-70002D01*
X71096Y-69058D02*
X71096Y-69333D01*
X71090Y-70002D02*
X70590Y-70002D01*
X70590Y-69058D02*
X71090Y-69058D01*
X71126Y-70843D02*
X71126Y-70568D01*
X71126Y-71237D02*
X71126Y-71512D01*
X70614Y-70843D02*
X70614Y-70568D01*
X70614Y-71512D02*
X70614Y-71237D01*
X70620Y-70568D02*
X71120Y-70568D01*
X71120Y-71512D02*
X70620Y-71512D01*
G54D13*
X90900Y-51300D02*
X90900Y-52300D01*
X90900Y-52300D02*
X84900Y-52300D01*
X84900Y-52300D02*
X84900Y-51300D01*
X84900Y-51300D02*
X90900Y-51300D01*
X89900Y-51300D02*
X89900Y-52300D01*
X79600Y-76900D02*
X79600Y-75900D01*
X79600Y-75900D02*
X84600Y-75900D01*
X84600Y-75900D02*
X84600Y-76900D01*
X84600Y-76900D02*
X79600Y-76900D01*
X80600Y-76900D02*
X80600Y-75900D01*
X100400Y-59050D02*
X101400Y-59050D01*
X101400Y-59050D02*
X101400Y-64050D01*
X101400Y-64050D02*
X100400Y-64050D01*
X100400Y-64050D02*
X100400Y-59050D01*
X100400Y-60050D02*
X101400Y-60050D01*
X100450Y-68200D02*
X100450Y-68200D01*
X101450Y-68200D02*
X100450Y-68200D01*
X100450Y-68200D02*
X100450Y-68200D01*
X100450Y-68200D02*
X100450Y-64200D01*
X100450Y-64200D02*
X101450Y-64200D01*
X101450Y-64200D02*
X101450Y-68200D01*
X101450Y-67200D02*
X100450Y-67200D01*
X84600Y-76900D02*
X84600Y-75900D01*
X84600Y-75900D02*
X86600Y-75900D01*
X86600Y-75900D02*
X86600Y-76900D01*
X86600Y-76900D02*
X84600Y-76900D01*
G54D17*
X107967Y-64803D02*
X107967Y-65157D01*
X107967Y-65157D02*
X108124Y-65157D01*
X108124Y-64803D02*
X108124Y-65157D01*
X107967Y-64803D02*
X108124Y-64803D01*
X107456Y-64803D02*
X107456Y-65157D01*
X107456Y-65157D02*
X107613Y-65157D01*
X107613Y-64803D02*
X107613Y-65157D01*
X107456Y-64803D02*
X107613Y-64803D01*
X107790Y-64803D02*
X107790Y-64862D01*
X107790Y-64862D02*
X107908Y-64862D01*
X107908Y-64803D02*
X107908Y-64862D01*
X107790Y-64803D02*
X107908Y-64803D01*
X107790Y-65098D02*
X107790Y-65157D01*
X107790Y-65157D02*
X107908Y-65157D01*
X107908Y-65098D02*
X107908Y-65157D01*
X107790Y-65098D02*
X107908Y-65098D01*
X107790Y-64921D02*
X107790Y-65039D01*
X107790Y-65039D02*
X107908Y-65039D01*
X107908Y-64921D02*
X107908Y-65039D01*
X107790Y-64921D02*
X107908Y-64921D01*
G54D18*
X107967Y-64823D02*
X107613Y-64823D01*
X107967Y-65137D02*
X107613Y-65137D01*
G54D17*
X109267Y-64793D02*
X109267Y-65147D01*
X109267Y-65147D02*
X109424Y-65147D01*
X109424Y-64793D02*
X109424Y-65147D01*
X109267Y-64793D02*
X109424Y-64793D01*
X108756Y-64793D02*
X108756Y-65147D01*
X108756Y-65147D02*
X108913Y-65147D01*
X108913Y-64793D02*
X108913Y-65147D01*
X108756Y-64793D02*
X108913Y-64793D01*
X109090Y-64793D02*
X109090Y-64852D01*
X109090Y-64852D02*
X109208Y-64852D01*
X109208Y-64793D02*
X109208Y-64852D01*
X109090Y-64793D02*
X109208Y-64793D01*
X109090Y-65088D02*
X109090Y-65147D01*
X109090Y-65147D02*
X109208Y-65147D01*
X109208Y-65088D02*
X109208Y-65147D01*
X109090Y-65088D02*
X109208Y-65088D01*
X109090Y-64911D02*
X109090Y-65029D01*
X109090Y-65029D02*
X109208Y-65029D01*
X109208Y-64911D02*
X109208Y-65029D01*
X109090Y-64911D02*
X109208Y-64911D01*
G54D18*
X109267Y-64813D02*
X108913Y-64813D01*
X109267Y-65127D02*
X108913Y-65127D01*
G54D12*
X70000Y-58300D02*
X69700Y-58300D01*
X69700Y-58300D02*
X69700Y-61700D01*
X69700Y-61700D02*
X70000Y-61700D01*
X71200Y-58300D02*
X71200Y-61700D01*
X75000Y-58300D02*
X75000Y-61700D01*
X70000Y-61700D02*
X75000Y-61700D01*
X70000Y-58300D02*
X75000Y-58300D01*
X72638Y-69828D02*
G75*
G03X72638Y-69828I-98J0D01*
G74*
G01*
X71851Y-69336D02*
X73524Y-69336D01*
X73524Y-69336D02*
X73524Y-71009D01*
X73229Y-71304D02*
X71556Y-71304D01*
X71556Y-71304D02*
X71556Y-69631D01*
X73524Y-71009D02*
G75*
G03X73229Y-71304I0J-295D01*
G74*
G01*
X71556Y-69631D02*
G75*
G03X71851Y-69336I0J295D01*
G74*
G01*
X73327Y-70320D02*
G75*
G03X73327Y-70320I-787J0D01*
G74*
G01*
X72988Y-75298D02*
G75*
G03X72988Y-75298I-98J0D01*
G74*
G01*
X72201Y-74806D02*
X73874Y-74806D01*
X73874Y-74806D02*
X73874Y-76479D01*
X73579Y-76774D02*
X71906Y-76774D01*
X71906Y-76774D02*
X71906Y-75101D01*
X73874Y-76479D02*
G75*
G03X73579Y-76774I0J-295D01*
G74*
G01*
X71906Y-75101D02*
G75*
G03X72201Y-74806I0J295D01*
G74*
G01*
X73677Y-75790D02*
G75*
G03X73677Y-75790I-787J0D01*
G74*
G01*
G54D15*
X69400Y-50900D02*
X69400Y-56900D01*
X69400Y-56900D02*
X76500Y-56900D01*
X76500Y-56900D02*
X76500Y-50900D01*
X76500Y-50900D02*
X69400Y-50900D01*
G54D19*
X112787Y-69314D02*
X112787Y-66006D01*
X112827Y-69314D02*
X112827Y-66006D01*
X112827Y-66006D02*
X112748Y-66006D01*
X112748Y-66006D02*
X112748Y-69314D01*
X112748Y-69314D02*
X112827Y-69314D01*
X112827Y-69195D02*
X110858Y-69195D01*
X110858Y-69195D02*
X110858Y-66125D01*
X110858Y-66125D02*
X112827Y-66125D01*
G54D12*
X92798Y-53163D02*
X93192Y-53163D01*
X92798Y-53655D02*
X92798Y-53163D01*
X93192Y-53655D02*
X92798Y-53655D01*
X92798Y-51785D02*
X93192Y-51785D01*
X92798Y-51883D02*
X92798Y-51785D01*
X92798Y-52277D02*
X92798Y-51883D01*
X93192Y-52277D02*
X92798Y-52277D01*
X98557Y-53213D02*
X98951Y-53213D01*
X98951Y-53213D02*
X98951Y-53607D01*
X98951Y-53607D02*
X98951Y-53705D01*
X98951Y-53705D02*
X98557Y-53705D01*
X98557Y-51835D02*
X98951Y-51835D01*
X98951Y-51835D02*
X98951Y-52327D01*
X98951Y-52327D02*
X98557Y-52327D01*
X96294Y-53940D02*
G75*
G03X95506Y-53940I-394J-394D01*
G74*
G01*
X93243Y-52858D02*
X93243Y-53646D01*
X98557Y-52858D02*
X98557Y-53646D01*
X98556Y-53646D02*
G75*
G02X96390Y-54039I-1279J886D01*
G74*
G01*
X93242Y-53646D02*
G75*
G03X95408Y-54039I1279J886D01*
G74*
G01*
X98065Y-50693D02*
X98557Y-51283D01*
X98557Y-51283D02*
X98557Y-52858D01*
X98065Y-50693D02*
X93735Y-50693D01*
X93735Y-50693D02*
X93243Y-51283D01*
X93243Y-51283D02*
X93243Y-52858D01*
G54D17*
X96750Y-70550D02*
X96750Y-56300D01*
X96750Y-56300D02*
X82500Y-56300D01*
X82500Y-70550D02*
X82500Y-56300D01*
X96750Y-70550D02*
X82500Y-70550D01*
X83500Y-71300D02*
X83500Y-69550D01*
X83500Y-69550D02*
X81750Y-69550D01*
X81750Y-71300D02*
X81750Y-69550D01*
X83500Y-71300D02*
X81750Y-71300D01*
X83500Y-57300D02*
X83500Y-55550D01*
X83500Y-55550D02*
X81750Y-55550D01*
X81750Y-57300D02*
X81750Y-55550D01*
X83500Y-57300D02*
X81750Y-57300D01*
X97500Y-57300D02*
X97500Y-55550D01*
X97500Y-55550D02*
X95750Y-55550D01*
X95750Y-57300D02*
X95750Y-55550D01*
X97500Y-57300D02*
X95750Y-57300D01*
X97500Y-71300D02*
X97500Y-69550D01*
X97500Y-69550D02*
X95750Y-69550D01*
X95750Y-71300D02*
X95750Y-69550D01*
X97500Y-71300D02*
X95750Y-71300D01*
X97500Y-71300D02*
X97500Y-69550D01*
X97500Y-69550D02*
X95750Y-69550D01*
X95750Y-71300D02*
X95750Y-69550D01*
X97500Y-71300D02*
X95750Y-71300D01*
X97500Y-57300D02*
X97500Y-55550D01*
X97500Y-55550D02*
X95750Y-55550D01*
X95750Y-57300D02*
X95750Y-55550D01*
X97500Y-57300D02*
X95750Y-57300D01*
X83500Y-57300D02*
X83500Y-55550D01*
X83500Y-55550D02*
X81750Y-55550D01*
X81750Y-57300D02*
X81750Y-55550D01*
X83500Y-57300D02*
X81750Y-57300D01*
X83500Y-71300D02*
X83500Y-69550D01*
X83500Y-69550D02*
X81750Y-69550D01*
X81750Y-71300D02*
X81750Y-69550D01*
X83500Y-71300D02*
X81750Y-71300D01*
G54D15*
X97500Y-69800D02*
X97500Y-69550D01*
X95750Y-71300D02*
X96000Y-71300D01*
G54D20*
X97500Y-71300D02*
X97500Y-69550D01*
X97500Y-69550D02*
X96750Y-69550D01*
X96750Y-69550D02*
X95750Y-69550D01*
X95750Y-69550D02*
X95750Y-70550D01*
X95750Y-70550D02*
X95750Y-71300D01*
X95750Y-71300D02*
X97500Y-71300D01*
X95750Y-55550D02*
X95750Y-56300D01*
X95750Y-56300D02*
X95750Y-57300D01*
X95750Y-55550D02*
X97500Y-55550D01*
X95750Y-57300D02*
X96750Y-57300D01*
X96750Y-57300D02*
X97500Y-57300D01*
X97500Y-55550D02*
X97500Y-57300D01*
X81750Y-69550D02*
X81750Y-71300D01*
X83500Y-69550D02*
X82500Y-69550D01*
X82500Y-69550D02*
X81750Y-69550D01*
X83500Y-69550D02*
X83500Y-70550D01*
X83500Y-70550D02*
X83500Y-71300D01*
X83500Y-71300D02*
X81750Y-71300D01*
X83500Y-55550D02*
X81750Y-55550D01*
X83500Y-55550D02*
X83500Y-56300D01*
X83500Y-56300D02*
X83500Y-57300D01*
X81750Y-55550D02*
X81750Y-57300D01*
X83500Y-57300D02*
X82500Y-57300D01*
X82500Y-57300D02*
X81750Y-57300D01*
X95750Y-56300D02*
X83500Y-56300D01*
X82500Y-69550D02*
X82500Y-57300D01*
X83500Y-70550D02*
X95750Y-70550D01*
X96750Y-69550D02*
X96750Y-57300D01*
G54D15*
X83375Y-63800D02*
X83375Y-62800D01*
X83375Y-62800D02*
X82875Y-63300D01*
X82875Y-63300D02*
X83375Y-63800D01*
G54D21*
X96943Y-70425D02*
G75*
G03X96943Y-70425I-318J0D01*
G74*
G01*
X82943Y-70425D02*
G75*
G03X82943Y-70425I-318J0D01*
G74*
G01*
X82943Y-56425D02*
G75*
G03X82943Y-56425I-318J0D01*
G74*
G01*
X96943Y-56425D02*
G75*
G03X96943Y-56425I-318J0D01*
G74*
G01*
G54D15*
X96930Y-70425D02*
G75*
G03X96930Y-70425I-305J0D01*
G74*
G01*
X96625Y-70859D02*
X96625Y-69992D01*
X97059Y-70425D02*
X96192Y-70425D01*
X82930Y-70425D02*
G75*
G03X82930Y-70425I-305J0D01*
G74*
G01*
X82625Y-70859D02*
X82625Y-69992D01*
X83059Y-70425D02*
X82192Y-70425D01*
X82930Y-56425D02*
G75*
G03X82930Y-56425I-305J0D01*
G74*
G01*
X82625Y-56859D02*
X82625Y-55992D01*
X83059Y-56425D02*
X82192Y-56425D01*
X96930Y-56425D02*
G75*
G03X96930Y-56425I-305J0D01*
G74*
G01*
X96625Y-56859D02*
X96625Y-55992D01*
X97059Y-56425D02*
X96192Y-56425D01*
G54D13*
X77560Y-62290D02*
X78560Y-62290D01*
X78560Y-62290D02*
X78560Y-71290D01*
X78560Y-71290D02*
X77560Y-71290D01*
X77560Y-62290D02*
X77560Y-71290D01*
X77560Y-70290D02*
X78560Y-70290D01*
X78600Y-54300D02*
X78600Y-62300D01*
X78600Y-62300D02*
X77600Y-62300D01*
X77600Y-62300D02*
X77600Y-54300D01*
X77600Y-54300D02*
X78600Y-54300D01*
X77600Y-55300D02*
X78600Y-55300D01*
X96600Y-75900D02*
X96600Y-75900D01*
X96600Y-76900D02*
X96600Y-75900D01*
X96600Y-75900D02*
X96600Y-75900D01*
X96600Y-75900D02*
X100600Y-75900D01*
X100600Y-75900D02*
X100600Y-76900D01*
X100600Y-76900D02*
X96600Y-76900D01*
X97600Y-76900D02*
X97600Y-75900D01*
X96590Y-75900D02*
X96590Y-76900D01*
X96590Y-76900D02*
X86590Y-76900D01*
X86590Y-76900D02*
X86590Y-75900D01*
X86590Y-75900D02*
X96590Y-75900D01*
X95590Y-75900D02*
X95590Y-76900D01*
X84800Y-52300D02*
X76800Y-52300D01*
X76800Y-52300D02*
X76800Y-51300D01*
X76800Y-51300D02*
X84800Y-51300D01*
X84800Y-51300D02*
X84800Y-52300D01*
X83800Y-51300D02*
X83800Y-52300D01*
G54D12*
X112130Y-51900D02*
X112130Y-55000D01*
X112030Y-55000D02*
X112230Y-55000D01*
X112230Y-55000D02*
X112230Y-51900D01*
X112230Y-51900D02*
X112030Y-51900D01*
X112030Y-51900D02*
X112030Y-55000D01*
X104530Y-52300D02*
X104530Y-54600D01*
X104530Y-54600D02*
X112130Y-54600D01*
X112130Y-52300D02*
X104530Y-52300D01*
X111400Y-74610D02*
X111400Y-77710D01*
X111300Y-77710D02*
X111500Y-77710D01*
X111500Y-77710D02*
X111500Y-74610D01*
X111500Y-74610D02*
X111300Y-74610D01*
X111300Y-74610D02*
X111300Y-77710D01*
X103800Y-75010D02*
X103800Y-77310D01*
X103800Y-77310D02*
X111400Y-77310D01*
X111400Y-75010D02*
X103800Y-75010D01*
G54D15*
X73250Y-63800D02*
X72350Y-63800D01*
X72350Y-63800D02*
X72350Y-64450D01*
X73250Y-65150D02*
X73250Y-65800D01*
X73250Y-65800D02*
X72350Y-65800D01*
X72350Y-65800D02*
X72350Y-65150D01*
X73250Y-64450D02*
X73250Y-63800D01*
X70600Y-71950D02*
X70600Y-72850D01*
X70600Y-72850D02*
X71250Y-72850D01*
X71950Y-71950D02*
X72600Y-71950D01*
X72600Y-71950D02*
X72600Y-72850D01*
X72600Y-72850D02*
X71950Y-72850D01*
X71250Y-71950D02*
X70600Y-71950D01*
X77797Y-73975D02*
X78075Y-73975D01*
X78075Y-73975D02*
X78075Y-73425D01*
X78075Y-73425D02*
X77797Y-73425D01*
X77125Y-73975D02*
X77403Y-73975D01*
X77125Y-73975D02*
X77125Y-73425D01*
X77125Y-73425D02*
X77403Y-73425D01*
X75997Y-67275D02*
X76275Y-67275D01*
X76275Y-67275D02*
X76275Y-66725D01*
X76275Y-66725D02*
X75997Y-66725D01*
X75325Y-67275D02*
X75603Y-67275D01*
X75325Y-67275D02*
X75325Y-66725D01*
X75325Y-66725D02*
X75603Y-66725D01*
X74197Y-65075D02*
X74475Y-65075D01*
X74475Y-65075D02*
X74475Y-64525D01*
X74475Y-64525D02*
X74197Y-64525D01*
X73525Y-65075D02*
X73803Y-65075D01*
X73525Y-65075D02*
X73525Y-64525D01*
X73525Y-64525D02*
X73803Y-64525D01*
X73803Y-65325D02*
X73525Y-65325D01*
X73525Y-65325D02*
X73525Y-65875D01*
X73525Y-65875D02*
X73803Y-65875D01*
X74475Y-65325D02*
X74197Y-65325D01*
X74475Y-65325D02*
X74475Y-65875D01*
X74475Y-65875D02*
X74197Y-65875D01*
X73103Y-73125D02*
X72825Y-73125D01*
X72825Y-73125D02*
X72825Y-73675D01*
X72825Y-73675D02*
X73103Y-73675D01*
X73775Y-73125D02*
X73497Y-73125D01*
X73775Y-73125D02*
X73775Y-73675D01*
X73775Y-73675D02*
X73497Y-73675D01*
X73103Y-73925D02*
X72825Y-73925D01*
X72825Y-73925D02*
X72825Y-74475D01*
X72825Y-74475D02*
X73103Y-74475D01*
X73775Y-73925D02*
X73497Y-73925D01*
X73775Y-73925D02*
X73775Y-74475D01*
X73775Y-74475D02*
X73497Y-74475D01*
X77503Y-77425D02*
X77225Y-77425D01*
X77225Y-77425D02*
X77225Y-77975D01*
X77225Y-77975D02*
X77503Y-77975D01*
X78175Y-77425D02*
X77897Y-77425D01*
X78175Y-77425D02*
X78175Y-77975D01*
X78175Y-77975D02*
X77897Y-77975D01*
X77403Y-76325D02*
X77125Y-76325D01*
X77125Y-76325D02*
X77125Y-76875D01*
X77125Y-76875D02*
X77403Y-76875D01*
X78075Y-76325D02*
X77797Y-76325D01*
X78075Y-76325D02*
X78075Y-76875D01*
X78075Y-76875D02*
X77797Y-76875D01*
X77603Y-78625D02*
X77325Y-78625D01*
X77325Y-78625D02*
X77325Y-79175D01*
X77325Y-79175D02*
X77603Y-79175D01*
X78275Y-78625D02*
X77997Y-78625D01*
X78275Y-78625D02*
X78275Y-79175D01*
X78275Y-79175D02*
X77997Y-79175D01*
G54D22*
G36*
X103502Y-65090D02*
X103509Y-65086D01*
X103524Y-65077D01*
X103546Y-65062D01*
X103572Y-65045D01*
X103598Y-65027D01*
X103620Y-65013D01*
X103635Y-65003D01*
X103641Y-65000D01*
X103644Y-65001D01*
X103657Y-65007D01*
X103674Y-65016D01*
X103685Y-65022D01*
X103701Y-65029D01*
X103710Y-65030D01*
X103711Y-65028D01*
X103717Y-65016D01*
X103726Y-64994D01*
X103739Y-64966D01*
X103753Y-64932D01*
X103768Y-64896D01*
X103784Y-64860D01*
X103798Y-64825D01*
X103811Y-64793D01*
X103821Y-64767D01*
X103828Y-64750D01*
X103831Y-64742D01*
X103830Y-64740D01*
X103822Y-64732D01*
X103807Y-64722D01*
X103776Y-64696D01*
X103745Y-64658D01*
X103727Y-64615D01*
X103720Y-64566D01*
X103726Y-64521D01*
X103743Y-64479D01*
X103773Y-64440D01*
X103810Y-64411D01*
X103852Y-64393D01*
X103900Y-64387D01*
X103945Y-64392D01*
X103989Y-64410D01*
X104028Y-64439D01*
X104045Y-64458D01*
X104067Y-64497D01*
X104080Y-64539D01*
X104081Y-64550D01*
X104079Y-64596D01*
X104066Y-64640D01*
X104041Y-64679D01*
X104008Y-64712D01*
X104003Y-64715D01*
X103988Y-64727D01*
X103977Y-64735D01*
X103969Y-64741D01*
X104028Y-64883D01*
X104037Y-64905D01*
X104053Y-64944D01*
X104067Y-64977D01*
X104079Y-65004D01*
X104087Y-65022D01*
X104090Y-65029D01*
X104090Y-65029D01*
X104096Y-65030D01*
X104106Y-65026D01*
X104126Y-65017D01*
X104139Y-65010D01*
X104154Y-65003D01*
X104161Y-65000D01*
X104167Y-65003D01*
X104181Y-65012D01*
X104202Y-65026D01*
X104228Y-65044D01*
X104252Y-65060D01*
X104274Y-65075D01*
X104290Y-65085D01*
X104298Y-65089D01*
X104299Y-65089D01*
X104306Y-65085D01*
X104319Y-65075D01*
X104338Y-65057D01*
X104365Y-65030D01*
X104369Y-65025D01*
X104392Y-65003D01*
X104410Y-64984D01*
X104422Y-64970D01*
X104427Y-64964D01*
X104427Y-64964D01*
X104423Y-64956D01*
X104412Y-64940D01*
X104398Y-64917D01*
X104380Y-64891D01*
X104333Y-64823D01*
X104359Y-64759D01*
X104367Y-64739D01*
X104377Y-64715D01*
X104384Y-64698D01*
X104388Y-64691D01*
X104395Y-64688D01*
X104412Y-64684D01*
X104438Y-64679D01*
X104468Y-64673D01*
X104497Y-64668D01*
X104523Y-64663D01*
X104542Y-64659D01*
X104551Y-64658D01*
X104553Y-64656D01*
X104555Y-64652D01*
X104556Y-64643D01*
X104556Y-64627D01*
X104557Y-64602D01*
X104557Y-64566D01*
X104557Y-64562D01*
X104556Y-64528D01*
X104556Y-64500D01*
X104555Y-64483D01*
X104554Y-64476D01*
X104554Y-64476D01*
X104545Y-64474D01*
X104527Y-64470D01*
X104501Y-64465D01*
X104470Y-64459D01*
X104468Y-64458D01*
X104437Y-64452D01*
X104410Y-64447D01*
X104392Y-64443D01*
X104385Y-64440D01*
X104383Y-64438D01*
X104377Y-64426D01*
X104368Y-64407D01*
X104357Y-64383D01*
X104347Y-64359D01*
X104339Y-64337D01*
X104333Y-64320D01*
X104331Y-64313D01*
X104331Y-64313D01*
X104336Y-64305D01*
X104346Y-64289D01*
X104361Y-64267D01*
X104380Y-64240D01*
X104381Y-64238D01*
X104399Y-64212D01*
X104413Y-64190D01*
X104423Y-64174D01*
X104427Y-64167D01*
X104426Y-64166D01*
X104421Y-64159D01*
X104407Y-64144D01*
X104388Y-64124D01*
X104365Y-64100D01*
X104358Y-64093D01*
X104332Y-64068D01*
X104314Y-64052D01*
X104303Y-64043D01*
X104298Y-64041D01*
X104298Y-64041D01*
X104290Y-64046D01*
X104273Y-64057D01*
X104251Y-64072D01*
X104224Y-64090D01*
X104222Y-64092D01*
X104196Y-64110D01*
X104174Y-64124D01*
X104159Y-64135D01*
X104152Y-64139D01*
X104151Y-64139D01*
X104140Y-64136D01*
X104121Y-64129D01*
X104098Y-64120D01*
X104074Y-64110D01*
X104052Y-64101D01*
X104035Y-64094D01*
X104028Y-64089D01*
X104027Y-64089D01*
X104025Y-64079D01*
X104020Y-64060D01*
X104014Y-64033D01*
X104008Y-64000D01*
X104007Y-63995D01*
X104001Y-63964D01*
X103996Y-63938D01*
X103993Y-63920D01*
X103991Y-63913D01*
X103986Y-63912D01*
X103971Y-63911D01*
X103948Y-63910D01*
X103920Y-63910D01*
X103890Y-63910D01*
X103861Y-63911D01*
X103837Y-63911D01*
X103819Y-63913D01*
X103811Y-63914D01*
X103811Y-63915D01*
X103808Y-63924D01*
X103804Y-63944D01*
X103799Y-63971D01*
X103792Y-64003D01*
X103791Y-64009D01*
X103785Y-64040D01*
X103780Y-64066D01*
X103776Y-64084D01*
X103774Y-64091D01*
X103772Y-64092D01*
X103759Y-64098D01*
X103738Y-64106D01*
X103712Y-64117D01*
X103652Y-64141D01*
X103578Y-64091D01*
X103571Y-64086D01*
X103545Y-64068D01*
X103523Y-64053D01*
X103508Y-64044D01*
X103501Y-64040D01*
X103501Y-64040D01*
X103493Y-64047D01*
X103479Y-64060D01*
X103459Y-64080D01*
X103436Y-64103D01*
X103418Y-64120D01*
X103398Y-64141D01*
X103385Y-64155D01*
X103378Y-64164D01*
X103376Y-64169D01*
X103376Y-64173D01*
X103381Y-64180D01*
X103392Y-64197D01*
X103407Y-64219D01*
X103425Y-64245D01*
X103440Y-64267D01*
X103456Y-64292D01*
X103466Y-64309D01*
X103470Y-64318D01*
X103469Y-64322D01*
X103464Y-64336D01*
X103455Y-64358D01*
X103444Y-64384D01*
X103418Y-64442D01*
X103380Y-64450D01*
X103357Y-64454D01*
X103324Y-64460D01*
X103293Y-64466D01*
X103245Y-64476D01*
X103243Y-64653D01*
X103251Y-64656D01*
X103258Y-64658D01*
X103276Y-64662D01*
X103301Y-64667D01*
X103332Y-64673D01*
X103357Y-64678D01*
X103383Y-64683D01*
X103402Y-64686D01*
X103410Y-64688D01*
X103412Y-64691D01*
X103419Y-64703D01*
X103428Y-64723D01*
X103438Y-64747D01*
X103449Y-64772D01*
X103458Y-64795D01*
X103464Y-64813D01*
X103467Y-64822D01*
X103463Y-64829D01*
X103453Y-64844D01*
X103439Y-64866D01*
X103421Y-64892D01*
X103404Y-64917D01*
X103389Y-64940D01*
X103379Y-64955D01*
X103374Y-64963D01*
X103376Y-64968D01*
X103387Y-64980D01*
X103406Y-65000D01*
X103435Y-65029D01*
X103440Y-65033D01*
X103463Y-65056D01*
X103482Y-65074D01*
X103496Y-65086D01*
X103502Y-65090D01*
X103502Y-65090D01*
G37*
G36*
X108571Y-62668D02*
X108273Y-62668D01*
X108273Y-60534D01*
X108272Y-60438D01*
X108272Y-60350D01*
X108270Y-60272D01*
X108269Y-60207D01*
X108267Y-60158D01*
X108265Y-60128D01*
X108263Y-60120D01*
X108259Y-60114D01*
X108253Y-60108D01*
X108243Y-60104D01*
X108229Y-60099D01*
X108209Y-60096D01*
X108183Y-60092D01*
X108148Y-60090D01*
X108103Y-60087D01*
X108048Y-60086D01*
X107981Y-60084D01*
X107900Y-60083D01*
X107805Y-60082D01*
X107694Y-60081D01*
X107565Y-60081D01*
X107418Y-60080D01*
X107252Y-60080D01*
X107064Y-60080D01*
X106854Y-60080D01*
X106805Y-60080D01*
X105422Y-60080D01*
X105364Y-60044D01*
X105277Y-60000D01*
X105195Y-59976D01*
X105145Y-59973D01*
X105111Y-59974D01*
X105086Y-59982D01*
X105060Y-60000D01*
X105030Y-60026D01*
X104997Y-60054D01*
X104967Y-60073D01*
X104949Y-60080D01*
X104929Y-60072D01*
X104899Y-60049D01*
X104865Y-60017D01*
X104859Y-60011D01*
X104804Y-59948D01*
X104770Y-59894D01*
X104757Y-59850D01*
X104764Y-59812D01*
X104793Y-59779D01*
X104844Y-59750D01*
X104880Y-59735D01*
X104921Y-59718D01*
X104956Y-59700D01*
X104972Y-59689D01*
X104991Y-59658D01*
X104988Y-59616D01*
X104964Y-59564D01*
X104918Y-59502D01*
X104851Y-59431D01*
X104839Y-59419D01*
X104794Y-59374D01*
X104750Y-59324D01*
X104713Y-59279D01*
X104703Y-59265D01*
X104676Y-59228D01*
X104658Y-59211D01*
X104650Y-59212D01*
X104649Y-59214D01*
X104649Y-59255D01*
X104665Y-59307D01*
X104696Y-59371D01*
X104713Y-59399D01*
X104746Y-59461D01*
X104763Y-59512D01*
X104763Y-59551D01*
X104745Y-59580D01*
X104709Y-59598D01*
X104652Y-59609D01*
X104574Y-59610D01*
X104475Y-59605D01*
X104456Y-59603D01*
X104307Y-59590D01*
X104274Y-59626D01*
X104253Y-59656D01*
X104242Y-59684D01*
X104242Y-59689D01*
X104249Y-59727D01*
X104271Y-59777D01*
X104303Y-59837D01*
X104330Y-59879D01*
X104356Y-59920D01*
X104369Y-59945D01*
X104368Y-59954D01*
X104353Y-59951D01*
X104340Y-59945D01*
X104314Y-59933D01*
X104272Y-59918D01*
X104222Y-59902D01*
X104200Y-59895D01*
X104126Y-59872D01*
X104070Y-59849D01*
X104028Y-59827D01*
X103993Y-59801D01*
X103964Y-59772D01*
X103940Y-59745D01*
X103922Y-59721D01*
X103908Y-59696D01*
X103895Y-59664D01*
X103881Y-59621D01*
X103863Y-59561D01*
X103860Y-59549D01*
X103830Y-59457D01*
X103797Y-59385D01*
X103758Y-59327D01*
X103708Y-59278D01*
X103643Y-59234D01*
X103579Y-59200D01*
X103537Y-59181D01*
X103485Y-59160D01*
X103428Y-59140D01*
X103374Y-59122D01*
X103327Y-59109D01*
X103295Y-59102D01*
X103289Y-59101D01*
X103264Y-59096D01*
X103223Y-59081D01*
X103172Y-59059D01*
X103117Y-59032D01*
X103063Y-59004D01*
X103016Y-58976D01*
X103005Y-58970D01*
X102968Y-58947D01*
X102939Y-58931D01*
X102922Y-58926D01*
X102921Y-58927D01*
X102919Y-58943D01*
X102930Y-58971D01*
X102948Y-59003D01*
X102972Y-59031D01*
X102975Y-59033D01*
X103002Y-59057D01*
X103036Y-59080D01*
X103079Y-59106D01*
X103134Y-59134D01*
X103205Y-59169D01*
X103278Y-59203D01*
X103369Y-59246D01*
X103439Y-59282D01*
X103492Y-59315D01*
X103531Y-59346D01*
X103558Y-59376D01*
X103576Y-59407D01*
X103578Y-59412D01*
X103587Y-59440D01*
X103591Y-59467D01*
X103588Y-59496D01*
X103576Y-59534D01*
X103555Y-59584D01*
X103534Y-59632D01*
X103509Y-59693D01*
X103491Y-59746D01*
X103484Y-59793D01*
X103488Y-59837D01*
X103504Y-59878D01*
X103534Y-59919D01*
X103578Y-59960D01*
X103639Y-60005D01*
X103717Y-60053D01*
X103814Y-60108D01*
X103930Y-60170D01*
X103971Y-60192D01*
X104041Y-60228D01*
X104010Y-60255D01*
X103971Y-60279D01*
X103915Y-60301D01*
X103851Y-60318D01*
X103786Y-60328D01*
X103746Y-60330D01*
X103692Y-60328D01*
X103641Y-60320D01*
X103590Y-60304D01*
X103534Y-60279D01*
X103471Y-60243D01*
X103396Y-60195D01*
X103323Y-60145D01*
X103225Y-60077D01*
X103141Y-60024D01*
X103068Y-59982D01*
X103001Y-59950D01*
X102937Y-59927D01*
X102872Y-59911D01*
X102802Y-59900D01*
X102756Y-59895D01*
X102709Y-59892D01*
X102669Y-59894D01*
X102625Y-59903D01*
X102571Y-59919D01*
X102521Y-59936D01*
X102477Y-59953D01*
X102446Y-59968D01*
X102440Y-59971D01*
X102401Y-59994D01*
X102344Y-60018D01*
X102267Y-60046D01*
X102207Y-60065D01*
X102143Y-60082D01*
X102074Y-60093D01*
X101993Y-60100D01*
X101971Y-60101D01*
X101911Y-60104D01*
X101871Y-60107D01*
X101849Y-60111D01*
X101842Y-60117D01*
X101844Y-60122D01*
X101870Y-60139D01*
X101917Y-60152D01*
X101983Y-60162D01*
X102064Y-60169D01*
X102159Y-60172D01*
X102263Y-60172D01*
X102376Y-60168D01*
X102493Y-60160D01*
X102514Y-60158D01*
X102603Y-60150D01*
X102673Y-60146D01*
X102728Y-60144D01*
X102772Y-60144D01*
X102811Y-60148D01*
X102831Y-60150D01*
X102932Y-60175D01*
X103028Y-60218D01*
X103121Y-60280D01*
X103214Y-60363D01*
X103270Y-60423D01*
X103356Y-60518D01*
X103430Y-60597D01*
X103495Y-60661D01*
X103553Y-60710D01*
X103606Y-60750D01*
X103656Y-60780D01*
X103708Y-60804D01*
X103756Y-60821D01*
X103847Y-60838D01*
X103950Y-60838D01*
X104067Y-60822D01*
X104167Y-60797D01*
X104290Y-60762D01*
X104312Y-60793D01*
X104342Y-60842D01*
X104361Y-60887D01*
X104372Y-60936D01*
X104376Y-61007D01*
X104360Y-61068D01*
X104320Y-61123D01*
X104311Y-61131D01*
X104278Y-61158D01*
X104235Y-61181D01*
X104180Y-61201D01*
X104110Y-61218D01*
X104022Y-61235D01*
X103938Y-61248D01*
X103847Y-61262D01*
X103777Y-61275D01*
X103722Y-61290D01*
X103679Y-61307D01*
X103642Y-61327D01*
X103609Y-61353D01*
X103605Y-61356D01*
X103558Y-61408D01*
X103527Y-61467D01*
X103513Y-61534D01*
X103515Y-61613D01*
X103534Y-61705D01*
X103568Y-61811D01*
X103585Y-61854D01*
X103648Y-62012D01*
X103629Y-62131D01*
X103620Y-62184D01*
X103614Y-62230D01*
X103610Y-62263D01*
X103609Y-62274D01*
X103615Y-62293D01*
X103632Y-62296D01*
X103656Y-62284D01*
X103686Y-62260D01*
X103717Y-62227D01*
X103747Y-62187D01*
X103773Y-62144D01*
X103787Y-62113D01*
X103800Y-62075D01*
X103808Y-62036D01*
X103814Y-61990D01*
X103817Y-61929D01*
X103818Y-61898D01*
X103826Y-61786D01*
X103845Y-61693D01*
X103876Y-61618D01*
X103920Y-61559D01*
X103978Y-61514D01*
X104001Y-61502D01*
X104035Y-61486D01*
X104065Y-61477D01*
X104099Y-61472D01*
X104143Y-61470D01*
X104188Y-61470D01*
X104317Y-61479D01*
X104438Y-61502D01*
X104549Y-61526D01*
X104641Y-61543D01*
X104716Y-61552D01*
X104777Y-61554D01*
X104826Y-61549D01*
X104868Y-61537D01*
X104885Y-61529D01*
X104912Y-61510D01*
X104932Y-61483D01*
X104946Y-61445D01*
X104953Y-61392D01*
X104957Y-61321D01*
X104957Y-61276D01*
X104958Y-61217D01*
X104960Y-61165D01*
X104963Y-61128D01*
X104967Y-61108D01*
X104968Y-61106D01*
X104977Y-61100D01*
X104995Y-61102D01*
X105025Y-61114D01*
X105066Y-61133D01*
X105165Y-61191D01*
X105246Y-61259D01*
X105306Y-61337D01*
X105338Y-61403D01*
X105343Y-61431D01*
X105349Y-61479D01*
X105354Y-61546D01*
X105359Y-61627D01*
X105361Y-61702D01*
X105367Y-61817D01*
X105374Y-61911D01*
X105386Y-61987D01*
X105403Y-62047D01*
X105428Y-62095D01*
X105461Y-62134D01*
X105505Y-62165D01*
X105561Y-62192D01*
X105630Y-62217D01*
X105659Y-62227D01*
X105762Y-62263D01*
X105846Y-62299D01*
X105914Y-62337D01*
X105970Y-62380D01*
X106019Y-62430D01*
X106046Y-62465D01*
X106075Y-62499D01*
X106093Y-62513D01*
X106101Y-62508D01*
X106096Y-62484D01*
X106079Y-62445D01*
X106069Y-62427D01*
X106047Y-62393D01*
X106006Y-62345D01*
X105951Y-62283D01*
X105880Y-62210D01*
X105838Y-62167D01*
X105762Y-62090D01*
X105701Y-62026D01*
X105655Y-61973D01*
X105622Y-61927D01*
X105599Y-61887D01*
X105585Y-61849D01*
X105578Y-61811D01*
X105577Y-61778D01*
X105578Y-61733D01*
X105586Y-61697D01*
X105601Y-61664D01*
X105628Y-61627D01*
X105664Y-61585D01*
X105710Y-61531D01*
X105741Y-61488D01*
X105758Y-61450D01*
X105766Y-61413D01*
X105767Y-61389D01*
X105762Y-61339D01*
X105745Y-61290D01*
X105715Y-61239D01*
X105668Y-61183D01*
X105605Y-61118D01*
X105588Y-61102D01*
X105464Y-60985D01*
X105625Y-60985D01*
X105785Y-60985D01*
X105976Y-61182D01*
X106038Y-61245D01*
X106086Y-61293D01*
X106123Y-61329D01*
X106152Y-61354D01*
X106176Y-61372D01*
X106197Y-61383D01*
X106218Y-61392D01*
X106236Y-61397D01*
X106273Y-61406D01*
X106305Y-61410D01*
X106339Y-61408D01*
X106380Y-61400D01*
X106435Y-61383D01*
X106474Y-61371D01*
X106523Y-61355D01*
X106558Y-61348D01*
X106587Y-61347D01*
X106613Y-61353D01*
X106645Y-61359D01*
X106659Y-61357D01*
X106662Y-61348D01*
X106651Y-61330D01*
X106620Y-61312D01*
X106574Y-61293D01*
X106515Y-61275D01*
X106450Y-61260D01*
X106418Y-61254D01*
X106332Y-61239D01*
X106265Y-61223D01*
X106214Y-61205D01*
X106173Y-61183D01*
X106147Y-61165D01*
X106124Y-61142D01*
X106096Y-61109D01*
X106067Y-61072D01*
X106042Y-61036D01*
X106024Y-61008D01*
X106018Y-60993D01*
X106030Y-60992D01*
X106063Y-60991D01*
X106118Y-60990D01*
X106191Y-60989D01*
X106282Y-60988D01*
X106388Y-60987D01*
X106508Y-60986D01*
X106640Y-60985D01*
X106783Y-60984D01*
X106935Y-60984D01*
X107094Y-60983D01*
X107128Y-60983D01*
X107316Y-60982D01*
X107482Y-60982D01*
X107626Y-60981D01*
X107751Y-60981D01*
X107858Y-60980D01*
X107948Y-60979D01*
X108023Y-60978D01*
X108084Y-60977D01*
X108133Y-60976D01*
X108171Y-60974D01*
X108200Y-60973D01*
X108221Y-60970D01*
X108236Y-60968D01*
X108245Y-60965D01*
X108251Y-60961D01*
X108255Y-60958D01*
X108256Y-60956D01*
X108261Y-60946D01*
X108264Y-60928D01*
X108267Y-60900D01*
X108270Y-60858D01*
X108271Y-60803D01*
X108272Y-60730D01*
X108272Y-60639D01*
X108273Y-60534D01*
X108273Y-62668D01*
X105100Y-62668D01*
X101629Y-62668D01*
X101629Y-60700D01*
X101629Y-58732D01*
X105100Y-58732D01*
X108571Y-58732D01*
X108571Y-60700D01*
X108571Y-62668D01*
X108571Y-62668D01*
X108571Y-62668D01*
G37*
G36*
X105923Y-60671D02*
X105918Y-60702D01*
X105903Y-60730D01*
X105886Y-60749D01*
X105886Y-60648D01*
X105870Y-60601D01*
X105858Y-60585D01*
X105836Y-60564D01*
X105812Y-60554D01*
X105776Y-60551D01*
X105767Y-60551D01*
X105728Y-60553D01*
X105702Y-60562D01*
X105681Y-60580D01*
X105677Y-60585D01*
X105653Y-60627D01*
X105649Y-60672D01*
X105661Y-60713D01*
X105686Y-60748D01*
X105722Y-60773D01*
X105764Y-60783D01*
X105811Y-60773D01*
X105819Y-60770D01*
X105859Y-60737D01*
X105882Y-60695D01*
X105886Y-60648D01*
X105886Y-60749D01*
X105876Y-60760D01*
X105846Y-60788D01*
X105821Y-60802D01*
X105789Y-60807D01*
X105771Y-60807D01*
X105719Y-60801D01*
X105682Y-60784D01*
X105680Y-60782D01*
X105648Y-60757D01*
X105648Y-60835D01*
X105648Y-60912D01*
X105686Y-60916D01*
X105714Y-60923D01*
X105729Y-60934D01*
X105729Y-60935D01*
X105725Y-60943D01*
X105704Y-60948D01*
X105664Y-60950D01*
X105642Y-60950D01*
X105593Y-60949D01*
X105565Y-60945D01*
X105555Y-60939D01*
X105555Y-60935D01*
X105570Y-60921D01*
X105586Y-60916D01*
X105596Y-60914D01*
X105603Y-60908D01*
X105608Y-60894D01*
X105611Y-60870D01*
X105612Y-60830D01*
X105612Y-60772D01*
X105612Y-60736D01*
X105612Y-60560D01*
X105583Y-60552D01*
X105558Y-60542D01*
X105555Y-60532D01*
X105572Y-60524D01*
X105601Y-60522D01*
X105633Y-60524D01*
X105647Y-60533D01*
X105648Y-60540D01*
X105651Y-60551D01*
X105663Y-60548D01*
X105688Y-60534D01*
X105742Y-60513D01*
X105796Y-60513D01*
X105845Y-60531D01*
X105885Y-60566D01*
X105913Y-60614D01*
X105923Y-60671D01*
X105923Y-60671D01*
X105923Y-60671D01*
G37*
G36*
X106565Y-60696D02*
X106547Y-60750D01*
X106543Y-60755D01*
X106534Y-60765D01*
X106534Y-60681D01*
X106528Y-60635D01*
X106506Y-60594D01*
X106470Y-60563D01*
X106421Y-60547D01*
X106402Y-60545D01*
X106359Y-60556D01*
X106320Y-60584D01*
X106292Y-60624D01*
X106281Y-60668D01*
X106281Y-60670D01*
X106285Y-60705D01*
X106304Y-60735D01*
X106321Y-60754D01*
X106366Y-60786D01*
X106415Y-60796D01*
X106462Y-60785D01*
X106489Y-60768D01*
X106521Y-60726D01*
X106534Y-60681D01*
X106534Y-60765D01*
X106505Y-60797D01*
X106454Y-60823D01*
X106398Y-60831D01*
X106352Y-60822D01*
X106312Y-60797D01*
X106277Y-60756D01*
X106253Y-60708D01*
X106245Y-60668D01*
X106256Y-60621D01*
X106284Y-60576D01*
X106324Y-60538D01*
X106371Y-60515D01*
X106403Y-60509D01*
X106461Y-60520D01*
X106509Y-60548D01*
X106544Y-60590D01*
X106564Y-60641D01*
X106565Y-60696D01*
X106565Y-60696D01*
X106565Y-60696D01*
G37*
G36*
X107223Y-60651D02*
X107222Y-60662D01*
X107216Y-60669D01*
X107201Y-60673D01*
X107187Y-60674D01*
X107187Y-60634D01*
X107176Y-60606D01*
X107149Y-60578D01*
X107112Y-60557D01*
X107072Y-60546D01*
X107062Y-60545D01*
X107022Y-60553D01*
X106983Y-60572D01*
X106953Y-60598D01*
X106937Y-60627D01*
X106937Y-60634D01*
X106948Y-60637D01*
X106978Y-60639D01*
X107022Y-60640D01*
X107062Y-60641D01*
X107113Y-60640D01*
X107155Y-60639D01*
X107180Y-60636D01*
X107187Y-60634D01*
X107187Y-60674D01*
X107174Y-60675D01*
X107129Y-60677D01*
X107080Y-60677D01*
X107013Y-60677D01*
X106967Y-60681D01*
X106942Y-60688D01*
X106935Y-60700D01*
X106945Y-60719D01*
X106970Y-60747D01*
X106977Y-60754D01*
X107022Y-60785D01*
X107074Y-60795D01*
X107136Y-60785D01*
X107164Y-60775D01*
X107198Y-60765D01*
X107218Y-60764D01*
X107221Y-60774D01*
X107210Y-60788D01*
X107173Y-60810D01*
X107122Y-60824D01*
X107067Y-60829D01*
X107017Y-60824D01*
X107001Y-60819D01*
X106979Y-60804D01*
X106951Y-60779D01*
X106939Y-60766D01*
X106916Y-60741D01*
X106905Y-60732D01*
X106901Y-60739D01*
X106901Y-60751D01*
X106910Y-60778D01*
X106926Y-60786D01*
X106943Y-60796D01*
X106941Y-60808D01*
X106922Y-60816D01*
X106900Y-60819D01*
X106865Y-60819D01*
X106865Y-60690D01*
X106864Y-60631D01*
X106863Y-60591D01*
X106858Y-60568D01*
X106851Y-60556D01*
X106846Y-60552D01*
X106819Y-60546D01*
X106798Y-60554D01*
X106782Y-60569D01*
X106769Y-60586D01*
X106762Y-60608D01*
X106758Y-60643D01*
X106758Y-60688D01*
X106758Y-60736D01*
X106762Y-60766D01*
X106768Y-60780D01*
X106776Y-60783D01*
X106791Y-60793D01*
X106793Y-60801D01*
X106783Y-60815D01*
X106758Y-60819D01*
X106722Y-60819D01*
X106722Y-60696D01*
X106721Y-60637D01*
X106718Y-60597D01*
X106713Y-60572D01*
X106705Y-60558D01*
X106703Y-60556D01*
X106685Y-60547D01*
X106664Y-60552D01*
X106652Y-60558D01*
X106636Y-60568D01*
X106627Y-60582D01*
X106621Y-60604D01*
X106618Y-60640D01*
X106617Y-60676D01*
X106616Y-60727D01*
X106618Y-60759D01*
X106624Y-60778D01*
X106632Y-60786D01*
X106649Y-60800D01*
X106644Y-60811D01*
X106617Y-60818D01*
X106591Y-60819D01*
X106554Y-60815D01*
X106534Y-60808D01*
X106531Y-60798D01*
X106549Y-60788D01*
X106555Y-60786D01*
X106566Y-60781D01*
X106573Y-60770D01*
X106577Y-60748D01*
X106578Y-60711D01*
X106579Y-60670D01*
X106578Y-60618D01*
X106576Y-60585D01*
X106572Y-60566D01*
X106564Y-60557D01*
X106555Y-60554D01*
X106533Y-60544D01*
X106532Y-60533D01*
X106549Y-60524D01*
X106582Y-60521D01*
X106623Y-60520D01*
X106660Y-60516D01*
X106666Y-60514D01*
X106701Y-60514D01*
X106722Y-60527D01*
X106741Y-60541D01*
X106757Y-60540D01*
X106775Y-60529D01*
X106805Y-60514D01*
X106829Y-60509D01*
X106860Y-60520D01*
X106887Y-60547D01*
X106900Y-60581D01*
X106901Y-60590D01*
X106901Y-60623D01*
X106925Y-60583D01*
X106962Y-60542D01*
X107011Y-60518D01*
X107065Y-60511D01*
X107119Y-60521D01*
X107166Y-60548D01*
X107197Y-60584D01*
X107214Y-60617D01*
X107223Y-60646D01*
X107223Y-60651D01*
X107223Y-60651D01*
X107223Y-60651D01*
G37*
G36*
X107556Y-60781D02*
X107546Y-60794D01*
X107521Y-60809D01*
X107509Y-60814D01*
X107448Y-60828D01*
X107392Y-60827D01*
X107347Y-60812D01*
X107338Y-60806D01*
X107323Y-60793D01*
X107314Y-60778D01*
X107309Y-60757D01*
X107307Y-60723D01*
X107306Y-60672D01*
X107306Y-60670D01*
X107306Y-60559D01*
X107275Y-60555D01*
X107247Y-60547D01*
X107238Y-60535D01*
X107248Y-60524D01*
X107270Y-60522D01*
X107292Y-60520D01*
X107303Y-60511D01*
X107306Y-60488D01*
X107306Y-60468D01*
X107306Y-60415D01*
X107363Y-60412D01*
X107420Y-60408D01*
X107420Y-60325D01*
X107419Y-60281D01*
X107417Y-60256D01*
X107409Y-60242D01*
X107395Y-60236D01*
X107384Y-60234D01*
X107362Y-60228D01*
X107361Y-60226D01*
X107382Y-60225D01*
X107393Y-60224D01*
X107438Y-60223D01*
X107438Y-60318D01*
X107438Y-60412D01*
X107482Y-60417D01*
X107492Y-60420D01*
X107481Y-60422D01*
X107452Y-60423D01*
X107435Y-60424D01*
X107342Y-60426D01*
X107342Y-60474D01*
X107342Y-60522D01*
X107426Y-60522D01*
X107471Y-60522D01*
X107497Y-60526D01*
X107508Y-60534D01*
X107509Y-60539D01*
X107504Y-60549D01*
X107487Y-60554D01*
X107452Y-60557D01*
X107426Y-60557D01*
X107342Y-60557D01*
X107342Y-60663D01*
X107344Y-60722D01*
X107349Y-60761D01*
X107362Y-60783D01*
X107384Y-60793D01*
X107418Y-60793D01*
X107435Y-60791D01*
X107477Y-60785D01*
X107516Y-60778D01*
X107526Y-60776D01*
X107550Y-60774D01*
X107556Y-60781D01*
X107556Y-60781D01*
X107556Y-60781D01*
G37*
G36*
X107879Y-60650D02*
X107878Y-60661D01*
X107873Y-60669D01*
X107859Y-60673D01*
X107843Y-60674D01*
X107843Y-60628D01*
X107834Y-60608D01*
X107811Y-60584D01*
X107782Y-60562D01*
X107755Y-60551D01*
X107705Y-60547D01*
X107657Y-60560D01*
X107620Y-60585D01*
X107617Y-60589D01*
X107600Y-60613D01*
X107593Y-60630D01*
X107593Y-60630D01*
X107604Y-60635D01*
X107634Y-60638D01*
X107678Y-60640D01*
X107718Y-60641D01*
X107779Y-60640D01*
X107821Y-60636D01*
X107841Y-60631D01*
X107843Y-60628D01*
X107843Y-60674D01*
X107833Y-60675D01*
X107791Y-60676D01*
X107736Y-60677D01*
X107669Y-60677D01*
X107623Y-60681D01*
X107598Y-60688D01*
X107592Y-60700D01*
X107601Y-60719D01*
X107626Y-60747D01*
X107634Y-60754D01*
X107678Y-60785D01*
X107730Y-60795D01*
X107792Y-60785D01*
X107820Y-60775D01*
X107854Y-60765D01*
X107875Y-60764D01*
X107878Y-60774D01*
X107867Y-60788D01*
X107824Y-60813D01*
X107770Y-60827D01*
X107713Y-60828D01*
X107661Y-60816D01*
X107645Y-60808D01*
X107593Y-60766D01*
X107564Y-60716D01*
X107557Y-60672D01*
X107567Y-60612D01*
X107596Y-60564D01*
X107639Y-60530D01*
X107691Y-60513D01*
X107751Y-60515D01*
X107790Y-60527D01*
X107827Y-60552D01*
X107858Y-60590D01*
X107877Y-60631D01*
X107879Y-60650D01*
X107879Y-60650D01*
X107879Y-60650D01*
G37*
G36*
X108211Y-60659D02*
X108207Y-60708D01*
X108188Y-60753D01*
X108178Y-60764D01*
X108178Y-60670D01*
X108168Y-60627D01*
X108144Y-60587D01*
X108112Y-60559D01*
X108109Y-60558D01*
X108057Y-60545D01*
X108008Y-60553D01*
X107967Y-60578D01*
X107938Y-60617D01*
X107927Y-60669D01*
X107927Y-60670D01*
X107938Y-60721D01*
X107966Y-60761D01*
X108006Y-60787D01*
X108055Y-60795D01*
X108108Y-60783D01*
X108109Y-60782D01*
X108142Y-60756D01*
X108166Y-60716D01*
X108177Y-60674D01*
X108178Y-60670D01*
X108178Y-60764D01*
X108155Y-60791D01*
X108111Y-60817D01*
X108060Y-60828D01*
X108003Y-60822D01*
X107978Y-60813D01*
X107936Y-60783D01*
X107906Y-60737D01*
X107892Y-60685D01*
X107891Y-60672D01*
X107901Y-60614D01*
X107929Y-60567D01*
X107969Y-60534D01*
X108018Y-60515D01*
X108071Y-60514D01*
X108123Y-60531D01*
X108162Y-60561D01*
X108197Y-60609D01*
X108211Y-60659D01*
X108211Y-60659D01*
X108211Y-60659D01*
G37*
G36*
X106257Y-60556D02*
X106249Y-60572D01*
X106228Y-60570D01*
X106213Y-60561D01*
X106187Y-60550D01*
X106159Y-60553D01*
X106125Y-60573D01*
X106092Y-60598D01*
X106071Y-60618D01*
X106059Y-60638D01*
X106055Y-60664D01*
X106054Y-60706D01*
X106054Y-60782D01*
X106121Y-60785D01*
X106163Y-60790D01*
X106189Y-60798D01*
X106194Y-60804D01*
X106190Y-60810D01*
X106172Y-60815D01*
X106136Y-60818D01*
X106080Y-60819D01*
X106069Y-60819D01*
X106015Y-60818D01*
X105971Y-60816D01*
X105941Y-60814D01*
X105931Y-60811D01*
X105927Y-60797D01*
X105943Y-60787D01*
X105976Y-60783D01*
X105977Y-60783D01*
X106018Y-60783D01*
X106018Y-60671D01*
X106018Y-60559D01*
X105986Y-60555D01*
X105956Y-60547D01*
X105948Y-60537D01*
X105960Y-60527D01*
X105990Y-60522D01*
X105999Y-60522D01*
X106033Y-60523D01*
X106049Y-60528D01*
X106053Y-60542D01*
X106054Y-60552D01*
X106054Y-60582D01*
X106093Y-60553D01*
X106137Y-60525D01*
X106174Y-60515D01*
X106208Y-60522D01*
X106220Y-60527D01*
X106245Y-60542D01*
X106256Y-60554D01*
X106257Y-60556D01*
X106257Y-60556D01*
X106257Y-60556D01*
G37*
G36*
X105157Y-60609D02*
X105153Y-60650D01*
X105145Y-60699D01*
X105136Y-60742D01*
X105128Y-60768D01*
X105117Y-60781D01*
X105101Y-60787D01*
X105100Y-60788D01*
X105067Y-60793D01*
X105019Y-60797D01*
X104964Y-60800D01*
X104909Y-60801D01*
X104858Y-60802D01*
X104818Y-60800D01*
X104796Y-60796D01*
X104796Y-60796D01*
X104775Y-60785D01*
X104740Y-60765D01*
X104697Y-60738D01*
X104670Y-60721D01*
X104621Y-60691D01*
X104574Y-60663D01*
X104536Y-60641D01*
X104523Y-60634D01*
X104492Y-60614D01*
X104471Y-60593D01*
X104468Y-60587D01*
X104447Y-60532D01*
X104425Y-60474D01*
X104405Y-60418D01*
X104389Y-60370D01*
X104378Y-60333D01*
X104373Y-60314D01*
X104373Y-60313D01*
X104383Y-60299D01*
X104413Y-60279D01*
X104459Y-60253D01*
X104484Y-60241D01*
X104595Y-60187D01*
X104731Y-60229D01*
X104802Y-60251D01*
X104855Y-60269D01*
X104896Y-60286D01*
X104929Y-60305D01*
X104959Y-60329D01*
X104991Y-60362D01*
X105031Y-60406D01*
X105048Y-60424D01*
X105094Y-60476D01*
X105125Y-60515D01*
X105145Y-60547D01*
X105156Y-60577D01*
X105157Y-60609D01*
X105157Y-60609D01*
X105157Y-60609D01*
G37*
G36*
X105704Y-60422D02*
X105692Y-60424D01*
X105688Y-60425D01*
X105664Y-60421D01*
X105656Y-60416D01*
X105656Y-60337D01*
X105636Y-60323D01*
X105600Y-60319D01*
X105548Y-60324D01*
X105516Y-60342D01*
X105505Y-60370D01*
X105505Y-60371D01*
X105509Y-60397D01*
X105524Y-60410D01*
X105555Y-60414D01*
X105560Y-60414D01*
X105603Y-60404D01*
X105632Y-60386D01*
X105655Y-60358D01*
X105656Y-60337D01*
X105656Y-60416D01*
X105655Y-60415D01*
X105640Y-60411D01*
X105611Y-60419D01*
X105607Y-60421D01*
X105575Y-60433D01*
X105555Y-60436D01*
X105535Y-60432D01*
X105529Y-60430D01*
X105505Y-60413D01*
X105486Y-60388D01*
X105481Y-60372D01*
X105489Y-60354D01*
X105505Y-60333D01*
X105526Y-60316D01*
X105555Y-60309D01*
X105595Y-60307D01*
X105637Y-60304D01*
X105657Y-60295D01*
X105658Y-60277D01*
X105644Y-60253D01*
X105629Y-60240D01*
X105606Y-60236D01*
X105571Y-60238D01*
X105539Y-60240D01*
X105527Y-60237D01*
X105530Y-60234D01*
X105560Y-60225D01*
X105598Y-60224D01*
X105634Y-60231D01*
X105653Y-60242D01*
X105665Y-60265D01*
X105671Y-60307D01*
X105672Y-60337D01*
X105673Y-60379D01*
X105678Y-60404D01*
X105687Y-60415D01*
X105693Y-60418D01*
X105704Y-60422D01*
X105704Y-60422D01*
X105704Y-60422D01*
G37*
G36*
X105911Y-60374D02*
X105904Y-60398D01*
X105880Y-60416D01*
X105869Y-60421D01*
X105842Y-60431D01*
X105826Y-60437D01*
X105825Y-60437D01*
X105812Y-60433D01*
X105786Y-60425D01*
X105759Y-60420D01*
X105742Y-60421D01*
X105734Y-60416D01*
X105732Y-60396D01*
X105732Y-60364D01*
X105753Y-60389D01*
X105780Y-60408D01*
X105815Y-60417D01*
X105851Y-60415D01*
X105881Y-60403D01*
X105897Y-60382D01*
X105899Y-60372D01*
X105887Y-60348D01*
X105853Y-60329D01*
X105796Y-60317D01*
X105792Y-60316D01*
X105761Y-60304D01*
X105747Y-60281D01*
X105749Y-60256D01*
X105768Y-60233D01*
X105792Y-60223D01*
X105824Y-60221D01*
X105859Y-60226D01*
X105889Y-60236D01*
X105908Y-60248D01*
X105911Y-60255D01*
X105906Y-60269D01*
X105892Y-60264D01*
X105878Y-60252D01*
X105851Y-60240D01*
X105816Y-60238D01*
X105782Y-60246D01*
X105763Y-60262D01*
X105757Y-60281D01*
X105769Y-60295D01*
X105802Y-60306D01*
X105831Y-60312D01*
X105876Y-60323D01*
X105901Y-60341D01*
X105911Y-60368D01*
X105911Y-60374D01*
X105911Y-60374D01*
X105911Y-60374D01*
G37*
G36*
X106144Y-60358D02*
X106142Y-60384D01*
X106122Y-60408D01*
X106091Y-60426D01*
X106054Y-60435D01*
X106019Y-60432D01*
X106003Y-60426D01*
X105981Y-60418D01*
X105970Y-60420D01*
X105962Y-60416D01*
X105958Y-60394D01*
X105958Y-60361D01*
X105977Y-60387D01*
X105997Y-60406D01*
X106028Y-60413D01*
X106046Y-60414D01*
X106092Y-60408D01*
X106118Y-60391D01*
X106125Y-60364D01*
X106115Y-60348D01*
X106084Y-60333D01*
X106030Y-60319D01*
X106013Y-60316D01*
X105986Y-60303D01*
X105972Y-60278D01*
X105977Y-60251D01*
X105978Y-60250D01*
X105992Y-60237D01*
X106018Y-60231D01*
X106063Y-60228D01*
X106064Y-60228D01*
X106104Y-60228D01*
X106126Y-60232D01*
X106135Y-60240D01*
X106137Y-60255D01*
X106137Y-60257D01*
X106137Y-60287D01*
X106113Y-60261D01*
X106078Y-60240D01*
X106037Y-60237D01*
X105999Y-60253D01*
X105983Y-60267D01*
X105986Y-60278D01*
X105999Y-60289D01*
X106029Y-60303D01*
X106049Y-60307D01*
X106089Y-60314D01*
X106124Y-60331D01*
X106144Y-60356D01*
X106144Y-60358D01*
X106144Y-60358D01*
X106144Y-60358D01*
G37*
G36*
X106388Y-60323D02*
X106378Y-60370D01*
X106374Y-60374D01*
X106374Y-60317D01*
X106361Y-60283D01*
X106336Y-60255D01*
X106300Y-60238D01*
X106258Y-60237D01*
X106239Y-60242D01*
X106216Y-60262D01*
X106198Y-60295D01*
X106190Y-60332D01*
X106192Y-60349D01*
X106212Y-60384D01*
X106246Y-60407D01*
X106286Y-60413D01*
X106326Y-60403D01*
X106348Y-60388D01*
X106371Y-60354D01*
X106374Y-60317D01*
X106374Y-60374D01*
X106350Y-60406D01*
X106312Y-60427D01*
X106268Y-60432D01*
X106229Y-60419D01*
X106194Y-60388D01*
X106176Y-60347D01*
X106176Y-60302D01*
X106194Y-60261D01*
X106202Y-60252D01*
X106241Y-60227D01*
X106285Y-60221D01*
X106326Y-60232D01*
X106361Y-60256D01*
X106383Y-60293D01*
X106388Y-60323D01*
X106388Y-60323D01*
X106388Y-60323D01*
G37*
G36*
X106622Y-60382D02*
X106619Y-60392D01*
X106600Y-60406D01*
X106573Y-60420D01*
X106545Y-60430D01*
X106543Y-60430D01*
X106510Y-60432D01*
X106489Y-60430D01*
X106448Y-60408D01*
X106422Y-60374D01*
X106411Y-60331D01*
X106418Y-60287D01*
X106442Y-60252D01*
X106462Y-60235D01*
X106484Y-60226D01*
X106516Y-60224D01*
X106543Y-60226D01*
X106583Y-60228D01*
X106604Y-60233D01*
X106613Y-60243D01*
X106615Y-60256D01*
X106612Y-60277D01*
X106603Y-60280D01*
X106583Y-60263D01*
X106579Y-60259D01*
X106543Y-60238D01*
X106501Y-60236D01*
X106463Y-60252D01*
X106448Y-60266D01*
X106427Y-60309D01*
X106427Y-60350D01*
X106445Y-60384D01*
X106478Y-60407D01*
X106517Y-60414D01*
X106555Y-60409D01*
X106587Y-60396D01*
X106589Y-60395D01*
X106611Y-60383D01*
X106622Y-60382D01*
X106622Y-60382D01*
X106622Y-60382D01*
G37*
G36*
X107076Y-60422D02*
X107065Y-60424D01*
X107060Y-60425D01*
X107037Y-60420D01*
X107029Y-60411D01*
X107029Y-60365D01*
X107029Y-60342D01*
X107008Y-60326D01*
X106984Y-60321D01*
X106934Y-60323D01*
X106898Y-60336D01*
X106879Y-60358D01*
X106877Y-60370D01*
X106880Y-60395D01*
X106885Y-60406D01*
X106906Y-60413D01*
X106940Y-60413D01*
X106975Y-60406D01*
X107004Y-60393D01*
X107006Y-60392D01*
X107029Y-60365D01*
X107029Y-60411D01*
X107020Y-60402D01*
X107007Y-60410D01*
X106979Y-60423D01*
X106940Y-60431D01*
X106905Y-60431D01*
X106899Y-60430D01*
X106880Y-60416D01*
X106867Y-60396D01*
X106861Y-60372D01*
X106870Y-60349D01*
X106878Y-60337D01*
X106897Y-60319D01*
X106919Y-60310D01*
X106954Y-60307D01*
X106967Y-60307D01*
X107009Y-60304D01*
X107030Y-60295D01*
X107030Y-60277D01*
X107016Y-60253D01*
X107002Y-60240D01*
X106981Y-60236D01*
X106945Y-60239D01*
X106942Y-60239D01*
X106908Y-60242D01*
X106894Y-60240D01*
X106895Y-60236D01*
X106915Y-60228D01*
X106949Y-60222D01*
X106986Y-60221D01*
X106992Y-60222D01*
X107020Y-60235D01*
X107037Y-60267D01*
X107044Y-60320D01*
X107044Y-60337D01*
X107045Y-60379D01*
X107050Y-60404D01*
X107059Y-60415D01*
X107065Y-60418D01*
X107076Y-60422D01*
X107076Y-60422D01*
X107076Y-60422D01*
G37*
G36*
X107760Y-60330D02*
X107749Y-60374D01*
X107746Y-60378D01*
X107746Y-60309D01*
X107729Y-60272D01*
X107717Y-60260D01*
X107674Y-60238D01*
X107633Y-60238D01*
X107598Y-60256D01*
X107576Y-60291D01*
X107569Y-60330D01*
X107574Y-60368D01*
X107591Y-60392D01*
X107596Y-60396D01*
X107636Y-60412D01*
X107679Y-60411D01*
X107717Y-60394D01*
X107724Y-60388D01*
X107745Y-60350D01*
X107746Y-60309D01*
X107746Y-60378D01*
X107723Y-60408D01*
X107685Y-60429D01*
X107642Y-60432D01*
X107603Y-60418D01*
X107564Y-60382D01*
X107548Y-60340D01*
X107554Y-60296D01*
X107576Y-60260D01*
X107601Y-60235D01*
X107629Y-60225D01*
X107659Y-60223D01*
X107707Y-60233D01*
X107741Y-60260D01*
X107758Y-60305D01*
X107760Y-60330D01*
X107760Y-60330D01*
X107760Y-60330D01*
G37*
G36*
X108215Y-60313D02*
X108208Y-60320D01*
X108201Y-60321D01*
X108201Y-60295D01*
X108191Y-60274D01*
X108166Y-60253D01*
X108134Y-60239D01*
X108112Y-60235D01*
X108076Y-60241D01*
X108044Y-60258D01*
X108025Y-60279D01*
X108022Y-60289D01*
X108028Y-60299D01*
X108046Y-60304D01*
X108082Y-60306D01*
X108112Y-60307D01*
X108155Y-60305D01*
X108186Y-60301D01*
X108201Y-60296D01*
X108201Y-60295D01*
X108201Y-60321D01*
X108188Y-60324D01*
X108152Y-60327D01*
X108121Y-60328D01*
X108067Y-60331D01*
X108034Y-60338D01*
X108023Y-60349D01*
X108029Y-60366D01*
X108050Y-60388D01*
X108085Y-60407D01*
X108131Y-60414D01*
X108176Y-60408D01*
X108190Y-60402D01*
X108209Y-60396D01*
X108213Y-60401D01*
X108203Y-60411D01*
X108177Y-60423D01*
X108169Y-60425D01*
X108132Y-60434D01*
X108108Y-60436D01*
X108086Y-60431D01*
X108082Y-60430D01*
X108043Y-60405D01*
X108016Y-60368D01*
X108003Y-60326D01*
X108009Y-60286D01*
X108011Y-60280D01*
X108038Y-60245D01*
X108073Y-60227D01*
X108113Y-60223D01*
X108160Y-60233D01*
X108195Y-60259D01*
X108214Y-60298D01*
X108215Y-60301D01*
X108215Y-60313D01*
X108215Y-60313D01*
X108215Y-60313D01*
G37*
G36*
X106813Y-60418D02*
X106803Y-60421D01*
X106771Y-60422D01*
X106740Y-60422D01*
X106699Y-60422D01*
X106676Y-60420D01*
X106673Y-60418D01*
X106683Y-60417D01*
X106734Y-60413D01*
X106734Y-60325D01*
X106734Y-60237D01*
X106695Y-60232D01*
X106671Y-60228D01*
X106669Y-60227D01*
X106689Y-60226D01*
X106700Y-60225D01*
X106745Y-60223D01*
X106748Y-60316D01*
X106752Y-60408D01*
X106800Y-60415D01*
X106813Y-60418D01*
X106813Y-60418D01*
X106813Y-60418D01*
G37*
G36*
X107291Y-60405D02*
X107289Y-60413D01*
X107275Y-60419D01*
X107245Y-60423D01*
X107208Y-60426D01*
X107169Y-60426D01*
X107137Y-60423D01*
X107118Y-60418D01*
X107116Y-60416D01*
X107123Y-60402D01*
X107143Y-60377D01*
X107171Y-60343D01*
X107181Y-60331D01*
X107212Y-60296D01*
X107234Y-60267D01*
X107246Y-60249D01*
X107247Y-60247D01*
X107236Y-60240D01*
X107209Y-60236D01*
X107194Y-60235D01*
X107154Y-60239D01*
X107132Y-60251D01*
X107128Y-60256D01*
X107119Y-60269D01*
X107116Y-60260D01*
X107116Y-60250D01*
X107117Y-60236D01*
X107126Y-60228D01*
X107146Y-60224D01*
X107183Y-60223D01*
X107199Y-60223D01*
X107240Y-60224D01*
X107270Y-60227D01*
X107282Y-60230D01*
X107283Y-60231D01*
X107275Y-60242D01*
X107255Y-60267D01*
X107227Y-60301D01*
X107211Y-60319D01*
X107179Y-60355D01*
X107155Y-60384D01*
X107141Y-60403D01*
X107140Y-60407D01*
X107150Y-60411D01*
X107178Y-60413D01*
X107205Y-60414D01*
X107244Y-60413D01*
X107264Y-60408D01*
X107271Y-60397D01*
X107271Y-60394D01*
X107274Y-60381D01*
X107284Y-60387D01*
X107291Y-60405D01*
X107291Y-60405D01*
X107291Y-60405D01*
G37*
G36*
X107990Y-60418D02*
X107989Y-60422D01*
X107970Y-60424D01*
X107963Y-60424D01*
X107939Y-60423D01*
X107934Y-60419D01*
X107936Y-60418D01*
X107944Y-60403D01*
X107949Y-60373D01*
X107951Y-60334D01*
X107949Y-60296D01*
X107943Y-60264D01*
X107936Y-60250D01*
X107908Y-60236D01*
X107872Y-60241D01*
X107846Y-60253D01*
X107830Y-60269D01*
X107822Y-60290D01*
X107820Y-60325D01*
X107820Y-60342D01*
X107821Y-60383D01*
X107826Y-60406D01*
X107836Y-60416D01*
X107840Y-60418D01*
X107843Y-60421D01*
X107826Y-60424D01*
X107814Y-60424D01*
X107785Y-60424D01*
X107778Y-60420D01*
X107787Y-60413D01*
X107798Y-60401D01*
X107805Y-60377D01*
X107807Y-60337D01*
X107807Y-60325D01*
X107806Y-60280D01*
X107801Y-60253D01*
X107790Y-60238D01*
X107787Y-60236D01*
X107774Y-60227D01*
X107782Y-60224D01*
X107793Y-60223D01*
X107814Y-60228D01*
X107820Y-60236D01*
X107827Y-60242D01*
X107843Y-60236D01*
X107872Y-60226D01*
X107902Y-60223D01*
X107937Y-60232D01*
X107961Y-60259D01*
X107972Y-60306D01*
X107975Y-60344D01*
X107977Y-60389D01*
X107985Y-60414D01*
X107990Y-60418D01*
X107990Y-60418D01*
X107990Y-60418D01*
G37*
G36*
X106746Y-60146D02*
X106739Y-60161D01*
X106734Y-60164D01*
X106723Y-60154D01*
X106722Y-60146D01*
X106728Y-60130D01*
X106734Y-60128D01*
X106744Y-60137D01*
X106746Y-60146D01*
X106746Y-60146D01*
X106746Y-60146D01*
G37*
G36*
X107438Y-60146D02*
X107431Y-60161D01*
X107426Y-60164D01*
X107415Y-60154D01*
X107414Y-60146D01*
X107420Y-60130D01*
X107426Y-60128D01*
X107436Y-60137D01*
X107438Y-60146D01*
X107438Y-60146D01*
X107438Y-60146D01*
G37*
G54D13*
X112392Y-73028D02*
X111792Y-73028D01*
X111792Y-72800D01*
X111821Y-72742D01*
X111850Y-72714D01*
X111907Y-72685D01*
X111992Y-72685D01*
X112050Y-72714D01*
X112078Y-72742D01*
X112107Y-72800D01*
X112107Y-73028D01*
X112392Y-72114D02*
X112392Y-72457D01*
X112392Y-72285D02*
X111792Y-72285D01*
X111878Y-72342D01*
X111935Y-72400D01*
X111964Y-72457D01*
X111792Y-71914D02*
X111792Y-71542D01*
X112021Y-71742D01*
X112021Y-71657D01*
X112050Y-71600D01*
X112078Y-71571D01*
X112135Y-71542D01*
X112278Y-71542D01*
X112335Y-71571D01*
X112364Y-71600D01*
X112392Y-71657D01*
X112392Y-71828D01*
X112364Y-71885D01*
X112335Y-71914D01*
X103535Y-73571D02*
X103564Y-73599D01*
X103592Y-73685D01*
X103592Y-73742D01*
X103564Y-73828D01*
X103507Y-73885D01*
X103450Y-73914D01*
X103335Y-73942D01*
X103250Y-73942D01*
X103135Y-73914D01*
X103078Y-73885D01*
X103021Y-73828D01*
X102992Y-73742D01*
X102992Y-73685D01*
X103021Y-73599D01*
X103050Y-73571D01*
X102992Y-73199D02*
X102992Y-73085D01*
X103021Y-73028D01*
X103078Y-72971D01*
X103192Y-72942D01*
X103392Y-72942D01*
X103507Y-72971D01*
X103564Y-73028D01*
X103592Y-73085D01*
X103592Y-73199D01*
X103564Y-73257D01*
X103507Y-73314D01*
X103392Y-73342D01*
X103192Y-73342D01*
X103078Y-73314D01*
X103021Y-73257D01*
X102992Y-73199D01*
X103592Y-72685D02*
X102992Y-72685D01*
X103592Y-72342D01*
X102992Y-72342D01*
X103592Y-72057D02*
X102992Y-72057D01*
X103592Y-71714D01*
X102992Y-71714D01*
X103650Y-71571D02*
X103650Y-71114D01*
X103192Y-70714D02*
X103592Y-70714D01*
X102964Y-70857D02*
X103392Y-71000D01*
X103392Y-70628D01*
G54D23*
X99261Y-52604D02*
X99585Y-52604D01*
X99623Y-52585D01*
X99642Y-52566D01*
X99661Y-52528D01*
X99661Y-52452D01*
X99642Y-52414D01*
X99623Y-52395D01*
X99585Y-52376D01*
X99261Y-52376D01*
X99661Y-51976D02*
X99661Y-52204D01*
X99661Y-52090D02*
X99261Y-52090D01*
X99319Y-52128D01*
X99357Y-52166D01*
X99376Y-52204D01*
X103161Y-53547D02*
X102761Y-53547D01*
X102761Y-53452D01*
X102780Y-53395D01*
X102819Y-53357D01*
X102857Y-53338D01*
X102933Y-53319D01*
X102990Y-53319D01*
X103066Y-53338D01*
X103104Y-53357D01*
X103142Y-53395D01*
X103161Y-53452D01*
X103161Y-53547D01*
X103142Y-53166D02*
X103161Y-53109D01*
X103161Y-53014D01*
X103142Y-52976D01*
X103123Y-52957D01*
X103085Y-52938D01*
X103047Y-52938D01*
X103009Y-52957D01*
X102990Y-52976D01*
X102971Y-53014D01*
X102952Y-53090D01*
X102933Y-53128D01*
X102914Y-53147D01*
X102876Y-53166D01*
X102838Y-53166D01*
X102800Y-53147D01*
X102780Y-53128D01*
X102761Y-53090D01*
X102761Y-52995D01*
X102780Y-52938D01*
X103161Y-52557D02*
X103161Y-52785D01*
X103161Y-52671D02*
X102761Y-52671D01*
X102819Y-52709D01*
X102857Y-52747D01*
X102876Y-52785D01*
X102933Y-52328D02*
X102914Y-52366D01*
X102895Y-52385D01*
X102857Y-52404D01*
X102838Y-52404D01*
X102800Y-52385D01*
X102780Y-52366D01*
X102761Y-52328D01*
X102761Y-52252D01*
X102780Y-52214D01*
X102800Y-52195D01*
X102838Y-52176D01*
X102857Y-52176D01*
X102895Y-52195D01*
X102914Y-52214D01*
X102933Y-52252D01*
X102933Y-52328D01*
X102952Y-52366D01*
X102971Y-52385D01*
X103009Y-52404D01*
X103085Y-52404D01*
X103123Y-52385D01*
X103142Y-52366D01*
X103161Y-52328D01*
X103161Y-52252D01*
X103142Y-52214D01*
X103123Y-52195D01*
X103085Y-52176D01*
X103009Y-52176D01*
X102971Y-52195D01*
X102952Y-52214D01*
X102933Y-52252D01*
X103142Y-52023D02*
X103161Y-51966D01*
X103161Y-51871D01*
X103142Y-51833D01*
X103123Y-51814D01*
X103085Y-51795D01*
X103047Y-51795D01*
X103009Y-51814D01*
X102990Y-51833D01*
X102971Y-51871D01*
X102952Y-51947D01*
X102933Y-51985D01*
X102914Y-52004D01*
X102876Y-52023D01*
X102838Y-52023D01*
X102800Y-52004D01*
X102780Y-51985D01*
X102761Y-51947D01*
X102761Y-51852D01*
X102780Y-51795D01*
X102800Y-51642D02*
X102780Y-51623D01*
X102761Y-51585D01*
X102761Y-51490D01*
X102780Y-51452D01*
X102800Y-51433D01*
X102838Y-51414D01*
X102876Y-51414D01*
X102933Y-51433D01*
X103161Y-51661D01*
X103161Y-51414D01*
X102761Y-51166D02*
X102761Y-51128D01*
X102780Y-51090D01*
X102800Y-51071D01*
X102838Y-51052D01*
X102914Y-51033D01*
X103009Y-51033D01*
X103085Y-51052D01*
X103123Y-51071D01*
X103142Y-51090D01*
X103161Y-51128D01*
X103161Y-51166D01*
X103142Y-51204D01*
X103123Y-51223D01*
X103085Y-51242D01*
X103009Y-51261D01*
X102914Y-51261D01*
X102838Y-51242D01*
X102800Y-51223D01*
X102780Y-51204D01*
X102761Y-51166D01*
G54D13*
X101480Y-58463D02*
X101565Y-58491D01*
X101708Y-58491D01*
X101765Y-58463D01*
X101794Y-58434D01*
X101822Y-58377D01*
X101822Y-58320D01*
X101794Y-58263D01*
X101765Y-58234D01*
X101708Y-58206D01*
X101594Y-58177D01*
X101537Y-58149D01*
X101508Y-58120D01*
X101480Y-58063D01*
X101480Y-58006D01*
X101508Y-57949D01*
X101537Y-57920D01*
X101594Y-57891D01*
X101737Y-57891D01*
X101822Y-57920D01*
X102022Y-57891D02*
X102165Y-58491D01*
X102280Y-58063D01*
X102394Y-58491D01*
X102537Y-57891D01*
X102737Y-57949D02*
X102765Y-57920D01*
X102822Y-57891D01*
X102965Y-57891D01*
X103022Y-57920D01*
X103051Y-57949D01*
X103080Y-58006D01*
X103080Y-58063D01*
X103051Y-58149D01*
X102708Y-58491D01*
X103080Y-58491D01*
X100322Y-54525D02*
X100408Y-54553D01*
X100551Y-54553D01*
X100608Y-54525D01*
X100637Y-54496D01*
X100665Y-54439D01*
X100665Y-54382D01*
X100637Y-54325D01*
X100608Y-54296D01*
X100551Y-54268D01*
X100437Y-54239D01*
X100380Y-54211D01*
X100351Y-54182D01*
X100322Y-54125D01*
X100322Y-54068D01*
X100351Y-54011D01*
X100380Y-53982D01*
X100437Y-53953D01*
X100580Y-53953D01*
X100665Y-53982D01*
X100865Y-53953D02*
X101008Y-54553D01*
X101122Y-54125D01*
X101237Y-54553D01*
X101380Y-53953D01*
X101465Y-54611D02*
X101922Y-54611D01*
X102065Y-54553D02*
X102065Y-53953D01*
X102294Y-53953D01*
X102351Y-53982D01*
X102380Y-54011D01*
X102408Y-54068D01*
X102408Y-54153D01*
X102380Y-54211D01*
X102351Y-54239D01*
X102294Y-54268D01*
X102065Y-54268D01*
X102665Y-53953D02*
X102665Y-54439D01*
X102694Y-54496D01*
X102722Y-54525D01*
X102780Y-54553D01*
X102894Y-54553D01*
X102951Y-54525D01*
X102980Y-54496D01*
X103008Y-54439D01*
X103008Y-53953D01*
X103265Y-54525D02*
X103351Y-54553D01*
X103494Y-54553D01*
X103551Y-54525D01*
X103580Y-54496D01*
X103608Y-54439D01*
X103608Y-54382D01*
X103580Y-54325D01*
X103551Y-54296D01*
X103494Y-54268D01*
X103380Y-54239D01*
X103322Y-54211D01*
X103294Y-54182D01*
X103265Y-54125D01*
X103265Y-54068D01*
X103294Y-54011D01*
X103322Y-53982D01*
X103380Y-53953D01*
X103522Y-53953D01*
X103608Y-53982D01*
X103865Y-54553D02*
X103865Y-53953D01*
X103865Y-54239D02*
X104208Y-54239D01*
X104208Y-54553D02*
X104208Y-53953D01*
G54D15*
X106781Y-66741D02*
X106781Y-66984D01*
X106795Y-67012D01*
X106810Y-67027D01*
X106838Y-67041D01*
X106895Y-67041D01*
X106924Y-67027D01*
X106938Y-67012D01*
X106952Y-66984D01*
X106952Y-66741D01*
X107138Y-66870D02*
X107110Y-66855D01*
X107095Y-66841D01*
X107081Y-66812D01*
X107081Y-66798D01*
X107095Y-66770D01*
X107110Y-66755D01*
X107138Y-66741D01*
X107195Y-66741D01*
X107224Y-66755D01*
X107238Y-66770D01*
X107252Y-66798D01*
X107252Y-66812D01*
X107238Y-66841D01*
X107224Y-66855D01*
X107195Y-66870D01*
X107138Y-66870D01*
X107110Y-66884D01*
X107095Y-66898D01*
X107081Y-66927D01*
X107081Y-66984D01*
X107095Y-67012D01*
X107110Y-67027D01*
X107138Y-67041D01*
X107195Y-67041D01*
X107224Y-67027D01*
X107238Y-67012D01*
X107252Y-66984D01*
X107252Y-66927D01*
X107238Y-66898D01*
X107224Y-66884D01*
X107195Y-66870D01*
X106188Y-67934D02*
X106088Y-67934D01*
X106088Y-68091D02*
X106088Y-67791D01*
X106231Y-67791D01*
X106302Y-67791D02*
X106474Y-67791D01*
X106388Y-68091D02*
X106388Y-67791D01*
X106560Y-67820D02*
X106574Y-67805D01*
X106602Y-67791D01*
X106674Y-67791D01*
X106702Y-67805D01*
X106717Y-67820D01*
X106731Y-67848D01*
X106731Y-67877D01*
X106717Y-67920D01*
X106545Y-68091D01*
X106731Y-68091D01*
X106831Y-67791D02*
X107017Y-67791D01*
X106917Y-67905D01*
X106960Y-67905D01*
X106988Y-67920D01*
X107002Y-67934D01*
X107017Y-67962D01*
X107017Y-68034D01*
X107002Y-68062D01*
X106988Y-68077D01*
X106960Y-68091D01*
X106874Y-68091D01*
X106845Y-68077D01*
X106831Y-68062D01*
X107131Y-67820D02*
X107145Y-67805D01*
X107174Y-67791D01*
X107245Y-67791D01*
X107274Y-67805D01*
X107288Y-67820D01*
X107302Y-67848D01*
X107302Y-67877D01*
X107288Y-67920D01*
X107117Y-68091D01*
X107302Y-68091D01*
X107602Y-68091D02*
X107502Y-67948D01*
X107431Y-68091D02*
X107431Y-67791D01*
X107545Y-67791D01*
X107574Y-67805D01*
X107588Y-67820D01*
X107602Y-67848D01*
X107602Y-67891D01*
X107588Y-67920D01*
X107574Y-67934D01*
X107545Y-67948D01*
X107431Y-67948D01*
X107874Y-68091D02*
X107731Y-68091D01*
X107731Y-67791D01*
X75475Y-76302D02*
X75475Y-76666D01*
X75494Y-76709D01*
X75513Y-76730D01*
X75551Y-76752D01*
X75627Y-76752D01*
X75665Y-76730D01*
X75684Y-76709D01*
X75703Y-76666D01*
X75703Y-76302D01*
X76065Y-76302D02*
X75989Y-76302D01*
X75951Y-76323D01*
X75932Y-76345D01*
X75894Y-76409D01*
X75875Y-76495D01*
X75875Y-76666D01*
X75894Y-76709D01*
X75913Y-76730D01*
X75951Y-76752D01*
X76027Y-76752D01*
X76065Y-76730D01*
X76084Y-76709D01*
X76103Y-76666D01*
X76103Y-76559D01*
X76084Y-76516D01*
X76065Y-76495D01*
X76027Y-76473D01*
X75951Y-76473D01*
X75913Y-76495D01*
X75894Y-76516D01*
X75875Y-76559D01*
X74684Y-75731D02*
X74684Y-75331D01*
X74818Y-75617D01*
X74951Y-75331D01*
X74951Y-75731D01*
X75141Y-75731D02*
X75141Y-75331D01*
X75294Y-75331D01*
X75332Y-75350D01*
X75351Y-75370D01*
X75370Y-75408D01*
X75370Y-75465D01*
X75351Y-75503D01*
X75332Y-75522D01*
X75294Y-75541D01*
X75141Y-75541D01*
X75522Y-75370D02*
X75541Y-75350D01*
X75580Y-75331D01*
X75675Y-75331D01*
X75713Y-75350D01*
X75732Y-75370D01*
X75751Y-75408D01*
X75751Y-75446D01*
X75732Y-75503D01*
X75503Y-75731D01*
X75751Y-75731D01*
X75884Y-75331D02*
X76132Y-75331D01*
X75999Y-75484D01*
X76056Y-75484D01*
X76094Y-75503D01*
X76113Y-75522D01*
X76132Y-75560D01*
X76132Y-75655D01*
X76113Y-75693D01*
X76094Y-75712D01*
X76056Y-75731D01*
X75941Y-75731D01*
X75903Y-75712D01*
X75884Y-75693D01*
X76380Y-75331D02*
X76418Y-75331D01*
X76456Y-75350D01*
X76475Y-75370D01*
X76494Y-75408D01*
X76513Y-75484D01*
X76513Y-75579D01*
X76494Y-75655D01*
X76475Y-75693D01*
X76456Y-75712D01*
X76418Y-75731D01*
X76380Y-75731D01*
X76341Y-75712D01*
X76322Y-75693D01*
X76303Y-75655D01*
X76284Y-75579D01*
X76284Y-75484D01*
X76303Y-75408D01*
X76322Y-75370D01*
X76341Y-75350D01*
X76380Y-75331D01*
X76646Y-75331D02*
X76913Y-75331D01*
X76741Y-75731D01*
X74575Y-69472D02*
X74575Y-69836D01*
X74594Y-69879D01*
X74613Y-69900D01*
X74651Y-69922D01*
X74727Y-69922D01*
X74765Y-69900D01*
X74784Y-69879D01*
X74803Y-69836D01*
X74803Y-69472D01*
X75165Y-69622D02*
X75165Y-69922D01*
X75070Y-69450D02*
X74975Y-69772D01*
X75222Y-69772D01*
X73784Y-70901D02*
X73784Y-70501D01*
X73918Y-70787D01*
X74051Y-70501D01*
X74051Y-70901D01*
X74241Y-70901D02*
X74241Y-70501D01*
X74394Y-70501D01*
X74432Y-70520D01*
X74451Y-70540D01*
X74470Y-70578D01*
X74470Y-70635D01*
X74451Y-70673D01*
X74432Y-70692D01*
X74394Y-70711D01*
X74241Y-70711D01*
X74622Y-70540D02*
X74641Y-70520D01*
X74680Y-70501D01*
X74775Y-70501D01*
X74813Y-70520D01*
X74832Y-70540D01*
X74851Y-70578D01*
X74851Y-70616D01*
X74832Y-70673D01*
X74603Y-70901D01*
X74851Y-70901D01*
X74984Y-70501D02*
X75232Y-70501D01*
X75099Y-70654D01*
X75156Y-70654D01*
X75194Y-70673D01*
X75213Y-70692D01*
X75232Y-70730D01*
X75232Y-70825D01*
X75213Y-70863D01*
X75194Y-70882D01*
X75156Y-70901D01*
X75041Y-70901D01*
X75003Y-70882D01*
X74984Y-70863D01*
X75480Y-70501D02*
X75518Y-70501D01*
X75556Y-70520D01*
X75575Y-70540D01*
X75594Y-70578D01*
X75613Y-70654D01*
X75613Y-70749D01*
X75594Y-70825D01*
X75575Y-70863D01*
X75556Y-70882D01*
X75518Y-70901D01*
X75480Y-70901D01*
X75441Y-70882D01*
X75422Y-70863D01*
X75403Y-70825D01*
X75384Y-70749D01*
X75384Y-70654D01*
X75403Y-70578D01*
X75422Y-70540D01*
X75441Y-70520D01*
X75480Y-70501D01*
X75746Y-70501D02*
X76013Y-70501D01*
X75841Y-70901D01*
G54D24*
X72034Y-68005D02*
X71940Y-68065D01*
X72034Y-68107D02*
X71837Y-68107D01*
X71837Y-68039D01*
X71847Y-68022D01*
X71856Y-68013D01*
X71875Y-68005D01*
X71903Y-68005D01*
X71922Y-68013D01*
X71931Y-68022D01*
X71940Y-68039D01*
X71940Y-68107D01*
X71837Y-67842D02*
X71837Y-67927D01*
X71931Y-67936D01*
X71922Y-67927D01*
X71912Y-67910D01*
X71912Y-67867D01*
X71922Y-67850D01*
X71931Y-67842D01*
X71950Y-67833D01*
X71997Y-67833D01*
X72015Y-67842D01*
X72025Y-67850D01*
X72034Y-67867D01*
X72034Y-67910D01*
X72025Y-67927D01*
X72015Y-67936D01*
X72596Y-68477D02*
X72729Y-68477D01*
X72520Y-68520D02*
X72663Y-68562D01*
X72663Y-68451D01*
X72596Y-68305D02*
X72729Y-68305D01*
X72520Y-68348D02*
X72663Y-68391D01*
X72663Y-68280D01*
X72710Y-68211D02*
X72720Y-68202D01*
X72729Y-68211D01*
X72720Y-68219D01*
X72710Y-68211D01*
X72729Y-68211D01*
X72549Y-68134D02*
X72539Y-68125D01*
X72529Y-68108D01*
X72529Y-68065D01*
X72539Y-68048D01*
X72549Y-68040D01*
X72568Y-68031D01*
X72587Y-68031D01*
X72615Y-68040D01*
X72729Y-68142D01*
X72729Y-68031D01*
X72729Y-67954D02*
X72529Y-67954D01*
X72729Y-67851D02*
X72615Y-67928D01*
X72529Y-67851D02*
X72644Y-67954D01*
X72729Y-67542D02*
X72729Y-67645D01*
X72729Y-67594D02*
X72529Y-67594D01*
X72558Y-67611D01*
X72577Y-67628D01*
X72587Y-67645D01*
X72729Y-67474D02*
X72529Y-67337D01*
X72529Y-67448D02*
X72539Y-67431D01*
X72558Y-67422D01*
X72577Y-67431D01*
X72587Y-67448D01*
X72577Y-67465D01*
X72558Y-67474D01*
X72539Y-67465D01*
X72529Y-67448D01*
X72720Y-67345D02*
X72701Y-67337D01*
X72682Y-67345D01*
X72672Y-67362D01*
X72682Y-67379D01*
X72701Y-67388D01*
X72720Y-67379D01*
X72729Y-67362D01*
X72720Y-67345D01*
X110314Y-65120D02*
X110220Y-65180D01*
X110314Y-65223D02*
X110117Y-65223D01*
X110117Y-65155D01*
X110127Y-65137D01*
X110136Y-65129D01*
X110155Y-65120D01*
X110183Y-65120D01*
X110202Y-65129D01*
X110211Y-65137D01*
X110220Y-65155D01*
X110220Y-65223D01*
X110314Y-64949D02*
X110314Y-65052D01*
X110314Y-65000D02*
X110117Y-65000D01*
X110145Y-65017D01*
X110164Y-65035D01*
X110174Y-65052D01*
X110314Y-64777D02*
X110314Y-64880D01*
X110314Y-64829D02*
X110117Y-64829D01*
X110145Y-64846D01*
X110164Y-64863D01*
X110174Y-64880D01*
X110829Y-65202D02*
X110819Y-65194D01*
X110809Y-65177D01*
X110809Y-65134D01*
X110819Y-65117D01*
X110829Y-65108D01*
X110848Y-65100D01*
X110867Y-65100D01*
X110895Y-65108D01*
X111009Y-65211D01*
X111009Y-65100D01*
X110809Y-65040D02*
X110809Y-64920D01*
X111009Y-64997D01*
X110809Y-64817D02*
X110809Y-64799D01*
X110819Y-64782D01*
X110829Y-64774D01*
X110848Y-64765D01*
X110886Y-64757D01*
X110933Y-64757D01*
X110971Y-64765D01*
X110990Y-64774D01*
X111000Y-64782D01*
X111009Y-64799D01*
X111009Y-64817D01*
X111000Y-64834D01*
X110990Y-64842D01*
X110971Y-64851D01*
X110933Y-64859D01*
X110886Y-64859D01*
X110848Y-64851D01*
X110829Y-64842D01*
X110819Y-64834D01*
X110809Y-64817D01*
X106644Y-65100D02*
X106550Y-65160D01*
X106644Y-65203D02*
X106447Y-65203D01*
X106447Y-65135D01*
X106457Y-65117D01*
X106466Y-65109D01*
X106485Y-65100D01*
X106513Y-65100D01*
X106532Y-65109D01*
X106541Y-65117D01*
X106550Y-65135D01*
X106550Y-65203D01*
X106644Y-64929D02*
X106644Y-65032D01*
X106644Y-64980D02*
X106447Y-64980D01*
X106475Y-64997D01*
X106494Y-65015D01*
X106504Y-65032D01*
X106447Y-64817D02*
X106447Y-64800D01*
X106457Y-64783D01*
X106466Y-64775D01*
X106485Y-64766D01*
X106522Y-64757D01*
X106569Y-64757D01*
X106607Y-64766D01*
X106625Y-64775D01*
X106635Y-64783D01*
X106644Y-64800D01*
X106644Y-64817D01*
X106635Y-64835D01*
X106625Y-64843D01*
X106607Y-64852D01*
X106569Y-64860D01*
X106522Y-64860D01*
X106485Y-64852D01*
X106466Y-64843D01*
X106457Y-64835D01*
X106447Y-64817D01*
X107159Y-65182D02*
X107149Y-65174D01*
X107139Y-65157D01*
X107139Y-65114D01*
X107149Y-65097D01*
X107159Y-65088D01*
X107178Y-65080D01*
X107197Y-65080D01*
X107225Y-65088D01*
X107339Y-65191D01*
X107339Y-65080D01*
X107139Y-65020D02*
X107139Y-64900D01*
X107339Y-64977D01*
X107139Y-64797D02*
X107139Y-64779D01*
X107149Y-64762D01*
X107159Y-64754D01*
X107178Y-64745D01*
X107216Y-64737D01*
X107263Y-64737D01*
X107301Y-64745D01*
X107320Y-64754D01*
X107330Y-64762D01*
X107339Y-64779D01*
X107339Y-64797D01*
X107330Y-64814D01*
X107320Y-64822D01*
X107301Y-64831D01*
X107263Y-64839D01*
X107216Y-64839D01*
X107178Y-64831D01*
X107159Y-64822D01*
X107149Y-64814D01*
X107139Y-64797D01*
X70885Y-73804D02*
X70825Y-73710D01*
X70782Y-73804D02*
X70782Y-73607D01*
X70850Y-73607D01*
X70867Y-73617D01*
X70876Y-73626D01*
X70885Y-73645D01*
X70885Y-73673D01*
X70876Y-73692D01*
X70867Y-73701D01*
X70850Y-73710D01*
X70782Y-73710D01*
X70987Y-73692D02*
X70970Y-73682D01*
X70962Y-73673D01*
X70953Y-73654D01*
X70953Y-73645D01*
X70962Y-73626D01*
X70970Y-73617D01*
X70987Y-73607D01*
X71022Y-73607D01*
X71039Y-73617D01*
X71047Y-73626D01*
X71056Y-73645D01*
X71056Y-73654D01*
X71047Y-73673D01*
X71039Y-73682D01*
X71022Y-73692D01*
X70987Y-73692D01*
X70970Y-73701D01*
X70962Y-73710D01*
X70953Y-73729D01*
X70953Y-73767D01*
X70962Y-73785D01*
X70970Y-73795D01*
X70987Y-73804D01*
X71022Y-73804D01*
X71039Y-73795D01*
X71047Y-73785D01*
X71056Y-73767D01*
X71056Y-73729D01*
X71047Y-73710D01*
X71039Y-73701D01*
X71022Y-73692D01*
X70558Y-74499D02*
X70455Y-74499D01*
X70507Y-74499D02*
X70507Y-74299D01*
X70489Y-74328D01*
X70472Y-74347D01*
X70455Y-74357D01*
X70670Y-74299D02*
X70687Y-74299D01*
X70704Y-74309D01*
X70712Y-74319D01*
X70721Y-74338D01*
X70730Y-74376D01*
X70730Y-74423D01*
X70721Y-74461D01*
X70712Y-74480D01*
X70704Y-74490D01*
X70687Y-74499D01*
X70670Y-74499D01*
X70652Y-74490D01*
X70644Y-74480D01*
X70635Y-74461D01*
X70627Y-74423D01*
X70627Y-74376D01*
X70635Y-74338D01*
X70644Y-74319D01*
X70652Y-74309D01*
X70670Y-74299D01*
X70807Y-74499D02*
X70807Y-74299D01*
X70910Y-74499D02*
X70832Y-74385D01*
X70910Y-74299D02*
X70807Y-74414D01*
X71218Y-74499D02*
X71115Y-74499D01*
X71167Y-74499D02*
X71167Y-74299D01*
X71150Y-74328D01*
X71132Y-74347D01*
X71115Y-74357D01*
X71287Y-74499D02*
X71424Y-74299D01*
X71312Y-74299D02*
X71330Y-74309D01*
X71338Y-74328D01*
X71330Y-74347D01*
X71312Y-74357D01*
X71295Y-74347D01*
X71287Y-74328D01*
X71295Y-74309D01*
X71312Y-74299D01*
X71415Y-74490D02*
X71424Y-74471D01*
X71415Y-74452D01*
X71398Y-74442D01*
X71381Y-74452D01*
X71372Y-74471D01*
X71381Y-74490D01*
X71398Y-74499D01*
X71415Y-74490D01*
X73654Y-77695D02*
X73560Y-77755D01*
X73654Y-77797D02*
X73457Y-77797D01*
X73457Y-77729D01*
X73467Y-77712D01*
X73476Y-77703D01*
X73495Y-77695D01*
X73523Y-77695D01*
X73542Y-77703D01*
X73551Y-77712D01*
X73560Y-77729D01*
X73560Y-77797D01*
X73654Y-77609D02*
X73654Y-77575D01*
X73645Y-77557D01*
X73635Y-77549D01*
X73607Y-77532D01*
X73570Y-77523D01*
X73495Y-77523D01*
X73476Y-77532D01*
X73467Y-77540D01*
X73457Y-77557D01*
X73457Y-77592D01*
X73467Y-77609D01*
X73476Y-77617D01*
X73495Y-77626D01*
X73542Y-77626D01*
X73560Y-77617D01*
X73570Y-77609D01*
X73579Y-77592D01*
X73579Y-77557D01*
X73570Y-77540D01*
X73560Y-77532D01*
X73542Y-77523D01*
X74987Y-74200D02*
X74995Y-74190D01*
X75012Y-74180D01*
X75055Y-74180D01*
X75072Y-74190D01*
X75081Y-74200D01*
X75090Y-74219D01*
X75090Y-74238D01*
X75081Y-74266D01*
X74978Y-74380D01*
X75090Y-74380D01*
X75244Y-74180D02*
X75210Y-74180D01*
X75192Y-74190D01*
X75184Y-74200D01*
X75167Y-74228D01*
X75158Y-74266D01*
X75158Y-74342D01*
X75167Y-74361D01*
X75175Y-74371D01*
X75192Y-74380D01*
X75227Y-74380D01*
X75244Y-74371D01*
X75252Y-74361D01*
X75261Y-74342D01*
X75261Y-74295D01*
X75252Y-74276D01*
X75244Y-74266D01*
X75227Y-74257D01*
X75192Y-74257D01*
X75175Y-74266D01*
X75167Y-74276D01*
X75158Y-74295D01*
X75338Y-74361D02*
X75347Y-74371D01*
X75338Y-74380D01*
X75330Y-74371D01*
X75338Y-74361D01*
X75338Y-74380D01*
X75518Y-74380D02*
X75415Y-74380D01*
X75467Y-74380D02*
X75467Y-74180D01*
X75450Y-74209D01*
X75432Y-74228D01*
X75415Y-74238D01*
X75595Y-74380D02*
X75595Y-74180D01*
X75698Y-74380D02*
X75621Y-74266D01*
X75698Y-74180D02*
X75595Y-74295D01*
X76007Y-74380D02*
X75904Y-74380D01*
X75955Y-74380D02*
X75955Y-74180D01*
X75938Y-74209D01*
X75921Y-74228D01*
X75904Y-74238D01*
X76075Y-74380D02*
X76212Y-74180D01*
X76101Y-74180D02*
X76118Y-74190D01*
X76127Y-74209D01*
X76118Y-74228D01*
X76101Y-74238D01*
X76084Y-74228D01*
X76075Y-74209D01*
X76084Y-74190D01*
X76101Y-74180D01*
X76204Y-74371D02*
X76212Y-74352D01*
X76204Y-74333D01*
X76187Y-74323D01*
X76170Y-74333D01*
X76161Y-74352D01*
X76170Y-74371D01*
X76187Y-74380D01*
X76204Y-74371D01*
X74844Y-73675D02*
X74750Y-73735D01*
X74844Y-73777D02*
X74647Y-73777D01*
X74647Y-73709D01*
X74657Y-73692D01*
X74666Y-73683D01*
X74685Y-73675D01*
X74713Y-73675D01*
X74732Y-73683D01*
X74741Y-73692D01*
X74750Y-73709D01*
X74750Y-73777D01*
X74647Y-73615D02*
X74647Y-73495D01*
X74844Y-73572D01*
X73860Y-74044D02*
X73860Y-74078D01*
X73870Y-74095D01*
X73880Y-74104D01*
X73908Y-74121D01*
X73946Y-74130D01*
X74022Y-74130D01*
X74041Y-74121D01*
X74051Y-74112D01*
X74060Y-74095D01*
X74060Y-74061D01*
X74051Y-74044D01*
X74041Y-74035D01*
X74022Y-74027D01*
X73975Y-74027D01*
X73956Y-74035D01*
X73946Y-74044D01*
X73937Y-74061D01*
X73937Y-74095D01*
X73946Y-74112D01*
X73956Y-74121D01*
X73975Y-74130D01*
X74041Y-73950D02*
X74051Y-73941D01*
X74060Y-73950D01*
X74051Y-73958D01*
X74041Y-73950D01*
X74060Y-73950D01*
X73946Y-73838D02*
X73937Y-73855D01*
X73927Y-73864D01*
X73908Y-73872D01*
X73899Y-73872D01*
X73880Y-73864D01*
X73870Y-73855D01*
X73860Y-73838D01*
X73860Y-73804D01*
X73870Y-73787D01*
X73880Y-73778D01*
X73899Y-73770D01*
X73908Y-73770D01*
X73927Y-73778D01*
X73937Y-73787D01*
X73946Y-73804D01*
X73946Y-73838D01*
X73956Y-73855D01*
X73965Y-73864D01*
X73984Y-73872D01*
X74022Y-73872D01*
X74041Y-73864D01*
X74051Y-73855D01*
X74060Y-73838D01*
X74060Y-73804D01*
X74051Y-73787D01*
X74041Y-73778D01*
X74022Y-73770D01*
X73984Y-73770D01*
X73965Y-73778D01*
X73956Y-73787D01*
X73946Y-73804D01*
X74060Y-73692D02*
X73860Y-73692D01*
X74060Y-73590D02*
X73946Y-73667D01*
X73860Y-73590D02*
X73975Y-73692D01*
X72165Y-73914D02*
X72105Y-73820D01*
X72062Y-73914D02*
X72062Y-73717D01*
X72130Y-73717D01*
X72147Y-73727D01*
X72156Y-73736D01*
X72165Y-73755D01*
X72165Y-73783D01*
X72156Y-73802D01*
X72147Y-73811D01*
X72130Y-73820D01*
X72062Y-73820D01*
X72319Y-73717D02*
X72285Y-73717D01*
X72267Y-73727D01*
X72259Y-73736D01*
X72242Y-73764D01*
X72233Y-73802D01*
X72233Y-73877D01*
X72242Y-73895D01*
X72250Y-73905D01*
X72267Y-73914D01*
X72302Y-73914D01*
X72319Y-73905D01*
X72327Y-73895D01*
X72336Y-73877D01*
X72336Y-73830D01*
X72327Y-73811D01*
X72319Y-73802D01*
X72302Y-73792D01*
X72267Y-73792D01*
X72250Y-73802D01*
X72242Y-73811D01*
X72233Y-73830D01*
X71960Y-73221D02*
X71857Y-73221D01*
X71908Y-73221D02*
X71908Y-73021D01*
X71891Y-73050D01*
X71874Y-73069D01*
X71857Y-73079D01*
X72071Y-73021D02*
X72088Y-73021D01*
X72105Y-73031D01*
X72114Y-73041D01*
X72122Y-73060D01*
X72131Y-73098D01*
X72131Y-73145D01*
X72122Y-73183D01*
X72114Y-73202D01*
X72105Y-73212D01*
X72088Y-73221D01*
X72071Y-73221D01*
X72054Y-73212D01*
X72045Y-73202D01*
X72037Y-73183D01*
X72028Y-73145D01*
X72028Y-73098D01*
X72037Y-73060D01*
X72045Y-73041D01*
X72054Y-73031D01*
X72071Y-73021D01*
X72242Y-73021D02*
X72260Y-73021D01*
X72277Y-73031D01*
X72285Y-73041D01*
X72294Y-73060D01*
X72302Y-73098D01*
X72302Y-73145D01*
X72294Y-73183D01*
X72285Y-73202D01*
X72277Y-73212D01*
X72260Y-73221D01*
X72242Y-73221D01*
X72225Y-73212D01*
X72217Y-73202D01*
X72208Y-73183D01*
X72200Y-73145D01*
X72200Y-73098D01*
X72208Y-73060D01*
X72217Y-73041D01*
X72225Y-73031D01*
X72242Y-73021D01*
X72380Y-73221D02*
X72380Y-73021D01*
X72482Y-73221D02*
X72405Y-73107D01*
X72482Y-73021D02*
X72380Y-73136D01*
X72024Y-68755D02*
X71930Y-68815D01*
X72024Y-68857D02*
X71827Y-68857D01*
X71827Y-68789D01*
X71837Y-68772D01*
X71846Y-68763D01*
X71865Y-68755D01*
X71893Y-68755D01*
X71912Y-68763D01*
X71921Y-68772D01*
X71930Y-68789D01*
X71930Y-68857D01*
X71893Y-68600D02*
X72024Y-68600D01*
X71818Y-68643D02*
X71959Y-68686D01*
X71959Y-68575D01*
X72719Y-69081D02*
X72719Y-69184D01*
X72719Y-69132D02*
X72519Y-69132D01*
X72548Y-69150D01*
X72567Y-69167D01*
X72577Y-69184D01*
X72519Y-68970D02*
X72519Y-68952D01*
X72529Y-68935D01*
X72539Y-68927D01*
X72558Y-68918D01*
X72596Y-68910D01*
X72643Y-68910D01*
X72681Y-68918D01*
X72700Y-68927D01*
X72710Y-68935D01*
X72719Y-68952D01*
X72719Y-68970D01*
X72710Y-68987D01*
X72700Y-68995D01*
X72681Y-69004D01*
X72643Y-69012D01*
X72596Y-69012D01*
X72558Y-69004D01*
X72539Y-68995D01*
X72529Y-68987D01*
X72519Y-68970D01*
X72719Y-68832D02*
X72519Y-68832D01*
X72719Y-68730D02*
X72605Y-68807D01*
X72519Y-68730D02*
X72634Y-68832D01*
X72719Y-68421D02*
X72719Y-68524D01*
X72719Y-68472D02*
X72519Y-68472D01*
X72548Y-68490D01*
X72567Y-68507D01*
X72577Y-68524D01*
X72719Y-68352D02*
X72519Y-68215D01*
X72519Y-68327D02*
X72529Y-68309D01*
X72548Y-68301D01*
X72567Y-68309D01*
X72577Y-68327D01*
X72567Y-68344D01*
X72548Y-68352D01*
X72529Y-68344D01*
X72519Y-68327D01*
X72710Y-68224D02*
X72691Y-68215D01*
X72672Y-68224D01*
X72662Y-68241D01*
X72672Y-68258D01*
X72691Y-68267D01*
X72710Y-68258D01*
X72719Y-68241D01*
X72710Y-68224D01*
X75784Y-68005D02*
X75690Y-68065D01*
X75784Y-68107D02*
X75587Y-68107D01*
X75587Y-68039D01*
X75597Y-68022D01*
X75606Y-68013D01*
X75625Y-68005D01*
X75653Y-68005D01*
X75672Y-68013D01*
X75681Y-68022D01*
X75690Y-68039D01*
X75690Y-68107D01*
X75587Y-67945D02*
X75587Y-67833D01*
X75662Y-67893D01*
X75662Y-67867D01*
X75672Y-67850D01*
X75681Y-67842D01*
X75700Y-67833D01*
X75747Y-67833D01*
X75765Y-67842D01*
X75775Y-67850D01*
X75784Y-67867D01*
X75784Y-67919D01*
X75775Y-67936D01*
X75765Y-67945D01*
X76279Y-68134D02*
X76279Y-68168D01*
X76289Y-68185D01*
X76299Y-68194D01*
X76327Y-68211D01*
X76365Y-68220D01*
X76441Y-68220D01*
X76460Y-68211D01*
X76470Y-68202D01*
X76479Y-68185D01*
X76479Y-68151D01*
X76470Y-68134D01*
X76460Y-68125D01*
X76441Y-68117D01*
X76394Y-68117D01*
X76375Y-68125D01*
X76365Y-68134D01*
X76356Y-68151D01*
X76356Y-68185D01*
X76365Y-68202D01*
X76375Y-68211D01*
X76394Y-68220D01*
X76460Y-68040D02*
X76470Y-68031D01*
X76479Y-68040D01*
X76470Y-68048D01*
X76460Y-68040D01*
X76479Y-68040D01*
X76365Y-67928D02*
X76356Y-67945D01*
X76346Y-67954D01*
X76327Y-67962D01*
X76318Y-67962D01*
X76299Y-67954D01*
X76289Y-67945D01*
X76279Y-67928D01*
X76279Y-67894D01*
X76289Y-67877D01*
X76299Y-67868D01*
X76318Y-67860D01*
X76327Y-67860D01*
X76346Y-67868D01*
X76356Y-67877D01*
X76365Y-67894D01*
X76365Y-67928D01*
X76375Y-67945D01*
X76384Y-67954D01*
X76403Y-67962D01*
X76441Y-67962D01*
X76460Y-67954D01*
X76470Y-67945D01*
X76479Y-67928D01*
X76479Y-67894D01*
X76470Y-67877D01*
X76460Y-67868D01*
X76441Y-67860D01*
X76403Y-67860D01*
X76384Y-67868D01*
X76375Y-67877D01*
X76365Y-67894D01*
X76479Y-67782D02*
X76279Y-67782D01*
X76479Y-67680D02*
X76365Y-67757D01*
X76279Y-67680D02*
X76394Y-67782D01*
X76725Y-69334D02*
X76665Y-69240D01*
X76622Y-69334D02*
X76622Y-69137D01*
X76690Y-69137D01*
X76707Y-69147D01*
X76716Y-69156D01*
X76725Y-69175D01*
X76725Y-69203D01*
X76716Y-69222D01*
X76707Y-69231D01*
X76690Y-69240D01*
X76622Y-69240D01*
X76793Y-69156D02*
X76802Y-69147D01*
X76819Y-69137D01*
X76862Y-69137D01*
X76879Y-69147D01*
X76887Y-69156D01*
X76896Y-69175D01*
X76896Y-69194D01*
X76887Y-69222D01*
X76785Y-69334D01*
X76896Y-69334D01*
X76845Y-68345D02*
X76742Y-68345D01*
X76793Y-68345D02*
X76793Y-68145D01*
X76776Y-68174D01*
X76759Y-68193D01*
X76742Y-68203D01*
X76956Y-68145D02*
X76973Y-68145D01*
X76990Y-68155D01*
X76999Y-68165D01*
X77007Y-68184D01*
X77016Y-68222D01*
X77016Y-68269D01*
X77007Y-68307D01*
X76999Y-68326D01*
X76990Y-68336D01*
X76973Y-68345D01*
X76956Y-68345D01*
X76939Y-68336D01*
X76930Y-68326D01*
X76922Y-68307D01*
X76913Y-68269D01*
X76913Y-68222D01*
X76922Y-68184D01*
X76930Y-68165D01*
X76939Y-68155D01*
X76956Y-68145D01*
X77127Y-68145D02*
X77145Y-68145D01*
X77162Y-68155D01*
X77170Y-68165D01*
X77179Y-68184D01*
X77187Y-68222D01*
X77187Y-68269D01*
X77179Y-68307D01*
X77170Y-68326D01*
X77162Y-68336D01*
X77145Y-68345D01*
X77127Y-68345D01*
X77110Y-68336D01*
X77102Y-68326D01*
X77093Y-68307D01*
X77085Y-68269D01*
X77085Y-68222D01*
X77093Y-68184D01*
X77102Y-68165D01*
X77110Y-68155D01*
X77127Y-68145D01*
X77265Y-68345D02*
X77265Y-68145D01*
X77367Y-68345D02*
X77290Y-68231D01*
X77367Y-68145D02*
X77265Y-68260D01*
X105341Y-65120D02*
X105351Y-65128D01*
X105360Y-65154D01*
X105360Y-65171D01*
X105351Y-65197D01*
X105332Y-65214D01*
X105313Y-65222D01*
X105275Y-65231D01*
X105246Y-65231D01*
X105208Y-65222D01*
X105189Y-65214D01*
X105170Y-65197D01*
X105160Y-65171D01*
X105160Y-65154D01*
X105170Y-65128D01*
X105180Y-65120D01*
X105360Y-65042D02*
X105160Y-65042D01*
X105160Y-64974D01*
X105170Y-64957D01*
X105180Y-64948D01*
X105199Y-64940D01*
X105227Y-64940D01*
X105246Y-64948D01*
X105256Y-64957D01*
X105265Y-64974D01*
X105265Y-65042D01*
X105360Y-64768D02*
X105360Y-64871D01*
X105360Y-64820D02*
X105160Y-64820D01*
X105189Y-64837D01*
X105208Y-64854D01*
X105218Y-64871D01*
X106010Y-65192D02*
X106010Y-65295D01*
X106010Y-65244D02*
X105810Y-65244D01*
X105839Y-65261D01*
X105858Y-65278D01*
X105868Y-65295D01*
X105810Y-65081D02*
X105810Y-65064D01*
X105820Y-65047D01*
X105830Y-65038D01*
X105849Y-65030D01*
X105887Y-65021D01*
X105934Y-65021D01*
X105972Y-65030D01*
X105991Y-65038D01*
X106001Y-65047D01*
X106010Y-65064D01*
X106010Y-65081D01*
X106001Y-65098D01*
X105991Y-65107D01*
X105972Y-65115D01*
X105934Y-65124D01*
X105887Y-65124D01*
X105849Y-65115D01*
X105830Y-65107D01*
X105820Y-65098D01*
X105810Y-65081D01*
X105877Y-64867D02*
X106010Y-64867D01*
X105877Y-64944D02*
X105982Y-64944D01*
X106001Y-64935D01*
X106010Y-64918D01*
X106010Y-64892D01*
X106001Y-64875D01*
X105991Y-64867D01*
X105906Y-64721D02*
X105906Y-64781D01*
X106010Y-64781D02*
X105810Y-64781D01*
X105810Y-64695D01*
X110074Y-66221D02*
X110065Y-66231D01*
X110040Y-66240D01*
X110022Y-66240D01*
X109997Y-66231D01*
X109980Y-66212D01*
X109971Y-66193D01*
X109962Y-66155D01*
X109962Y-66126D01*
X109971Y-66088D01*
X109980Y-66069D01*
X109997Y-66050D01*
X110022Y-66040D01*
X110040Y-66040D01*
X110065Y-66050D01*
X110074Y-66060D01*
X110245Y-66240D02*
X110142Y-66240D01*
X110194Y-66240D02*
X110194Y-66040D01*
X110177Y-66069D01*
X110160Y-66088D01*
X110142Y-66098D01*
X110314Y-66060D02*
X110322Y-66050D01*
X110340Y-66040D01*
X110382Y-66040D01*
X110400Y-66050D01*
X110408Y-66060D01*
X110417Y-66079D01*
X110417Y-66098D01*
X110408Y-66126D01*
X110305Y-66240D01*
X110417Y-66240D01*
X109894Y-66690D02*
X109911Y-66690D01*
X109928Y-66700D01*
X109937Y-66710D01*
X109945Y-66729D01*
X109954Y-66767D01*
X109954Y-66814D01*
X109945Y-66852D01*
X109937Y-66871D01*
X109928Y-66881D01*
X109911Y-66890D01*
X109894Y-66890D01*
X109877Y-66881D01*
X109868Y-66871D01*
X109860Y-66852D01*
X109851Y-66814D01*
X109851Y-66767D01*
X109860Y-66729D01*
X109868Y-66710D01*
X109877Y-66700D01*
X109894Y-66690D01*
X110031Y-66871D02*
X110040Y-66881D01*
X110031Y-66890D01*
X110022Y-66881D01*
X110031Y-66871D01*
X110031Y-66890D01*
X110211Y-66890D02*
X110108Y-66890D01*
X110160Y-66890D02*
X110160Y-66690D01*
X110142Y-66719D01*
X110125Y-66738D01*
X110108Y-66748D01*
X110365Y-66757D02*
X110365Y-66890D01*
X110288Y-66757D02*
X110288Y-66862D01*
X110297Y-66881D01*
X110314Y-66890D01*
X110340Y-66890D01*
X110357Y-66881D01*
X110365Y-66871D01*
X110511Y-66786D02*
X110451Y-66786D01*
X110451Y-66890D02*
X110451Y-66690D01*
X110537Y-66690D01*
X109314Y-66211D02*
X109305Y-66221D01*
X109280Y-66230D01*
X109262Y-66230D01*
X109237Y-66221D01*
X109220Y-66202D01*
X109211Y-66183D01*
X109202Y-66145D01*
X109202Y-66116D01*
X109211Y-66078D01*
X109220Y-66059D01*
X109237Y-66040D01*
X109262Y-66030D01*
X109280Y-66030D01*
X109305Y-66040D01*
X109314Y-66050D01*
X109485Y-66230D02*
X109382Y-66230D01*
X109434Y-66230D02*
X109434Y-66030D01*
X109417Y-66059D01*
X109400Y-66078D01*
X109382Y-66088D01*
X109545Y-66030D02*
X109657Y-66030D01*
X109597Y-66107D01*
X109622Y-66107D01*
X109640Y-66116D01*
X109648Y-66126D01*
X109657Y-66145D01*
X109657Y-66192D01*
X109648Y-66211D01*
X109640Y-66221D01*
X109622Y-66230D01*
X109571Y-66230D01*
X109554Y-66221D01*
X109545Y-66211D01*
X109134Y-65380D02*
X109151Y-65380D01*
X109168Y-65390D01*
X109177Y-65400D01*
X109185Y-65419D01*
X109194Y-65457D01*
X109194Y-65504D01*
X109185Y-65542D01*
X109177Y-65561D01*
X109168Y-65571D01*
X109151Y-65580D01*
X109134Y-65580D01*
X109117Y-65571D01*
X109108Y-65561D01*
X109100Y-65542D01*
X109091Y-65504D01*
X109091Y-65457D01*
X109100Y-65419D01*
X109108Y-65400D01*
X109117Y-65390D01*
X109134Y-65380D01*
X109271Y-65561D02*
X109280Y-65571D01*
X109271Y-65580D01*
X109262Y-65571D01*
X109271Y-65561D01*
X109271Y-65580D01*
X109451Y-65580D02*
X109348Y-65580D01*
X109400Y-65580D02*
X109400Y-65380D01*
X109382Y-65409D01*
X109365Y-65428D01*
X109348Y-65438D01*
X109605Y-65447D02*
X109605Y-65580D01*
X109528Y-65447D02*
X109528Y-65552D01*
X109537Y-65571D01*
X109554Y-65580D01*
X109580Y-65580D01*
X109597Y-65571D01*
X109605Y-65561D01*
X109751Y-65476D02*
X109691Y-65476D01*
X109691Y-65580D02*
X109691Y-65380D01*
X109777Y-65380D01*
X72011Y-77825D02*
X72021Y-77834D01*
X72030Y-77860D01*
X72030Y-77877D01*
X72021Y-77902D01*
X72002Y-77920D01*
X71983Y-77928D01*
X71945Y-77937D01*
X71916Y-77937D01*
X71878Y-77928D01*
X71859Y-77920D01*
X71840Y-77902D01*
X71830Y-77877D01*
X71830Y-77860D01*
X71840Y-77834D01*
X71850Y-77825D01*
X72030Y-77654D02*
X72030Y-77757D01*
X72030Y-77705D02*
X71830Y-77705D01*
X71859Y-77722D01*
X71878Y-77740D01*
X71888Y-77757D01*
X72030Y-77482D02*
X72030Y-77585D01*
X72030Y-77534D02*
X71830Y-77534D01*
X71859Y-77551D01*
X71878Y-77568D01*
X71888Y-77585D01*
X72500Y-78357D02*
X72490Y-78348D01*
X72480Y-78331D01*
X72480Y-78288D01*
X72490Y-78271D01*
X72500Y-78262D01*
X72519Y-78254D01*
X72538Y-78254D01*
X72566Y-78262D01*
X72680Y-78365D01*
X72680Y-78254D01*
X72500Y-78185D02*
X72490Y-78177D01*
X72480Y-78160D01*
X72480Y-78117D01*
X72490Y-78100D01*
X72500Y-78091D01*
X72519Y-78082D01*
X72538Y-78082D01*
X72566Y-78091D01*
X72680Y-78194D01*
X72680Y-78082D01*
X72547Y-77928D02*
X72680Y-77928D01*
X72547Y-78005D02*
X72652Y-78005D01*
X72671Y-77997D01*
X72680Y-77980D01*
X72680Y-77954D01*
X72671Y-77937D01*
X72661Y-77928D01*
X72576Y-77782D02*
X72576Y-77842D01*
X72680Y-77842D02*
X72480Y-77842D01*
X72480Y-77757D01*
X72480Y-77474D02*
X72480Y-77508D01*
X72490Y-77525D01*
X72500Y-77534D01*
X72528Y-77551D01*
X72566Y-77559D01*
X72642Y-77559D01*
X72661Y-77551D01*
X72671Y-77542D01*
X72680Y-77525D01*
X72680Y-77491D01*
X72671Y-77474D01*
X72661Y-77465D01*
X72642Y-77457D01*
X72595Y-77457D01*
X72576Y-77465D01*
X72566Y-77474D01*
X72557Y-77491D01*
X72557Y-77525D01*
X72566Y-77542D01*
X72576Y-77551D01*
X72595Y-77559D01*
X72661Y-77379D02*
X72671Y-77371D01*
X72680Y-77379D01*
X72671Y-77388D01*
X72661Y-77379D01*
X72680Y-77379D01*
X72480Y-77311D02*
X72480Y-77199D01*
X72557Y-77259D01*
X72557Y-77234D01*
X72566Y-77217D01*
X72576Y-77208D01*
X72595Y-77199D01*
X72642Y-77199D01*
X72661Y-77208D01*
X72671Y-77217D01*
X72680Y-77234D01*
X72680Y-77285D01*
X72671Y-77302D01*
X72661Y-77311D01*
X72547Y-77139D02*
X72680Y-77097D01*
X72547Y-77054D01*
X77460Y-75001D02*
X77451Y-75011D01*
X77425Y-75020D01*
X77408Y-75020D01*
X77382Y-75011D01*
X77365Y-74992D01*
X77357Y-74973D01*
X77348Y-74935D01*
X77348Y-74906D01*
X77357Y-74868D01*
X77365Y-74849D01*
X77382Y-74830D01*
X77408Y-74820D01*
X77425Y-74820D01*
X77451Y-74830D01*
X77460Y-74840D01*
X77562Y-74906D02*
X77545Y-74897D01*
X77537Y-74887D01*
X77528Y-74868D01*
X77528Y-74859D01*
X77537Y-74840D01*
X77545Y-74830D01*
X77562Y-74820D01*
X77597Y-74820D01*
X77614Y-74830D01*
X77622Y-74840D01*
X77631Y-74859D01*
X77631Y-74868D01*
X77622Y-74887D01*
X77614Y-74897D01*
X77597Y-74906D01*
X77562Y-74906D01*
X77545Y-74916D01*
X77537Y-74925D01*
X77528Y-74944D01*
X77528Y-74982D01*
X77537Y-75001D01*
X77545Y-75011D01*
X77562Y-75020D01*
X77597Y-75020D01*
X77614Y-75011D01*
X77622Y-75001D01*
X77631Y-74982D01*
X77631Y-74944D01*
X77622Y-74925D01*
X77614Y-74916D01*
X77597Y-74906D01*
X77194Y-75470D02*
X77211Y-75470D01*
X77228Y-75480D01*
X77237Y-75490D01*
X77245Y-75509D01*
X77254Y-75547D01*
X77254Y-75594D01*
X77245Y-75632D01*
X77237Y-75651D01*
X77228Y-75661D01*
X77211Y-75670D01*
X77194Y-75670D01*
X77177Y-75661D01*
X77168Y-75651D01*
X77160Y-75632D01*
X77151Y-75594D01*
X77151Y-75547D01*
X77160Y-75509D01*
X77168Y-75490D01*
X77177Y-75480D01*
X77194Y-75470D01*
X77331Y-75651D02*
X77340Y-75661D01*
X77331Y-75670D01*
X77322Y-75661D01*
X77331Y-75651D01*
X77331Y-75670D01*
X77511Y-75670D02*
X77408Y-75670D01*
X77460Y-75670D02*
X77460Y-75470D01*
X77442Y-75499D01*
X77425Y-75518D01*
X77408Y-75528D01*
X77665Y-75537D02*
X77665Y-75670D01*
X77588Y-75537D02*
X77588Y-75642D01*
X77597Y-75661D01*
X77614Y-75670D01*
X77640Y-75670D01*
X77657Y-75661D01*
X77665Y-75651D01*
X77811Y-75566D02*
X77751Y-75566D01*
X77751Y-75670D02*
X77751Y-75470D01*
X77837Y-75470D01*
X74061Y-72530D02*
X74071Y-72538D01*
X74080Y-72564D01*
X74080Y-72581D01*
X74071Y-72607D01*
X74052Y-72624D01*
X74033Y-72632D01*
X73995Y-72641D01*
X73966Y-72641D01*
X73928Y-72632D01*
X73909Y-72624D01*
X73890Y-72607D01*
X73880Y-72581D01*
X73880Y-72564D01*
X73890Y-72538D01*
X73900Y-72530D01*
X73880Y-72367D02*
X73880Y-72452D01*
X73976Y-72461D01*
X73966Y-72452D01*
X73957Y-72435D01*
X73957Y-72392D01*
X73966Y-72375D01*
X73976Y-72367D01*
X73995Y-72358D01*
X74042Y-72358D01*
X74061Y-72367D01*
X74071Y-72375D01*
X74080Y-72392D01*
X74080Y-72435D01*
X74071Y-72452D01*
X74061Y-72461D01*
X73210Y-72782D02*
X73210Y-72885D01*
X73210Y-72834D02*
X73010Y-72834D01*
X73039Y-72851D01*
X73058Y-72868D01*
X73068Y-72885D01*
X73010Y-72671D02*
X73010Y-72654D01*
X73020Y-72637D01*
X73030Y-72628D01*
X73049Y-72620D01*
X73087Y-72611D01*
X73134Y-72611D01*
X73172Y-72620D01*
X73191Y-72628D01*
X73201Y-72637D01*
X73210Y-72654D01*
X73210Y-72671D01*
X73201Y-72688D01*
X73191Y-72697D01*
X73172Y-72705D01*
X73134Y-72714D01*
X73087Y-72714D01*
X73049Y-72705D01*
X73030Y-72697D01*
X73020Y-72688D01*
X73010Y-72671D01*
X73077Y-72534D02*
X73210Y-72534D01*
X73096Y-72534D02*
X73087Y-72525D01*
X73077Y-72508D01*
X73077Y-72482D01*
X73087Y-72465D01*
X73106Y-72457D01*
X73210Y-72457D01*
X73106Y-72311D02*
X73106Y-72371D01*
X73210Y-72371D02*
X73010Y-72371D01*
X73010Y-72285D01*
X74470Y-74561D02*
X74461Y-74571D01*
X74435Y-74580D01*
X74418Y-74580D01*
X74392Y-74571D01*
X74375Y-74552D01*
X74367Y-74533D01*
X74358Y-74495D01*
X74358Y-74466D01*
X74367Y-74428D01*
X74375Y-74409D01*
X74392Y-74390D01*
X74418Y-74380D01*
X74435Y-74380D01*
X74461Y-74390D01*
X74470Y-74400D01*
X74555Y-74580D02*
X74590Y-74580D01*
X74607Y-74571D01*
X74615Y-74561D01*
X74632Y-74533D01*
X74641Y-74495D01*
X74641Y-74419D01*
X74632Y-74400D01*
X74624Y-74390D01*
X74607Y-74380D01*
X74572Y-74380D01*
X74555Y-74390D01*
X74547Y-74400D01*
X74538Y-74419D01*
X74538Y-74466D01*
X74547Y-74485D01*
X74555Y-74495D01*
X74572Y-74504D01*
X74607Y-74504D01*
X74624Y-74495D01*
X74632Y-74485D01*
X74641Y-74466D01*
X73688Y-73662D02*
X73800Y-73662D01*
X73740Y-73739D01*
X73766Y-73739D01*
X73783Y-73748D01*
X73791Y-73758D01*
X73800Y-73777D01*
X73800Y-73824D01*
X73791Y-73843D01*
X73783Y-73853D01*
X73766Y-73862D01*
X73714Y-73862D01*
X73697Y-73853D01*
X73688Y-73843D01*
X73877Y-73843D02*
X73886Y-73853D01*
X73877Y-73862D01*
X73868Y-73853D01*
X73877Y-73843D01*
X73877Y-73862D01*
X73946Y-73662D02*
X74057Y-73662D01*
X73997Y-73739D01*
X74023Y-73739D01*
X74040Y-73748D01*
X74048Y-73758D01*
X74057Y-73777D01*
X74057Y-73824D01*
X74048Y-73843D01*
X74040Y-73853D01*
X74023Y-73862D01*
X73971Y-73862D01*
X73954Y-73853D01*
X73946Y-73843D01*
X74134Y-73729D02*
X74134Y-73862D01*
X74134Y-73748D02*
X74143Y-73739D01*
X74160Y-73729D01*
X74186Y-73729D01*
X74203Y-73739D01*
X74211Y-73758D01*
X74211Y-73862D01*
X74357Y-73758D02*
X74297Y-73758D01*
X74297Y-73862D02*
X74297Y-73662D01*
X74383Y-73662D01*
X74431Y-68010D02*
X74441Y-68018D01*
X74450Y-68044D01*
X74450Y-68061D01*
X74441Y-68087D01*
X74422Y-68104D01*
X74403Y-68112D01*
X74365Y-68121D01*
X74336Y-68121D01*
X74298Y-68112D01*
X74279Y-68104D01*
X74260Y-68087D01*
X74250Y-68061D01*
X74250Y-68044D01*
X74260Y-68018D01*
X74270Y-68010D01*
X74317Y-67855D02*
X74450Y-67855D01*
X74241Y-67898D02*
X74384Y-67941D01*
X74384Y-67830D01*
X74900Y-68327D02*
X74900Y-68215D01*
X74977Y-68275D01*
X74977Y-68250D01*
X74986Y-68232D01*
X74996Y-68224D01*
X75015Y-68215D01*
X75062Y-68215D01*
X75081Y-68224D01*
X75091Y-68232D01*
X75100Y-68250D01*
X75100Y-68301D01*
X75091Y-68318D01*
X75081Y-68327D01*
X75081Y-68138D02*
X75091Y-68129D01*
X75100Y-68138D01*
X75091Y-68147D01*
X75081Y-68138D01*
X75100Y-68138D01*
X74900Y-68070D02*
X74900Y-67958D01*
X74977Y-68018D01*
X74977Y-67992D01*
X74986Y-67975D01*
X74996Y-67967D01*
X75015Y-67958D01*
X75062Y-67958D01*
X75081Y-67967D01*
X75091Y-67975D01*
X75100Y-67992D01*
X75100Y-68044D01*
X75091Y-68061D01*
X75081Y-68070D01*
X74967Y-67881D02*
X75100Y-67881D01*
X74986Y-67881D02*
X74977Y-67872D01*
X74967Y-67855D01*
X74967Y-67829D01*
X74977Y-67812D01*
X74996Y-67804D01*
X75100Y-67804D01*
X74996Y-67658D02*
X74996Y-67718D01*
X75100Y-67718D02*
X74900Y-67718D01*
X74900Y-67632D01*
X76291Y-73735D02*
X76301Y-73744D01*
X76310Y-73770D01*
X76310Y-73787D01*
X76301Y-73812D01*
X76282Y-73830D01*
X76263Y-73838D01*
X76225Y-73847D01*
X76196Y-73847D01*
X76158Y-73838D01*
X76139Y-73830D01*
X76120Y-73812D01*
X76110Y-73787D01*
X76110Y-73770D01*
X76120Y-73744D01*
X76130Y-73735D01*
X76310Y-73564D02*
X76310Y-73667D01*
X76310Y-73615D02*
X76110Y-73615D01*
X76139Y-73632D01*
X76158Y-73650D01*
X76168Y-73667D01*
X76110Y-73452D02*
X76110Y-73435D01*
X76120Y-73418D01*
X76130Y-73410D01*
X76149Y-73401D01*
X76187Y-73392D01*
X76234Y-73392D01*
X76272Y-73401D01*
X76291Y-73410D01*
X76301Y-73418D01*
X76310Y-73435D01*
X76310Y-73452D01*
X76301Y-73470D01*
X76291Y-73478D01*
X76272Y-73487D01*
X76234Y-73495D01*
X76187Y-73495D01*
X76149Y-73487D01*
X76130Y-73478D01*
X76120Y-73470D01*
X76110Y-73452D01*
X75660Y-73812D02*
X75660Y-73915D01*
X75660Y-73864D02*
X75460Y-73864D01*
X75489Y-73881D01*
X75508Y-73898D01*
X75518Y-73915D01*
X75460Y-73701D02*
X75460Y-73684D01*
X75470Y-73667D01*
X75480Y-73658D01*
X75499Y-73650D01*
X75537Y-73641D01*
X75584Y-73641D01*
X75622Y-73650D01*
X75641Y-73658D01*
X75651Y-73667D01*
X75660Y-73684D01*
X75660Y-73701D01*
X75651Y-73718D01*
X75641Y-73727D01*
X75622Y-73735D01*
X75584Y-73744D01*
X75537Y-73744D01*
X75499Y-73735D01*
X75480Y-73727D01*
X75470Y-73718D01*
X75460Y-73701D01*
X75527Y-73564D02*
X75660Y-73564D01*
X75546Y-73564D02*
X75537Y-73555D01*
X75527Y-73538D01*
X75527Y-73512D01*
X75537Y-73495D01*
X75556Y-73487D01*
X75660Y-73487D01*
X75556Y-73341D02*
X75556Y-73401D01*
X75660Y-73401D02*
X75460Y-73401D01*
X75460Y-73315D01*
X76780Y-70761D02*
X76771Y-70771D01*
X76745Y-70780D01*
X76728Y-70780D01*
X76702Y-70771D01*
X76685Y-70752D01*
X76677Y-70733D01*
X76668Y-70695D01*
X76668Y-70666D01*
X76677Y-70628D01*
X76685Y-70609D01*
X76702Y-70590D01*
X76728Y-70580D01*
X76745Y-70580D01*
X76771Y-70590D01*
X76780Y-70600D01*
X76840Y-70580D02*
X76960Y-70580D01*
X76882Y-70780D01*
X76274Y-70130D02*
X76171Y-70130D01*
X76222Y-70130D02*
X76222Y-69930D01*
X76205Y-69959D01*
X76188Y-69978D01*
X76171Y-69988D01*
X76385Y-69930D02*
X76402Y-69930D01*
X76420Y-69940D01*
X76428Y-69950D01*
X76437Y-69969D01*
X76445Y-70007D01*
X76445Y-70054D01*
X76437Y-70092D01*
X76428Y-70111D01*
X76420Y-70121D01*
X76402Y-70130D01*
X76385Y-70130D01*
X76368Y-70121D01*
X76360Y-70111D01*
X76351Y-70092D01*
X76342Y-70054D01*
X76342Y-70007D01*
X76351Y-69969D01*
X76360Y-69950D01*
X76368Y-69940D01*
X76385Y-69930D01*
X76600Y-69997D02*
X76600Y-70130D01*
X76522Y-69997D02*
X76522Y-70102D01*
X76531Y-70121D01*
X76548Y-70130D01*
X76574Y-70130D01*
X76591Y-70121D01*
X76600Y-70111D01*
X76745Y-70026D02*
X76685Y-70026D01*
X76685Y-70130D02*
X76685Y-69930D01*
X76771Y-69930D01*
X76968Y-69921D02*
X76814Y-70178D01*
X77020Y-69950D02*
X77028Y-69940D01*
X77045Y-69930D01*
X77088Y-69930D01*
X77105Y-69940D01*
X77114Y-69950D01*
X77122Y-69969D01*
X77122Y-69988D01*
X77114Y-70016D01*
X77011Y-70130D01*
X77122Y-70130D01*
X77285Y-69930D02*
X77200Y-69930D01*
X77191Y-70026D01*
X77200Y-70016D01*
X77217Y-70007D01*
X77260Y-70007D01*
X77277Y-70016D01*
X77285Y-70026D01*
X77294Y-70045D01*
X77294Y-70092D01*
X77285Y-70111D01*
X77277Y-70121D01*
X77260Y-70130D01*
X77217Y-70130D01*
X77200Y-70121D01*
X77191Y-70111D01*
X77345Y-69930D02*
X77405Y-70130D01*
X77465Y-69930D01*
X75311Y-72590D02*
X75321Y-72598D01*
X75330Y-72624D01*
X75330Y-72641D01*
X75321Y-72667D01*
X75302Y-72684D01*
X75283Y-72692D01*
X75245Y-72701D01*
X75216Y-72701D01*
X75178Y-72692D01*
X75159Y-72684D01*
X75140Y-72667D01*
X75130Y-72641D01*
X75130Y-72624D01*
X75140Y-72598D01*
X75150Y-72590D01*
X75150Y-72521D02*
X75140Y-72512D01*
X75130Y-72495D01*
X75130Y-72452D01*
X75140Y-72435D01*
X75150Y-72427D01*
X75169Y-72418D01*
X75188Y-72418D01*
X75216Y-72427D01*
X75330Y-72530D01*
X75330Y-72418D01*
X77740Y-73175D02*
X77740Y-73278D01*
X77740Y-73227D02*
X77540Y-73227D01*
X77569Y-73244D01*
X77588Y-73261D01*
X77598Y-73278D01*
X77540Y-73064D02*
X77540Y-73047D01*
X77550Y-73030D01*
X77560Y-73021D01*
X77579Y-73012D01*
X77617Y-73004D01*
X77664Y-73004D01*
X77702Y-73012D01*
X77721Y-73021D01*
X77731Y-73030D01*
X77740Y-73047D01*
X77740Y-73064D01*
X77731Y-73081D01*
X77721Y-73090D01*
X77702Y-73098D01*
X77664Y-73107D01*
X77617Y-73107D01*
X77579Y-73098D01*
X77560Y-73090D01*
X77550Y-73081D01*
X77540Y-73064D01*
X77607Y-72850D02*
X77740Y-72850D01*
X77607Y-72927D02*
X77712Y-72927D01*
X77731Y-72918D01*
X77740Y-72901D01*
X77740Y-72875D01*
X77731Y-72858D01*
X77721Y-72850D01*
X77636Y-72704D02*
X77636Y-72764D01*
X77740Y-72764D02*
X77540Y-72764D01*
X77540Y-72678D01*
X77531Y-72481D02*
X77788Y-72635D01*
X77560Y-72430D02*
X77550Y-72421D01*
X77540Y-72404D01*
X77540Y-72361D01*
X77550Y-72344D01*
X77560Y-72335D01*
X77579Y-72327D01*
X77598Y-72327D01*
X77626Y-72335D01*
X77740Y-72438D01*
X77740Y-72327D01*
X77540Y-72164D02*
X77540Y-72250D01*
X77636Y-72258D01*
X77626Y-72250D01*
X77617Y-72232D01*
X77617Y-72190D01*
X77626Y-72172D01*
X77636Y-72164D01*
X77655Y-72155D01*
X77702Y-72155D01*
X77721Y-72164D01*
X77731Y-72172D01*
X77740Y-72190D01*
X77740Y-72232D01*
X77731Y-72250D01*
X77721Y-72258D01*
X77540Y-72104D02*
X77740Y-72044D01*
X77540Y-71984D01*
X70810Y-69591D02*
X70801Y-69601D01*
X70775Y-69610D01*
X70758Y-69610D01*
X70732Y-69601D01*
X70715Y-69582D01*
X70707Y-69563D01*
X70698Y-69525D01*
X70698Y-69496D01*
X70707Y-69458D01*
X70715Y-69439D01*
X70732Y-69420D01*
X70758Y-69410D01*
X70775Y-69410D01*
X70801Y-69420D01*
X70810Y-69430D01*
X70870Y-69410D02*
X70981Y-69410D01*
X70921Y-69487D01*
X70947Y-69487D01*
X70964Y-69496D01*
X70972Y-69506D01*
X70981Y-69525D01*
X70981Y-69572D01*
X70972Y-69591D01*
X70964Y-69601D01*
X70947Y-69610D01*
X70895Y-69610D01*
X70878Y-69601D01*
X70870Y-69591D01*
X70544Y-68760D02*
X70561Y-68760D01*
X70578Y-68770D01*
X70587Y-68780D01*
X70595Y-68799D01*
X70604Y-68837D01*
X70604Y-68884D01*
X70595Y-68922D01*
X70587Y-68941D01*
X70578Y-68951D01*
X70561Y-68960D01*
X70544Y-68960D01*
X70527Y-68951D01*
X70518Y-68941D01*
X70510Y-68922D01*
X70501Y-68884D01*
X70501Y-68837D01*
X70510Y-68799D01*
X70518Y-68780D01*
X70527Y-68770D01*
X70544Y-68760D01*
X70681Y-68941D02*
X70690Y-68951D01*
X70681Y-68960D01*
X70672Y-68951D01*
X70681Y-68941D01*
X70681Y-68960D01*
X70861Y-68960D02*
X70758Y-68960D01*
X70810Y-68960D02*
X70810Y-68760D01*
X70792Y-68789D01*
X70775Y-68808D01*
X70758Y-68818D01*
X71015Y-68827D02*
X71015Y-68960D01*
X70938Y-68827D02*
X70938Y-68932D01*
X70947Y-68951D01*
X70964Y-68960D01*
X70990Y-68960D01*
X71007Y-68951D01*
X71015Y-68941D01*
X71161Y-68856D02*
X71101Y-68856D01*
X71101Y-68960D02*
X71101Y-68760D01*
X71187Y-68760D01*
X70840Y-71101D02*
X70831Y-71111D01*
X70805Y-71120D01*
X70788Y-71120D01*
X70762Y-71111D01*
X70745Y-71092D01*
X70737Y-71073D01*
X70728Y-71035D01*
X70728Y-71006D01*
X70737Y-70968D01*
X70745Y-70949D01*
X70762Y-70930D01*
X70788Y-70920D01*
X70805Y-70920D01*
X70831Y-70930D01*
X70840Y-70940D01*
X70994Y-70920D02*
X70960Y-70920D01*
X70942Y-70930D01*
X70934Y-70940D01*
X70917Y-70968D01*
X70908Y-71006D01*
X70908Y-71082D01*
X70917Y-71101D01*
X70925Y-71111D01*
X70942Y-71120D01*
X70977Y-71120D01*
X70994Y-71111D01*
X71002Y-71101D01*
X71011Y-71082D01*
X71011Y-71035D01*
X71002Y-71016D01*
X70994Y-71006D01*
X70977Y-70997D01*
X70942Y-70997D01*
X70925Y-71006D01*
X70917Y-71016D01*
X70908Y-71035D01*
X70222Y-71590D02*
X70231Y-71580D01*
X70248Y-71570D01*
X70291Y-71570D01*
X70308Y-71580D01*
X70317Y-71590D01*
X70325Y-71609D01*
X70325Y-71628D01*
X70317Y-71656D01*
X70214Y-71770D01*
X70325Y-71770D01*
X70394Y-71590D02*
X70402Y-71580D01*
X70420Y-71570D01*
X70462Y-71570D01*
X70480Y-71580D01*
X70488Y-71590D01*
X70497Y-71609D01*
X70497Y-71628D01*
X70488Y-71656D01*
X70385Y-71770D01*
X70497Y-71770D01*
X70651Y-71637D02*
X70651Y-71770D01*
X70574Y-71637D02*
X70574Y-71742D01*
X70582Y-71761D01*
X70600Y-71770D01*
X70625Y-71770D01*
X70642Y-71761D01*
X70651Y-71751D01*
X70797Y-71666D02*
X70737Y-71666D01*
X70737Y-71770D02*
X70737Y-71570D01*
X70822Y-71570D01*
X71105Y-71570D02*
X71071Y-71570D01*
X71054Y-71580D01*
X71045Y-71590D01*
X71028Y-71618D01*
X71020Y-71656D01*
X71020Y-71732D01*
X71028Y-71751D01*
X71037Y-71761D01*
X71054Y-71770D01*
X71088Y-71770D01*
X71105Y-71761D01*
X71114Y-71751D01*
X71122Y-71732D01*
X71122Y-71685D01*
X71114Y-71666D01*
X71105Y-71656D01*
X71088Y-71647D01*
X71054Y-71647D01*
X71037Y-71656D01*
X71028Y-71666D01*
X71020Y-71685D01*
X71200Y-71751D02*
X71208Y-71761D01*
X71200Y-71770D01*
X71191Y-71761D01*
X71200Y-71751D01*
X71200Y-71770D01*
X71268Y-71570D02*
X71380Y-71570D01*
X71320Y-71647D01*
X71345Y-71647D01*
X71362Y-71656D01*
X71371Y-71666D01*
X71380Y-71685D01*
X71380Y-71732D01*
X71371Y-71751D01*
X71362Y-71761D01*
X71345Y-71770D01*
X71294Y-71770D01*
X71277Y-71761D01*
X71268Y-71751D01*
X71440Y-71637D02*
X71482Y-71770D01*
X71525Y-71637D01*
G54D25*
X87584Y-53075D02*
X87584Y-52394D01*
X87747Y-52394D01*
X87787Y-52427D01*
X87808Y-52459D01*
X87828Y-52524D01*
X87828Y-52621D01*
X87808Y-52686D01*
X87787Y-52718D01*
X87747Y-52751D01*
X87584Y-52751D01*
X88195Y-52394D02*
X88114Y-52394D01*
X88073Y-52427D01*
X88052Y-52459D01*
X88012Y-52556D01*
X87991Y-52686D01*
X87991Y-52945D01*
X88012Y-53010D01*
X88032Y-53043D01*
X88073Y-53075D01*
X88154Y-53075D01*
X88195Y-53043D01*
X88215Y-53010D01*
X88236Y-52945D01*
X88236Y-52783D01*
X88215Y-52718D01*
X88195Y-52686D01*
X88154Y-52654D01*
X88073Y-52654D01*
X88032Y-52686D01*
X88012Y-52718D01*
X87991Y-52783D01*
G54D13*
G54D25*
X82034Y-75675D02*
X82034Y-74994D01*
X82197Y-74994D01*
X82237Y-75027D01*
X82258Y-75059D01*
X82278Y-75124D01*
X82278Y-75221D01*
X82258Y-75286D01*
X82237Y-75318D01*
X82197Y-75351D01*
X82034Y-75351D01*
X82645Y-75221D02*
X82645Y-75675D01*
X82543Y-74962D02*
X82441Y-75448D01*
X82706Y-75448D01*
G54D13*
G54D25*
X102175Y-62115D02*
X101494Y-62115D01*
X101494Y-61952D01*
X101527Y-61912D01*
X101559Y-61891D01*
X101624Y-61871D01*
X101721Y-61871D01*
X101786Y-61891D01*
X101818Y-61912D01*
X101851Y-61952D01*
X101851Y-62115D01*
X101494Y-61484D02*
X101494Y-61687D01*
X101818Y-61708D01*
X101786Y-61687D01*
X101754Y-61647D01*
X101754Y-61545D01*
X101786Y-61504D01*
X101818Y-61484D01*
X101883Y-61463D01*
X102045Y-61463D01*
X102110Y-61484D01*
X102143Y-61504D01*
X102175Y-61545D01*
X102175Y-61647D01*
X102143Y-61687D01*
X102110Y-61708D01*
G54D13*
G54D25*
X100226Y-66515D02*
X99543Y-66515D01*
X99543Y-66352D01*
X99575Y-66312D01*
X99608Y-66291D01*
X99673Y-66271D01*
X99771Y-66271D01*
X99836Y-66291D01*
X99868Y-66312D01*
X99901Y-66352D01*
X99901Y-66515D01*
X99543Y-66128D02*
X99543Y-65863D01*
X99803Y-66006D01*
X99803Y-65945D01*
X99836Y-65904D01*
X99868Y-65884D01*
X99933Y-65863D01*
X100096Y-65863D01*
X100161Y-65884D01*
X100193Y-65904D01*
X100226Y-65945D01*
X100226Y-66067D01*
X100193Y-66108D01*
X100161Y-66128D01*
G54D13*
G54D25*
X85284Y-75675D02*
X85284Y-74994D01*
X85447Y-74994D01*
X85487Y-75027D01*
X85508Y-75059D01*
X85528Y-75124D01*
X85528Y-75221D01*
X85508Y-75286D01*
X85487Y-75318D01*
X85447Y-75351D01*
X85284Y-75351D01*
X85691Y-75059D02*
X85712Y-75027D01*
X85752Y-74994D01*
X85854Y-74994D01*
X85895Y-75027D01*
X85915Y-75059D01*
X85936Y-75124D01*
X85936Y-75189D01*
X85915Y-75286D01*
X85671Y-75675D01*
X85936Y-75675D01*
G54D13*
G54D15*
X107642Y-64660D02*
X107642Y-64460D01*
X107690Y-64460D01*
X107718Y-64470D01*
X107737Y-64489D01*
X107747Y-64508D01*
X107756Y-64546D01*
X107756Y-64575D01*
X107747Y-64613D01*
X107737Y-64632D01*
X107718Y-64651D01*
X107690Y-64660D01*
X107642Y-64660D01*
X107947Y-64660D02*
X107832Y-64660D01*
X107890Y-64660D02*
X107890Y-64460D01*
X107870Y-64489D01*
X107851Y-64508D01*
X107832Y-64518D01*
X107661Y-65460D02*
X107566Y-65460D01*
X107566Y-65260D01*
X107728Y-65356D02*
X107794Y-65356D01*
X107823Y-65460D02*
X107728Y-65460D01*
X107728Y-65260D01*
X107823Y-65260D01*
X107909Y-65460D02*
X107909Y-65260D01*
X107956Y-65260D01*
X107985Y-65270D01*
X108004Y-65289D01*
X108013Y-65308D01*
X108023Y-65346D01*
X108023Y-65375D01*
X108013Y-65413D01*
X108004Y-65432D01*
X107985Y-65451D01*
X107956Y-65460D01*
X107909Y-65460D01*
X108942Y-64650D02*
X108942Y-64450D01*
X108990Y-64450D01*
X109018Y-64460D01*
X109037Y-64479D01*
X109047Y-64498D01*
X109056Y-64536D01*
X109056Y-64565D01*
X109047Y-64603D01*
X109037Y-64622D01*
X109018Y-64641D01*
X108990Y-64650D01*
X108942Y-64650D01*
X109132Y-64470D02*
X109142Y-64460D01*
X109161Y-64450D01*
X109209Y-64450D01*
X109228Y-64460D01*
X109237Y-64470D01*
X109247Y-64489D01*
X109247Y-64508D01*
X109237Y-64536D01*
X109123Y-64650D01*
X109247Y-64650D01*
X108961Y-65450D02*
X108866Y-65450D01*
X108866Y-65250D01*
X109028Y-65346D02*
X109094Y-65346D01*
X109123Y-65450D02*
X109028Y-65450D01*
X109028Y-65250D01*
X109123Y-65250D01*
X109209Y-65450D02*
X109209Y-65250D01*
X109256Y-65250D01*
X109285Y-65260D01*
X109304Y-65279D01*
X109313Y-65298D01*
X109323Y-65336D01*
X109323Y-65365D01*
X109313Y-65403D01*
X109304Y-65422D01*
X109285Y-65441D01*
X109256Y-65450D01*
X109209Y-65450D01*
G54D20*
X72604Y-57961D02*
X72604Y-57561D01*
X72757Y-57561D01*
X72795Y-57580D01*
X72814Y-57600D01*
X72833Y-57638D01*
X72833Y-57695D01*
X72814Y-57733D01*
X72795Y-57752D01*
X72757Y-57771D01*
X72604Y-57771D01*
X73214Y-57961D02*
X72985Y-57961D01*
X73100Y-57961D02*
X73100Y-57561D01*
X73061Y-57619D01*
X73023Y-57657D01*
X72985Y-57676D01*
X69952Y-62323D02*
X69933Y-62342D01*
X69876Y-62361D01*
X69838Y-62361D01*
X69780Y-62342D01*
X69742Y-62304D01*
X69723Y-62266D01*
X69704Y-62190D01*
X69704Y-62133D01*
X69723Y-62057D01*
X69742Y-62019D01*
X69780Y-61980D01*
X69838Y-61961D01*
X69876Y-61961D01*
X69933Y-61980D01*
X69952Y-62000D01*
X70200Y-61961D02*
X70276Y-61961D01*
X70314Y-61980D01*
X70352Y-62019D01*
X70371Y-62095D01*
X70371Y-62228D01*
X70352Y-62304D01*
X70314Y-62342D01*
X70276Y-62361D01*
X70200Y-62361D01*
X70161Y-62342D01*
X70123Y-62304D01*
X70104Y-62228D01*
X70104Y-62095D01*
X70123Y-62019D01*
X70161Y-61980D01*
X70200Y-61961D01*
X70542Y-62361D02*
X70542Y-61961D01*
X70771Y-62361D01*
X70771Y-61961D01*
X70961Y-62361D02*
X70961Y-61961D01*
X71190Y-62361D01*
X71190Y-61961D01*
X71285Y-62400D02*
X71590Y-62400D01*
X71666Y-62000D02*
X71685Y-61980D01*
X71723Y-61961D01*
X71819Y-61961D01*
X71857Y-61980D01*
X71876Y-62000D01*
X71895Y-62038D01*
X71895Y-62076D01*
X71876Y-62133D01*
X71647Y-62361D01*
X71895Y-62361D01*
G54D26*
X72240Y-68314D02*
X72240Y-68632D01*
X72259Y-68669D01*
X72278Y-68688D01*
X72315Y-68707D01*
X72390Y-68707D01*
X72427Y-68688D01*
X72446Y-68669D01*
X72465Y-68632D01*
X72465Y-68314D01*
X72839Y-68314D02*
X72652Y-68314D01*
X72633Y-68501D01*
X72652Y-68482D01*
X72689Y-68463D01*
X72783Y-68463D01*
X72820Y-68482D01*
X72839Y-68501D01*
X72858Y-68538D01*
X72858Y-68632D01*
X72839Y-68669D01*
X72820Y-68688D01*
X72783Y-68707D01*
X72689Y-68707D01*
X72652Y-68688D01*
X72633Y-68669D01*
X72590Y-73784D02*
X72590Y-74102D01*
X72609Y-74139D01*
X72628Y-74158D01*
X72665Y-74177D01*
X72740Y-74177D01*
X72777Y-74158D01*
X72796Y-74139D01*
X72815Y-74102D01*
X72815Y-73784D01*
X72964Y-73784D02*
X73226Y-73784D01*
X73058Y-74177D01*
G54D13*
X69544Y-54080D02*
X69973Y-54080D01*
X70059Y-54108D01*
X70116Y-54165D01*
X70144Y-54251D01*
X70144Y-54308D01*
X69602Y-53822D02*
X69573Y-53794D01*
X69544Y-53737D01*
X69544Y-53594D01*
X69573Y-53537D01*
X69602Y-53508D01*
X69659Y-53480D01*
X69716Y-53480D01*
X69802Y-53508D01*
X70144Y-53851D01*
X70144Y-53480D01*
G54D23*
X72699Y-56263D02*
X72305Y-56263D01*
X72493Y-56263D02*
X72493Y-56038D01*
X72699Y-56038D02*
X72305Y-56038D01*
X72699Y-55625D02*
X72511Y-55757D01*
X72699Y-55850D02*
X72305Y-55850D01*
X72305Y-55700D01*
X72324Y-55663D01*
X72343Y-55644D01*
X72380Y-55625D01*
X72436Y-55625D01*
X72474Y-55644D01*
X72493Y-55663D01*
X72511Y-55700D01*
X72511Y-55850D01*
X72699Y-55438D02*
X72699Y-55363D01*
X72680Y-55325D01*
X72661Y-55306D01*
X72605Y-55269D01*
X72530Y-55250D01*
X72380Y-55250D01*
X72343Y-55269D01*
X72324Y-55288D01*
X72305Y-55325D01*
X72305Y-55400D01*
X72324Y-55438D01*
X72343Y-55456D01*
X72380Y-55475D01*
X72474Y-55475D01*
X72511Y-55456D01*
X72530Y-55438D01*
X72549Y-55400D01*
X72549Y-55325D01*
X72530Y-55288D01*
X72511Y-55269D01*
X72474Y-55250D01*
X72699Y-54875D02*
X72699Y-55100D01*
X72699Y-54987D02*
X72305Y-54987D01*
X72361Y-55025D01*
X72399Y-55062D01*
X72418Y-55100D01*
X72699Y-54500D02*
X72699Y-54725D01*
X72699Y-54612D02*
X72305Y-54612D01*
X72361Y-54650D01*
X72399Y-54687D01*
X72418Y-54725D01*
X72699Y-54124D02*
X72699Y-54350D01*
X72699Y-54237D02*
X72305Y-54237D01*
X72361Y-54274D01*
X72399Y-54312D01*
X72418Y-54350D01*
X72305Y-53880D02*
X72305Y-53843D01*
X72324Y-53805D01*
X72343Y-53787D01*
X72380Y-53768D01*
X72455Y-53749D01*
X72549Y-53749D01*
X72624Y-53768D01*
X72661Y-53787D01*
X72680Y-53805D01*
X72699Y-53843D01*
X72699Y-53880D01*
X72680Y-53918D01*
X72661Y-53937D01*
X72624Y-53956D01*
X72549Y-53974D01*
X72455Y-53974D01*
X72380Y-53956D01*
X72343Y-53937D01*
X72324Y-53918D01*
X72305Y-53880D01*
X72305Y-53393D02*
X72305Y-53580D01*
X72493Y-53599D01*
X72474Y-53580D01*
X72455Y-53543D01*
X72455Y-53449D01*
X72474Y-53411D01*
X72493Y-53393D01*
X72530Y-53374D01*
X72624Y-53374D01*
X72661Y-53393D01*
X72680Y-53411D01*
X72699Y-53449D01*
X72699Y-53543D01*
X72680Y-53580D01*
X72661Y-53599D01*
X72737Y-53299D02*
X72737Y-52999D01*
X72699Y-52680D02*
X72511Y-52811D01*
X72699Y-52905D02*
X72305Y-52905D01*
X72305Y-52755D01*
X72324Y-52717D01*
X72343Y-52698D01*
X72380Y-52680D01*
X72436Y-52680D01*
X72474Y-52698D01*
X72493Y-52717D01*
X72511Y-52755D01*
X72511Y-52905D01*
X72305Y-52398D02*
X72586Y-52398D01*
X72643Y-52417D01*
X72680Y-52455D01*
X72699Y-52511D01*
X72699Y-52548D01*
X72436Y-52042D02*
X72699Y-52042D01*
X72286Y-52136D02*
X72568Y-52229D01*
X72568Y-51985D01*
X72305Y-51648D02*
X72305Y-51835D01*
X72493Y-51854D01*
X72474Y-51835D01*
X72455Y-51798D01*
X72455Y-51704D01*
X72474Y-51667D01*
X72493Y-51648D01*
X72530Y-51629D01*
X72624Y-51629D01*
X72661Y-51648D01*
X72680Y-51667D01*
X72699Y-51704D01*
X72699Y-51798D01*
X72680Y-51835D01*
X72661Y-51854D01*
G54D27*
X112906Y-67725D02*
X113047Y-67725D01*
X113075Y-67735D01*
X113094Y-67753D01*
X113103Y-67781D01*
X113103Y-67800D01*
X113103Y-67528D02*
X113103Y-67641D01*
X113103Y-67584D02*
X112906Y-67584D01*
X112934Y-67603D01*
X112953Y-67622D01*
X112963Y-67641D01*
X110307Y-68443D02*
X110467Y-68443D01*
X110485Y-68433D01*
X110495Y-68424D01*
X110504Y-68405D01*
X110504Y-68368D01*
X110495Y-68349D01*
X110485Y-68340D01*
X110467Y-68330D01*
X110307Y-68330D01*
X110495Y-68246D02*
X110504Y-68218D01*
X110504Y-68171D01*
X110495Y-68152D01*
X110485Y-68143D01*
X110467Y-68133D01*
X110448Y-68133D01*
X110429Y-68143D01*
X110420Y-68152D01*
X110410Y-68171D01*
X110401Y-68208D01*
X110392Y-68227D01*
X110382Y-68236D01*
X110364Y-68246D01*
X110345Y-68246D01*
X110326Y-68236D01*
X110317Y-68227D01*
X110307Y-68208D01*
X110307Y-68161D01*
X110317Y-68133D01*
X110401Y-67983D02*
X110410Y-67955D01*
X110420Y-67946D01*
X110439Y-67936D01*
X110467Y-67936D01*
X110485Y-67946D01*
X110495Y-67955D01*
X110504Y-67974D01*
X110504Y-68049D01*
X110307Y-68049D01*
X110307Y-67983D01*
X110317Y-67964D01*
X110326Y-67955D01*
X110345Y-67946D01*
X110364Y-67946D01*
X110382Y-67955D01*
X110392Y-67964D01*
X110401Y-67983D01*
X110401Y-68049D01*
X110523Y-67899D02*
X110523Y-67749D01*
X110504Y-67702D02*
X110307Y-67702D01*
X110448Y-67636D01*
X110307Y-67570D01*
X110504Y-67570D01*
X110504Y-67477D02*
X110307Y-67477D01*
X110485Y-67270D02*
X110495Y-67280D01*
X110504Y-67308D01*
X110504Y-67326D01*
X110495Y-67355D01*
X110476Y-67373D01*
X110457Y-67383D01*
X110420Y-67392D01*
X110392Y-67392D01*
X110354Y-67383D01*
X110335Y-67373D01*
X110317Y-67355D01*
X110307Y-67326D01*
X110307Y-67308D01*
X110317Y-67280D01*
X110326Y-67270D01*
X110504Y-67073D02*
X110410Y-67139D01*
X110504Y-67186D02*
X110307Y-67186D01*
X110307Y-67111D01*
X110317Y-67092D01*
X110326Y-67083D01*
X110345Y-67073D01*
X110373Y-67073D01*
X110392Y-67083D01*
X110401Y-67092D01*
X110410Y-67111D01*
X110410Y-67186D01*
X110307Y-66951D02*
X110307Y-66914D01*
X110317Y-66895D01*
X110335Y-66876D01*
X110373Y-66867D01*
X110439Y-66867D01*
X110476Y-66876D01*
X110495Y-66895D01*
X110504Y-66914D01*
X110504Y-66951D01*
X110495Y-66970D01*
X110476Y-66989D01*
X110439Y-66998D01*
X110373Y-66998D01*
X110335Y-66989D01*
X110317Y-66970D01*
X110307Y-66951D01*
G54D13*
X95428Y-49913D02*
X95514Y-49942D01*
X95542Y-49970D01*
X95571Y-50027D01*
X95571Y-50113D01*
X95542Y-50170D01*
X95514Y-50199D01*
X95457Y-50227D01*
X95228Y-50227D01*
X95228Y-49627D01*
X95428Y-49627D01*
X95485Y-49656D01*
X95514Y-49685D01*
X95542Y-49742D01*
X95542Y-49799D01*
X95514Y-49856D01*
X95485Y-49885D01*
X95428Y-49913D01*
X95228Y-49913D01*
X95742Y-49627D02*
X96085Y-49627D01*
X95914Y-50227D02*
X95914Y-49627D01*
X96600Y-50227D02*
X96257Y-50227D01*
X96428Y-50227D02*
X96428Y-49627D01*
X96371Y-49713D01*
X96314Y-49770D01*
X96257Y-49799D01*
X94400Y-57078D02*
X94485Y-57107D01*
X94514Y-57135D01*
X94542Y-57192D01*
X94542Y-57278D01*
X94514Y-57335D01*
X94485Y-57364D01*
X94428Y-57392D01*
X94200Y-57392D01*
X94200Y-56792D01*
X94400Y-56792D01*
X94457Y-56821D01*
X94485Y-56850D01*
X94514Y-56907D01*
X94514Y-56964D01*
X94485Y-57021D01*
X94457Y-57050D01*
X94400Y-57078D01*
X94200Y-57078D01*
X94771Y-57221D02*
X95057Y-57221D01*
X94714Y-57392D02*
X94914Y-56792D01*
X95114Y-57392D01*
X95228Y-56792D02*
X95571Y-56792D01*
X95400Y-57392D02*
X95400Y-56792D01*
X95685Y-56792D02*
X96028Y-56792D01*
X95857Y-57392D02*
X95857Y-56792D01*
X96228Y-57078D02*
X96428Y-57078D01*
X96514Y-57392D02*
X96228Y-57392D01*
X96228Y-56792D01*
X96514Y-56792D01*
X97114Y-57392D02*
X96914Y-57107D01*
X96771Y-57392D02*
X96771Y-56792D01*
X97000Y-56792D01*
X97057Y-56821D01*
X97085Y-56850D01*
X97114Y-56907D01*
X97114Y-56992D01*
X97085Y-57050D01*
X97057Y-57078D01*
X97000Y-57107D01*
X96771Y-57107D01*
X97485Y-57107D02*
X97485Y-57392D01*
X97285Y-56792D02*
X97485Y-57107D01*
X97685Y-56792D01*
X97718Y-51279D02*
X98175Y-51279D01*
X97947Y-51507D02*
X97947Y-51050D01*
G54D25*
X79788Y-70218D02*
X79107Y-70218D01*
X79107Y-70055D01*
X79140Y-70014D01*
X79172Y-69994D01*
X79237Y-69974D01*
X79334Y-69974D01*
X79399Y-69994D01*
X79431Y-70014D01*
X79464Y-70055D01*
X79464Y-70218D01*
X79788Y-69566D02*
X79788Y-69811D01*
X79788Y-69688D02*
X79107Y-69688D01*
X79204Y-69729D01*
X79269Y-69770D01*
X79302Y-69811D01*
X79107Y-69301D02*
X79107Y-69260D01*
X79140Y-69220D01*
X79172Y-69199D01*
X79237Y-69179D01*
X79367Y-69158D01*
X79529Y-69158D01*
X79658Y-69179D01*
X79723Y-69199D01*
X79756Y-69220D01*
X79788Y-69260D01*
X79788Y-69301D01*
X79756Y-69342D01*
X79723Y-69362D01*
X79658Y-69383D01*
X79529Y-69403D01*
X79367Y-69403D01*
X79237Y-69383D01*
X79172Y-69362D01*
X79140Y-69342D01*
X79107Y-69301D01*
G54D13*
G54D20*
X77245Y-65637D02*
X77274Y-65656D01*
X77302Y-65713D01*
X77302Y-65751D01*
X77274Y-65809D01*
X77217Y-65847D01*
X77160Y-65866D01*
X77045Y-65885D01*
X76960Y-65885D01*
X76845Y-65866D01*
X76788Y-65847D01*
X76731Y-65809D01*
X76702Y-65751D01*
X76702Y-65713D01*
X76731Y-65656D01*
X76760Y-65637D01*
X76702Y-65389D02*
X76702Y-65313D01*
X76731Y-65275D01*
X76788Y-65237D01*
X76902Y-65218D01*
X77102Y-65218D01*
X77217Y-65237D01*
X77274Y-65275D01*
X77302Y-65313D01*
X77302Y-65389D01*
X77274Y-65428D01*
X77217Y-65466D01*
X77102Y-65485D01*
X76902Y-65485D01*
X76788Y-65466D01*
X76731Y-65428D01*
X76702Y-65389D01*
X77302Y-65047D02*
X76702Y-65047D01*
X77302Y-64818D01*
X76702Y-64818D01*
X77302Y-64628D02*
X76702Y-64628D01*
X77302Y-64399D01*
X76702Y-64399D01*
X77360Y-64304D02*
X77360Y-63999D01*
X77302Y-63885D02*
X77302Y-63809D01*
X77274Y-63770D01*
X77245Y-63751D01*
X77160Y-63713D01*
X77045Y-63694D01*
X76817Y-63694D01*
X76760Y-63713D01*
X76731Y-63732D01*
X76702Y-63770D01*
X76702Y-63847D01*
X76731Y-63885D01*
X76760Y-63904D01*
X76817Y-63923D01*
X76960Y-63923D01*
X77017Y-63904D01*
X77045Y-63885D01*
X77074Y-63847D01*
X77074Y-63770D01*
X77045Y-63732D01*
X77017Y-63713D01*
X76960Y-63694D01*
G54D13*
G54D25*
X79375Y-56115D02*
X78694Y-56115D01*
X78694Y-55952D01*
X78727Y-55912D01*
X78759Y-55891D01*
X78824Y-55871D01*
X78921Y-55871D01*
X78986Y-55891D01*
X79018Y-55912D01*
X79051Y-55952D01*
X79051Y-56115D01*
X79375Y-55667D02*
X79375Y-55586D01*
X79343Y-55545D01*
X79310Y-55524D01*
X79213Y-55484D01*
X79083Y-55463D01*
X78824Y-55463D01*
X78759Y-55484D01*
X78727Y-55504D01*
X78694Y-55545D01*
X78694Y-55626D01*
X78727Y-55667D01*
X78759Y-55687D01*
X78824Y-55708D01*
X78986Y-55708D01*
X79051Y-55687D01*
X79083Y-55667D01*
X79116Y-55626D01*
X79116Y-55545D01*
X79083Y-55504D01*
X79051Y-55484D01*
X78986Y-55463D01*
G54D13*
G54D20*
X79285Y-61147D02*
X79314Y-61166D01*
X79342Y-61223D01*
X79342Y-61261D01*
X79314Y-61319D01*
X79257Y-61357D01*
X79200Y-61376D01*
X79085Y-61395D01*
X79000Y-61395D01*
X78885Y-61376D01*
X78828Y-61357D01*
X78771Y-61319D01*
X78742Y-61261D01*
X78742Y-61223D01*
X78771Y-61166D01*
X78800Y-61147D01*
X78742Y-60899D02*
X78742Y-60823D01*
X78771Y-60785D01*
X78828Y-60747D01*
X78942Y-60728D01*
X79142Y-60728D01*
X79257Y-60747D01*
X79314Y-60785D01*
X79342Y-60823D01*
X79342Y-60899D01*
X79314Y-60938D01*
X79257Y-60976D01*
X79142Y-60995D01*
X78942Y-60995D01*
X78828Y-60976D01*
X78771Y-60938D01*
X78742Y-60899D01*
X79342Y-60557D02*
X78742Y-60557D01*
X79342Y-60328D01*
X78742Y-60328D01*
X79342Y-60138D02*
X78742Y-60138D01*
X79342Y-59909D01*
X78742Y-59909D01*
X79400Y-59814D02*
X79400Y-59509D01*
X79000Y-59357D02*
X78971Y-59395D01*
X78942Y-59414D01*
X78885Y-59433D01*
X78857Y-59433D01*
X78800Y-59414D01*
X78771Y-59395D01*
X78742Y-59357D01*
X78742Y-59280D01*
X78771Y-59242D01*
X78800Y-59223D01*
X78857Y-59204D01*
X78885Y-59204D01*
X78942Y-59223D01*
X78971Y-59242D01*
X79000Y-59280D01*
X79000Y-59357D01*
X79028Y-59395D01*
X79057Y-59414D01*
X79114Y-59433D01*
X79228Y-59433D01*
X79285Y-59414D01*
X79314Y-59395D01*
X79342Y-59357D01*
X79342Y-59280D01*
X79314Y-59242D01*
X79285Y-59223D01*
X79228Y-59204D01*
X79114Y-59204D01*
X79057Y-59223D01*
X79028Y-59242D01*
X79000Y-59280D01*
G54D13*
G54D25*
X98080Y-75676D02*
X98080Y-74993D01*
X98243Y-74993D01*
X98284Y-75025D01*
X98304Y-75058D01*
X98324Y-75123D01*
X98324Y-75221D01*
X98304Y-75286D01*
X98284Y-75318D01*
X98243Y-75351D01*
X98080Y-75351D01*
X98732Y-75676D02*
X98487Y-75676D01*
X98610Y-75676D02*
X98610Y-74993D01*
X98569Y-75091D01*
X98528Y-75156D01*
X98487Y-75188D01*
X99140Y-75676D02*
X98895Y-75676D01*
X99017Y-75676D02*
X99017Y-74993D01*
X98977Y-75091D01*
X98936Y-75156D01*
X98895Y-75188D01*
G54D13*
G54D25*
X93774Y-77675D02*
X93774Y-76994D01*
X93937Y-76994D01*
X93977Y-77027D01*
X93998Y-77059D01*
X94018Y-77124D01*
X94018Y-77221D01*
X93998Y-77286D01*
X93977Y-77318D01*
X93937Y-77351D01*
X93774Y-77351D01*
X94263Y-77286D02*
X94222Y-77254D01*
X94202Y-77221D01*
X94181Y-77156D01*
X94181Y-77124D01*
X94202Y-77059D01*
X94222Y-77027D01*
X94263Y-76994D01*
X94344Y-76994D01*
X94385Y-77027D01*
X94405Y-77059D01*
X94426Y-77124D01*
X94426Y-77156D01*
X94405Y-77221D01*
X94385Y-77254D01*
X94344Y-77286D01*
X94263Y-77286D01*
X94222Y-77318D01*
X94202Y-77351D01*
X94181Y-77416D01*
X94181Y-77545D01*
X94202Y-77610D01*
X94222Y-77643D01*
X94263Y-77675D01*
X94344Y-77675D01*
X94385Y-77643D01*
X94405Y-77610D01*
X94426Y-77545D01*
X94426Y-77416D01*
X94405Y-77351D01*
X94385Y-77318D01*
X94344Y-77286D01*
G54D13*
G54D20*
X88051Y-77585D02*
X88032Y-77614D01*
X87975Y-77642D01*
X87937Y-77642D01*
X87880Y-77614D01*
X87842Y-77557D01*
X87823Y-77500D01*
X87804Y-77385D01*
X87804Y-77300D01*
X87823Y-77185D01*
X87842Y-77128D01*
X87880Y-77071D01*
X87937Y-77042D01*
X87975Y-77042D01*
X88032Y-77071D01*
X88051Y-77100D01*
X88299Y-77042D02*
X88375Y-77042D01*
X88413Y-77071D01*
X88451Y-77128D01*
X88470Y-77242D01*
X88470Y-77442D01*
X88451Y-77557D01*
X88413Y-77614D01*
X88375Y-77642D01*
X88299Y-77642D01*
X88261Y-77614D01*
X88223Y-77557D01*
X88204Y-77442D01*
X88204Y-77242D01*
X88223Y-77128D01*
X88261Y-77071D01*
X88299Y-77042D01*
X88642Y-77642D02*
X88642Y-77042D01*
X88870Y-77642D01*
X88870Y-77042D01*
X89061Y-77642D02*
X89061Y-77042D01*
X89290Y-77642D01*
X89290Y-77042D01*
X89385Y-77700D02*
X89690Y-77700D01*
X89994Y-77642D02*
X89766Y-77642D01*
X89880Y-77642D02*
X89880Y-77042D01*
X89842Y-77128D01*
X89804Y-77185D01*
X89766Y-77214D01*
X90242Y-77042D02*
X90280Y-77042D01*
X90318Y-77071D01*
X90337Y-77100D01*
X90356Y-77157D01*
X90375Y-77271D01*
X90375Y-77414D01*
X90356Y-77528D01*
X90337Y-77585D01*
X90318Y-77614D01*
X90280Y-77642D01*
X90242Y-77642D01*
X90204Y-77614D01*
X90185Y-77585D01*
X90166Y-77528D01*
X90147Y-77414D01*
X90147Y-77271D01*
X90166Y-77157D01*
X90185Y-77100D01*
X90204Y-77071D01*
X90242Y-77042D01*
G54D13*
G54D25*
X82984Y-53075D02*
X82984Y-52394D01*
X83147Y-52394D01*
X83187Y-52427D01*
X83208Y-52459D01*
X83228Y-52524D01*
X83228Y-52621D01*
X83208Y-52686D01*
X83187Y-52718D01*
X83147Y-52751D01*
X82984Y-52751D01*
X83371Y-52394D02*
X83656Y-52394D01*
X83473Y-53075D01*
G54D13*
G54D20*
X77952Y-52985D02*
X77933Y-53014D01*
X77876Y-53042D01*
X77838Y-53042D01*
X77780Y-53014D01*
X77742Y-52957D01*
X77723Y-52900D01*
X77704Y-52785D01*
X77704Y-52700D01*
X77723Y-52585D01*
X77742Y-52528D01*
X77780Y-52471D01*
X77838Y-52442D01*
X77876Y-52442D01*
X77933Y-52471D01*
X77952Y-52500D01*
X78200Y-52442D02*
X78276Y-52442D01*
X78314Y-52471D01*
X78352Y-52528D01*
X78371Y-52642D01*
X78371Y-52842D01*
X78352Y-52957D01*
X78314Y-53014D01*
X78276Y-53042D01*
X78200Y-53042D01*
X78161Y-53014D01*
X78123Y-52957D01*
X78104Y-52842D01*
X78104Y-52642D01*
X78123Y-52528D01*
X78161Y-52471D01*
X78200Y-52442D01*
X78542Y-53042D02*
X78542Y-52442D01*
X78771Y-53042D01*
X78771Y-52442D01*
X78961Y-53042D02*
X78961Y-52442D01*
X79190Y-53042D01*
X79190Y-52442D01*
X79285Y-53100D02*
X79590Y-53100D01*
X79742Y-52700D02*
X79704Y-52671D01*
X79685Y-52642D01*
X79666Y-52585D01*
X79666Y-52557D01*
X79685Y-52500D01*
X79704Y-52471D01*
X79742Y-52442D01*
X79819Y-52442D01*
X79857Y-52471D01*
X79876Y-52500D01*
X79895Y-52557D01*
X79895Y-52585D01*
X79876Y-52642D01*
X79857Y-52671D01*
X79819Y-52700D01*
X79742Y-52700D01*
X79704Y-52728D01*
X79685Y-52757D01*
X79666Y-52814D01*
X79666Y-52928D01*
X79685Y-52985D01*
X79704Y-53014D01*
X79742Y-53042D01*
X79819Y-53042D01*
X79857Y-53014D01*
X79876Y-52985D01*
X79895Y-52928D01*
X79895Y-52814D01*
X79876Y-52757D01*
X79857Y-52728D01*
X79819Y-52700D01*
G54D13*
X112972Y-54178D02*
X112372Y-54178D01*
X112372Y-53950D01*
X112401Y-53892D01*
X112430Y-53864D01*
X112487Y-53835D01*
X112572Y-53835D01*
X112630Y-53864D01*
X112658Y-53892D01*
X112687Y-53950D01*
X112687Y-54178D01*
X112972Y-53264D02*
X112972Y-53607D01*
X112972Y-53435D02*
X112372Y-53435D01*
X112458Y-53492D01*
X112515Y-53550D01*
X112544Y-53607D01*
X112430Y-53035D02*
X112401Y-53007D01*
X112372Y-52950D01*
X112372Y-52807D01*
X112401Y-52750D01*
X112430Y-52721D01*
X112487Y-52692D01*
X112544Y-52692D01*
X112630Y-52721D01*
X112972Y-53064D01*
X112972Y-52692D01*
X104115Y-54721D02*
X104144Y-54749D01*
X104172Y-54835D01*
X104172Y-54892D01*
X104144Y-54978D01*
X104087Y-55035D01*
X104030Y-55064D01*
X103915Y-55092D01*
X103830Y-55092D01*
X103715Y-55064D01*
X103658Y-55035D01*
X103601Y-54978D01*
X103572Y-54892D01*
X103572Y-54835D01*
X103601Y-54749D01*
X103630Y-54721D01*
X103572Y-54349D02*
X103572Y-54235D01*
X103601Y-54178D01*
X103658Y-54121D01*
X103772Y-54092D01*
X103972Y-54092D01*
X104087Y-54121D01*
X104144Y-54178D01*
X104172Y-54235D01*
X104172Y-54349D01*
X104144Y-54407D01*
X104087Y-54464D01*
X103972Y-54492D01*
X103772Y-54492D01*
X103658Y-54464D01*
X103601Y-54407D01*
X103572Y-54349D01*
X104172Y-53835D02*
X103572Y-53835D01*
X104172Y-53492D01*
X103572Y-53492D01*
X104172Y-53207D02*
X103572Y-53207D01*
X104172Y-52864D01*
X103572Y-52864D01*
X104230Y-52721D02*
X104230Y-52264D01*
X103772Y-51864D02*
X104172Y-51864D01*
X103544Y-52007D02*
X103972Y-52150D01*
X103972Y-51778D01*
X112242Y-76888D02*
X111642Y-76888D01*
X111642Y-76660D01*
X111671Y-76602D01*
X111700Y-76574D01*
X111757Y-76545D01*
X111842Y-76545D01*
X111900Y-76574D01*
X111928Y-76602D01*
X111957Y-76660D01*
X111957Y-76888D01*
X112242Y-75974D02*
X112242Y-76317D01*
X112242Y-76145D02*
X111642Y-76145D01*
X111728Y-76202D01*
X111785Y-76260D01*
X111814Y-76317D01*
X111842Y-75460D02*
X112242Y-75460D01*
X111614Y-75602D02*
X112042Y-75745D01*
X112042Y-75374D01*
X103385Y-77431D02*
X103414Y-77459D01*
X103442Y-77545D01*
X103442Y-77602D01*
X103414Y-77688D01*
X103357Y-77745D01*
X103300Y-77774D01*
X103185Y-77802D01*
X103100Y-77802D01*
X102985Y-77774D01*
X102928Y-77745D01*
X102871Y-77688D01*
X102842Y-77602D01*
X102842Y-77545D01*
X102871Y-77459D01*
X102900Y-77431D01*
X102842Y-77059D02*
X102842Y-76945D01*
X102871Y-76888D01*
X102928Y-76831D01*
X103042Y-76802D01*
X103242Y-76802D01*
X103357Y-76831D01*
X103414Y-76888D01*
X103442Y-76945D01*
X103442Y-77059D01*
X103414Y-77117D01*
X103357Y-77174D01*
X103242Y-77202D01*
X103042Y-77202D01*
X102928Y-77174D01*
X102871Y-77117D01*
X102842Y-77059D01*
X103442Y-76545D02*
X102842Y-76545D01*
X103442Y-76202D01*
X102842Y-76202D01*
X103442Y-75917D02*
X102842Y-75917D01*
X103442Y-75574D01*
X102842Y-75574D01*
X103500Y-75431D02*
X103500Y-74974D01*
X103042Y-74574D02*
X103442Y-74574D01*
X102814Y-74717D02*
X103242Y-74860D01*
X103242Y-74488D01*
G54D15*
X72764Y-64899D02*
X72764Y-64999D01*
X72921Y-64999D02*
X72621Y-64999D01*
X72621Y-64857D01*
X72650Y-64757D02*
X72635Y-64742D01*
X72621Y-64714D01*
X72621Y-64642D01*
X72635Y-64614D01*
X72650Y-64599D01*
X72678Y-64585D01*
X72707Y-64585D01*
X72750Y-64599D01*
X72921Y-64771D01*
X72921Y-64585D01*
X71500Y-72364D02*
X71400Y-72364D01*
X71400Y-72521D02*
X71400Y-72221D01*
X71542Y-72221D01*
X71814Y-72521D02*
X71642Y-72521D01*
X71728Y-72521D02*
X71728Y-72221D01*
X71700Y-72264D01*
X71671Y-72292D01*
X71642Y-72307D01*
G54D24*
X77654Y-73840D02*
X77560Y-73900D01*
X77654Y-73943D02*
X77457Y-73943D01*
X77457Y-73875D01*
X77467Y-73857D01*
X77476Y-73849D01*
X77495Y-73840D01*
X77523Y-73840D01*
X77542Y-73849D01*
X77551Y-73857D01*
X77560Y-73875D01*
X77560Y-73943D01*
X77654Y-73669D02*
X77654Y-73772D01*
X77654Y-73720D02*
X77457Y-73720D01*
X77485Y-73737D01*
X77504Y-73755D01*
X77514Y-73772D01*
X77523Y-73515D02*
X77654Y-73515D01*
X77448Y-73557D02*
X77589Y-73600D01*
X77589Y-73489D01*
X78149Y-73708D02*
X78149Y-73691D01*
X78159Y-73674D01*
X78169Y-73665D01*
X78188Y-73657D01*
X78226Y-73648D01*
X78273Y-73648D01*
X78311Y-73657D01*
X78330Y-73665D01*
X78340Y-73674D01*
X78349Y-73691D01*
X78349Y-73708D01*
X78340Y-73725D01*
X78330Y-73734D01*
X78311Y-73742D01*
X78273Y-73751D01*
X78226Y-73751D01*
X78188Y-73742D01*
X78169Y-73734D01*
X78159Y-73725D01*
X78149Y-73708D01*
X75854Y-67140D02*
X75760Y-67200D01*
X75854Y-67243D02*
X75657Y-67243D01*
X75657Y-67175D01*
X75667Y-67157D01*
X75676Y-67149D01*
X75695Y-67140D01*
X75723Y-67140D01*
X75742Y-67149D01*
X75751Y-67157D01*
X75760Y-67175D01*
X75760Y-67243D01*
X75854Y-66969D02*
X75854Y-67072D01*
X75854Y-67020D02*
X75657Y-67020D01*
X75685Y-67037D01*
X75704Y-67055D01*
X75714Y-67072D01*
X75657Y-66806D02*
X75657Y-66892D01*
X75751Y-66900D01*
X75742Y-66892D01*
X75732Y-66875D01*
X75732Y-66832D01*
X75742Y-66815D01*
X75751Y-66806D01*
X75770Y-66797D01*
X75817Y-66797D01*
X75835Y-66806D01*
X75845Y-66815D01*
X75854Y-66832D01*
X75854Y-66875D01*
X75845Y-66892D01*
X75835Y-66900D01*
X76349Y-67008D02*
X76349Y-66991D01*
X76359Y-66974D01*
X76369Y-66965D01*
X76388Y-66957D01*
X76426Y-66948D01*
X76473Y-66948D01*
X76511Y-66957D01*
X76530Y-66965D01*
X76540Y-66974D01*
X76549Y-66991D01*
X76549Y-67008D01*
X76540Y-67025D01*
X76530Y-67034D01*
X76511Y-67042D01*
X76473Y-67051D01*
X76426Y-67051D01*
X76388Y-67042D01*
X76369Y-67034D01*
X76359Y-67025D01*
X76349Y-67008D01*
X74054Y-64940D02*
X73960Y-65000D01*
X74054Y-65043D02*
X73857Y-65043D01*
X73857Y-64975D01*
X73867Y-64957D01*
X73876Y-64949D01*
X73895Y-64940D01*
X73923Y-64940D01*
X73942Y-64949D01*
X73951Y-64957D01*
X73960Y-64975D01*
X73960Y-65043D01*
X74054Y-64769D02*
X74054Y-64872D01*
X74054Y-64820D02*
X73857Y-64820D01*
X73885Y-64837D01*
X73904Y-64855D01*
X73914Y-64872D01*
X74054Y-64683D02*
X74054Y-64649D01*
X74045Y-64632D01*
X74035Y-64623D01*
X74007Y-64606D01*
X73970Y-64597D01*
X73895Y-64597D01*
X73876Y-64606D01*
X73867Y-64615D01*
X73857Y-64632D01*
X73857Y-64666D01*
X73867Y-64683D01*
X73876Y-64692D01*
X73895Y-64700D01*
X73942Y-64700D01*
X73960Y-64692D01*
X73970Y-64683D01*
X73979Y-64666D01*
X73979Y-64632D01*
X73970Y-64615D01*
X73960Y-64606D01*
X73942Y-64597D01*
X74549Y-64808D02*
X74549Y-64791D01*
X74559Y-64774D01*
X74569Y-64765D01*
X74588Y-64757D01*
X74626Y-64748D01*
X74673Y-64748D01*
X74711Y-64757D01*
X74730Y-64765D01*
X74740Y-64774D01*
X74749Y-64791D01*
X74749Y-64808D01*
X74740Y-64825D01*
X74730Y-64834D01*
X74711Y-64842D01*
X74673Y-64851D01*
X74626Y-64851D01*
X74588Y-64842D01*
X74569Y-64834D01*
X74559Y-64825D01*
X74549Y-64808D01*
X74104Y-65690D02*
X74010Y-65750D01*
X74104Y-65793D02*
X73907Y-65793D01*
X73907Y-65725D01*
X73917Y-65707D01*
X73926Y-65699D01*
X73945Y-65690D01*
X73973Y-65690D01*
X73992Y-65699D01*
X74001Y-65707D01*
X74010Y-65725D01*
X74010Y-65793D01*
X73926Y-65622D02*
X73917Y-65613D01*
X73907Y-65596D01*
X73907Y-65553D01*
X73917Y-65536D01*
X73926Y-65527D01*
X73945Y-65519D01*
X73964Y-65519D01*
X73992Y-65527D01*
X74104Y-65630D01*
X74104Y-65519D01*
X73907Y-65407D02*
X73907Y-65390D01*
X73917Y-65373D01*
X73926Y-65365D01*
X73945Y-65356D01*
X73982Y-65347D01*
X74029Y-65347D01*
X74067Y-65356D01*
X74085Y-65365D01*
X74095Y-65373D01*
X74104Y-65390D01*
X74104Y-65407D01*
X74095Y-65425D01*
X74085Y-65433D01*
X74067Y-65442D01*
X74029Y-65450D01*
X73982Y-65450D01*
X73945Y-65442D01*
X73926Y-65433D01*
X73917Y-65425D01*
X73907Y-65407D01*
X73211Y-65608D02*
X73211Y-65591D01*
X73221Y-65574D01*
X73231Y-65565D01*
X73250Y-65557D01*
X73288Y-65548D01*
X73335Y-65548D01*
X73373Y-65557D01*
X73392Y-65565D01*
X73402Y-65574D01*
X73411Y-65591D01*
X73411Y-65608D01*
X73402Y-65625D01*
X73392Y-65634D01*
X73373Y-65642D01*
X73335Y-65651D01*
X73288Y-65651D01*
X73250Y-65642D01*
X73231Y-65634D01*
X73221Y-65625D01*
X73211Y-65608D01*
X73404Y-73490D02*
X73310Y-73550D01*
X73404Y-73593D02*
X73207Y-73593D01*
X73207Y-73525D01*
X73217Y-73507D01*
X73226Y-73499D01*
X73245Y-73490D01*
X73273Y-73490D01*
X73292Y-73499D01*
X73301Y-73507D01*
X73310Y-73525D01*
X73310Y-73593D01*
X73404Y-73319D02*
X73404Y-73422D01*
X73404Y-73370D02*
X73207Y-73370D01*
X73235Y-73387D01*
X73254Y-73405D01*
X73264Y-73422D01*
X73207Y-73259D02*
X73207Y-73147D01*
X73282Y-73207D01*
X73282Y-73182D01*
X73292Y-73165D01*
X73301Y-73156D01*
X73320Y-73147D01*
X73367Y-73147D01*
X73385Y-73156D01*
X73395Y-73165D01*
X73404Y-73182D01*
X73404Y-73233D01*
X73395Y-73250D01*
X73385Y-73259D01*
X72511Y-73408D02*
X72511Y-73391D01*
X72521Y-73374D01*
X72531Y-73365D01*
X72550Y-73357D01*
X72588Y-73348D01*
X72635Y-73348D01*
X72673Y-73357D01*
X72692Y-73365D01*
X72702Y-73374D01*
X72711Y-73391D01*
X72711Y-73408D01*
X72702Y-73425D01*
X72692Y-73434D01*
X72673Y-73442D01*
X72635Y-73451D01*
X72588Y-73451D01*
X72550Y-73442D01*
X72531Y-73434D01*
X72521Y-73425D01*
X72511Y-73408D01*
X73404Y-74290D02*
X73310Y-74350D01*
X73404Y-74393D02*
X73207Y-74393D01*
X73207Y-74325D01*
X73217Y-74307D01*
X73226Y-74299D01*
X73245Y-74290D01*
X73273Y-74290D01*
X73292Y-74299D01*
X73301Y-74307D01*
X73310Y-74325D01*
X73310Y-74393D01*
X73404Y-74119D02*
X73404Y-74222D01*
X73404Y-74170D02*
X73207Y-74170D01*
X73235Y-74187D01*
X73254Y-74205D01*
X73264Y-74222D01*
X73226Y-74050D02*
X73217Y-74042D01*
X73207Y-74025D01*
X73207Y-73982D01*
X73217Y-73965D01*
X73226Y-73956D01*
X73245Y-73947D01*
X73264Y-73947D01*
X73292Y-73956D01*
X73404Y-74059D01*
X73404Y-73947D01*
X72511Y-74208D02*
X72511Y-74191D01*
X72521Y-74174D01*
X72531Y-74165D01*
X72550Y-74157D01*
X72588Y-74148D01*
X72635Y-74148D01*
X72673Y-74157D01*
X72692Y-74165D01*
X72702Y-74174D01*
X72711Y-74191D01*
X72711Y-74208D01*
X72702Y-74225D01*
X72692Y-74234D01*
X72673Y-74242D01*
X72635Y-74251D01*
X72588Y-74251D01*
X72550Y-74242D01*
X72531Y-74234D01*
X72521Y-74225D01*
X72511Y-74208D01*
X77804Y-77790D02*
X77710Y-77850D01*
X77804Y-77893D02*
X77607Y-77893D01*
X77607Y-77825D01*
X77617Y-77807D01*
X77626Y-77799D01*
X77645Y-77790D01*
X77673Y-77790D01*
X77692Y-77799D01*
X77701Y-77807D01*
X77710Y-77825D01*
X77710Y-77893D01*
X77804Y-77619D02*
X77804Y-77722D01*
X77804Y-77670D02*
X77607Y-77670D01*
X77635Y-77687D01*
X77654Y-77705D01*
X77664Y-77722D01*
X77692Y-77516D02*
X77682Y-77533D01*
X77673Y-77542D01*
X77654Y-77550D01*
X77645Y-77550D01*
X77626Y-77542D01*
X77617Y-77533D01*
X77607Y-77516D01*
X77607Y-77482D01*
X77617Y-77465D01*
X77626Y-77456D01*
X77645Y-77447D01*
X77654Y-77447D01*
X77673Y-77456D01*
X77682Y-77465D01*
X77692Y-77482D01*
X77692Y-77516D01*
X77701Y-77533D01*
X77710Y-77542D01*
X77729Y-77550D01*
X77767Y-77550D01*
X77785Y-77542D01*
X77795Y-77533D01*
X77804Y-77516D01*
X77804Y-77482D01*
X77795Y-77465D01*
X77785Y-77456D01*
X77767Y-77447D01*
X77729Y-77447D01*
X77710Y-77456D01*
X77701Y-77465D01*
X77692Y-77482D01*
X76911Y-77708D02*
X76911Y-77691D01*
X76921Y-77674D01*
X76931Y-77665D01*
X76950Y-77657D01*
X76988Y-77648D01*
X77035Y-77648D01*
X77073Y-77657D01*
X77092Y-77665D01*
X77102Y-77674D01*
X77111Y-77691D01*
X77111Y-77708D01*
X77102Y-77725D01*
X77092Y-77734D01*
X77073Y-77742D01*
X77035Y-77751D01*
X76988Y-77751D01*
X76950Y-77742D01*
X76931Y-77734D01*
X76921Y-77725D01*
X76911Y-77708D01*
X77704Y-76690D02*
X77610Y-76750D01*
X77704Y-76793D02*
X77507Y-76793D01*
X77507Y-76725D01*
X77517Y-76707D01*
X77526Y-76699D01*
X77545Y-76690D01*
X77573Y-76690D01*
X77592Y-76699D01*
X77601Y-76707D01*
X77610Y-76725D01*
X77610Y-76793D01*
X77704Y-76519D02*
X77704Y-76622D01*
X77704Y-76570D02*
X77507Y-76570D01*
X77535Y-76587D01*
X77554Y-76605D01*
X77564Y-76622D01*
X77507Y-76459D02*
X77507Y-76339D01*
X77704Y-76416D01*
X76811Y-76608D02*
X76811Y-76591D01*
X76821Y-76574D01*
X76831Y-76565D01*
X76850Y-76557D01*
X76888Y-76548D01*
X76935Y-76548D01*
X76973Y-76557D01*
X76992Y-76565D01*
X77002Y-76574D01*
X77011Y-76591D01*
X77011Y-76608D01*
X77002Y-76625D01*
X76992Y-76634D01*
X76973Y-76642D01*
X76935Y-76651D01*
X76888Y-76651D01*
X76850Y-76642D01*
X76831Y-76634D01*
X76821Y-76625D01*
X76811Y-76608D01*
X77904Y-78990D02*
X77810Y-79050D01*
X77904Y-79093D02*
X77707Y-79093D01*
X77707Y-79025D01*
X77717Y-79007D01*
X77726Y-78999D01*
X77745Y-78990D01*
X77773Y-78990D01*
X77792Y-78999D01*
X77801Y-79007D01*
X77810Y-79025D01*
X77810Y-79093D01*
X77904Y-78819D02*
X77904Y-78922D01*
X77904Y-78870D02*
X77707Y-78870D01*
X77735Y-78887D01*
X77754Y-78905D01*
X77764Y-78922D01*
X77707Y-78665D02*
X77707Y-78699D01*
X77717Y-78716D01*
X77726Y-78725D01*
X77754Y-78742D01*
X77792Y-78750D01*
X77867Y-78750D01*
X77885Y-78742D01*
X77895Y-78733D01*
X77904Y-78716D01*
X77904Y-78682D01*
X77895Y-78665D01*
X77885Y-78656D01*
X77867Y-78647D01*
X77820Y-78647D01*
X77801Y-78656D01*
X77792Y-78665D01*
X77782Y-78682D01*
X77782Y-78716D01*
X77792Y-78733D01*
X77801Y-78742D01*
X77820Y-78750D01*
X77011Y-78908D02*
X77011Y-78891D01*
X77021Y-78874D01*
X77031Y-78865D01*
X77050Y-78857D01*
X77088Y-78848D01*
X77135Y-78848D01*
X77173Y-78857D01*
X77192Y-78865D01*
X77202Y-78874D01*
X77211Y-78891D01*
X77211Y-78908D01*
X77202Y-78925D01*
X77192Y-78934D01*
X77173Y-78942D01*
X77135Y-78951D01*
X77088Y-78951D01*
X77050Y-78942D01*
X77031Y-78934D01*
X77021Y-78925D01*
X77011Y-78908D01*
M02*
