M48
;DRILL file {Pcbnew (2014-01-10 BZR 4027)-stable} date Wed 15 Apr 2015 19:22:53 CEST
;FORMAT={-:-/ absolute / metric / decimal}
FMAT,2
METRIC,TZ
T1C0.800
T2C0.813
T3C0.899
T4C1.001
T5C1.300
T6C1.500
T7C1.600
T8C2.000
T9C2.500
T10C2.540
T11C3.251
%
G90
G05
M71
T1
X179.578Y-195.072
X180.086Y-174.498
X181.356Y-191.77
X181.61Y-195.072
X181.864Y-185.674
X183.134Y-164.592
X184.15Y-160.274
X184.658Y-181.864
X185.166Y-174.498
X185.42Y-170.688
X185.928Y-183.134
X186.69Y-172.72
X188.468Y-169.672
X188.468Y-185.674
X188.722Y-168.402
X188.722Y-192.278
X188.976Y-195.58
X189.484Y-179.578
X190.5Y-170.434
X191.77Y-176.784
X192.024Y-192.278
X193.04Y-166.878
X193.04Y-193.294
X193.04Y-194.564
X193.294Y-178.308
X193.548Y-182.88
X194.818Y-170.18
X197.612Y-136.906
X197.866Y-185.166
X198.628Y-189.738
X199.898Y-194.564
X202.438Y-190.5
X203.708Y-141.478
X203.962Y-179.578
X206.248Y-140.462
X212.598Y-159.004
X215.138Y-149.352
X217.678Y-147.574
X219.202Y-139.192
X219.202Y-147.066
X224.282Y-145.796
X224.79Y-144.272
X226.568Y-146.812
X230.124Y-148.336
X231.394Y-147.32
X232.918Y-147.32
X233.172Y-176.022
X233.426Y-133.858
X233.426Y-136.906
X233.68Y-129.794
X234.442Y-146.812
X234.442Y-178.054
X234.696Y-144.526
X235.712Y-176.784
X236.22Y-144.272
X237.236Y-139.7
X237.49Y-176.276
X238.506Y-177.292
X240.03Y-176.784
X241.3Y-176.022
X241.554Y-147.574
X243.078Y-175.768
X244.602Y-161.798
X249.682Y-151.384
X249.682Y-163.068
X251.46Y-151.638
X252.73Y-150.368
X253.238Y-149.098
X253.492Y-135.636
X253.746Y-145.542
X253.746Y-178.816
X254.508Y-160.02
X255.778Y-179.832
X257.81Y-183.134
X258.318Y-162.306
X259.842Y-139.446
X259.842Y-143.256
X263.144Y-170.942
X265.176Y-142.494
X266.954Y-131.064
X271.018Y-169.672
X271.78Y-163.068
X272.034Y-147.066
X273.05Y-169.926
X273.304Y-148.082
X274.574Y-172.212
X275.082Y-177.8
X275.336Y-160.02
X275.59Y-142.748
X276.86Y-160.528
X277.622Y-170.18
X277.876Y-163.83
X279.908Y-173.99
X280.924Y-177.8
X281.686Y-167.386
X284.48Y-188.722
T2
X196.342Y-131.572
X198.272Y-159.487
X198.272Y-162.027
X198.272Y-164.567
X198.272Y-167.107
X198.272Y-169.647
X198.272Y-172.187
X198.272Y-174.727
X198.272Y-177.267
X198.272Y-179.807
X198.374Y-139.192
X198.374Y-141.732
X198.374Y-144.272
X198.374Y-146.812
X198.374Y-149.352
X198.374Y-151.892
X198.374Y-154.432
X198.374Y-156.972
X198.882Y-131.572
X201.422Y-131.572
X203.454Y-194.056
X203.962Y-131.572
X205.994Y-194.056
X206.502Y-131.572
X208.534Y-194.056
X209.042Y-131.572
X211.074Y-194.056
X211.582Y-131.572
X213.614Y-194.056
X214.122Y-131.572
X216.154Y-194.056
X216.916Y-131.572
X218.694Y-194.056
X219.456Y-131.572
X221.209Y-194.056
X221.996Y-131.572
X223.749Y-194.056
X224.536Y-131.572
X226.289Y-194.056
X227.076Y-131.572
X228.829Y-194.056
X229.616Y-131.572
X231.369Y-194.056
X233.909Y-194.056
X236.449Y-194.056
X238.989Y-194.056
X241.529Y-194.056
X244.069Y-194.056
X246.634Y-194.056
X249.174Y-194.056
X251.714Y-194.056
X254.254Y-194.056
X255.27Y-132.842
X256.286Y-151.257
X256.286Y-153.797
X256.286Y-156.337
X256.286Y-158.877
X256.286Y-161.417
X256.413Y-164.338
X256.413Y-166.878
X256.413Y-169.418
X256.413Y-171.958
X257.81Y-132.842
X257.81Y-135.382
T3
X190.701Y-132.507
X190.701Y-135.006
X190.701Y-137.505
X190.701Y-140.106
X193.251Y-133.706
X193.251Y-136.307
X193.251Y-138.806
X193.251Y-141.305
X264.274Y-193.446
X264.655Y-183.642
X266.128Y-135.763
X266.273Y-193.446
X266.654Y-183.642
X268.127Y-135.763
X268.275Y-193.446
X268.656Y-183.642
X270.129Y-135.763
X270.274Y-193.446
X270.655Y-183.642
X272.128Y-135.763
T4
X180.35Y-130.256
X180.35Y-132.806
X180.35Y-141.006
X180.35Y-143.556
T5
X264.005Y-190.726
X264.005Y-196.167
X264.386Y-180.922
X264.386Y-186.362
X265.859Y-133.043
X265.859Y-138.483
X271.003Y-190.726
X271.003Y-196.167
X271.384Y-180.922
X271.384Y-186.362
X272.857Y-133.043
X272.857Y-138.483
T6
X209.86Y-178.892
X209.87Y-143.312
X245.42Y-143.322
X245.42Y-178.872
T7
X187.35Y-129.256
X187.35Y-144.656
T8
X179.832Y-199.39
X194.056Y-158.496
X283.718Y-129.286
X283.718Y-199.39
T9
X184.912Y-152.4
X191.008Y-152.4
T10
X187.198Y-157.48
T11
X184.351Y-131.206
X184.399Y-142.606
T0
M30
