G04 (created by PCBNEW (2014-01-10 BZR 4027)-stable) date Wed 15 Apr 2015 19:22:48 CEST*
%MOIN*%
G04 Gerber Fmt 3.4, Leading zero omitted, Abs format*
%FSLAX34Y34*%
G01*
G70*
G90*
G04 APERTURE LIST*
%ADD10C,0.00590551*%
%ADD11C,0.0866*%
%ADD12C,0.0591*%
%ADD13R,0.055X0.055*%
%ADD14C,0.055*%
%ADD15C,0.189*%
%ADD16R,0.189X0.189*%
%ADD17C,0.1417*%
%ADD18R,0.07X0.07*%
%ADD19C,0.08*%
%ADD20C,0.1*%
%ADD21R,0.15748X0.15748*%
%ADD22R,0.059X0.0275*%
%ADD23R,0.0314X0.0393*%
%ADD24R,0.0314X0.0392*%
%ADD25R,0.0472X0.0276*%
%ADD26R,0.0315X0.0394*%
%ADD27R,0.1102X0.0394*%
%ADD28R,0.0748X0.0512*%
%ADD29R,0.0472X0.0394*%
%ADD30C,0.0912598*%
%ADD31C,0.0393701*%
%ADD32C,0.0137795*%
%ADD33C,0.0177165*%
%ADD34C,0.00984252*%
%ADD35C,0.015748*%
%ADD36C,0.019685*%
%ADD37C,0.011811*%
%ADD38C,0.01*%
G04 APERTURE END LIST*
G54D10*
G54D11*
X104089Y-73371D03*
X104089Y-71229D03*
G54D12*
X106557Y-72300D03*
X105770Y-72300D03*
X104982Y-72300D03*
X104195Y-72300D03*
G54D11*
X106844Y-71229D03*
X106844Y-73371D03*
G54D13*
X101500Y-53300D03*
G54D14*
X101500Y-52300D03*
X100500Y-52300D03*
G54D13*
X90400Y-51800D03*
G54D14*
X89400Y-51800D03*
X88400Y-51800D03*
X87400Y-51800D03*
X86400Y-51800D03*
X85400Y-51800D03*
G54D13*
X80100Y-76400D03*
G54D14*
X81100Y-76400D03*
X82100Y-76400D03*
X83100Y-76400D03*
X84100Y-76400D03*
G54D13*
X100900Y-59550D03*
G54D14*
X100900Y-60550D03*
X100900Y-61550D03*
X100900Y-62550D03*
X100900Y-63550D03*
G54D13*
X100950Y-67700D03*
G54D14*
X100950Y-66700D03*
X100950Y-65700D03*
X100950Y-64700D03*
G54D13*
X85100Y-76400D03*
G54D14*
X86100Y-76400D03*
G54D15*
X72800Y-60000D03*
G54D16*
X75200Y-60000D03*
G54D15*
X73700Y-62000D03*
G54D17*
X72598Y-56144D03*
X72579Y-51656D03*
G54D18*
X75079Y-52168D03*
G54D19*
X76083Y-52640D03*
X75079Y-53152D03*
X76083Y-53664D03*
X75079Y-54136D03*
X76083Y-54648D03*
X75079Y-55160D03*
X76083Y-55632D03*
X71004Y-51282D03*
X71004Y-52286D03*
X71004Y-55514D03*
X71004Y-56518D03*
G54D20*
X73760Y-50888D03*
X73760Y-56951D03*
G54D21*
X82622Y-70429D03*
X82625Y-56422D03*
X96622Y-56425D03*
X96622Y-70422D03*
G54D13*
X78060Y-70790D03*
G54D14*
X78060Y-69790D03*
X78060Y-68790D03*
X78060Y-67790D03*
X78060Y-66790D03*
X78060Y-65790D03*
X78060Y-64790D03*
X78060Y-63790D03*
X78060Y-62790D03*
G54D13*
X78100Y-54800D03*
G54D14*
X78100Y-55800D03*
X78100Y-56800D03*
X78100Y-57800D03*
X78100Y-58800D03*
X78100Y-59800D03*
X78100Y-60800D03*
X78100Y-61800D03*
G54D13*
X97100Y-76400D03*
G54D14*
X98100Y-76400D03*
X99100Y-76400D03*
X100100Y-76400D03*
G54D13*
X96090Y-76400D03*
G54D14*
X95090Y-76400D03*
X94090Y-76400D03*
X93090Y-76400D03*
X92090Y-76400D03*
X91090Y-76400D03*
X90090Y-76400D03*
X89090Y-76400D03*
X88090Y-76400D03*
X87090Y-76400D03*
G54D13*
X84300Y-51800D03*
G54D14*
X83300Y-51800D03*
X82300Y-51800D03*
X81300Y-51800D03*
X80300Y-51800D03*
X79300Y-51800D03*
X78300Y-51800D03*
X77300Y-51800D03*
G54D11*
X104669Y-54521D03*
X104669Y-52379D03*
G54D12*
X107137Y-53450D03*
X106350Y-53450D03*
X105562Y-53450D03*
X104775Y-53450D03*
G54D11*
X107424Y-52379D03*
X107424Y-54521D03*
X103939Y-77231D03*
X103939Y-75089D03*
G54D12*
X106407Y-76160D03*
X105620Y-76160D03*
X104832Y-76160D03*
X104045Y-76160D03*
G54D11*
X106694Y-75089D03*
X106694Y-77231D03*
G54D22*
X71279Y-65685D03*
X71279Y-64505D03*
X71279Y-63915D03*
G54D23*
X70157Y-66237D03*
G54D24*
X71022Y-66237D03*
X71023Y-63363D03*
X70157Y-63363D03*
G54D25*
X105164Y-59200D03*
X105164Y-59633D03*
X105164Y-60066D03*
X105164Y-60499D03*
X105164Y-61109D03*
X105164Y-58767D03*
X105164Y-58334D03*
X105164Y-57901D03*
X105164Y-57468D03*
X105164Y-57094D03*
G54D26*
X109298Y-56720D03*
G54D27*
X110931Y-56720D03*
G54D28*
X111109Y-61995D03*
G54D29*
X106857Y-56720D03*
G54D30*
X70800Y-78500D03*
X111700Y-78500D03*
X111700Y-50900D03*
X76400Y-62400D03*
G54D31*
X102300Y-54900D03*
X102300Y-56400D03*
X79700Y-75000D03*
X78700Y-76600D03*
X112000Y-74300D03*
X73200Y-72100D03*
X109000Y-63200D03*
X108300Y-70000D03*
X110600Y-70000D03*
X107000Y-64200D03*
X103600Y-67300D03*
X101500Y-72100D03*
X74200Y-73100D03*
X96300Y-63700D03*
X100200Y-63000D03*
X98300Y-64200D03*
X101700Y-63900D03*
X108500Y-56200D03*
X107500Y-66900D03*
X104400Y-56100D03*
X108400Y-63000D03*
X99900Y-57300D03*
X95100Y-58100D03*
X110200Y-68500D03*
X110900Y-65900D03*
X84700Y-58800D03*
X85700Y-58100D03*
X86300Y-54800D03*
X88300Y-57400D03*
X88500Y-56800D03*
X89200Y-57800D03*
X93000Y-56800D03*
X105100Y-51600D03*
X92400Y-56900D03*
X91900Y-53900D03*
X92000Y-51100D03*
X92300Y-57800D03*
X91700Y-58000D03*
X90600Y-58400D03*
X100700Y-70800D03*
X91100Y-58000D03*
X99900Y-70400D03*
X72700Y-71600D03*
X73000Y-67200D03*
X74600Y-70700D03*
X76200Y-72000D03*
X76100Y-70200D03*
X75000Y-67100D03*
X71600Y-73100D03*
X76000Y-76100D03*
X77900Y-72900D03*
X76000Y-65700D03*
X74300Y-66300D03*
X99000Y-59700D03*
X99500Y-59200D03*
X99700Y-58700D03*
X107100Y-57900D03*
X92800Y-69600D03*
X91800Y-69300D03*
X92300Y-70100D03*
X98300Y-59600D03*
X95000Y-69300D03*
X81200Y-55300D03*
X94500Y-69600D03*
X77800Y-53900D03*
X80200Y-55700D03*
X93900Y-69800D03*
X93500Y-69400D03*
X91900Y-52700D03*
X93400Y-55000D03*
X83700Y-62600D03*
X80300Y-70700D03*
X99800Y-53400D03*
X95700Y-69200D03*
X86300Y-57900D03*
X72900Y-68700D03*
X70900Y-68700D03*
X73500Y-68000D03*
X75500Y-69600D03*
X75600Y-75700D03*
X74300Y-75700D03*
X74400Y-77000D03*
X71500Y-76800D03*
X76000Y-76600D03*
X71400Y-75500D03*
X109400Y-64500D03*
X106700Y-66800D03*
X72100Y-64800D03*
X78200Y-74700D03*
X70700Y-76800D03*
X109300Y-67000D03*
X108100Y-67800D03*
X107600Y-58300D03*
X72500Y-63100D03*
X76700Y-67000D03*
X74200Y-66800D03*
G54D32*
X102300Y-56400D02*
X102300Y-54900D01*
G54D33*
X79700Y-75600D02*
X79700Y-75000D01*
X78700Y-76600D02*
X79700Y-75600D01*
X108100Y-58800D02*
X109600Y-58800D01*
X112000Y-74300D02*
X112094Y-72699D01*
X112094Y-72699D02*
X112100Y-71000D01*
X112100Y-71000D02*
X112100Y-64800D01*
X112100Y-64800D02*
X109600Y-62300D01*
X109600Y-62300D02*
X109600Y-58800D01*
X105164Y-59200D02*
X107900Y-59200D01*
X100800Y-52600D02*
X100500Y-52300D01*
X100800Y-53700D02*
X100800Y-52600D01*
X101300Y-54200D02*
X100800Y-53700D01*
X102400Y-54200D02*
X101300Y-54200D01*
X102700Y-54500D02*
X102400Y-54200D01*
X102700Y-55400D02*
X102700Y-54500D01*
X103800Y-56500D02*
X102700Y-55400D01*
X105800Y-56500D02*
X103800Y-56500D01*
X106700Y-57400D02*
X105800Y-56500D01*
X107600Y-57400D02*
X106700Y-57400D01*
X108100Y-57900D02*
X107600Y-57400D01*
X108100Y-59000D02*
X108100Y-58800D01*
X108100Y-58800D02*
X108100Y-57900D01*
X107900Y-59200D02*
X108100Y-59000D01*
X101000Y-71600D02*
X103000Y-71600D01*
X103700Y-72300D02*
X104195Y-72300D01*
X103000Y-71600D02*
X103700Y-72300D01*
X79200Y-71600D02*
X101000Y-71600D01*
X101000Y-71600D02*
X101100Y-71600D01*
X73800Y-71900D02*
X74300Y-72400D01*
X74300Y-72400D02*
X76700Y-72400D01*
X76700Y-72400D02*
X77500Y-71600D01*
X77500Y-71600D02*
X79200Y-71600D01*
X73400Y-71900D02*
X73500Y-71900D01*
X73200Y-72100D02*
X73400Y-71900D01*
X73500Y-71900D02*
X73800Y-71900D01*
X105800Y-74100D02*
X104900Y-75000D01*
X104045Y-75955D02*
X104045Y-76160D01*
X104900Y-75100D02*
X104045Y-75955D01*
X104900Y-75000D02*
X104900Y-75100D01*
X104195Y-72495D02*
X104195Y-72300D01*
X105800Y-74100D02*
X104195Y-72495D01*
X105800Y-74100D02*
X105800Y-74100D01*
X111300Y-74100D02*
X105800Y-74100D01*
X111700Y-73400D02*
X111300Y-74100D01*
X111700Y-66000D02*
X111700Y-73400D01*
X109000Y-63200D02*
X111700Y-66000D01*
G54D32*
X110600Y-70000D02*
X108300Y-70000D01*
G54D33*
X107000Y-64200D02*
X106700Y-64200D01*
X106700Y-64200D02*
X103600Y-67300D01*
X79000Y-72100D02*
X101500Y-72100D01*
X103600Y-67300D02*
X103800Y-67100D01*
X101500Y-72100D02*
X101500Y-72100D01*
X77800Y-72100D02*
X79000Y-72100D01*
X79000Y-72100D02*
X79100Y-72100D01*
X77200Y-72700D02*
X77800Y-72100D01*
X74600Y-72700D02*
X77200Y-72700D01*
X74200Y-73100D02*
X74600Y-72700D01*
G54D32*
X99500Y-63700D02*
X96300Y-63700D01*
X100200Y-63000D02*
X99500Y-63700D01*
X98400Y-64100D02*
X98300Y-64200D01*
X101500Y-64100D02*
X98400Y-64100D01*
X101700Y-63900D02*
X101500Y-64100D01*
G54D34*
X107500Y-66900D02*
X108500Y-65900D01*
X108500Y-56200D02*
X108400Y-56100D01*
X108400Y-56100D02*
X104400Y-56100D01*
G54D32*
X108500Y-63100D02*
X108500Y-65900D01*
X108400Y-63000D02*
X108500Y-63100D01*
G54D35*
X99100Y-57300D02*
X99900Y-57300D01*
X98300Y-58100D02*
X99100Y-57300D01*
X95100Y-58100D02*
X98300Y-58100D01*
G54D34*
X110200Y-66600D02*
X110200Y-68500D01*
X110900Y-65900D02*
X110200Y-66600D01*
G54D35*
X79300Y-52500D02*
X79300Y-51800D01*
X81200Y-54400D02*
X79300Y-52500D01*
X84400Y-54400D02*
X81200Y-54400D01*
X84800Y-54800D02*
X84400Y-54400D01*
X84800Y-58700D02*
X84800Y-54800D01*
X84700Y-58800D02*
X84800Y-58700D01*
X80300Y-51800D02*
X80500Y-51800D01*
X85800Y-58000D02*
X85700Y-58100D01*
X85800Y-54661D02*
X85800Y-58000D01*
X85138Y-54000D02*
X85800Y-54661D01*
X82700Y-54000D02*
X85138Y-54000D01*
X80500Y-51800D02*
X82700Y-54000D01*
X81300Y-52100D02*
X81300Y-51800D01*
X82900Y-53700D02*
X81300Y-52100D01*
X85200Y-53700D02*
X82900Y-53700D01*
X86300Y-54800D02*
X85200Y-53700D01*
X82300Y-51800D02*
X82300Y-51900D01*
X87900Y-57000D02*
X88300Y-57400D01*
X87900Y-53600D02*
X87900Y-57000D01*
X87655Y-53355D02*
X87900Y-53600D01*
X83755Y-53355D02*
X87655Y-53355D01*
X82300Y-51900D02*
X83755Y-53355D01*
X83300Y-52200D02*
X83300Y-51800D01*
X84200Y-53100D02*
X83300Y-52200D01*
X87944Y-53100D02*
X84200Y-53100D01*
X88400Y-53555D02*
X87944Y-53100D01*
X88400Y-56700D02*
X88400Y-53555D01*
X88500Y-56800D02*
X88400Y-56700D01*
X84300Y-51800D02*
X84300Y-52200D01*
X88900Y-57500D02*
X89200Y-57800D01*
X88900Y-53300D02*
X88900Y-57500D01*
X88400Y-52800D02*
X88900Y-53300D01*
X84900Y-52800D02*
X88400Y-52800D01*
X84300Y-52200D02*
X84900Y-52800D01*
G54D32*
X100200Y-54300D02*
X100200Y-52900D01*
X93000Y-56800D02*
X95500Y-54300D01*
X95500Y-54300D02*
X100200Y-54300D01*
X100300Y-51600D02*
X105100Y-51600D01*
X99800Y-52100D02*
X100300Y-51600D01*
X99800Y-52500D02*
X99800Y-52100D01*
X100200Y-52900D02*
X99800Y-52500D01*
X105562Y-53450D02*
X105562Y-51162D01*
X92400Y-54400D02*
X92400Y-56900D01*
X91900Y-53900D02*
X92400Y-54400D01*
X92200Y-50900D02*
X92000Y-51100D01*
X105300Y-50900D02*
X92200Y-50900D01*
X105562Y-51162D02*
X105300Y-50900D01*
X105770Y-72300D02*
X105770Y-71370D01*
X92400Y-57900D02*
X92300Y-57800D01*
X92400Y-61800D02*
X92400Y-57900D01*
X100300Y-69700D02*
X92400Y-61800D01*
X104500Y-69700D02*
X100300Y-69700D01*
X105300Y-70500D02*
X104500Y-69700D01*
X105300Y-70900D02*
X105300Y-70500D01*
X105770Y-71370D02*
X105300Y-70900D01*
X104982Y-70782D02*
X104982Y-72300D01*
X104200Y-70000D02*
X104982Y-70782D01*
X100200Y-70000D02*
X104200Y-70000D01*
X91600Y-61400D02*
X100200Y-70000D01*
X91600Y-58100D02*
X91600Y-61400D01*
X91700Y-58000D02*
X91600Y-58100D01*
X99803Y-70858D02*
X100700Y-70800D01*
X90400Y-61500D02*
X99803Y-70858D01*
X90400Y-58600D02*
X90400Y-61500D01*
X90600Y-58400D02*
X90400Y-58600D01*
X91100Y-58900D02*
X91100Y-58000D01*
X90900Y-59100D02*
X91100Y-58900D01*
X90900Y-61300D02*
X90900Y-59100D01*
X99900Y-70400D02*
X90900Y-61300D01*
G54D33*
X73400Y-71600D02*
X72700Y-71600D01*
X73400Y-68500D02*
X73400Y-71600D01*
X72900Y-68000D02*
X73400Y-68500D01*
X72900Y-67300D02*
X72900Y-68000D01*
X73000Y-67200D02*
X72900Y-67300D01*
X76100Y-70600D02*
X74700Y-70600D01*
X74700Y-70600D02*
X74600Y-70700D01*
X76100Y-71900D02*
X76100Y-70600D01*
X76100Y-70600D02*
X76100Y-70200D01*
X76200Y-72000D02*
X76100Y-71900D01*
X76100Y-68200D02*
X76100Y-70200D01*
X75000Y-67100D02*
X76100Y-68200D01*
X76000Y-76100D02*
X73200Y-76100D01*
X72200Y-73700D02*
X71600Y-73100D01*
X72200Y-74500D02*
X72200Y-73700D01*
X73200Y-76100D02*
X72200Y-74500D01*
X77100Y-74400D02*
X76000Y-76100D01*
X77900Y-72900D02*
X77100Y-74400D01*
X76000Y-65700D02*
X75400Y-66300D01*
X75400Y-66300D02*
X74300Y-66300D01*
G54D32*
X104467Y-58767D02*
X105164Y-58767D01*
X104400Y-58700D02*
X104467Y-58767D01*
X100300Y-58700D02*
X104400Y-58700D01*
X99900Y-58300D02*
X100300Y-58700D01*
X99100Y-58300D02*
X99900Y-58300D01*
X99100Y-59600D02*
X99100Y-58300D01*
X99000Y-59700D02*
X99100Y-59600D01*
X102066Y-60066D02*
X105164Y-60066D01*
X102000Y-60000D02*
X102066Y-60066D01*
X100000Y-60000D02*
X102000Y-60000D01*
X100000Y-59700D02*
X100000Y-60000D01*
X99500Y-59200D02*
X100000Y-59700D01*
X104533Y-59633D02*
X105164Y-59633D01*
X103900Y-59000D02*
X104533Y-59633D01*
X100000Y-59000D02*
X103900Y-59000D01*
X99700Y-58700D02*
X100000Y-59000D01*
X107100Y-57900D02*
X107099Y-57901D01*
X105164Y-57901D02*
X107099Y-57901D01*
G54D33*
X76764Y-53664D02*
X76083Y-53664D01*
X76900Y-53800D02*
X76764Y-53664D01*
X76900Y-55400D02*
X76900Y-53800D01*
X77800Y-56300D02*
X76900Y-55400D01*
X79500Y-56300D02*
X77800Y-56300D01*
X92800Y-69600D02*
X79500Y-56300D01*
X75079Y-54136D02*
X75611Y-54136D01*
X75611Y-54136D02*
X76083Y-53664D01*
G54D32*
X71004Y-55514D02*
X71586Y-55514D01*
X91800Y-69300D02*
X84200Y-61700D01*
X79800Y-57300D02*
X84200Y-61700D01*
X75600Y-57300D02*
X79800Y-57300D01*
X72900Y-54600D02*
X75600Y-57300D01*
X72500Y-54600D02*
X72900Y-54600D01*
X71586Y-55514D02*
X72500Y-54600D01*
X71004Y-57104D02*
X71004Y-56518D01*
X71800Y-57900D02*
X71004Y-57104D01*
X75400Y-57900D02*
X71800Y-57900D01*
X75800Y-58300D02*
X75400Y-57900D01*
X80200Y-58300D02*
X75800Y-58300D01*
X91600Y-69700D02*
X80200Y-58300D01*
X91900Y-69700D02*
X91600Y-69700D01*
X92300Y-70100D02*
X91900Y-69700D01*
X104532Y-57468D02*
X105164Y-57468D01*
X104100Y-57900D02*
X104532Y-57468D01*
X99100Y-57900D02*
X104100Y-57900D01*
X98700Y-58300D02*
X99100Y-57900D01*
X98700Y-59200D02*
X98700Y-58300D01*
X98300Y-59600D02*
X98700Y-59200D01*
X73852Y-53152D02*
X75079Y-53152D01*
X73500Y-52800D02*
X73852Y-53152D01*
X73500Y-52300D02*
X73500Y-52800D01*
X75400Y-50400D02*
X73500Y-52300D01*
X78700Y-50400D02*
X75400Y-50400D01*
X78800Y-50500D02*
X78700Y-50400D01*
X78800Y-52400D02*
X78800Y-50500D01*
X81100Y-54700D02*
X78800Y-52400D01*
X84153Y-54700D02*
X81100Y-54700D01*
X84200Y-54746D02*
X84153Y-54700D01*
X84200Y-59000D02*
X84200Y-54746D01*
X84800Y-59600D02*
X84200Y-59000D01*
X85300Y-59600D02*
X84800Y-59600D01*
X95000Y-69300D02*
X85300Y-59600D01*
X81500Y-55000D02*
X81200Y-55300D01*
X83700Y-55000D02*
X82400Y-55000D01*
X83900Y-55200D02*
X83700Y-55000D01*
X83900Y-59100D02*
X83900Y-55200D01*
X84700Y-59900D02*
X83900Y-59100D01*
X85200Y-59900D02*
X84700Y-59900D01*
X94382Y-69082D02*
X85200Y-59900D01*
X94382Y-69482D02*
X94382Y-69082D01*
X94500Y-69600D02*
X94382Y-69482D01*
X82400Y-55000D02*
X81500Y-55000D01*
X78400Y-53900D02*
X77800Y-53900D01*
X80200Y-55700D02*
X78400Y-53900D01*
X75079Y-52168D02*
X75079Y-51821D01*
X93900Y-69100D02*
X93900Y-69800D01*
X85100Y-60300D02*
X93900Y-69100D01*
X84300Y-60300D02*
X85100Y-60300D01*
X81400Y-57400D02*
X84300Y-60300D01*
X81400Y-56300D02*
X81400Y-57400D01*
X77800Y-52700D02*
X81400Y-56300D01*
X77800Y-51500D02*
X77800Y-52700D01*
X77400Y-51100D02*
X77800Y-51500D01*
X75800Y-51100D02*
X77400Y-51100D01*
X75079Y-51821D02*
X75800Y-51100D01*
X76083Y-52640D02*
X76540Y-52640D01*
X93500Y-69200D02*
X93500Y-69400D01*
X84900Y-60600D02*
X93500Y-69200D01*
X84200Y-60600D02*
X84900Y-60600D01*
X78900Y-55300D02*
X84200Y-60600D01*
X77600Y-55300D02*
X78900Y-55300D01*
X77400Y-55100D02*
X77600Y-55300D01*
X77400Y-53500D02*
X77400Y-55100D01*
X76540Y-52640D02*
X77400Y-53500D01*
G54D35*
X92700Y-52700D02*
X91900Y-52700D01*
X92900Y-52900D02*
X92700Y-52700D01*
X92900Y-54500D02*
X92900Y-52900D01*
X93400Y-55000D02*
X92900Y-54500D01*
G54D33*
X83600Y-62700D02*
X83700Y-62600D01*
X83600Y-67400D02*
X83600Y-62700D01*
X80300Y-70700D02*
X83600Y-67400D01*
X90100Y-57700D02*
X88100Y-59700D01*
X90100Y-53600D02*
X90100Y-57700D01*
X92500Y-51200D02*
X90100Y-53600D01*
X98000Y-51200D02*
X92500Y-51200D01*
X99800Y-53400D02*
X98000Y-51200D01*
X95700Y-67300D02*
X95700Y-69200D01*
X86300Y-57900D02*
X88100Y-59700D01*
X88100Y-59700D02*
X95700Y-67300D01*
G54D35*
X70900Y-68700D02*
X72900Y-68700D01*
X75300Y-68300D02*
X73500Y-68000D01*
X75600Y-68600D02*
X75300Y-68300D01*
X75600Y-69500D02*
X75600Y-68600D01*
X75500Y-69600D02*
X75600Y-69500D01*
X74300Y-75700D02*
X75600Y-75700D01*
X71700Y-77000D02*
X74400Y-77000D01*
X71500Y-76800D02*
X71700Y-77000D01*
X72500Y-76600D02*
X76000Y-76600D01*
X71400Y-75500D02*
X72500Y-76600D01*
G54D34*
X109400Y-65700D02*
X109400Y-64500D01*
X108100Y-67299D02*
X109400Y-65700D01*
X106900Y-67299D02*
X108100Y-67299D01*
X106700Y-66800D02*
X106900Y-67299D01*
G54D35*
X72800Y-60000D02*
X72800Y-60700D01*
X71385Y-63915D02*
X71279Y-63915D01*
X72100Y-63200D02*
X71385Y-63915D01*
X72100Y-61400D02*
X72100Y-63200D01*
X72800Y-60700D02*
X72100Y-61400D01*
X71279Y-65685D02*
X71279Y-65621D01*
X71279Y-65621D02*
X72100Y-64800D01*
G54D33*
X72700Y-77400D02*
X71300Y-77400D01*
G54D36*
X77800Y-74700D02*
X78200Y-74700D01*
X77000Y-75500D02*
X77800Y-74700D01*
X77000Y-76200D02*
X77000Y-75500D01*
X75800Y-77400D02*
X77000Y-76200D01*
X72700Y-77400D02*
X75800Y-77400D01*
G54D33*
X71300Y-77400D02*
X70700Y-76800D01*
G54D37*
X108900Y-67000D02*
X109300Y-67000D01*
X108100Y-67800D02*
X108900Y-67000D01*
G54D36*
X107566Y-58334D02*
X105164Y-58334D01*
X107600Y-58300D02*
X107566Y-58334D01*
X73700Y-63500D02*
X72900Y-63500D01*
X72900Y-63500D02*
X72500Y-63100D01*
X74200Y-66800D02*
X74000Y-66800D01*
X73700Y-66500D02*
X73700Y-63500D01*
X74000Y-66800D02*
X73700Y-66500D01*
X76100Y-67000D02*
X76700Y-67000D01*
X75700Y-66600D02*
X76100Y-67000D01*
X74800Y-66600D02*
X75700Y-66600D01*
X74600Y-66800D02*
X74800Y-66600D01*
X74200Y-66800D02*
X74600Y-66800D01*
G54D10*
G36*
X70314Y-79120D02*
X70129Y-79120D01*
X70129Y-78925D01*
X70136Y-78942D01*
X70314Y-79120D01*
X70314Y-79120D01*
G37*
G54D38*
X70314Y-79120D02*
X70129Y-79120D01*
X70129Y-78925D01*
X70136Y-78942D01*
X70314Y-79120D01*
G54D10*
G36*
X72814Y-61195D02*
X72687Y-61322D01*
X72505Y-61761D01*
X72504Y-62236D01*
X72686Y-62676D01*
X72716Y-62705D01*
X72589Y-62653D01*
X72428Y-62653D01*
X72428Y-61536D01*
X72769Y-61194D01*
X72814Y-61195D01*
X72814Y-61195D01*
G37*
G54D38*
X72814Y-61195D02*
X72687Y-61322D01*
X72505Y-61761D01*
X72504Y-62236D01*
X72686Y-62676D01*
X72716Y-62705D01*
X72589Y-62653D01*
X72428Y-62653D01*
X72428Y-61536D01*
X72769Y-61194D01*
X72814Y-61195D01*
G54D10*
G36*
X73329Y-57581D02*
X71932Y-57581D01*
X71396Y-57045D01*
X71554Y-56886D01*
X71653Y-56647D01*
X71654Y-56389D01*
X71555Y-56150D01*
X71421Y-56015D01*
X71554Y-55882D01*
X71575Y-55832D01*
X71586Y-55832D01*
X71586Y-55832D01*
X71698Y-55810D01*
X71639Y-55952D01*
X71639Y-56333D01*
X71784Y-56686D01*
X72054Y-56956D01*
X72406Y-57102D01*
X72787Y-57102D01*
X73009Y-57010D01*
X73009Y-57099D01*
X73123Y-57375D01*
X73329Y-57581D01*
X73329Y-57581D01*
G37*
G54D38*
X73329Y-57581D02*
X71932Y-57581D01*
X71396Y-57045D01*
X71554Y-56886D01*
X71653Y-56647D01*
X71654Y-56389D01*
X71555Y-56150D01*
X71421Y-56015D01*
X71554Y-55882D01*
X71575Y-55832D01*
X71586Y-55832D01*
X71586Y-55832D01*
X71698Y-55810D01*
X71639Y-55952D01*
X71639Y-56333D01*
X71784Y-56686D01*
X72054Y-56956D01*
X72406Y-57102D01*
X72787Y-57102D01*
X73009Y-57010D01*
X73009Y-57099D01*
X73123Y-57375D01*
X73329Y-57581D01*
G54D10*
G36*
X73357Y-63151D02*
X73044Y-63151D01*
X72946Y-63054D01*
X72946Y-63011D01*
X72894Y-62884D01*
X73022Y-63012D01*
X73357Y-63151D01*
X73357Y-63151D01*
G37*
G54D38*
X73357Y-63151D02*
X73044Y-63151D01*
X72946Y-63054D01*
X72946Y-63011D01*
X72894Y-62884D01*
X73022Y-63012D01*
X73357Y-63151D01*
G54D10*
G36*
X73711Y-51637D02*
X73537Y-51811D01*
X73537Y-51607D01*
X73610Y-51637D01*
X73711Y-51637D01*
X73711Y-51637D01*
G37*
G54D38*
X73711Y-51637D02*
X73537Y-51811D01*
X73537Y-51607D01*
X73610Y-51637D01*
X73711Y-51637D01*
G54D10*
G36*
X74149Y-56300D02*
X73909Y-56201D01*
X73611Y-56200D01*
X73556Y-56223D01*
X73556Y-55954D01*
X73411Y-55601D01*
X73141Y-55331D01*
X72789Y-55185D01*
X72408Y-55185D01*
X72335Y-55215D01*
X72632Y-54918D01*
X72767Y-54918D01*
X74149Y-56300D01*
X74149Y-56300D01*
G37*
G54D38*
X74149Y-56300D02*
X73909Y-56201D01*
X73611Y-56200D01*
X73556Y-56223D01*
X73556Y-55954D01*
X73411Y-55601D01*
X73141Y-55331D01*
X72789Y-55185D01*
X72408Y-55185D01*
X72335Y-55215D01*
X72632Y-54918D01*
X72767Y-54918D01*
X74149Y-56300D01*
G54D10*
G36*
X74584Y-52727D02*
X74528Y-52783D01*
X74507Y-52833D01*
X73984Y-52833D01*
X73818Y-52667D01*
X73818Y-52432D01*
X74479Y-51771D01*
X74478Y-51867D01*
X74478Y-52567D01*
X74516Y-52659D01*
X74584Y-52727D01*
X74584Y-52727D01*
G37*
G54D38*
X74584Y-52727D02*
X74528Y-52783D01*
X74507Y-52833D01*
X73984Y-52833D01*
X73818Y-52667D01*
X73818Y-52432D01*
X74479Y-51771D01*
X74478Y-51867D01*
X74478Y-52567D01*
X74516Y-52659D01*
X74584Y-52727D01*
G54D10*
G36*
X75149Y-50199D02*
X74510Y-50838D01*
X74510Y-50739D01*
X74396Y-50463D01*
X74185Y-50252D01*
X74057Y-50199D01*
X75149Y-50199D01*
X75149Y-50199D01*
G37*
G54D38*
X75149Y-50199D02*
X74510Y-50838D01*
X74510Y-50739D01*
X74396Y-50463D01*
X74185Y-50252D01*
X74057Y-50199D01*
X75149Y-50199D01*
G54D10*
G36*
X75737Y-76969D02*
X75655Y-77051D01*
X74846Y-77051D01*
X74846Y-76928D01*
X75696Y-76928D01*
X75737Y-76969D01*
X75737Y-76969D01*
G37*
G54D38*
X75737Y-76969D02*
X75655Y-77051D01*
X74846Y-77051D01*
X74846Y-76928D01*
X75696Y-76928D01*
X75737Y-76969D01*
G54D10*
G36*
X75761Y-71891D02*
X75753Y-71910D01*
X75753Y-72061D01*
X74440Y-72061D01*
X74039Y-71660D01*
X73929Y-71587D01*
X73800Y-71561D01*
X73738Y-71561D01*
X73738Y-68500D01*
X73717Y-68393D01*
X73752Y-68379D01*
X73755Y-68376D01*
X75143Y-68608D01*
X75271Y-68736D01*
X75271Y-69211D01*
X75247Y-69220D01*
X75121Y-69346D01*
X75053Y-69510D01*
X75053Y-69688D01*
X75120Y-69852D01*
X75246Y-69978D01*
X75410Y-70046D01*
X75588Y-70046D01*
X75698Y-70001D01*
X75653Y-70110D01*
X75653Y-70261D01*
X74708Y-70261D01*
X74689Y-70253D01*
X74511Y-70253D01*
X74347Y-70320D01*
X74221Y-70446D01*
X74153Y-70610D01*
X74153Y-70788D01*
X74220Y-70952D01*
X74346Y-71078D01*
X74510Y-71146D01*
X74688Y-71146D01*
X74852Y-71079D01*
X74978Y-70953D01*
X74984Y-70938D01*
X75761Y-70938D01*
X75761Y-71891D01*
X75761Y-71891D01*
G37*
G54D38*
X75761Y-71891D02*
X75753Y-71910D01*
X75753Y-72061D01*
X74440Y-72061D01*
X74039Y-71660D01*
X73929Y-71587D01*
X73800Y-71561D01*
X73738Y-71561D01*
X73738Y-68500D01*
X73717Y-68393D01*
X73752Y-68379D01*
X73755Y-68376D01*
X75143Y-68608D01*
X75271Y-68736D01*
X75271Y-69211D01*
X75247Y-69220D01*
X75121Y-69346D01*
X75053Y-69510D01*
X75053Y-69688D01*
X75120Y-69852D01*
X75246Y-69978D01*
X75410Y-70046D01*
X75588Y-70046D01*
X75698Y-70001D01*
X75653Y-70110D01*
X75653Y-70261D01*
X74708Y-70261D01*
X74689Y-70253D01*
X74511Y-70253D01*
X74347Y-70320D01*
X74221Y-70446D01*
X74153Y-70610D01*
X74153Y-70788D01*
X74220Y-70952D01*
X74346Y-71078D01*
X74510Y-71146D01*
X74688Y-71146D01*
X74852Y-71079D01*
X74978Y-70953D01*
X74984Y-70938D01*
X75761Y-70938D01*
X75761Y-71891D01*
G54D10*
G36*
X76561Y-54207D02*
X76510Y-54155D01*
X76561Y-54104D01*
X76561Y-54207D01*
X76561Y-54207D01*
G37*
G54D38*
X76561Y-54207D02*
X76510Y-54155D01*
X76561Y-54104D01*
X76561Y-54207D01*
G54D10*
G36*
X76561Y-55191D02*
X76510Y-55139D01*
X76561Y-55088D01*
X76561Y-55191D01*
X76561Y-55191D01*
G37*
G54D38*
X76561Y-55191D02*
X76510Y-55139D01*
X76561Y-55088D01*
X76561Y-55191D01*
G54D10*
G36*
X76651Y-76055D02*
X76396Y-76311D01*
X76446Y-76189D01*
X76446Y-76032D01*
X76651Y-75716D01*
X76651Y-76055D01*
X76651Y-76055D01*
G37*
G54D38*
X76651Y-76055D02*
X76396Y-76311D01*
X76446Y-76189D01*
X76446Y-76032D01*
X76651Y-75716D01*
X76651Y-76055D01*
G54D10*
G36*
X76777Y-53328D02*
X76764Y-53325D01*
X76646Y-53325D01*
X76634Y-53296D01*
X76490Y-53151D01*
X76545Y-53096D01*
X76777Y-53328D01*
X76777Y-53328D01*
G37*
G54D38*
X76777Y-53328D02*
X76764Y-53325D01*
X76646Y-53325D01*
X76634Y-53296D01*
X76490Y-53151D01*
X76545Y-53096D01*
X76777Y-53328D01*
G54D10*
G36*
X77606Y-55618D02*
X77604Y-55625D01*
X77597Y-55618D01*
X77600Y-55618D01*
X77606Y-55618D01*
X77606Y-55618D01*
G37*
G54D38*
X77606Y-55618D02*
X77604Y-55625D01*
X77597Y-55618D01*
X77600Y-55618D01*
X77606Y-55618D01*
G54D10*
G36*
X77606Y-57981D02*
X75932Y-57981D01*
X75625Y-57674D01*
X75522Y-57605D01*
X75400Y-57581D01*
X74190Y-57581D01*
X74395Y-57376D01*
X74509Y-57100D01*
X74510Y-56802D01*
X74410Y-56561D01*
X75374Y-57525D01*
X75374Y-57525D01*
X75426Y-57560D01*
X75477Y-57594D01*
X75477Y-57594D01*
X75600Y-57618D01*
X77606Y-57618D01*
X77575Y-57695D01*
X77574Y-57903D01*
X77606Y-57981D01*
X77606Y-57981D01*
G37*
G54D38*
X77606Y-57981D02*
X75932Y-57981D01*
X75625Y-57674D01*
X75522Y-57605D01*
X75400Y-57581D01*
X74190Y-57581D01*
X74395Y-57376D01*
X74509Y-57100D01*
X74510Y-56802D01*
X74410Y-56561D01*
X75374Y-57525D01*
X75374Y-57525D01*
X75426Y-57560D01*
X75477Y-57594D01*
X75477Y-57594D01*
X75600Y-57618D01*
X77606Y-57618D01*
X77575Y-57695D01*
X77574Y-57903D01*
X77606Y-57981D01*
G54D10*
G36*
X78230Y-53581D02*
X78113Y-53581D01*
X78053Y-53521D01*
X77889Y-53453D01*
X77711Y-53453D01*
X77709Y-53453D01*
X77694Y-53377D01*
X77694Y-53377D01*
X77660Y-53326D01*
X77625Y-53274D01*
X77625Y-53274D01*
X76765Y-52414D01*
X76665Y-52347D01*
X76665Y-52347D01*
X76634Y-52272D01*
X76451Y-52089D01*
X76212Y-51990D01*
X75954Y-51989D01*
X75715Y-52088D01*
X75679Y-52124D01*
X75679Y-51768D01*
X75650Y-51700D01*
X75932Y-51418D01*
X76938Y-51418D01*
X76855Y-51502D01*
X76775Y-51695D01*
X76774Y-51903D01*
X76854Y-52097D01*
X77002Y-52244D01*
X77195Y-52324D01*
X77403Y-52325D01*
X77481Y-52293D01*
X77481Y-52700D01*
X77505Y-52822D01*
X77574Y-52925D01*
X78230Y-53581D01*
X78230Y-53581D01*
G37*
G54D38*
X78230Y-53581D02*
X78113Y-53581D01*
X78053Y-53521D01*
X77889Y-53453D01*
X77711Y-53453D01*
X77709Y-53453D01*
X77694Y-53377D01*
X77694Y-53377D01*
X77660Y-53326D01*
X77625Y-53274D01*
X77625Y-53274D01*
X76765Y-52414D01*
X76665Y-52347D01*
X76665Y-52347D01*
X76634Y-52272D01*
X76451Y-52089D01*
X76212Y-51990D01*
X75954Y-51989D01*
X75715Y-52088D01*
X75679Y-52124D01*
X75679Y-51768D01*
X75650Y-51700D01*
X75932Y-51418D01*
X76938Y-51418D01*
X76855Y-51502D01*
X76775Y-51695D01*
X76774Y-51903D01*
X76854Y-52097D01*
X77002Y-52244D01*
X77195Y-52324D01*
X77403Y-52325D01*
X77481Y-52293D01*
X77481Y-52700D01*
X77505Y-52822D01*
X77574Y-52925D01*
X78230Y-53581D01*
G54D10*
G36*
X78323Y-54274D02*
X78056Y-54274D01*
X78113Y-54218D01*
X78267Y-54218D01*
X78323Y-54274D01*
X78323Y-54274D01*
G37*
G54D38*
X78323Y-54274D02*
X78056Y-54274D01*
X78113Y-54218D01*
X78267Y-54218D01*
X78323Y-54274D01*
G54D10*
G36*
X78481Y-51306D02*
X78404Y-51275D01*
X78196Y-51274D01*
X78062Y-51330D01*
X78025Y-51274D01*
X78025Y-51274D01*
X77625Y-50874D01*
X77522Y-50805D01*
X77400Y-50781D01*
X75800Y-50781D01*
X75677Y-50805D01*
X75574Y-50874D01*
X74881Y-51567D01*
X74683Y-51567D01*
X75532Y-50718D01*
X78481Y-50718D01*
X78481Y-51306D01*
X78481Y-51306D01*
G37*
G54D38*
X78481Y-51306D02*
X78404Y-51275D01*
X78196Y-51274D01*
X78062Y-51330D01*
X78025Y-51274D01*
X78025Y-51274D01*
X77625Y-50874D01*
X77522Y-50805D01*
X77400Y-50781D01*
X75800Y-50781D01*
X75677Y-50805D01*
X75574Y-50874D01*
X74881Y-51567D01*
X74683Y-51567D01*
X75532Y-50718D01*
X78481Y-50718D01*
X78481Y-51306D01*
G54D10*
G36*
X79110Y-55961D02*
X78601Y-55961D01*
X78624Y-55904D01*
X78625Y-55696D01*
X78593Y-55618D01*
X78767Y-55618D01*
X79110Y-55961D01*
X79110Y-55961D01*
G37*
G54D38*
X79110Y-55961D02*
X78601Y-55961D01*
X78624Y-55904D01*
X78625Y-55696D01*
X78593Y-55618D01*
X78767Y-55618D01*
X79110Y-55961D01*
G54D10*
G36*
X79119Y-55070D02*
X79022Y-55005D01*
X78900Y-54981D01*
X78625Y-54981D01*
X78625Y-54576D01*
X79119Y-55070D01*
X79119Y-55070D01*
G37*
G54D38*
X79119Y-55070D02*
X79022Y-55005D01*
X78900Y-54981D01*
X78625Y-54981D01*
X78625Y-54576D01*
X79119Y-55070D01*
G54D10*
G36*
X79702Y-56981D02*
X78593Y-56981D01*
X78624Y-56904D01*
X78625Y-56696D01*
X78601Y-56638D01*
X79359Y-56638D01*
X79702Y-56981D01*
X79702Y-56981D01*
G37*
G54D38*
X79702Y-56981D02*
X78593Y-56981D01*
X78624Y-56904D01*
X78625Y-56696D01*
X78601Y-56638D01*
X79359Y-56638D01*
X79702Y-56981D01*
G54D10*
G36*
X80030Y-57981D02*
X78593Y-57981D01*
X78624Y-57904D01*
X78625Y-57696D01*
X78593Y-57618D01*
X79667Y-57618D01*
X80030Y-57981D01*
X80030Y-57981D01*
G37*
G54D38*
X80030Y-57981D02*
X78593Y-57981D01*
X78624Y-57904D01*
X78625Y-57696D01*
X78593Y-57618D01*
X79667Y-57618D01*
X80030Y-57981D01*
G54D10*
G36*
X80915Y-54952D02*
X80821Y-55046D01*
X80755Y-55204D01*
X78118Y-52567D01*
X78118Y-52293D01*
X78195Y-52324D01*
X78403Y-52325D01*
X78481Y-52293D01*
X78481Y-52400D01*
X78505Y-52522D01*
X78574Y-52625D01*
X80874Y-54925D01*
X80874Y-54925D01*
X80915Y-54952D01*
X80915Y-54952D01*
G37*
G54D38*
X80915Y-54952D02*
X80821Y-55046D01*
X80755Y-55204D01*
X78118Y-52567D01*
X78118Y-52293D01*
X78195Y-52324D01*
X78403Y-52325D01*
X78481Y-52293D01*
X78481Y-52400D01*
X78505Y-52522D01*
X78574Y-52625D01*
X80874Y-54925D01*
X80874Y-54925D01*
X80915Y-54952D01*
G54D10*
G36*
X81081Y-57030D02*
X80197Y-56146D01*
X80288Y-56146D01*
X80452Y-56079D01*
X80578Y-55953D01*
X80585Y-55936D01*
X81081Y-56432D01*
X81081Y-57030D01*
X81081Y-57030D01*
G37*
G54D38*
X81081Y-57030D02*
X80197Y-56146D01*
X80288Y-56146D01*
X80452Y-56079D01*
X80578Y-55953D01*
X80585Y-55936D01*
X81081Y-56432D01*
X81081Y-57030D01*
G54D10*
G36*
X82306Y-54071D02*
X81336Y-54071D01*
X79628Y-52363D01*
X79628Y-52213D01*
X79744Y-52097D01*
X79800Y-51964D01*
X79854Y-52097D01*
X80002Y-52244D01*
X80195Y-52324D01*
X80403Y-52325D01*
X80514Y-52279D01*
X82306Y-54071D01*
X82306Y-54071D01*
G37*
G54D38*
X82306Y-54071D02*
X81336Y-54071D01*
X79628Y-52363D01*
X79628Y-52213D01*
X79744Y-52097D01*
X79800Y-51964D01*
X79854Y-52097D01*
X80002Y-52244D01*
X80195Y-52324D01*
X80403Y-52325D01*
X80514Y-52279D01*
X82306Y-54071D01*
G54D10*
G36*
X83306Y-53371D02*
X83036Y-53371D01*
X81750Y-52085D01*
X81800Y-51964D01*
X81854Y-52097D01*
X82002Y-52244D01*
X82195Y-52324D01*
X82260Y-52324D01*
X83306Y-53371D01*
X83306Y-53371D01*
G37*
G54D38*
X83306Y-53371D02*
X83036Y-53371D01*
X81750Y-52085D01*
X81800Y-51964D01*
X81854Y-52097D01*
X82002Y-52244D01*
X82195Y-52324D01*
X82260Y-52324D01*
X83306Y-53371D01*
G54D10*
G36*
X83581Y-55448D02*
X83555Y-55422D01*
X83463Y-55384D01*
X83363Y-55384D01*
X81789Y-55384D01*
X81697Y-55422D01*
X81626Y-55492D01*
X81588Y-55584D01*
X81588Y-55684D01*
X81588Y-56037D01*
X81295Y-55744D01*
X81452Y-55679D01*
X81578Y-55553D01*
X81646Y-55389D01*
X81646Y-55318D01*
X82400Y-55318D01*
X83567Y-55318D01*
X83581Y-55332D01*
X83581Y-55448D01*
X83581Y-55448D01*
G37*
G54D38*
X83581Y-55448D02*
X83555Y-55422D01*
X83463Y-55384D01*
X83363Y-55384D01*
X81789Y-55384D01*
X81697Y-55422D01*
X81626Y-55492D01*
X81588Y-55584D01*
X81588Y-55684D01*
X81588Y-56037D01*
X81295Y-55744D01*
X81452Y-55679D01*
X81578Y-55553D01*
X81646Y-55389D01*
X81646Y-55318D01*
X82400Y-55318D01*
X83567Y-55318D01*
X83581Y-55332D01*
X83581Y-55448D01*
G54D10*
G36*
X83588Y-59137D02*
X81910Y-57459D01*
X83462Y-57459D01*
X83554Y-57421D01*
X83581Y-57395D01*
X83581Y-59100D01*
X83588Y-59137D01*
X83588Y-59137D01*
G37*
G54D38*
X83588Y-59137D02*
X81910Y-57459D01*
X83462Y-57459D01*
X83554Y-57421D01*
X83581Y-57395D01*
X83581Y-59100D01*
X83588Y-59137D01*
G54D10*
G36*
X83604Y-62155D02*
X83447Y-62220D01*
X83321Y-62346D01*
X83253Y-62510D01*
X83253Y-62688D01*
X83261Y-62708D01*
X83261Y-67259D01*
X80268Y-70253D01*
X80211Y-70253D01*
X80047Y-70320D01*
X79921Y-70446D01*
X79853Y-70610D01*
X79853Y-70788D01*
X79920Y-70952D01*
X80046Y-71078D01*
X80210Y-71146D01*
X80388Y-71146D01*
X80552Y-71079D01*
X80678Y-70953D01*
X80746Y-70789D01*
X80746Y-70732D01*
X81584Y-69894D01*
X81584Y-71261D01*
X79200Y-71261D01*
X78492Y-71261D01*
X78546Y-71206D01*
X78584Y-71114D01*
X78585Y-71015D01*
X78585Y-70465D01*
X78547Y-70373D01*
X78476Y-70303D01*
X78384Y-70265D01*
X78285Y-70264D01*
X78285Y-70264D01*
X78357Y-70235D01*
X78504Y-70087D01*
X78584Y-69894D01*
X78585Y-69686D01*
X78505Y-69493D01*
X78357Y-69345D01*
X78224Y-69289D01*
X78357Y-69235D01*
X78504Y-69087D01*
X78584Y-68894D01*
X78585Y-68686D01*
X78505Y-68493D01*
X78357Y-68345D01*
X78224Y-68289D01*
X78357Y-68235D01*
X78504Y-68087D01*
X78584Y-67894D01*
X78585Y-67686D01*
X78505Y-67493D01*
X78357Y-67345D01*
X78224Y-67289D01*
X78357Y-67235D01*
X78504Y-67087D01*
X78584Y-66894D01*
X78585Y-66686D01*
X78505Y-66493D01*
X78357Y-66345D01*
X78224Y-66289D01*
X78357Y-66235D01*
X78504Y-66087D01*
X78584Y-65894D01*
X78585Y-65686D01*
X78505Y-65493D01*
X78357Y-65345D01*
X78224Y-65289D01*
X78357Y-65235D01*
X78504Y-65087D01*
X78584Y-64894D01*
X78585Y-64686D01*
X78505Y-64493D01*
X78357Y-64345D01*
X78224Y-64289D01*
X78357Y-64235D01*
X78504Y-64087D01*
X78584Y-63894D01*
X78585Y-63686D01*
X78505Y-63493D01*
X78357Y-63345D01*
X78224Y-63289D01*
X78357Y-63235D01*
X78504Y-63087D01*
X78584Y-62894D01*
X78585Y-62686D01*
X78505Y-62493D01*
X78357Y-62345D01*
X78256Y-62303D01*
X78397Y-62245D01*
X78544Y-62097D01*
X78624Y-61904D01*
X78625Y-61696D01*
X78545Y-61503D01*
X78397Y-61355D01*
X78264Y-61299D01*
X78397Y-61245D01*
X78544Y-61097D01*
X78624Y-60904D01*
X78625Y-60696D01*
X78545Y-60503D01*
X78397Y-60355D01*
X78264Y-60299D01*
X78397Y-60245D01*
X78544Y-60097D01*
X78624Y-59904D01*
X78625Y-59696D01*
X78545Y-59503D01*
X78397Y-59355D01*
X78264Y-59299D01*
X78397Y-59245D01*
X78544Y-59097D01*
X78624Y-58904D01*
X78625Y-58696D01*
X78593Y-58618D01*
X80067Y-58618D01*
X83604Y-62155D01*
X83604Y-62155D01*
G37*
G54D38*
X83604Y-62155D02*
X83447Y-62220D01*
X83321Y-62346D01*
X83253Y-62510D01*
X83253Y-62688D01*
X83261Y-62708D01*
X83261Y-67259D01*
X80268Y-70253D01*
X80211Y-70253D01*
X80047Y-70320D01*
X79921Y-70446D01*
X79853Y-70610D01*
X79853Y-70788D01*
X79920Y-70952D01*
X80046Y-71078D01*
X80210Y-71146D01*
X80388Y-71146D01*
X80552Y-71079D01*
X80678Y-70953D01*
X80746Y-70789D01*
X80746Y-70732D01*
X81584Y-69894D01*
X81584Y-71261D01*
X79200Y-71261D01*
X78492Y-71261D01*
X78546Y-71206D01*
X78584Y-71114D01*
X78585Y-71015D01*
X78585Y-70465D01*
X78547Y-70373D01*
X78476Y-70303D01*
X78384Y-70265D01*
X78285Y-70264D01*
X78285Y-70264D01*
X78357Y-70235D01*
X78504Y-70087D01*
X78584Y-69894D01*
X78585Y-69686D01*
X78505Y-69493D01*
X78357Y-69345D01*
X78224Y-69289D01*
X78357Y-69235D01*
X78504Y-69087D01*
X78584Y-68894D01*
X78585Y-68686D01*
X78505Y-68493D01*
X78357Y-68345D01*
X78224Y-68289D01*
X78357Y-68235D01*
X78504Y-68087D01*
X78584Y-67894D01*
X78585Y-67686D01*
X78505Y-67493D01*
X78357Y-67345D01*
X78224Y-67289D01*
X78357Y-67235D01*
X78504Y-67087D01*
X78584Y-66894D01*
X78585Y-66686D01*
X78505Y-66493D01*
X78357Y-66345D01*
X78224Y-66289D01*
X78357Y-66235D01*
X78504Y-66087D01*
X78584Y-65894D01*
X78585Y-65686D01*
X78505Y-65493D01*
X78357Y-65345D01*
X78224Y-65289D01*
X78357Y-65235D01*
X78504Y-65087D01*
X78584Y-64894D01*
X78585Y-64686D01*
X78505Y-64493D01*
X78357Y-64345D01*
X78224Y-64289D01*
X78357Y-64235D01*
X78504Y-64087D01*
X78584Y-63894D01*
X78585Y-63686D01*
X78505Y-63493D01*
X78357Y-63345D01*
X78224Y-63289D01*
X78357Y-63235D01*
X78504Y-63087D01*
X78584Y-62894D01*
X78585Y-62686D01*
X78505Y-62493D01*
X78357Y-62345D01*
X78256Y-62303D01*
X78397Y-62245D01*
X78544Y-62097D01*
X78624Y-61904D01*
X78625Y-61696D01*
X78545Y-61503D01*
X78397Y-61355D01*
X78264Y-61299D01*
X78397Y-61245D01*
X78544Y-61097D01*
X78624Y-60904D01*
X78625Y-60696D01*
X78545Y-60503D01*
X78397Y-60355D01*
X78264Y-60299D01*
X78397Y-60245D01*
X78544Y-60097D01*
X78624Y-59904D01*
X78625Y-59696D01*
X78545Y-59503D01*
X78397Y-59355D01*
X78264Y-59299D01*
X78397Y-59245D01*
X78544Y-59097D01*
X78624Y-58904D01*
X78625Y-58696D01*
X78593Y-58618D01*
X80067Y-58618D01*
X83604Y-62155D01*
G54D10*
G36*
X84406Y-52771D02*
X84336Y-52771D01*
X83703Y-52138D01*
X83744Y-52097D01*
X83774Y-52025D01*
X83774Y-52124D01*
X83812Y-52216D01*
X83883Y-52286D01*
X83975Y-52324D01*
X83996Y-52324D01*
X83996Y-52325D01*
X84067Y-52432D01*
X84406Y-52771D01*
X84406Y-52771D01*
G37*
G54D38*
X84406Y-52771D02*
X84336Y-52771D01*
X83703Y-52138D01*
X83744Y-52097D01*
X83774Y-52025D01*
X83774Y-52124D01*
X83812Y-52216D01*
X83883Y-52286D01*
X83975Y-52324D01*
X83996Y-52324D01*
X83996Y-52325D01*
X84067Y-52432D01*
X84406Y-52771D01*
G54D10*
G36*
X89085Y-58236D02*
X88100Y-59221D01*
X86746Y-57868D01*
X86746Y-57811D01*
X86679Y-57647D01*
X86553Y-57521D01*
X86389Y-57453D01*
X86211Y-57453D01*
X86128Y-57487D01*
X86128Y-55212D01*
X86210Y-55246D01*
X86388Y-55246D01*
X86552Y-55179D01*
X86678Y-55053D01*
X86746Y-54889D01*
X86746Y-54711D01*
X86679Y-54547D01*
X86553Y-54421D01*
X86389Y-54353D01*
X86318Y-54353D01*
X85649Y-53684D01*
X87519Y-53684D01*
X87571Y-53736D01*
X87571Y-57000D01*
X87596Y-57125D01*
X87667Y-57232D01*
X87853Y-57418D01*
X87853Y-57488D01*
X87920Y-57652D01*
X88046Y-57778D01*
X88210Y-57846D01*
X88388Y-57846D01*
X88552Y-57779D01*
X88640Y-57691D01*
X88667Y-57732D01*
X88753Y-57818D01*
X88753Y-57888D01*
X88820Y-58052D01*
X88946Y-58178D01*
X89085Y-58236D01*
X89085Y-58236D01*
G37*
G54D38*
X89085Y-58236D02*
X88100Y-59221D01*
X86746Y-57868D01*
X86746Y-57811D01*
X86679Y-57647D01*
X86553Y-57521D01*
X86389Y-57453D01*
X86211Y-57453D01*
X86128Y-57487D01*
X86128Y-55212D01*
X86210Y-55246D01*
X86388Y-55246D01*
X86552Y-55179D01*
X86678Y-55053D01*
X86746Y-54889D01*
X86746Y-54711D01*
X86679Y-54547D01*
X86553Y-54421D01*
X86389Y-54353D01*
X86318Y-54353D01*
X85649Y-53684D01*
X87519Y-53684D01*
X87571Y-53736D01*
X87571Y-57000D01*
X87596Y-57125D01*
X87667Y-57232D01*
X87853Y-57418D01*
X87853Y-57488D01*
X87920Y-57652D01*
X88046Y-57778D01*
X88210Y-57846D01*
X88388Y-57846D01*
X88552Y-57779D01*
X88640Y-57691D01*
X88667Y-57732D01*
X88753Y-57818D01*
X88753Y-57888D01*
X88820Y-58052D01*
X88946Y-58178D01*
X89085Y-58236D01*
G54D10*
G36*
X91281Y-61231D02*
X91218Y-61168D01*
X91218Y-59232D01*
X91281Y-59169D01*
X91281Y-61231D01*
X91281Y-61231D01*
G37*
G54D38*
X91281Y-61231D02*
X91218Y-61168D01*
X91218Y-59232D01*
X91281Y-59169D01*
X91281Y-61231D01*
G54D10*
G36*
X92081Y-61430D02*
X91918Y-61267D01*
X91918Y-58393D01*
X91952Y-58379D01*
X92078Y-58253D01*
X92081Y-58247D01*
X92081Y-61430D01*
X92081Y-61430D01*
G37*
G54D38*
X92081Y-61430D02*
X91918Y-61267D01*
X91918Y-58393D01*
X91952Y-58379D01*
X92078Y-58253D01*
X92081Y-58247D01*
X92081Y-61430D01*
G54D10*
G36*
X92353Y-69631D02*
X92353Y-69653D01*
X92304Y-69653D01*
X92186Y-69535D01*
X92206Y-69485D01*
X92353Y-69631D01*
X92353Y-69631D01*
G37*
G54D38*
X92353Y-69631D02*
X92353Y-69653D01*
X92304Y-69653D01*
X92186Y-69535D01*
X92206Y-69485D01*
X92353Y-69631D01*
G54D10*
G36*
X93084Y-69235D02*
X93079Y-69247D01*
X93053Y-69221D01*
X92889Y-69153D01*
X92832Y-69153D01*
X84597Y-60918D01*
X84767Y-60918D01*
X93084Y-69235D01*
X93084Y-69235D01*
G37*
G54D38*
X93084Y-69235D02*
X93079Y-69247D01*
X93053Y-69221D01*
X92889Y-69153D01*
X92832Y-69153D01*
X84597Y-60918D01*
X84767Y-60918D01*
X93084Y-69235D01*
G54D10*
G36*
X95361Y-68906D02*
X95321Y-68946D01*
X95308Y-68976D01*
X95253Y-68921D01*
X95089Y-68853D01*
X95004Y-68853D01*
X85525Y-59374D01*
X85422Y-59305D01*
X85300Y-59281D01*
X84932Y-59281D01*
X84865Y-59214D01*
X84952Y-59179D01*
X85078Y-59053D01*
X85146Y-58889D01*
X85146Y-58711D01*
X85128Y-58667D01*
X85128Y-54800D01*
X85128Y-54799D01*
X85103Y-54674D01*
X85032Y-54567D01*
X85032Y-54567D01*
X84793Y-54328D01*
X85001Y-54328D01*
X85471Y-54798D01*
X85471Y-57711D01*
X85447Y-57720D01*
X85321Y-57846D01*
X85253Y-58010D01*
X85253Y-58188D01*
X85320Y-58352D01*
X85446Y-58478D01*
X85610Y-58546D01*
X85788Y-58546D01*
X85952Y-58479D01*
X86078Y-58353D01*
X86100Y-58300D01*
X86210Y-58346D01*
X86267Y-58346D01*
X87860Y-59939D01*
X95361Y-67440D01*
X95361Y-68906D01*
X95361Y-68906D01*
G37*
G54D38*
X95361Y-68906D02*
X95321Y-68946D01*
X95308Y-68976D01*
X95253Y-68921D01*
X95089Y-68853D01*
X95004Y-68853D01*
X85525Y-59374D01*
X85422Y-59305D01*
X85300Y-59281D01*
X84932Y-59281D01*
X84865Y-59214D01*
X84952Y-59179D01*
X85078Y-59053D01*
X85146Y-58889D01*
X85146Y-58711D01*
X85128Y-58667D01*
X85128Y-54800D01*
X85128Y-54799D01*
X85103Y-54674D01*
X85032Y-54567D01*
X85032Y-54567D01*
X84793Y-54328D01*
X85001Y-54328D01*
X85471Y-54798D01*
X85471Y-57711D01*
X85447Y-57720D01*
X85321Y-57846D01*
X85253Y-58010D01*
X85253Y-58188D01*
X85320Y-58352D01*
X85446Y-58478D01*
X85610Y-58546D01*
X85788Y-58546D01*
X85952Y-58479D01*
X86078Y-58353D01*
X86100Y-58300D01*
X86210Y-58346D01*
X86267Y-58346D01*
X87860Y-59939D01*
X95361Y-67440D01*
X95361Y-68906D01*
G54D10*
G36*
X95585Y-71261D02*
X83659Y-71261D01*
X83659Y-71167D01*
X83659Y-69593D01*
X83621Y-69501D01*
X83551Y-69430D01*
X83459Y-69392D01*
X83359Y-69392D01*
X82086Y-69392D01*
X83839Y-67639D01*
X83912Y-67529D01*
X83912Y-67529D01*
X83938Y-67400D01*
X83938Y-62984D01*
X83952Y-62979D01*
X84078Y-62853D01*
X84144Y-62695D01*
X91374Y-69925D01*
X91374Y-69925D01*
X91477Y-69994D01*
X91599Y-70018D01*
X91600Y-70018D01*
X91767Y-70018D01*
X91853Y-70104D01*
X91853Y-70188D01*
X91920Y-70352D01*
X92046Y-70478D01*
X92210Y-70546D01*
X92388Y-70546D01*
X92552Y-70479D01*
X92678Y-70353D01*
X92746Y-70189D01*
X92746Y-70046D01*
X92888Y-70046D01*
X93052Y-69979D01*
X93178Y-69853D01*
X93220Y-69752D01*
X93246Y-69778D01*
X93410Y-69846D01*
X93453Y-69846D01*
X93453Y-69888D01*
X93520Y-70052D01*
X93646Y-70178D01*
X93810Y-70246D01*
X93988Y-70246D01*
X94152Y-70179D01*
X94278Y-70053D01*
X94300Y-70000D01*
X94410Y-70046D01*
X94588Y-70046D01*
X94752Y-69979D01*
X94878Y-69853D01*
X94922Y-69746D01*
X95088Y-69746D01*
X95252Y-69679D01*
X95378Y-69553D01*
X95391Y-69523D01*
X95446Y-69578D01*
X95584Y-69635D01*
X95584Y-69684D01*
X95584Y-71258D01*
X95585Y-71261D01*
X95585Y-71261D01*
G37*
G54D38*
X95585Y-71261D02*
X83659Y-71261D01*
X83659Y-71167D01*
X83659Y-69593D01*
X83621Y-69501D01*
X83551Y-69430D01*
X83459Y-69392D01*
X83359Y-69392D01*
X82086Y-69392D01*
X83839Y-67639D01*
X83912Y-67529D01*
X83912Y-67529D01*
X83938Y-67400D01*
X83938Y-62984D01*
X83952Y-62979D01*
X84078Y-62853D01*
X84144Y-62695D01*
X91374Y-69925D01*
X91374Y-69925D01*
X91477Y-69994D01*
X91599Y-70018D01*
X91600Y-70018D01*
X91767Y-70018D01*
X91853Y-70104D01*
X91853Y-70188D01*
X91920Y-70352D01*
X92046Y-70478D01*
X92210Y-70546D01*
X92388Y-70546D01*
X92552Y-70479D01*
X92678Y-70353D01*
X92746Y-70189D01*
X92746Y-70046D01*
X92888Y-70046D01*
X93052Y-69979D01*
X93178Y-69853D01*
X93220Y-69752D01*
X93246Y-69778D01*
X93410Y-69846D01*
X93453Y-69846D01*
X93453Y-69888D01*
X93520Y-70052D01*
X93646Y-70178D01*
X93810Y-70246D01*
X93988Y-70246D01*
X94152Y-70179D01*
X94278Y-70053D01*
X94300Y-70000D01*
X94410Y-70046D01*
X94588Y-70046D01*
X94752Y-69979D01*
X94878Y-69853D01*
X94922Y-69746D01*
X95088Y-69746D01*
X95252Y-69679D01*
X95378Y-69553D01*
X95391Y-69523D01*
X95446Y-69578D01*
X95584Y-69635D01*
X95584Y-69684D01*
X95584Y-71258D01*
X95585Y-71261D01*
G54D10*
G36*
X99881Y-53981D02*
X95500Y-53981D01*
X95377Y-54005D01*
X95326Y-54039D01*
X95274Y-54074D01*
X92995Y-56353D01*
X92911Y-56353D01*
X92747Y-56420D01*
X92718Y-56449D01*
X92718Y-54783D01*
X92953Y-55018D01*
X92953Y-55088D01*
X93020Y-55252D01*
X93146Y-55378D01*
X93310Y-55446D01*
X93488Y-55446D01*
X93652Y-55379D01*
X93778Y-55253D01*
X93846Y-55089D01*
X93846Y-54911D01*
X93779Y-54747D01*
X93653Y-54621D01*
X93489Y-54553D01*
X93418Y-54553D01*
X93228Y-54363D01*
X93228Y-52900D01*
X93203Y-52774D01*
X93203Y-52774D01*
X93168Y-52720D01*
X93132Y-52667D01*
X93132Y-52667D01*
X92932Y-52467D01*
X92825Y-52396D01*
X92700Y-52371D01*
X92203Y-52371D01*
X92153Y-52321D01*
X91989Y-52253D01*
X91925Y-52253D01*
X92640Y-51538D01*
X97839Y-51538D01*
X99353Y-53387D01*
X99353Y-53488D01*
X99420Y-53652D01*
X99546Y-53778D01*
X99710Y-53846D01*
X99881Y-53846D01*
X99881Y-53981D01*
X99881Y-53981D01*
G37*
G54D38*
X99881Y-53981D02*
X95500Y-53981D01*
X95377Y-54005D01*
X95326Y-54039D01*
X95274Y-54074D01*
X92995Y-56353D01*
X92911Y-56353D01*
X92747Y-56420D01*
X92718Y-56449D01*
X92718Y-54783D01*
X92953Y-55018D01*
X92953Y-55088D01*
X93020Y-55252D01*
X93146Y-55378D01*
X93310Y-55446D01*
X93488Y-55446D01*
X93652Y-55379D01*
X93778Y-55253D01*
X93846Y-55089D01*
X93846Y-54911D01*
X93779Y-54747D01*
X93653Y-54621D01*
X93489Y-54553D01*
X93418Y-54553D01*
X93228Y-54363D01*
X93228Y-52900D01*
X93203Y-52774D01*
X93203Y-52774D01*
X93168Y-52720D01*
X93132Y-52667D01*
X93132Y-52667D01*
X92932Y-52467D01*
X92825Y-52396D01*
X92700Y-52371D01*
X92203Y-52371D01*
X92153Y-52321D01*
X91989Y-52253D01*
X91925Y-52253D01*
X92640Y-51538D01*
X97839Y-51538D01*
X99353Y-53387D01*
X99353Y-53488D01*
X99420Y-53652D01*
X99546Y-53778D01*
X99710Y-53846D01*
X99881Y-53846D01*
X99881Y-53981D01*
G54D10*
G36*
X100374Y-59318D02*
X100374Y-59324D01*
X100374Y-59681D01*
X100315Y-59681D01*
X100294Y-59577D01*
X100294Y-59577D01*
X100260Y-59526D01*
X100225Y-59474D01*
X100225Y-59474D01*
X100069Y-59318D01*
X100374Y-59318D01*
X100374Y-59318D01*
G37*
G54D38*
X100374Y-59318D02*
X100374Y-59324D01*
X100374Y-59681D01*
X100315Y-59681D01*
X100294Y-59577D01*
X100294Y-59577D01*
X100260Y-59526D01*
X100225Y-59474D01*
X100225Y-59474D01*
X100069Y-59318D01*
X100374Y-59318D01*
G54D10*
G36*
X100427Y-63781D02*
X99869Y-63781D01*
X100204Y-63446D01*
X100288Y-63446D01*
X100392Y-63404D01*
X100375Y-63445D01*
X100374Y-63653D01*
X100427Y-63781D01*
X100427Y-63781D01*
G37*
G54D38*
X100427Y-63781D02*
X99869Y-63781D01*
X100204Y-63446D01*
X100288Y-63446D01*
X100392Y-63404D01*
X100375Y-63445D01*
X100374Y-63653D01*
X100427Y-63781D01*
G54D10*
G36*
X100735Y-63050D02*
X100646Y-63086D01*
X100646Y-63013D01*
X100735Y-63050D01*
X100735Y-63050D01*
G37*
G54D38*
X100735Y-63050D02*
X100646Y-63086D01*
X100646Y-63013D01*
X100735Y-63050D01*
G54D10*
G36*
X101138Y-51918D02*
X101055Y-52002D01*
X100999Y-52135D01*
X100945Y-52003D01*
X100861Y-51918D01*
X101138Y-51918D01*
X101138Y-51918D01*
G37*
G54D38*
X101138Y-51918D02*
X101055Y-52002D01*
X100999Y-52135D01*
X100945Y-52003D01*
X100861Y-51918D01*
X101138Y-51918D01*
G54D10*
G36*
X101274Y-52774D02*
X101175Y-52774D01*
X101138Y-52790D01*
X101138Y-52681D01*
X101202Y-52744D01*
X101274Y-52774D01*
X101274Y-52774D01*
G37*
G54D38*
X101274Y-52774D02*
X101175Y-52774D01*
X101138Y-52790D01*
X101138Y-52681D01*
X101202Y-52744D01*
X101274Y-52774D01*
G54D10*
G36*
X104196Y-59747D02*
X102184Y-59747D01*
X102122Y-59705D01*
X102000Y-59681D01*
X101425Y-59681D01*
X101425Y-59318D01*
X103767Y-59318D01*
X104196Y-59747D01*
X104196Y-59747D01*
G37*
G54D38*
X104196Y-59747D02*
X102184Y-59747D01*
X102122Y-59705D01*
X102000Y-59681D01*
X101425Y-59681D01*
X101425Y-59318D01*
X103767Y-59318D01*
X104196Y-59747D01*
G54D10*
G36*
X104344Y-70595D02*
X104225Y-70546D01*
X103953Y-70545D01*
X103702Y-70649D01*
X103510Y-70841D01*
X103406Y-71092D01*
X103405Y-71364D01*
X103509Y-71615D01*
X103701Y-71807D01*
X103853Y-71870D01*
X103801Y-71922D01*
X103239Y-71360D01*
X103129Y-71287D01*
X103000Y-71261D01*
X101100Y-71261D01*
X101000Y-71261D01*
X97658Y-71261D01*
X97659Y-71259D01*
X97659Y-71159D01*
X97659Y-69585D01*
X97621Y-69493D01*
X97551Y-69422D01*
X97459Y-69384D01*
X97359Y-69384D01*
X96107Y-69384D01*
X96146Y-69289D01*
X96146Y-69111D01*
X96079Y-68947D01*
X96038Y-68906D01*
X96038Y-67569D01*
X99572Y-71090D01*
X99676Y-71159D01*
X99798Y-71183D01*
X99836Y-71175D01*
X100407Y-71139D01*
X100446Y-71178D01*
X100610Y-71246D01*
X100788Y-71246D01*
X100952Y-71179D01*
X101078Y-71053D01*
X101146Y-70889D01*
X101146Y-70711D01*
X101079Y-70547D01*
X100953Y-70421D01*
X100789Y-70353D01*
X100611Y-70353D01*
X100447Y-70420D01*
X100365Y-70502D01*
X100340Y-70504D01*
X100346Y-70489D01*
X100346Y-70318D01*
X104067Y-70318D01*
X104344Y-70595D01*
X104344Y-70595D01*
G37*
G54D38*
X104344Y-70595D02*
X104225Y-70546D01*
X103953Y-70545D01*
X103702Y-70649D01*
X103510Y-70841D01*
X103406Y-71092D01*
X103405Y-71364D01*
X103509Y-71615D01*
X103701Y-71807D01*
X103853Y-71870D01*
X103801Y-71922D01*
X103239Y-71360D01*
X103129Y-71287D01*
X103000Y-71261D01*
X101100Y-71261D01*
X101000Y-71261D01*
X97658Y-71261D01*
X97659Y-71259D01*
X97659Y-71159D01*
X97659Y-69585D01*
X97621Y-69493D01*
X97551Y-69422D01*
X97459Y-69384D01*
X97359Y-69384D01*
X96107Y-69384D01*
X96146Y-69289D01*
X96146Y-69111D01*
X96079Y-68947D01*
X96038Y-68906D01*
X96038Y-67569D01*
X99572Y-71090D01*
X99676Y-71159D01*
X99798Y-71183D01*
X99836Y-71175D01*
X100407Y-71139D01*
X100446Y-71178D01*
X100610Y-71246D01*
X100788Y-71246D01*
X100952Y-71179D01*
X101078Y-71053D01*
X101146Y-70889D01*
X101146Y-70711D01*
X101079Y-70547D01*
X100953Y-70421D01*
X100789Y-70353D01*
X100611Y-70353D01*
X100447Y-70420D01*
X100365Y-70502D01*
X100340Y-70504D01*
X100346Y-70489D01*
X100346Y-70318D01*
X104067Y-70318D01*
X104344Y-70595D01*
G54D10*
G36*
X104663Y-71847D02*
X104588Y-71922D01*
X104504Y-71837D01*
X104454Y-71817D01*
X104475Y-71808D01*
X104663Y-71620D01*
X104663Y-71847D01*
X104663Y-71847D01*
G37*
G54D38*
X104663Y-71847D02*
X104588Y-71922D01*
X104504Y-71837D01*
X104454Y-71817D01*
X104475Y-71808D01*
X104663Y-71620D01*
X104663Y-71847D01*
G54D10*
G36*
X104677Y-59085D02*
X104677Y-59111D01*
X104677Y-59314D01*
X104665Y-59314D01*
X104429Y-59078D01*
X104466Y-59085D01*
X104467Y-59085D01*
X104677Y-59085D01*
X104677Y-59085D01*
G37*
G54D38*
X104677Y-59085D02*
X104677Y-59111D01*
X104677Y-59314D01*
X104665Y-59314D01*
X104429Y-59078D01*
X104466Y-59085D01*
X104467Y-59085D01*
X104677Y-59085D01*
G54D10*
G36*
X104689Y-58117D02*
X104678Y-58146D01*
X104677Y-58245D01*
X104677Y-58448D01*
X104585Y-58448D01*
X104522Y-58405D01*
X104400Y-58381D01*
X100432Y-58381D01*
X100269Y-58218D01*
X104100Y-58218D01*
X104100Y-58218D01*
X104222Y-58194D01*
X104222Y-58194D01*
X104325Y-58125D01*
X104664Y-57786D01*
X104677Y-57786D01*
X104677Y-57812D01*
X104677Y-58088D01*
X104689Y-58117D01*
X104689Y-58117D01*
G37*
G54D38*
X104689Y-58117D02*
X104678Y-58146D01*
X104677Y-58245D01*
X104677Y-58448D01*
X104585Y-58448D01*
X104522Y-58405D01*
X104400Y-58381D01*
X100432Y-58381D01*
X100269Y-58218D01*
X104100Y-58218D01*
X104100Y-58218D01*
X104222Y-58194D01*
X104222Y-58194D01*
X104325Y-58125D01*
X104664Y-57786D01*
X104677Y-57786D01*
X104677Y-57812D01*
X104677Y-58088D01*
X104689Y-58117D01*
G54D10*
G36*
X104852Y-51218D02*
X104847Y-51220D01*
X104786Y-51281D01*
X100300Y-51281D01*
X100177Y-51305D01*
X100126Y-51339D01*
X100074Y-51374D01*
X99574Y-51874D01*
X99505Y-51977D01*
X99481Y-52100D01*
X99481Y-52474D01*
X98453Y-51218D01*
X104852Y-51218D01*
X104852Y-51218D01*
G37*
G54D38*
X104852Y-51218D02*
X104847Y-51220D01*
X104786Y-51281D01*
X100300Y-51281D01*
X100177Y-51305D01*
X100126Y-51339D01*
X100074Y-51374D01*
X99574Y-51874D01*
X99505Y-51977D01*
X99481Y-52100D01*
X99481Y-52474D01*
X98453Y-51218D01*
X104852Y-51218D01*
G54D10*
G36*
X105243Y-52997D02*
X105168Y-53072D01*
X105084Y-52987D01*
X105034Y-52967D01*
X105055Y-52958D01*
X105243Y-52770D01*
X105243Y-52997D01*
X105243Y-52997D01*
G37*
G54D38*
X105243Y-52997D02*
X105168Y-53072D01*
X105084Y-52987D01*
X105034Y-52967D01*
X105055Y-52958D01*
X105243Y-52770D01*
X105243Y-52997D01*
G54D10*
G36*
X105451Y-71847D02*
X105375Y-71922D01*
X105300Y-71847D01*
X105300Y-71351D01*
X105451Y-71502D01*
X105451Y-71847D01*
X105451Y-71847D01*
G37*
G54D38*
X105451Y-71847D02*
X105375Y-71922D01*
X105300Y-71847D01*
X105300Y-71351D01*
X105451Y-71502D01*
X105451Y-71847D01*
G54D10*
G36*
X106401Y-56399D02*
X106371Y-56473D01*
X106370Y-56572D01*
X106370Y-56592D01*
X106178Y-56399D01*
X106401Y-56399D01*
X106401Y-56399D01*
G37*
G54D38*
X106401Y-56399D02*
X106371Y-56473D01*
X106370Y-56572D01*
X106370Y-56592D01*
X106178Y-56399D01*
X106401Y-56399D01*
G54D10*
G36*
X106403Y-57582D02*
X105650Y-57582D01*
X105650Y-57556D01*
X105650Y-57280D01*
X105649Y-57280D01*
X105650Y-57182D01*
X105650Y-56906D01*
X105621Y-56838D01*
X105659Y-56838D01*
X106403Y-57582D01*
X106403Y-57582D01*
G37*
G54D38*
X106403Y-57582D02*
X105650Y-57582D01*
X105650Y-57556D01*
X105650Y-57280D01*
X105649Y-57280D01*
X105650Y-57182D01*
X105650Y-56906D01*
X105621Y-56838D01*
X105659Y-56838D01*
X106403Y-57582D01*
G54D10*
G36*
X106416Y-72832D02*
X106265Y-72983D01*
X106161Y-73234D01*
X106160Y-73506D01*
X106264Y-73757D01*
X106268Y-73761D01*
X105940Y-73761D01*
X105024Y-72845D01*
X105090Y-72845D01*
X105290Y-72762D01*
X105376Y-72677D01*
X105460Y-72762D01*
X105661Y-72845D01*
X105878Y-72845D01*
X106078Y-72762D01*
X106163Y-72677D01*
X106247Y-72762D01*
X106416Y-72832D01*
X106416Y-72832D01*
G37*
G54D38*
X106416Y-72832D02*
X106265Y-72983D01*
X106161Y-73234D01*
X106160Y-73506D01*
X106264Y-73757D01*
X106268Y-73761D01*
X105940Y-73761D01*
X105024Y-72845D01*
X105090Y-72845D01*
X105290Y-72762D01*
X105376Y-72677D01*
X105460Y-72762D01*
X105661Y-72845D01*
X105878Y-72845D01*
X106078Y-72762D01*
X106163Y-72677D01*
X106247Y-72762D01*
X106416Y-72832D01*
G54D10*
G36*
X106479Y-74438D02*
X106307Y-74509D01*
X106115Y-74701D01*
X106011Y-74952D01*
X106010Y-75224D01*
X106114Y-75475D01*
X106266Y-75627D01*
X106098Y-75697D01*
X106013Y-75782D01*
X105929Y-75697D01*
X105728Y-75614D01*
X105511Y-75614D01*
X105311Y-75697D01*
X105225Y-75782D01*
X105141Y-75697D01*
X104940Y-75614D01*
X104864Y-75614D01*
X105139Y-75339D01*
X105139Y-75339D01*
X105139Y-75339D01*
X105212Y-75229D01*
X105228Y-75150D01*
X105940Y-74438D01*
X106479Y-74438D01*
X106479Y-74438D01*
G37*
G54D38*
X106479Y-74438D02*
X106307Y-74509D01*
X106115Y-74701D01*
X106011Y-74952D01*
X106010Y-75224D01*
X106114Y-75475D01*
X106266Y-75627D01*
X106098Y-75697D01*
X106013Y-75782D01*
X105929Y-75697D01*
X105728Y-75614D01*
X105511Y-75614D01*
X105311Y-75697D01*
X105225Y-75782D01*
X105141Y-75697D01*
X104940Y-75614D01*
X104864Y-75614D01*
X105139Y-75339D01*
X105139Y-75339D01*
X105139Y-75339D01*
X105212Y-75229D01*
X105228Y-75150D01*
X105940Y-74438D01*
X106479Y-74438D01*
G54D10*
G36*
X107574Y-57853D02*
X107546Y-57853D01*
X107546Y-57825D01*
X107574Y-57853D01*
X107574Y-57853D01*
G37*
G54D38*
X107574Y-57853D02*
X107546Y-57853D01*
X107546Y-57825D01*
X107574Y-57853D01*
G54D10*
G36*
X107761Y-58859D02*
X107759Y-58861D01*
X105650Y-58861D01*
X105650Y-58855D01*
X105650Y-58682D01*
X107355Y-58682D01*
X107510Y-58746D01*
X107688Y-58746D01*
X107761Y-58716D01*
X107761Y-58800D01*
X107761Y-58859D01*
X107761Y-58859D01*
G37*
G54D38*
X107761Y-58859D02*
X107759Y-58861D01*
X105650Y-58861D01*
X105650Y-58855D01*
X105650Y-58682D01*
X107355Y-58682D01*
X107510Y-58746D01*
X107688Y-58746D01*
X107761Y-58716D01*
X107761Y-58800D01*
X107761Y-58859D01*
G54D10*
G36*
X108543Y-66279D02*
X107957Y-67000D01*
X107942Y-67000D01*
X107946Y-66989D01*
X107946Y-66876D01*
X108543Y-66279D01*
X108543Y-66279D01*
G37*
G54D38*
X108543Y-66279D02*
X107957Y-67000D01*
X107942Y-67000D01*
X107946Y-66989D01*
X107946Y-66876D01*
X108543Y-66279D01*
G54D10*
G36*
X109353Y-64053D02*
X109311Y-64053D01*
X109147Y-64120D01*
X109021Y-64246D01*
X108953Y-64410D01*
X108953Y-64588D01*
X109020Y-64752D01*
X109100Y-64832D01*
X109100Y-65593D01*
X108808Y-65954D01*
X108818Y-65900D01*
X108818Y-63608D01*
X108910Y-63646D01*
X108960Y-63646D01*
X109353Y-64053D01*
X109353Y-64053D01*
G37*
G54D38*
X109353Y-64053D02*
X109311Y-64053D01*
X109147Y-64120D01*
X109021Y-64246D01*
X108953Y-64410D01*
X108953Y-64588D01*
X109020Y-64752D01*
X109100Y-64832D01*
X109100Y-65593D01*
X108808Y-65954D01*
X108818Y-65900D01*
X108818Y-63608D01*
X108910Y-63646D01*
X108960Y-63646D01*
X109353Y-64053D01*
G54D10*
G36*
X111761Y-65572D02*
X109446Y-63175D01*
X109446Y-63111D01*
X109379Y-62947D01*
X109253Y-62821D01*
X109089Y-62753D01*
X108911Y-62753D01*
X108800Y-62798D01*
X108779Y-62747D01*
X108653Y-62621D01*
X108489Y-62553D01*
X108311Y-62553D01*
X108147Y-62620D01*
X108021Y-62746D01*
X107953Y-62910D01*
X107953Y-63088D01*
X108020Y-63252D01*
X108146Y-63378D01*
X108181Y-63392D01*
X108181Y-65795D01*
X107523Y-66453D01*
X107446Y-66453D01*
X107446Y-64111D01*
X107379Y-63947D01*
X107253Y-63821D01*
X107089Y-63753D01*
X106911Y-63753D01*
X106747Y-63820D01*
X106706Y-63861D01*
X106700Y-63861D01*
X106570Y-63887D01*
X106460Y-63960D01*
X106460Y-63960D01*
X103568Y-66853D01*
X103511Y-66853D01*
X103347Y-66920D01*
X103221Y-67046D01*
X103153Y-67210D01*
X103153Y-67388D01*
X103220Y-67552D01*
X103346Y-67678D01*
X103510Y-67746D01*
X103688Y-67746D01*
X103852Y-67679D01*
X103978Y-67553D01*
X104046Y-67389D01*
X104046Y-67332D01*
X106784Y-64594D01*
X106910Y-64646D01*
X107088Y-64646D01*
X107252Y-64579D01*
X107378Y-64453D01*
X107446Y-64289D01*
X107446Y-64111D01*
X107446Y-66453D01*
X107411Y-66453D01*
X107247Y-66520D01*
X107121Y-66646D01*
X107120Y-66648D01*
X107079Y-66547D01*
X106953Y-66421D01*
X106789Y-66353D01*
X106611Y-66353D01*
X106447Y-66420D01*
X106321Y-66546D01*
X106253Y-66710D01*
X106253Y-66888D01*
X106320Y-67052D01*
X106446Y-67178D01*
X106545Y-67219D01*
X106622Y-67410D01*
X106623Y-67412D01*
X106623Y-67414D01*
X106648Y-67452D01*
X106685Y-67508D01*
X106687Y-67510D01*
X106688Y-67511D01*
X106727Y-67537D01*
X106782Y-67574D01*
X106784Y-67575D01*
X106785Y-67576D01*
X106835Y-67586D01*
X106896Y-67599D01*
X106898Y-67598D01*
X106900Y-67599D01*
X107699Y-67599D01*
X107653Y-67710D01*
X107653Y-67888D01*
X107720Y-68052D01*
X107846Y-68178D01*
X108010Y-68246D01*
X108188Y-68246D01*
X108352Y-68179D01*
X108478Y-68053D01*
X108546Y-67889D01*
X108546Y-67790D01*
X109002Y-67334D01*
X109046Y-67378D01*
X109210Y-67446D01*
X109388Y-67446D01*
X109552Y-67379D01*
X109678Y-67253D01*
X109746Y-67089D01*
X109746Y-66911D01*
X109679Y-66747D01*
X109553Y-66621D01*
X109389Y-66553D01*
X109211Y-66553D01*
X109047Y-66620D01*
X108994Y-66673D01*
X109632Y-65888D01*
X109653Y-65849D01*
X109676Y-65814D01*
X109679Y-65799D01*
X109686Y-65785D01*
X109690Y-65741D01*
X109699Y-65700D01*
X109699Y-64832D01*
X109778Y-64753D01*
X109846Y-64589D01*
X109846Y-64564D01*
X110735Y-65484D01*
X110647Y-65520D01*
X110521Y-65646D01*
X110453Y-65810D01*
X110453Y-65923D01*
X109988Y-66388D01*
X109923Y-66485D01*
X109900Y-66600D01*
X109900Y-68167D01*
X109821Y-68246D01*
X109753Y-68410D01*
X109753Y-68588D01*
X109820Y-68752D01*
X109946Y-68878D01*
X110110Y-68946D01*
X110288Y-68946D01*
X110452Y-68879D01*
X110578Y-68753D01*
X110646Y-68589D01*
X110646Y-68411D01*
X110579Y-68247D01*
X110499Y-68167D01*
X110499Y-66723D01*
X110876Y-66346D01*
X110988Y-66346D01*
X111152Y-66279D01*
X111278Y-66153D01*
X111309Y-66078D01*
X111361Y-66132D01*
X111361Y-66558D01*
X111236Y-66506D01*
X111074Y-66505D01*
X110924Y-66567D01*
X110810Y-66682D01*
X110748Y-66831D01*
X110747Y-66993D01*
X110809Y-67143D01*
X110924Y-67257D01*
X111073Y-67319D01*
X111235Y-67320D01*
X111361Y-67268D01*
X111361Y-68053D01*
X111235Y-68001D01*
X111073Y-68000D01*
X110923Y-68062D01*
X110809Y-68177D01*
X110747Y-68326D01*
X110746Y-68488D01*
X110808Y-68638D01*
X110923Y-68752D01*
X111072Y-68814D01*
X111234Y-68815D01*
X111361Y-68762D01*
X111361Y-73308D01*
X111103Y-73761D01*
X111046Y-73761D01*
X111046Y-69911D01*
X110979Y-69747D01*
X110853Y-69621D01*
X110689Y-69553D01*
X110511Y-69553D01*
X110347Y-69620D01*
X110286Y-69681D01*
X108613Y-69681D01*
X108553Y-69621D01*
X108389Y-69553D01*
X108211Y-69553D01*
X108047Y-69620D01*
X107921Y-69746D01*
X107853Y-69910D01*
X107853Y-70088D01*
X107920Y-70252D01*
X108046Y-70378D01*
X108210Y-70446D01*
X108388Y-70446D01*
X108552Y-70379D01*
X108613Y-70318D01*
X110286Y-70318D01*
X110346Y-70378D01*
X110510Y-70446D01*
X110688Y-70446D01*
X110852Y-70379D01*
X110978Y-70253D01*
X111046Y-70089D01*
X111046Y-69911D01*
X111046Y-73761D01*
X107419Y-73761D01*
X107422Y-73758D01*
X107526Y-73507D01*
X107527Y-73235D01*
X107423Y-72984D01*
X107231Y-72792D01*
X106980Y-72688D01*
X106940Y-72688D01*
X107019Y-72609D01*
X107102Y-72408D01*
X107102Y-72191D01*
X107019Y-71991D01*
X106940Y-71912D01*
X106979Y-71912D01*
X107230Y-71808D01*
X107422Y-71616D01*
X107526Y-71365D01*
X107527Y-71093D01*
X107423Y-70842D01*
X107231Y-70650D01*
X106980Y-70546D01*
X106708Y-70545D01*
X106457Y-70649D01*
X106265Y-70841D01*
X106161Y-71092D01*
X106160Y-71364D01*
X106264Y-71615D01*
X106416Y-71767D01*
X106248Y-71837D01*
X106163Y-71922D01*
X106088Y-71847D01*
X106088Y-71370D01*
X106064Y-71247D01*
X106064Y-71247D01*
X106030Y-71196D01*
X105995Y-71144D01*
X105995Y-71144D01*
X105618Y-70767D01*
X105618Y-70500D01*
X105618Y-70499D01*
X105594Y-70377D01*
X105525Y-70274D01*
X105525Y-70274D01*
X104725Y-69474D01*
X104622Y-69405D01*
X104500Y-69381D01*
X100432Y-69381D01*
X92718Y-61667D01*
X92718Y-57956D01*
X92746Y-57889D01*
X92746Y-57711D01*
X92679Y-57547D01*
X92553Y-57421D01*
X92389Y-57353D01*
X92211Y-57353D01*
X92047Y-57420D01*
X91921Y-57546D01*
X91899Y-57599D01*
X91789Y-57553D01*
X91611Y-57553D01*
X91447Y-57620D01*
X91400Y-57668D01*
X91353Y-57621D01*
X91189Y-57553D01*
X91011Y-57553D01*
X90847Y-57620D01*
X90721Y-57746D01*
X90653Y-57910D01*
X90653Y-57953D01*
X90511Y-57953D01*
X90347Y-58020D01*
X90221Y-58146D01*
X90153Y-58310D01*
X90153Y-58406D01*
X90105Y-58477D01*
X90081Y-58600D01*
X90081Y-61202D01*
X88578Y-59699D01*
X90339Y-57939D01*
X90339Y-57939D01*
X90339Y-57939D01*
X90412Y-57829D01*
X90438Y-57700D01*
X90438Y-57700D01*
X90438Y-57700D01*
X90438Y-53740D01*
X91453Y-52725D01*
X91453Y-52788D01*
X91520Y-52952D01*
X91646Y-53078D01*
X91810Y-53146D01*
X91988Y-53146D01*
X92152Y-53079D01*
X92203Y-53028D01*
X92563Y-53028D01*
X92571Y-53036D01*
X92571Y-54120D01*
X92346Y-53895D01*
X92346Y-53811D01*
X92279Y-53647D01*
X92153Y-53521D01*
X91989Y-53453D01*
X91811Y-53453D01*
X91647Y-53520D01*
X91521Y-53646D01*
X91453Y-53810D01*
X91453Y-53988D01*
X91520Y-54152D01*
X91646Y-54278D01*
X91810Y-54346D01*
X91895Y-54346D01*
X92081Y-54532D01*
X92081Y-56586D01*
X92021Y-56646D01*
X91953Y-56810D01*
X91953Y-56988D01*
X92020Y-57152D01*
X92146Y-57278D01*
X92310Y-57346D01*
X92488Y-57346D01*
X92652Y-57279D01*
X92751Y-57180D01*
X92910Y-57246D01*
X93088Y-57246D01*
X93252Y-57179D01*
X93378Y-57053D01*
X93446Y-56889D01*
X93446Y-56804D01*
X95632Y-54618D01*
X100200Y-54618D01*
X100322Y-54594D01*
X100425Y-54525D01*
X100494Y-54422D01*
X100518Y-54300D01*
X100518Y-53877D01*
X100560Y-53939D01*
X101060Y-54439D01*
X101170Y-54512D01*
X101170Y-54512D01*
X101300Y-54538D01*
X102029Y-54538D01*
X101921Y-54646D01*
X101853Y-54810D01*
X101853Y-54988D01*
X101920Y-55152D01*
X101981Y-55213D01*
X101981Y-56086D01*
X101921Y-56146D01*
X101853Y-56310D01*
X101853Y-56488D01*
X101920Y-56652D01*
X102046Y-56778D01*
X102210Y-56846D01*
X102388Y-56846D01*
X102552Y-56779D01*
X102678Y-56653D01*
X102746Y-56489D01*
X102746Y-56311D01*
X102679Y-56147D01*
X102618Y-56086D01*
X102618Y-55797D01*
X103560Y-56739D01*
X103560Y-56739D01*
X103670Y-56812D01*
X103800Y-56838D01*
X104706Y-56838D01*
X104678Y-56906D01*
X104677Y-57005D01*
X104677Y-57149D01*
X104532Y-57149D01*
X104409Y-57173D01*
X104358Y-57207D01*
X104306Y-57242D01*
X103967Y-57581D01*
X100250Y-57581D01*
X100278Y-57553D01*
X100346Y-57389D01*
X100346Y-57211D01*
X100279Y-57047D01*
X100153Y-56921D01*
X99989Y-56853D01*
X99811Y-56853D01*
X99647Y-56920D01*
X99596Y-56971D01*
X99100Y-56971D01*
X98974Y-56996D01*
X98867Y-57067D01*
X98867Y-57067D01*
X98867Y-57067D01*
X98163Y-57771D01*
X97659Y-57771D01*
X97659Y-57163D01*
X97659Y-55589D01*
X97621Y-55497D01*
X97551Y-55426D01*
X97459Y-55388D01*
X97359Y-55388D01*
X95785Y-55388D01*
X95693Y-55426D01*
X95622Y-55496D01*
X95584Y-55588D01*
X95584Y-55688D01*
X95584Y-57262D01*
X95622Y-57354D01*
X95692Y-57425D01*
X95784Y-57463D01*
X95884Y-57463D01*
X97458Y-57463D01*
X97550Y-57425D01*
X97621Y-57355D01*
X97659Y-57263D01*
X97659Y-57163D01*
X97659Y-57771D01*
X95403Y-57771D01*
X95353Y-57721D01*
X95189Y-57653D01*
X95011Y-57653D01*
X94847Y-57720D01*
X94721Y-57846D01*
X94653Y-58010D01*
X94653Y-58188D01*
X94720Y-58352D01*
X94846Y-58478D01*
X95010Y-58546D01*
X95188Y-58546D01*
X95352Y-58479D01*
X95403Y-58428D01*
X98300Y-58428D01*
X98381Y-58412D01*
X98381Y-59067D01*
X98295Y-59153D01*
X98211Y-59153D01*
X98047Y-59220D01*
X97921Y-59346D01*
X97853Y-59510D01*
X97853Y-59688D01*
X97920Y-59852D01*
X98046Y-59978D01*
X98210Y-60046D01*
X98388Y-60046D01*
X98552Y-59979D01*
X98608Y-59923D01*
X98620Y-59952D01*
X98746Y-60078D01*
X98910Y-60146D01*
X99088Y-60146D01*
X99252Y-60079D01*
X99378Y-59953D01*
X99446Y-59789D01*
X99446Y-59646D01*
X99495Y-59646D01*
X99681Y-59832D01*
X99681Y-60000D01*
X99705Y-60122D01*
X99774Y-60225D01*
X99877Y-60294D01*
X100000Y-60318D01*
X100427Y-60318D01*
X100375Y-60445D01*
X100374Y-60653D01*
X100454Y-60847D01*
X100602Y-60994D01*
X100735Y-61050D01*
X100603Y-61104D01*
X100455Y-61252D01*
X100375Y-61445D01*
X100374Y-61653D01*
X100454Y-61847D01*
X100602Y-61994D01*
X100735Y-62050D01*
X100603Y-62104D01*
X100455Y-62252D01*
X100375Y-62445D01*
X100374Y-62588D01*
X100289Y-62553D01*
X100111Y-62553D01*
X99947Y-62620D01*
X99821Y-62746D01*
X99753Y-62910D01*
X99753Y-62995D01*
X99367Y-63381D01*
X96613Y-63381D01*
X96553Y-63321D01*
X96389Y-63253D01*
X96211Y-63253D01*
X96047Y-63320D01*
X95921Y-63446D01*
X95853Y-63610D01*
X95853Y-63788D01*
X95920Y-63952D01*
X96046Y-64078D01*
X96210Y-64146D01*
X96388Y-64146D01*
X96552Y-64079D01*
X96613Y-64018D01*
X97891Y-64018D01*
X97853Y-64110D01*
X97853Y-64288D01*
X97920Y-64452D01*
X98046Y-64578D01*
X98210Y-64646D01*
X98388Y-64646D01*
X98552Y-64579D01*
X98678Y-64453D01*
X98692Y-64418D01*
X100498Y-64418D01*
X100425Y-64595D01*
X100424Y-64803D01*
X100504Y-64997D01*
X100652Y-65144D01*
X100785Y-65200D01*
X100653Y-65254D01*
X100505Y-65402D01*
X100425Y-65595D01*
X100424Y-65803D01*
X100504Y-65997D01*
X100652Y-66144D01*
X100785Y-66200D01*
X100653Y-66254D01*
X100505Y-66402D01*
X100425Y-66595D01*
X100424Y-66803D01*
X100504Y-66997D01*
X100652Y-67144D01*
X100724Y-67174D01*
X100625Y-67174D01*
X100533Y-67212D01*
X100463Y-67283D01*
X100425Y-67375D01*
X100424Y-67474D01*
X100424Y-68024D01*
X100462Y-68116D01*
X100533Y-68186D01*
X100625Y-68224D01*
X100724Y-68225D01*
X101274Y-68225D01*
X101366Y-68187D01*
X101436Y-68116D01*
X101474Y-68024D01*
X101475Y-67925D01*
X101475Y-67375D01*
X101437Y-67283D01*
X101366Y-67213D01*
X101274Y-67175D01*
X101175Y-67174D01*
X101175Y-67174D01*
X101247Y-67145D01*
X101394Y-66997D01*
X101474Y-66804D01*
X101475Y-66596D01*
X101395Y-66403D01*
X101247Y-66255D01*
X101114Y-66199D01*
X101247Y-66145D01*
X101394Y-65997D01*
X101474Y-65804D01*
X101475Y-65596D01*
X101395Y-65403D01*
X101247Y-65255D01*
X101114Y-65199D01*
X101247Y-65145D01*
X101394Y-64997D01*
X101474Y-64804D01*
X101475Y-64596D01*
X101401Y-64418D01*
X101500Y-64418D01*
X101500Y-64418D01*
X101622Y-64394D01*
X101622Y-64394D01*
X101693Y-64346D01*
X101788Y-64346D01*
X101952Y-64279D01*
X102078Y-64153D01*
X102146Y-63989D01*
X102146Y-63811D01*
X102079Y-63647D01*
X101953Y-63521D01*
X101789Y-63453D01*
X101611Y-63453D01*
X101447Y-63520D01*
X101425Y-63543D01*
X101425Y-63446D01*
X101345Y-63253D01*
X101197Y-63105D01*
X101064Y-63049D01*
X101197Y-62995D01*
X101344Y-62847D01*
X101424Y-62654D01*
X101425Y-62446D01*
X101345Y-62253D01*
X101197Y-62105D01*
X101064Y-62049D01*
X101197Y-61995D01*
X101344Y-61847D01*
X101424Y-61654D01*
X101425Y-61446D01*
X101345Y-61253D01*
X101197Y-61105D01*
X101064Y-61049D01*
X101197Y-60995D01*
X101344Y-60847D01*
X101424Y-60654D01*
X101425Y-60446D01*
X101372Y-60318D01*
X101881Y-60318D01*
X101881Y-60318D01*
X101943Y-60360D01*
X102065Y-60384D01*
X102066Y-60384D01*
X104677Y-60384D01*
X104677Y-60410D01*
X104677Y-60686D01*
X104715Y-60778D01*
X104741Y-60803D01*
X104716Y-60829D01*
X104678Y-60921D01*
X104677Y-61020D01*
X104677Y-61296D01*
X104715Y-61388D01*
X104786Y-61458D01*
X104878Y-61496D01*
X104977Y-61497D01*
X105449Y-61497D01*
X105541Y-61459D01*
X105611Y-61388D01*
X105649Y-61296D01*
X105650Y-61197D01*
X105650Y-60921D01*
X105612Y-60829D01*
X105586Y-60804D01*
X105611Y-60778D01*
X105649Y-60686D01*
X105650Y-60587D01*
X105650Y-60311D01*
X105638Y-60282D01*
X105649Y-60253D01*
X105650Y-60154D01*
X105650Y-59878D01*
X105638Y-59849D01*
X105649Y-59820D01*
X105650Y-59721D01*
X105650Y-59538D01*
X107900Y-59538D01*
X108029Y-59512D01*
X108029Y-59512D01*
X108139Y-59439D01*
X108339Y-59239D01*
X108339Y-59239D01*
X108339Y-59239D01*
X108406Y-59138D01*
X109261Y-59138D01*
X109261Y-62300D01*
X109287Y-62429D01*
X109360Y-62539D01*
X111761Y-64940D01*
X111761Y-65572D01*
X111761Y-65572D01*
G37*
G54D38*
X111761Y-65572D02*
X109446Y-63175D01*
X109446Y-63111D01*
X109379Y-62947D01*
X109253Y-62821D01*
X109089Y-62753D01*
X108911Y-62753D01*
X108800Y-62798D01*
X108779Y-62747D01*
X108653Y-62621D01*
X108489Y-62553D01*
X108311Y-62553D01*
X108147Y-62620D01*
X108021Y-62746D01*
X107953Y-62910D01*
X107953Y-63088D01*
X108020Y-63252D01*
X108146Y-63378D01*
X108181Y-63392D01*
X108181Y-65795D01*
X107523Y-66453D01*
X107446Y-66453D01*
X107446Y-64111D01*
X107379Y-63947D01*
X107253Y-63821D01*
X107089Y-63753D01*
X106911Y-63753D01*
X106747Y-63820D01*
X106706Y-63861D01*
X106700Y-63861D01*
X106570Y-63887D01*
X106460Y-63960D01*
X106460Y-63960D01*
X103568Y-66853D01*
X103511Y-66853D01*
X103347Y-66920D01*
X103221Y-67046D01*
X103153Y-67210D01*
X103153Y-67388D01*
X103220Y-67552D01*
X103346Y-67678D01*
X103510Y-67746D01*
X103688Y-67746D01*
X103852Y-67679D01*
X103978Y-67553D01*
X104046Y-67389D01*
X104046Y-67332D01*
X106784Y-64594D01*
X106910Y-64646D01*
X107088Y-64646D01*
X107252Y-64579D01*
X107378Y-64453D01*
X107446Y-64289D01*
X107446Y-64111D01*
X107446Y-66453D01*
X107411Y-66453D01*
X107247Y-66520D01*
X107121Y-66646D01*
X107120Y-66648D01*
X107079Y-66547D01*
X106953Y-66421D01*
X106789Y-66353D01*
X106611Y-66353D01*
X106447Y-66420D01*
X106321Y-66546D01*
X106253Y-66710D01*
X106253Y-66888D01*
X106320Y-67052D01*
X106446Y-67178D01*
X106545Y-67219D01*
X106622Y-67410D01*
X106623Y-67412D01*
X106623Y-67414D01*
X106648Y-67452D01*
X106685Y-67508D01*
X106687Y-67510D01*
X106688Y-67511D01*
X106727Y-67537D01*
X106782Y-67574D01*
X106784Y-67575D01*
X106785Y-67576D01*
X106835Y-67586D01*
X106896Y-67599D01*
X106898Y-67598D01*
X106900Y-67599D01*
X107699Y-67599D01*
X107653Y-67710D01*
X107653Y-67888D01*
X107720Y-68052D01*
X107846Y-68178D01*
X108010Y-68246D01*
X108188Y-68246D01*
X108352Y-68179D01*
X108478Y-68053D01*
X108546Y-67889D01*
X108546Y-67790D01*
X109002Y-67334D01*
X109046Y-67378D01*
X109210Y-67446D01*
X109388Y-67446D01*
X109552Y-67379D01*
X109678Y-67253D01*
X109746Y-67089D01*
X109746Y-66911D01*
X109679Y-66747D01*
X109553Y-66621D01*
X109389Y-66553D01*
X109211Y-66553D01*
X109047Y-66620D01*
X108994Y-66673D01*
X109632Y-65888D01*
X109653Y-65849D01*
X109676Y-65814D01*
X109679Y-65799D01*
X109686Y-65785D01*
X109690Y-65741D01*
X109699Y-65700D01*
X109699Y-64832D01*
X109778Y-64753D01*
X109846Y-64589D01*
X109846Y-64564D01*
X110735Y-65484D01*
X110647Y-65520D01*
X110521Y-65646D01*
X110453Y-65810D01*
X110453Y-65923D01*
X109988Y-66388D01*
X109923Y-66485D01*
X109900Y-66600D01*
X109900Y-68167D01*
X109821Y-68246D01*
X109753Y-68410D01*
X109753Y-68588D01*
X109820Y-68752D01*
X109946Y-68878D01*
X110110Y-68946D01*
X110288Y-68946D01*
X110452Y-68879D01*
X110578Y-68753D01*
X110646Y-68589D01*
X110646Y-68411D01*
X110579Y-68247D01*
X110499Y-68167D01*
X110499Y-66723D01*
X110876Y-66346D01*
X110988Y-66346D01*
X111152Y-66279D01*
X111278Y-66153D01*
X111309Y-66078D01*
X111361Y-66132D01*
X111361Y-66558D01*
X111236Y-66506D01*
X111074Y-66505D01*
X110924Y-66567D01*
X110810Y-66682D01*
X110748Y-66831D01*
X110747Y-66993D01*
X110809Y-67143D01*
X110924Y-67257D01*
X111073Y-67319D01*
X111235Y-67320D01*
X111361Y-67268D01*
X111361Y-68053D01*
X111235Y-68001D01*
X111073Y-68000D01*
X110923Y-68062D01*
X110809Y-68177D01*
X110747Y-68326D01*
X110746Y-68488D01*
X110808Y-68638D01*
X110923Y-68752D01*
X111072Y-68814D01*
X111234Y-68815D01*
X111361Y-68762D01*
X111361Y-73308D01*
X111103Y-73761D01*
X111046Y-73761D01*
X111046Y-69911D01*
X110979Y-69747D01*
X110853Y-69621D01*
X110689Y-69553D01*
X110511Y-69553D01*
X110347Y-69620D01*
X110286Y-69681D01*
X108613Y-69681D01*
X108553Y-69621D01*
X108389Y-69553D01*
X108211Y-69553D01*
X108047Y-69620D01*
X107921Y-69746D01*
X107853Y-69910D01*
X107853Y-70088D01*
X107920Y-70252D01*
X108046Y-70378D01*
X108210Y-70446D01*
X108388Y-70446D01*
X108552Y-70379D01*
X108613Y-70318D01*
X110286Y-70318D01*
X110346Y-70378D01*
X110510Y-70446D01*
X110688Y-70446D01*
X110852Y-70379D01*
X110978Y-70253D01*
X111046Y-70089D01*
X111046Y-69911D01*
X111046Y-73761D01*
X107419Y-73761D01*
X107422Y-73758D01*
X107526Y-73507D01*
X107527Y-73235D01*
X107423Y-72984D01*
X107231Y-72792D01*
X106980Y-72688D01*
X106940Y-72688D01*
X107019Y-72609D01*
X107102Y-72408D01*
X107102Y-72191D01*
X107019Y-71991D01*
X106940Y-71912D01*
X106979Y-71912D01*
X107230Y-71808D01*
X107422Y-71616D01*
X107526Y-71365D01*
X107527Y-71093D01*
X107423Y-70842D01*
X107231Y-70650D01*
X106980Y-70546D01*
X106708Y-70545D01*
X106457Y-70649D01*
X106265Y-70841D01*
X106161Y-71092D01*
X106160Y-71364D01*
X106264Y-71615D01*
X106416Y-71767D01*
X106248Y-71837D01*
X106163Y-71922D01*
X106088Y-71847D01*
X106088Y-71370D01*
X106064Y-71247D01*
X106064Y-71247D01*
X106030Y-71196D01*
X105995Y-71144D01*
X105995Y-71144D01*
X105618Y-70767D01*
X105618Y-70500D01*
X105618Y-70499D01*
X105594Y-70377D01*
X105525Y-70274D01*
X105525Y-70274D01*
X104725Y-69474D01*
X104622Y-69405D01*
X104500Y-69381D01*
X100432Y-69381D01*
X92718Y-61667D01*
X92718Y-57956D01*
X92746Y-57889D01*
X92746Y-57711D01*
X92679Y-57547D01*
X92553Y-57421D01*
X92389Y-57353D01*
X92211Y-57353D01*
X92047Y-57420D01*
X91921Y-57546D01*
X91899Y-57599D01*
X91789Y-57553D01*
X91611Y-57553D01*
X91447Y-57620D01*
X91400Y-57668D01*
X91353Y-57621D01*
X91189Y-57553D01*
X91011Y-57553D01*
X90847Y-57620D01*
X90721Y-57746D01*
X90653Y-57910D01*
X90653Y-57953D01*
X90511Y-57953D01*
X90347Y-58020D01*
X90221Y-58146D01*
X90153Y-58310D01*
X90153Y-58406D01*
X90105Y-58477D01*
X90081Y-58600D01*
X90081Y-61202D01*
X88578Y-59699D01*
X90339Y-57939D01*
X90339Y-57939D01*
X90339Y-57939D01*
X90412Y-57829D01*
X90438Y-57700D01*
X90438Y-57700D01*
X90438Y-57700D01*
X90438Y-53740D01*
X91453Y-52725D01*
X91453Y-52788D01*
X91520Y-52952D01*
X91646Y-53078D01*
X91810Y-53146D01*
X91988Y-53146D01*
X92152Y-53079D01*
X92203Y-53028D01*
X92563Y-53028D01*
X92571Y-53036D01*
X92571Y-54120D01*
X92346Y-53895D01*
X92346Y-53811D01*
X92279Y-53647D01*
X92153Y-53521D01*
X91989Y-53453D01*
X91811Y-53453D01*
X91647Y-53520D01*
X91521Y-53646D01*
X91453Y-53810D01*
X91453Y-53988D01*
X91520Y-54152D01*
X91646Y-54278D01*
X91810Y-54346D01*
X91895Y-54346D01*
X92081Y-54532D01*
X92081Y-56586D01*
X92021Y-56646D01*
X91953Y-56810D01*
X91953Y-56988D01*
X92020Y-57152D01*
X92146Y-57278D01*
X92310Y-57346D01*
X92488Y-57346D01*
X92652Y-57279D01*
X92751Y-57180D01*
X92910Y-57246D01*
X93088Y-57246D01*
X93252Y-57179D01*
X93378Y-57053D01*
X93446Y-56889D01*
X93446Y-56804D01*
X95632Y-54618D01*
X100200Y-54618D01*
X100322Y-54594D01*
X100425Y-54525D01*
X100494Y-54422D01*
X100518Y-54300D01*
X100518Y-53877D01*
X100560Y-53939D01*
X101060Y-54439D01*
X101170Y-54512D01*
X101170Y-54512D01*
X101300Y-54538D01*
X102029Y-54538D01*
X101921Y-54646D01*
X101853Y-54810D01*
X101853Y-54988D01*
X101920Y-55152D01*
X101981Y-55213D01*
X101981Y-56086D01*
X101921Y-56146D01*
X101853Y-56310D01*
X101853Y-56488D01*
X101920Y-56652D01*
X102046Y-56778D01*
X102210Y-56846D01*
X102388Y-56846D01*
X102552Y-56779D01*
X102678Y-56653D01*
X102746Y-56489D01*
X102746Y-56311D01*
X102679Y-56147D01*
X102618Y-56086D01*
X102618Y-55797D01*
X103560Y-56739D01*
X103560Y-56739D01*
X103670Y-56812D01*
X103800Y-56838D01*
X104706Y-56838D01*
X104678Y-56906D01*
X104677Y-57005D01*
X104677Y-57149D01*
X104532Y-57149D01*
X104409Y-57173D01*
X104358Y-57207D01*
X104306Y-57242D01*
X103967Y-57581D01*
X100250Y-57581D01*
X100278Y-57553D01*
X100346Y-57389D01*
X100346Y-57211D01*
X100279Y-57047D01*
X100153Y-56921D01*
X99989Y-56853D01*
X99811Y-56853D01*
X99647Y-56920D01*
X99596Y-56971D01*
X99100Y-56971D01*
X98974Y-56996D01*
X98867Y-57067D01*
X98867Y-57067D01*
X98867Y-57067D01*
X98163Y-57771D01*
X97659Y-57771D01*
X97659Y-57163D01*
X97659Y-55589D01*
X97621Y-55497D01*
X97551Y-55426D01*
X97459Y-55388D01*
X97359Y-55388D01*
X95785Y-55388D01*
X95693Y-55426D01*
X95622Y-55496D01*
X95584Y-55588D01*
X95584Y-55688D01*
X95584Y-57262D01*
X95622Y-57354D01*
X95692Y-57425D01*
X95784Y-57463D01*
X95884Y-57463D01*
X97458Y-57463D01*
X97550Y-57425D01*
X97621Y-57355D01*
X97659Y-57263D01*
X97659Y-57163D01*
X97659Y-57771D01*
X95403Y-57771D01*
X95353Y-57721D01*
X95189Y-57653D01*
X95011Y-57653D01*
X94847Y-57720D01*
X94721Y-57846D01*
X94653Y-58010D01*
X94653Y-58188D01*
X94720Y-58352D01*
X94846Y-58478D01*
X95010Y-58546D01*
X95188Y-58546D01*
X95352Y-58479D01*
X95403Y-58428D01*
X98300Y-58428D01*
X98381Y-58412D01*
X98381Y-59067D01*
X98295Y-59153D01*
X98211Y-59153D01*
X98047Y-59220D01*
X97921Y-59346D01*
X97853Y-59510D01*
X97853Y-59688D01*
X97920Y-59852D01*
X98046Y-59978D01*
X98210Y-60046D01*
X98388Y-60046D01*
X98552Y-59979D01*
X98608Y-59923D01*
X98620Y-59952D01*
X98746Y-60078D01*
X98910Y-60146D01*
X99088Y-60146D01*
X99252Y-60079D01*
X99378Y-59953D01*
X99446Y-59789D01*
X99446Y-59646D01*
X99495Y-59646D01*
X99681Y-59832D01*
X99681Y-60000D01*
X99705Y-60122D01*
X99774Y-60225D01*
X99877Y-60294D01*
X100000Y-60318D01*
X100427Y-60318D01*
X100375Y-60445D01*
X100374Y-60653D01*
X100454Y-60847D01*
X100602Y-60994D01*
X100735Y-61050D01*
X100603Y-61104D01*
X100455Y-61252D01*
X100375Y-61445D01*
X100374Y-61653D01*
X100454Y-61847D01*
X100602Y-61994D01*
X100735Y-62050D01*
X100603Y-62104D01*
X100455Y-62252D01*
X100375Y-62445D01*
X100374Y-62588D01*
X100289Y-62553D01*
X100111Y-62553D01*
X99947Y-62620D01*
X99821Y-62746D01*
X99753Y-62910D01*
X99753Y-62995D01*
X99367Y-63381D01*
X96613Y-63381D01*
X96553Y-63321D01*
X96389Y-63253D01*
X96211Y-63253D01*
X96047Y-63320D01*
X95921Y-63446D01*
X95853Y-63610D01*
X95853Y-63788D01*
X95920Y-63952D01*
X96046Y-64078D01*
X96210Y-64146D01*
X96388Y-64146D01*
X96552Y-64079D01*
X96613Y-64018D01*
X97891Y-64018D01*
X97853Y-64110D01*
X97853Y-64288D01*
X97920Y-64452D01*
X98046Y-64578D01*
X98210Y-64646D01*
X98388Y-64646D01*
X98552Y-64579D01*
X98678Y-64453D01*
X98692Y-64418D01*
X100498Y-64418D01*
X100425Y-64595D01*
X100424Y-64803D01*
X100504Y-64997D01*
X100652Y-65144D01*
X100785Y-65200D01*
X100653Y-65254D01*
X100505Y-65402D01*
X100425Y-65595D01*
X100424Y-65803D01*
X100504Y-65997D01*
X100652Y-66144D01*
X100785Y-66200D01*
X100653Y-66254D01*
X100505Y-66402D01*
X100425Y-66595D01*
X100424Y-66803D01*
X100504Y-66997D01*
X100652Y-67144D01*
X100724Y-67174D01*
X100625Y-67174D01*
X100533Y-67212D01*
X100463Y-67283D01*
X100425Y-67375D01*
X100424Y-67474D01*
X100424Y-68024D01*
X100462Y-68116D01*
X100533Y-68186D01*
X100625Y-68224D01*
X100724Y-68225D01*
X101274Y-68225D01*
X101366Y-68187D01*
X101436Y-68116D01*
X101474Y-68024D01*
X101475Y-67925D01*
X101475Y-67375D01*
X101437Y-67283D01*
X101366Y-67213D01*
X101274Y-67175D01*
X101175Y-67174D01*
X101175Y-67174D01*
X101247Y-67145D01*
X101394Y-66997D01*
X101474Y-66804D01*
X101475Y-66596D01*
X101395Y-66403D01*
X101247Y-66255D01*
X101114Y-66199D01*
X101247Y-66145D01*
X101394Y-65997D01*
X101474Y-65804D01*
X101475Y-65596D01*
X101395Y-65403D01*
X101247Y-65255D01*
X101114Y-65199D01*
X101247Y-65145D01*
X101394Y-64997D01*
X101474Y-64804D01*
X101475Y-64596D01*
X101401Y-64418D01*
X101500Y-64418D01*
X101500Y-64418D01*
X101622Y-64394D01*
X101622Y-64394D01*
X101693Y-64346D01*
X101788Y-64346D01*
X101952Y-64279D01*
X102078Y-64153D01*
X102146Y-63989D01*
X102146Y-63811D01*
X102079Y-63647D01*
X101953Y-63521D01*
X101789Y-63453D01*
X101611Y-63453D01*
X101447Y-63520D01*
X101425Y-63543D01*
X101425Y-63446D01*
X101345Y-63253D01*
X101197Y-63105D01*
X101064Y-63049D01*
X101197Y-62995D01*
X101344Y-62847D01*
X101424Y-62654D01*
X101425Y-62446D01*
X101345Y-62253D01*
X101197Y-62105D01*
X101064Y-62049D01*
X101197Y-61995D01*
X101344Y-61847D01*
X101424Y-61654D01*
X101425Y-61446D01*
X101345Y-61253D01*
X101197Y-61105D01*
X101064Y-61049D01*
X101197Y-60995D01*
X101344Y-60847D01*
X101424Y-60654D01*
X101425Y-60446D01*
X101372Y-60318D01*
X101881Y-60318D01*
X101881Y-60318D01*
X101943Y-60360D01*
X102065Y-60384D01*
X102066Y-60384D01*
X104677Y-60384D01*
X104677Y-60410D01*
X104677Y-60686D01*
X104715Y-60778D01*
X104741Y-60803D01*
X104716Y-60829D01*
X104678Y-60921D01*
X104677Y-61020D01*
X104677Y-61296D01*
X104715Y-61388D01*
X104786Y-61458D01*
X104878Y-61496D01*
X104977Y-61497D01*
X105449Y-61497D01*
X105541Y-61459D01*
X105611Y-61388D01*
X105649Y-61296D01*
X105650Y-61197D01*
X105650Y-60921D01*
X105612Y-60829D01*
X105586Y-60804D01*
X105611Y-60778D01*
X105649Y-60686D01*
X105650Y-60587D01*
X105650Y-60311D01*
X105638Y-60282D01*
X105649Y-60253D01*
X105650Y-60154D01*
X105650Y-59878D01*
X105638Y-59849D01*
X105649Y-59820D01*
X105650Y-59721D01*
X105650Y-59538D01*
X107900Y-59538D01*
X108029Y-59512D01*
X108029Y-59512D01*
X108139Y-59439D01*
X108339Y-59239D01*
X108339Y-59239D01*
X108339Y-59239D01*
X108406Y-59138D01*
X109261Y-59138D01*
X109261Y-62300D01*
X109287Y-62429D01*
X109360Y-62539D01*
X111761Y-64940D01*
X111761Y-65572D01*
G54D10*
G36*
X112360Y-50454D02*
X112143Y-50237D01*
X112053Y-50199D01*
X112360Y-50199D01*
X112360Y-50454D01*
X112360Y-50454D01*
G37*
G54D38*
X112360Y-50454D02*
X112143Y-50237D01*
X112053Y-50199D01*
X112360Y-50199D01*
X112360Y-50454D01*
G54D10*
G36*
X112360Y-64592D02*
X112339Y-64560D01*
X111733Y-63954D01*
X111733Y-62201D01*
X111733Y-61689D01*
X111732Y-61687D01*
X111732Y-56867D01*
X111732Y-56473D01*
X111694Y-56381D01*
X111623Y-56311D01*
X111531Y-56273D01*
X111432Y-56272D01*
X110330Y-56272D01*
X110238Y-56310D01*
X110168Y-56381D01*
X110130Y-56473D01*
X110129Y-56572D01*
X110129Y-56966D01*
X110167Y-57058D01*
X110238Y-57128D01*
X110330Y-57166D01*
X110429Y-57167D01*
X111531Y-57167D01*
X111623Y-57129D01*
X111693Y-57058D01*
X111731Y-56966D01*
X111732Y-56867D01*
X111732Y-61687D01*
X111695Y-61597D01*
X111624Y-61527D01*
X111532Y-61489D01*
X111433Y-61488D01*
X110685Y-61488D01*
X110593Y-61526D01*
X110523Y-61597D01*
X110485Y-61689D01*
X110484Y-61788D01*
X110484Y-62300D01*
X110522Y-62392D01*
X110593Y-62462D01*
X110685Y-62500D01*
X110784Y-62501D01*
X111532Y-62501D01*
X111624Y-62463D01*
X111694Y-62392D01*
X111732Y-62300D01*
X111733Y-62201D01*
X111733Y-63954D01*
X109938Y-62159D01*
X109938Y-58800D01*
X109912Y-58670D01*
X109839Y-58560D01*
X109729Y-58487D01*
X109705Y-58482D01*
X109705Y-56867D01*
X109705Y-56473D01*
X109667Y-56381D01*
X109597Y-56311D01*
X109505Y-56273D01*
X109405Y-56272D01*
X109090Y-56272D01*
X108999Y-56310D01*
X108928Y-56381D01*
X108890Y-56473D01*
X108890Y-56572D01*
X108890Y-56966D01*
X108928Y-57058D01*
X108998Y-57128D01*
X109090Y-57166D01*
X109190Y-57167D01*
X109505Y-57167D01*
X109596Y-57129D01*
X109667Y-57058D01*
X109705Y-56966D01*
X109705Y-56867D01*
X109705Y-58482D01*
X109600Y-58461D01*
X108438Y-58461D01*
X108438Y-57900D01*
X108412Y-57770D01*
X108412Y-57770D01*
X108339Y-57660D01*
X107839Y-57160D01*
X107729Y-57087D01*
X107600Y-57061D01*
X107302Y-57061D01*
X107304Y-57058D01*
X107342Y-56966D01*
X107343Y-56867D01*
X107343Y-56473D01*
X107312Y-56399D01*
X108098Y-56399D01*
X108120Y-56452D01*
X108246Y-56578D01*
X108410Y-56646D01*
X108588Y-56646D01*
X108752Y-56579D01*
X108878Y-56453D01*
X108946Y-56289D01*
X108946Y-56111D01*
X108879Y-55947D01*
X108753Y-55821D01*
X108589Y-55753D01*
X108411Y-55753D01*
X108296Y-55800D01*
X104732Y-55800D01*
X104653Y-55721D01*
X104489Y-55653D01*
X104311Y-55653D01*
X104147Y-55720D01*
X104021Y-55846D01*
X103953Y-56010D01*
X103953Y-56161D01*
X103940Y-56161D01*
X103038Y-55259D01*
X103038Y-54500D01*
X103038Y-54499D01*
X103038Y-54499D01*
X103012Y-54370D01*
X102939Y-54260D01*
X102939Y-54260D01*
X102639Y-53960D01*
X102529Y-53887D01*
X102400Y-53861D01*
X101440Y-53861D01*
X101403Y-53825D01*
X101824Y-53825D01*
X101916Y-53787D01*
X101986Y-53716D01*
X102024Y-53624D01*
X102025Y-53525D01*
X102025Y-52975D01*
X101987Y-52883D01*
X101916Y-52813D01*
X101824Y-52775D01*
X101725Y-52774D01*
X101725Y-52774D01*
X101797Y-52745D01*
X101944Y-52597D01*
X102024Y-52404D01*
X102025Y-52196D01*
X101945Y-52003D01*
X101861Y-51918D01*
X104163Y-51918D01*
X104090Y-51991D01*
X103986Y-52242D01*
X103985Y-52514D01*
X104089Y-52765D01*
X104281Y-52957D01*
X104433Y-53020D01*
X104312Y-53140D01*
X104229Y-53341D01*
X104229Y-53558D01*
X104312Y-53758D01*
X104432Y-53879D01*
X104282Y-53941D01*
X104090Y-54133D01*
X103986Y-54384D01*
X103985Y-54656D01*
X104089Y-54907D01*
X104281Y-55099D01*
X104532Y-55203D01*
X104804Y-55204D01*
X105055Y-55100D01*
X105247Y-54908D01*
X105351Y-54657D01*
X105352Y-54385D01*
X105248Y-54134D01*
X105056Y-53942D01*
X105034Y-53933D01*
X105083Y-53912D01*
X105168Y-53827D01*
X105252Y-53912D01*
X105453Y-53995D01*
X105670Y-53995D01*
X105870Y-53912D01*
X105956Y-53827D01*
X106040Y-53912D01*
X106241Y-53995D01*
X106458Y-53995D01*
X106658Y-53912D01*
X106743Y-53827D01*
X106827Y-53912D01*
X106996Y-53982D01*
X106845Y-54133D01*
X106741Y-54384D01*
X106740Y-54656D01*
X106844Y-54907D01*
X107036Y-55099D01*
X107287Y-55203D01*
X107559Y-55204D01*
X107810Y-55100D01*
X108002Y-54908D01*
X108106Y-54657D01*
X108107Y-54385D01*
X108003Y-54134D01*
X107811Y-53942D01*
X107560Y-53838D01*
X107520Y-53838D01*
X107599Y-53759D01*
X107682Y-53558D01*
X107682Y-53341D01*
X107599Y-53141D01*
X107520Y-53062D01*
X107559Y-53062D01*
X107810Y-52958D01*
X108002Y-52766D01*
X108106Y-52515D01*
X108107Y-52243D01*
X108003Y-51992D01*
X107811Y-51800D01*
X107560Y-51696D01*
X107288Y-51695D01*
X107037Y-51799D01*
X106845Y-51991D01*
X106741Y-52242D01*
X106740Y-52514D01*
X106844Y-52765D01*
X106996Y-52917D01*
X106828Y-52987D01*
X106743Y-53072D01*
X106659Y-52987D01*
X106458Y-52904D01*
X106241Y-52904D01*
X106041Y-52987D01*
X105955Y-53072D01*
X105880Y-52997D01*
X105880Y-51162D01*
X105880Y-51161D01*
X105856Y-51039D01*
X105787Y-50936D01*
X105787Y-50936D01*
X105525Y-50674D01*
X105422Y-50605D01*
X105300Y-50581D01*
X92200Y-50581D01*
X92077Y-50605D01*
X92026Y-50639D01*
X92006Y-50653D01*
X91911Y-50653D01*
X91747Y-50720D01*
X91621Y-50846D01*
X91553Y-51010D01*
X91553Y-51188D01*
X91620Y-51352D01*
X91744Y-51476D01*
X90925Y-52296D01*
X90925Y-52025D01*
X90925Y-51475D01*
X90887Y-51383D01*
X90816Y-51313D01*
X90724Y-51275D01*
X90625Y-51274D01*
X90075Y-51274D01*
X89983Y-51312D01*
X89913Y-51383D01*
X89875Y-51475D01*
X89874Y-51574D01*
X89874Y-51574D01*
X89845Y-51503D01*
X89697Y-51355D01*
X89504Y-51275D01*
X89296Y-51274D01*
X89103Y-51354D01*
X88955Y-51502D01*
X88899Y-51635D01*
X88845Y-51503D01*
X88697Y-51355D01*
X88504Y-51275D01*
X88296Y-51274D01*
X88103Y-51354D01*
X87955Y-51502D01*
X87899Y-51635D01*
X87845Y-51503D01*
X87697Y-51355D01*
X87504Y-51275D01*
X87296Y-51274D01*
X87103Y-51354D01*
X86955Y-51502D01*
X86899Y-51635D01*
X86845Y-51503D01*
X86697Y-51355D01*
X86504Y-51275D01*
X86296Y-51274D01*
X86103Y-51354D01*
X85955Y-51502D01*
X85899Y-51635D01*
X85845Y-51503D01*
X85697Y-51355D01*
X85504Y-51275D01*
X85296Y-51274D01*
X85103Y-51354D01*
X84955Y-51502D01*
X84875Y-51695D01*
X84874Y-51903D01*
X84954Y-52097D01*
X85102Y-52244D01*
X85295Y-52324D01*
X85503Y-52325D01*
X85697Y-52245D01*
X85844Y-52097D01*
X85900Y-51964D01*
X85954Y-52097D01*
X86102Y-52244D01*
X86295Y-52324D01*
X86503Y-52325D01*
X86697Y-52245D01*
X86844Y-52097D01*
X86900Y-51964D01*
X86954Y-52097D01*
X87102Y-52244D01*
X87295Y-52324D01*
X87503Y-52325D01*
X87697Y-52245D01*
X87844Y-52097D01*
X87900Y-51964D01*
X87954Y-52097D01*
X88102Y-52244D01*
X88295Y-52324D01*
X88503Y-52325D01*
X88697Y-52245D01*
X88844Y-52097D01*
X88900Y-51964D01*
X88954Y-52097D01*
X89102Y-52244D01*
X89295Y-52324D01*
X89503Y-52325D01*
X89697Y-52245D01*
X89844Y-52097D01*
X89874Y-52025D01*
X89874Y-52124D01*
X89912Y-52216D01*
X89983Y-52286D01*
X90075Y-52324D01*
X90174Y-52325D01*
X90724Y-52325D01*
X90816Y-52287D01*
X90886Y-52216D01*
X90924Y-52124D01*
X90925Y-52025D01*
X90925Y-52296D01*
X89860Y-53360D01*
X89787Y-53470D01*
X89761Y-53600D01*
X89761Y-57559D01*
X89636Y-57685D01*
X89579Y-57547D01*
X89453Y-57421D01*
X89289Y-57353D01*
X89228Y-57353D01*
X89228Y-53300D01*
X89203Y-53174D01*
X89203Y-53174D01*
X89132Y-53067D01*
X88632Y-52567D01*
X88525Y-52496D01*
X88400Y-52471D01*
X85036Y-52471D01*
X84784Y-52219D01*
X84786Y-52216D01*
X84824Y-52124D01*
X84825Y-52025D01*
X84825Y-51475D01*
X84787Y-51383D01*
X84716Y-51313D01*
X84624Y-51275D01*
X84525Y-51274D01*
X83975Y-51274D01*
X83883Y-51312D01*
X83813Y-51383D01*
X83775Y-51475D01*
X83774Y-51574D01*
X83774Y-51574D01*
X83745Y-51503D01*
X83597Y-51355D01*
X83404Y-51275D01*
X83196Y-51274D01*
X83003Y-51354D01*
X82855Y-51502D01*
X82799Y-51635D01*
X82745Y-51503D01*
X82597Y-51355D01*
X82404Y-51275D01*
X82196Y-51274D01*
X82003Y-51354D01*
X81855Y-51502D01*
X81799Y-51635D01*
X81745Y-51503D01*
X81597Y-51355D01*
X81404Y-51275D01*
X81196Y-51274D01*
X81003Y-51354D01*
X80855Y-51502D01*
X80800Y-51635D01*
X80799Y-51634D01*
X80745Y-51503D01*
X80597Y-51355D01*
X80404Y-51275D01*
X80196Y-51274D01*
X80003Y-51354D01*
X79855Y-51502D01*
X79799Y-51635D01*
X79745Y-51503D01*
X79597Y-51355D01*
X79404Y-51275D01*
X79196Y-51274D01*
X79118Y-51306D01*
X79118Y-50500D01*
X79094Y-50377D01*
X79094Y-50377D01*
X79060Y-50326D01*
X79025Y-50274D01*
X79025Y-50274D01*
X78950Y-50199D01*
X111346Y-50199D01*
X111257Y-50236D01*
X111037Y-50456D01*
X110917Y-50743D01*
X110917Y-51054D01*
X111036Y-51342D01*
X111256Y-51562D01*
X111543Y-51682D01*
X111854Y-51682D01*
X112142Y-51563D01*
X112360Y-51346D01*
X112360Y-64592D01*
X112360Y-64592D01*
G37*
G54D38*
X112360Y-64592D02*
X112339Y-64560D01*
X111733Y-63954D01*
X111733Y-62201D01*
X111733Y-61689D01*
X111732Y-61687D01*
X111732Y-56867D01*
X111732Y-56473D01*
X111694Y-56381D01*
X111623Y-56311D01*
X111531Y-56273D01*
X111432Y-56272D01*
X110330Y-56272D01*
X110238Y-56310D01*
X110168Y-56381D01*
X110130Y-56473D01*
X110129Y-56572D01*
X110129Y-56966D01*
X110167Y-57058D01*
X110238Y-57128D01*
X110330Y-57166D01*
X110429Y-57167D01*
X111531Y-57167D01*
X111623Y-57129D01*
X111693Y-57058D01*
X111731Y-56966D01*
X111732Y-56867D01*
X111732Y-61687D01*
X111695Y-61597D01*
X111624Y-61527D01*
X111532Y-61489D01*
X111433Y-61488D01*
X110685Y-61488D01*
X110593Y-61526D01*
X110523Y-61597D01*
X110485Y-61689D01*
X110484Y-61788D01*
X110484Y-62300D01*
X110522Y-62392D01*
X110593Y-62462D01*
X110685Y-62500D01*
X110784Y-62501D01*
X111532Y-62501D01*
X111624Y-62463D01*
X111694Y-62392D01*
X111732Y-62300D01*
X111733Y-62201D01*
X111733Y-63954D01*
X109938Y-62159D01*
X109938Y-58800D01*
X109912Y-58670D01*
X109839Y-58560D01*
X109729Y-58487D01*
X109705Y-58482D01*
X109705Y-56867D01*
X109705Y-56473D01*
X109667Y-56381D01*
X109597Y-56311D01*
X109505Y-56273D01*
X109405Y-56272D01*
X109090Y-56272D01*
X108999Y-56310D01*
X108928Y-56381D01*
X108890Y-56473D01*
X108890Y-56572D01*
X108890Y-56966D01*
X108928Y-57058D01*
X108998Y-57128D01*
X109090Y-57166D01*
X109190Y-57167D01*
X109505Y-57167D01*
X109596Y-57129D01*
X109667Y-57058D01*
X109705Y-56966D01*
X109705Y-56867D01*
X109705Y-58482D01*
X109600Y-58461D01*
X108438Y-58461D01*
X108438Y-57900D01*
X108412Y-57770D01*
X108412Y-57770D01*
X108339Y-57660D01*
X107839Y-57160D01*
X107729Y-57087D01*
X107600Y-57061D01*
X107302Y-57061D01*
X107304Y-57058D01*
X107342Y-56966D01*
X107343Y-56867D01*
X107343Y-56473D01*
X107312Y-56399D01*
X108098Y-56399D01*
X108120Y-56452D01*
X108246Y-56578D01*
X108410Y-56646D01*
X108588Y-56646D01*
X108752Y-56579D01*
X108878Y-56453D01*
X108946Y-56289D01*
X108946Y-56111D01*
X108879Y-55947D01*
X108753Y-55821D01*
X108589Y-55753D01*
X108411Y-55753D01*
X108296Y-55800D01*
X104732Y-55800D01*
X104653Y-55721D01*
X104489Y-55653D01*
X104311Y-55653D01*
X104147Y-55720D01*
X104021Y-55846D01*
X103953Y-56010D01*
X103953Y-56161D01*
X103940Y-56161D01*
X103038Y-55259D01*
X103038Y-54500D01*
X103038Y-54499D01*
X103038Y-54499D01*
X103012Y-54370D01*
X102939Y-54260D01*
X102939Y-54260D01*
X102639Y-53960D01*
X102529Y-53887D01*
X102400Y-53861D01*
X101440Y-53861D01*
X101403Y-53825D01*
X101824Y-53825D01*
X101916Y-53787D01*
X101986Y-53716D01*
X102024Y-53624D01*
X102025Y-53525D01*
X102025Y-52975D01*
X101987Y-52883D01*
X101916Y-52813D01*
X101824Y-52775D01*
X101725Y-52774D01*
X101725Y-52774D01*
X101797Y-52745D01*
X101944Y-52597D01*
X102024Y-52404D01*
X102025Y-52196D01*
X101945Y-52003D01*
X101861Y-51918D01*
X104163Y-51918D01*
X104090Y-51991D01*
X103986Y-52242D01*
X103985Y-52514D01*
X104089Y-52765D01*
X104281Y-52957D01*
X104433Y-53020D01*
X104312Y-53140D01*
X104229Y-53341D01*
X104229Y-53558D01*
X104312Y-53758D01*
X104432Y-53879D01*
X104282Y-53941D01*
X104090Y-54133D01*
X103986Y-54384D01*
X103985Y-54656D01*
X104089Y-54907D01*
X104281Y-55099D01*
X104532Y-55203D01*
X104804Y-55204D01*
X105055Y-55100D01*
X105247Y-54908D01*
X105351Y-54657D01*
X105352Y-54385D01*
X105248Y-54134D01*
X105056Y-53942D01*
X105034Y-53933D01*
X105083Y-53912D01*
X105168Y-53827D01*
X105252Y-53912D01*
X105453Y-53995D01*
X105670Y-53995D01*
X105870Y-53912D01*
X105956Y-53827D01*
X106040Y-53912D01*
X106241Y-53995D01*
X106458Y-53995D01*
X106658Y-53912D01*
X106743Y-53827D01*
X106827Y-53912D01*
X106996Y-53982D01*
X106845Y-54133D01*
X106741Y-54384D01*
X106740Y-54656D01*
X106844Y-54907D01*
X107036Y-55099D01*
X107287Y-55203D01*
X107559Y-55204D01*
X107810Y-55100D01*
X108002Y-54908D01*
X108106Y-54657D01*
X108107Y-54385D01*
X108003Y-54134D01*
X107811Y-53942D01*
X107560Y-53838D01*
X107520Y-53838D01*
X107599Y-53759D01*
X107682Y-53558D01*
X107682Y-53341D01*
X107599Y-53141D01*
X107520Y-53062D01*
X107559Y-53062D01*
X107810Y-52958D01*
X108002Y-52766D01*
X108106Y-52515D01*
X108107Y-52243D01*
X108003Y-51992D01*
X107811Y-51800D01*
X107560Y-51696D01*
X107288Y-51695D01*
X107037Y-51799D01*
X106845Y-51991D01*
X106741Y-52242D01*
X106740Y-52514D01*
X106844Y-52765D01*
X106996Y-52917D01*
X106828Y-52987D01*
X106743Y-53072D01*
X106659Y-52987D01*
X106458Y-52904D01*
X106241Y-52904D01*
X106041Y-52987D01*
X105955Y-53072D01*
X105880Y-52997D01*
X105880Y-51162D01*
X105880Y-51161D01*
X105856Y-51039D01*
X105787Y-50936D01*
X105787Y-50936D01*
X105525Y-50674D01*
X105422Y-50605D01*
X105300Y-50581D01*
X92200Y-50581D01*
X92077Y-50605D01*
X92026Y-50639D01*
X92006Y-50653D01*
X91911Y-50653D01*
X91747Y-50720D01*
X91621Y-50846D01*
X91553Y-51010D01*
X91553Y-51188D01*
X91620Y-51352D01*
X91744Y-51476D01*
X90925Y-52296D01*
X90925Y-52025D01*
X90925Y-51475D01*
X90887Y-51383D01*
X90816Y-51313D01*
X90724Y-51275D01*
X90625Y-51274D01*
X90075Y-51274D01*
X89983Y-51312D01*
X89913Y-51383D01*
X89875Y-51475D01*
X89874Y-51574D01*
X89874Y-51574D01*
X89845Y-51503D01*
X89697Y-51355D01*
X89504Y-51275D01*
X89296Y-51274D01*
X89103Y-51354D01*
X88955Y-51502D01*
X88899Y-51635D01*
X88845Y-51503D01*
X88697Y-51355D01*
X88504Y-51275D01*
X88296Y-51274D01*
X88103Y-51354D01*
X87955Y-51502D01*
X87899Y-51635D01*
X87845Y-51503D01*
X87697Y-51355D01*
X87504Y-51275D01*
X87296Y-51274D01*
X87103Y-51354D01*
X86955Y-51502D01*
X86899Y-51635D01*
X86845Y-51503D01*
X86697Y-51355D01*
X86504Y-51275D01*
X86296Y-51274D01*
X86103Y-51354D01*
X85955Y-51502D01*
X85899Y-51635D01*
X85845Y-51503D01*
X85697Y-51355D01*
X85504Y-51275D01*
X85296Y-51274D01*
X85103Y-51354D01*
X84955Y-51502D01*
X84875Y-51695D01*
X84874Y-51903D01*
X84954Y-52097D01*
X85102Y-52244D01*
X85295Y-52324D01*
X85503Y-52325D01*
X85697Y-52245D01*
X85844Y-52097D01*
X85900Y-51964D01*
X85954Y-52097D01*
X86102Y-52244D01*
X86295Y-52324D01*
X86503Y-52325D01*
X86697Y-52245D01*
X86844Y-52097D01*
X86900Y-51964D01*
X86954Y-52097D01*
X87102Y-52244D01*
X87295Y-52324D01*
X87503Y-52325D01*
X87697Y-52245D01*
X87844Y-52097D01*
X87900Y-51964D01*
X87954Y-52097D01*
X88102Y-52244D01*
X88295Y-52324D01*
X88503Y-52325D01*
X88697Y-52245D01*
X88844Y-52097D01*
X88900Y-51964D01*
X88954Y-52097D01*
X89102Y-52244D01*
X89295Y-52324D01*
X89503Y-52325D01*
X89697Y-52245D01*
X89844Y-52097D01*
X89874Y-52025D01*
X89874Y-52124D01*
X89912Y-52216D01*
X89983Y-52286D01*
X90075Y-52324D01*
X90174Y-52325D01*
X90724Y-52325D01*
X90816Y-52287D01*
X90886Y-52216D01*
X90924Y-52124D01*
X90925Y-52025D01*
X90925Y-52296D01*
X89860Y-53360D01*
X89787Y-53470D01*
X89761Y-53600D01*
X89761Y-57559D01*
X89636Y-57685D01*
X89579Y-57547D01*
X89453Y-57421D01*
X89289Y-57353D01*
X89228Y-57353D01*
X89228Y-53300D01*
X89203Y-53174D01*
X89203Y-53174D01*
X89132Y-53067D01*
X88632Y-52567D01*
X88525Y-52496D01*
X88400Y-52471D01*
X85036Y-52471D01*
X84784Y-52219D01*
X84786Y-52216D01*
X84824Y-52124D01*
X84825Y-52025D01*
X84825Y-51475D01*
X84787Y-51383D01*
X84716Y-51313D01*
X84624Y-51275D01*
X84525Y-51274D01*
X83975Y-51274D01*
X83883Y-51312D01*
X83813Y-51383D01*
X83775Y-51475D01*
X83774Y-51574D01*
X83774Y-51574D01*
X83745Y-51503D01*
X83597Y-51355D01*
X83404Y-51275D01*
X83196Y-51274D01*
X83003Y-51354D01*
X82855Y-51502D01*
X82799Y-51635D01*
X82745Y-51503D01*
X82597Y-51355D01*
X82404Y-51275D01*
X82196Y-51274D01*
X82003Y-51354D01*
X81855Y-51502D01*
X81799Y-51635D01*
X81745Y-51503D01*
X81597Y-51355D01*
X81404Y-51275D01*
X81196Y-51274D01*
X81003Y-51354D01*
X80855Y-51502D01*
X80800Y-51635D01*
X80799Y-51634D01*
X80745Y-51503D01*
X80597Y-51355D01*
X80404Y-51275D01*
X80196Y-51274D01*
X80003Y-51354D01*
X79855Y-51502D01*
X79799Y-51635D01*
X79745Y-51503D01*
X79597Y-51355D01*
X79404Y-51275D01*
X79196Y-51274D01*
X79118Y-51306D01*
X79118Y-50500D01*
X79094Y-50377D01*
X79094Y-50377D01*
X79060Y-50326D01*
X79025Y-50274D01*
X79025Y-50274D01*
X78950Y-50199D01*
X111346Y-50199D01*
X111257Y-50236D01*
X111037Y-50456D01*
X110917Y-50743D01*
X110917Y-51054D01*
X111036Y-51342D01*
X111256Y-51562D01*
X111543Y-51682D01*
X111854Y-51682D01*
X112142Y-51563D01*
X112360Y-51346D01*
X112360Y-64592D01*
G54D10*
G36*
X112360Y-74028D02*
X112355Y-74023D01*
X112360Y-73941D01*
X112360Y-74028D01*
X112360Y-74028D01*
G37*
G54D38*
X112360Y-74028D02*
X112355Y-74023D01*
X112360Y-73941D01*
X112360Y-74028D01*
G54D10*
G36*
X112360Y-78054D02*
X112143Y-77837D01*
X111856Y-77717D01*
X111545Y-77717D01*
X111257Y-77836D01*
X111037Y-78056D01*
X110917Y-78343D01*
X110917Y-78654D01*
X111036Y-78942D01*
X111214Y-79120D01*
X100625Y-79120D01*
X100625Y-76296D01*
X100545Y-76103D01*
X100397Y-75955D01*
X100204Y-75875D01*
X99996Y-75874D01*
X99803Y-75954D01*
X99655Y-76102D01*
X99599Y-76235D01*
X99545Y-76103D01*
X99397Y-75955D01*
X99204Y-75875D01*
X98996Y-75874D01*
X98803Y-75954D01*
X98655Y-76102D01*
X98599Y-76235D01*
X98545Y-76103D01*
X98397Y-75955D01*
X98204Y-75875D01*
X97996Y-75874D01*
X97803Y-75954D01*
X97655Y-76102D01*
X97625Y-76174D01*
X97625Y-76075D01*
X97587Y-75983D01*
X97516Y-75913D01*
X97424Y-75875D01*
X97325Y-75874D01*
X96775Y-75874D01*
X96683Y-75912D01*
X96613Y-75983D01*
X96595Y-76026D01*
X96577Y-75983D01*
X96506Y-75913D01*
X96414Y-75875D01*
X96315Y-75874D01*
X95765Y-75874D01*
X95673Y-75912D01*
X95603Y-75983D01*
X95565Y-76075D01*
X95564Y-76174D01*
X95564Y-76174D01*
X95535Y-76103D01*
X95387Y-75955D01*
X95194Y-75875D01*
X94986Y-75874D01*
X94793Y-75954D01*
X94645Y-76102D01*
X94589Y-76235D01*
X94535Y-76103D01*
X94387Y-75955D01*
X94194Y-75875D01*
X93986Y-75874D01*
X93793Y-75954D01*
X93645Y-76102D01*
X93589Y-76235D01*
X93535Y-76103D01*
X93387Y-75955D01*
X93194Y-75875D01*
X92986Y-75874D01*
X92793Y-75954D01*
X92645Y-76102D01*
X92589Y-76235D01*
X92535Y-76103D01*
X92387Y-75955D01*
X92194Y-75875D01*
X91986Y-75874D01*
X91793Y-75954D01*
X91645Y-76102D01*
X91589Y-76235D01*
X91535Y-76103D01*
X91387Y-75955D01*
X91194Y-75875D01*
X90986Y-75874D01*
X90793Y-75954D01*
X90645Y-76102D01*
X90589Y-76235D01*
X90535Y-76103D01*
X90387Y-75955D01*
X90194Y-75875D01*
X89986Y-75874D01*
X89793Y-75954D01*
X89645Y-76102D01*
X89589Y-76235D01*
X89535Y-76103D01*
X89387Y-75955D01*
X89194Y-75875D01*
X88986Y-75874D01*
X88793Y-75954D01*
X88645Y-76102D01*
X88589Y-76235D01*
X88535Y-76103D01*
X88387Y-75955D01*
X88194Y-75875D01*
X87986Y-75874D01*
X87793Y-75954D01*
X87645Y-76102D01*
X87589Y-76235D01*
X87535Y-76103D01*
X87387Y-75955D01*
X87194Y-75875D01*
X86986Y-75874D01*
X86793Y-75954D01*
X86645Y-76102D01*
X86594Y-76223D01*
X86545Y-76103D01*
X86397Y-75955D01*
X86204Y-75875D01*
X85996Y-75874D01*
X85803Y-75954D01*
X85655Y-76102D01*
X85625Y-76174D01*
X85625Y-76075D01*
X85587Y-75983D01*
X85516Y-75913D01*
X85424Y-75875D01*
X85325Y-75874D01*
X84775Y-75874D01*
X84683Y-75912D01*
X84613Y-75983D01*
X84575Y-76075D01*
X84574Y-76174D01*
X84574Y-76174D01*
X84545Y-76103D01*
X84397Y-75955D01*
X84204Y-75875D01*
X83996Y-75874D01*
X83803Y-75954D01*
X83655Y-76102D01*
X83599Y-76235D01*
X83545Y-76103D01*
X83397Y-75955D01*
X83204Y-75875D01*
X82996Y-75874D01*
X82803Y-75954D01*
X82655Y-76102D01*
X82599Y-76235D01*
X82545Y-76103D01*
X82397Y-75955D01*
X82204Y-75875D01*
X81996Y-75874D01*
X81803Y-75954D01*
X81655Y-76102D01*
X81599Y-76235D01*
X81545Y-76103D01*
X81397Y-75955D01*
X81204Y-75875D01*
X80996Y-75874D01*
X80803Y-75954D01*
X80655Y-76102D01*
X80625Y-76174D01*
X80625Y-76075D01*
X80587Y-75983D01*
X80516Y-75913D01*
X80424Y-75875D01*
X80325Y-75874D01*
X79903Y-75874D01*
X79939Y-75839D01*
X80012Y-75729D01*
X80038Y-75600D01*
X80038Y-75293D01*
X80078Y-75253D01*
X80146Y-75089D01*
X80146Y-74911D01*
X80079Y-74747D01*
X79953Y-74621D01*
X79789Y-74553D01*
X79611Y-74553D01*
X79447Y-74620D01*
X79321Y-74746D01*
X79253Y-74910D01*
X79253Y-75088D01*
X79320Y-75252D01*
X79361Y-75293D01*
X79361Y-75459D01*
X78668Y-76153D01*
X78611Y-76153D01*
X78447Y-76220D01*
X78321Y-76346D01*
X78253Y-76510D01*
X78253Y-76688D01*
X78320Y-76852D01*
X78446Y-76978D01*
X78610Y-77046D01*
X78788Y-77046D01*
X78952Y-76979D01*
X79078Y-76853D01*
X79146Y-76689D01*
X79146Y-76632D01*
X79574Y-76203D01*
X79574Y-76724D01*
X79612Y-76816D01*
X79683Y-76886D01*
X79775Y-76924D01*
X79874Y-76925D01*
X80424Y-76925D01*
X80516Y-76887D01*
X80586Y-76816D01*
X80624Y-76724D01*
X80625Y-76625D01*
X80625Y-76625D01*
X80654Y-76697D01*
X80802Y-76844D01*
X80995Y-76924D01*
X81203Y-76925D01*
X81397Y-76845D01*
X81544Y-76697D01*
X81600Y-76564D01*
X81654Y-76697D01*
X81802Y-76844D01*
X81995Y-76924D01*
X82203Y-76925D01*
X82397Y-76845D01*
X82544Y-76697D01*
X82600Y-76564D01*
X82654Y-76697D01*
X82802Y-76844D01*
X82995Y-76924D01*
X83203Y-76925D01*
X83397Y-76845D01*
X83544Y-76697D01*
X83600Y-76564D01*
X83654Y-76697D01*
X83802Y-76844D01*
X83995Y-76924D01*
X84203Y-76925D01*
X84397Y-76845D01*
X84544Y-76697D01*
X84574Y-76625D01*
X84574Y-76724D01*
X84612Y-76816D01*
X84683Y-76886D01*
X84775Y-76924D01*
X84874Y-76925D01*
X85424Y-76925D01*
X85516Y-76887D01*
X85586Y-76816D01*
X85624Y-76724D01*
X85625Y-76625D01*
X85625Y-76625D01*
X85654Y-76697D01*
X85802Y-76844D01*
X85995Y-76924D01*
X86203Y-76925D01*
X86397Y-76845D01*
X86544Y-76697D01*
X86595Y-76576D01*
X86644Y-76697D01*
X86792Y-76844D01*
X86985Y-76924D01*
X87193Y-76925D01*
X87387Y-76845D01*
X87534Y-76697D01*
X87590Y-76564D01*
X87644Y-76697D01*
X87792Y-76844D01*
X87985Y-76924D01*
X88193Y-76925D01*
X88387Y-76845D01*
X88534Y-76697D01*
X88590Y-76564D01*
X88644Y-76697D01*
X88792Y-76844D01*
X88985Y-76924D01*
X89193Y-76925D01*
X89387Y-76845D01*
X89534Y-76697D01*
X89590Y-76564D01*
X89644Y-76697D01*
X89792Y-76844D01*
X89985Y-76924D01*
X90193Y-76925D01*
X90387Y-76845D01*
X90534Y-76697D01*
X90590Y-76564D01*
X90644Y-76697D01*
X90792Y-76844D01*
X90985Y-76924D01*
X91193Y-76925D01*
X91387Y-76845D01*
X91534Y-76697D01*
X91590Y-76564D01*
X91644Y-76697D01*
X91792Y-76844D01*
X91985Y-76924D01*
X92193Y-76925D01*
X92387Y-76845D01*
X92534Y-76697D01*
X92590Y-76564D01*
X92644Y-76697D01*
X92792Y-76844D01*
X92985Y-76924D01*
X93193Y-76925D01*
X93387Y-76845D01*
X93534Y-76697D01*
X93590Y-76564D01*
X93644Y-76697D01*
X93792Y-76844D01*
X93985Y-76924D01*
X94193Y-76925D01*
X94387Y-76845D01*
X94534Y-76697D01*
X94590Y-76564D01*
X94644Y-76697D01*
X94792Y-76844D01*
X94985Y-76924D01*
X95193Y-76925D01*
X95387Y-76845D01*
X95534Y-76697D01*
X95564Y-76625D01*
X95564Y-76724D01*
X95602Y-76816D01*
X95673Y-76886D01*
X95765Y-76924D01*
X95864Y-76925D01*
X96414Y-76925D01*
X96506Y-76887D01*
X96576Y-76816D01*
X96594Y-76773D01*
X96612Y-76816D01*
X96683Y-76886D01*
X96775Y-76924D01*
X96874Y-76925D01*
X97424Y-76925D01*
X97516Y-76887D01*
X97586Y-76816D01*
X97624Y-76724D01*
X97625Y-76625D01*
X97625Y-76625D01*
X97654Y-76697D01*
X97802Y-76844D01*
X97995Y-76924D01*
X98203Y-76925D01*
X98397Y-76845D01*
X98544Y-76697D01*
X98600Y-76564D01*
X98654Y-76697D01*
X98802Y-76844D01*
X98995Y-76924D01*
X99203Y-76925D01*
X99397Y-76845D01*
X99544Y-76697D01*
X99600Y-76564D01*
X99654Y-76697D01*
X99802Y-76844D01*
X99995Y-76924D01*
X100203Y-76925D01*
X100397Y-76845D01*
X100544Y-76697D01*
X100624Y-76504D01*
X100625Y-76296D01*
X100625Y-79120D01*
X71285Y-79120D01*
X71462Y-78943D01*
X71582Y-78656D01*
X71582Y-78345D01*
X71463Y-78057D01*
X71243Y-77837D01*
X70956Y-77717D01*
X70645Y-77717D01*
X70357Y-77836D01*
X70137Y-78056D01*
X70129Y-78074D01*
X70129Y-66683D01*
X70363Y-66683D01*
X70455Y-66645D01*
X70525Y-66575D01*
X70563Y-66483D01*
X70564Y-66383D01*
X70564Y-65990D01*
X70526Y-65899D01*
X70455Y-65828D01*
X70363Y-65790D01*
X70264Y-65790D01*
X70129Y-65790D01*
X70129Y-63809D01*
X70363Y-63809D01*
X70455Y-63771D01*
X70525Y-63700D01*
X70563Y-63608D01*
X70564Y-63509D01*
X70564Y-63117D01*
X70526Y-63025D01*
X70455Y-62955D01*
X70363Y-62917D01*
X70264Y-62916D01*
X70129Y-62916D01*
X70129Y-50199D01*
X73462Y-50199D01*
X73335Y-50251D01*
X73124Y-50462D01*
X73010Y-50738D01*
X73010Y-50797D01*
X72770Y-50697D01*
X72389Y-50697D01*
X72036Y-50842D01*
X71766Y-51112D01*
X71653Y-51384D01*
X71654Y-51153D01*
X71555Y-50914D01*
X71372Y-50731D01*
X71133Y-50632D01*
X70875Y-50631D01*
X70636Y-50730D01*
X70453Y-50913D01*
X70354Y-51152D01*
X70353Y-51410D01*
X70452Y-51649D01*
X70586Y-51784D01*
X70453Y-51917D01*
X70354Y-52156D01*
X70353Y-52414D01*
X70452Y-52653D01*
X70635Y-52836D01*
X70874Y-52935D01*
X71132Y-52936D01*
X71371Y-52837D01*
X71554Y-52654D01*
X71653Y-52415D01*
X71654Y-52157D01*
X71555Y-51918D01*
X71421Y-51783D01*
X71554Y-51650D01*
X71620Y-51491D01*
X71620Y-51845D01*
X71765Y-52198D01*
X72035Y-52468D01*
X72387Y-52614D01*
X72768Y-52614D01*
X73121Y-52469D01*
X73181Y-52409D01*
X73181Y-52800D01*
X73205Y-52922D01*
X73274Y-53025D01*
X73626Y-53377D01*
X73626Y-53377D01*
X73678Y-53412D01*
X73729Y-53446D01*
X73729Y-53446D01*
X73852Y-53470D01*
X74507Y-53470D01*
X74527Y-53519D01*
X74651Y-53644D01*
X74528Y-53767D01*
X74429Y-54006D01*
X74428Y-54264D01*
X74527Y-54503D01*
X74671Y-54648D01*
X74528Y-54791D01*
X74429Y-55030D01*
X74428Y-55288D01*
X74527Y-55527D01*
X74710Y-55710D01*
X74949Y-55809D01*
X75207Y-55810D01*
X75432Y-55717D01*
X75432Y-55760D01*
X75531Y-55999D01*
X75714Y-56182D01*
X75953Y-56281D01*
X76211Y-56282D01*
X76450Y-56183D01*
X76633Y-56000D01*
X76732Y-55761D01*
X76732Y-55711D01*
X77560Y-56539D01*
X77622Y-56580D01*
X77575Y-56695D01*
X77574Y-56903D01*
X77606Y-56981D01*
X75732Y-56981D01*
X73125Y-54374D01*
X73022Y-54305D01*
X72900Y-54281D01*
X72500Y-54281D01*
X72377Y-54305D01*
X72326Y-54339D01*
X72274Y-54374D01*
X71529Y-55119D01*
X71372Y-54963D01*
X71133Y-54864D01*
X70875Y-54863D01*
X70636Y-54962D01*
X70453Y-55145D01*
X70354Y-55384D01*
X70353Y-55642D01*
X70452Y-55881D01*
X70586Y-56016D01*
X70453Y-56149D01*
X70354Y-56388D01*
X70353Y-56646D01*
X70452Y-56885D01*
X70635Y-57068D01*
X70685Y-57089D01*
X70685Y-57104D01*
X70709Y-57226D01*
X70778Y-57329D01*
X71574Y-58125D01*
X71574Y-58125D01*
X71626Y-58160D01*
X71677Y-58194D01*
X71677Y-58194D01*
X71800Y-58218D01*
X75267Y-58218D01*
X75574Y-58525D01*
X75574Y-58525D01*
X75677Y-58594D01*
X75799Y-58618D01*
X75800Y-58618D01*
X77606Y-58618D01*
X77575Y-58695D01*
X77574Y-58903D01*
X77654Y-59097D01*
X77802Y-59244D01*
X77935Y-59300D01*
X77803Y-59354D01*
X77655Y-59502D01*
X77575Y-59695D01*
X77574Y-59903D01*
X77654Y-60097D01*
X77802Y-60244D01*
X77935Y-60300D01*
X77803Y-60354D01*
X77655Y-60502D01*
X77575Y-60695D01*
X77574Y-60903D01*
X77654Y-61097D01*
X77802Y-61244D01*
X77935Y-61300D01*
X77803Y-61354D01*
X77655Y-61502D01*
X77575Y-61695D01*
X77574Y-61903D01*
X77654Y-62097D01*
X77802Y-62244D01*
X77903Y-62286D01*
X77763Y-62344D01*
X77615Y-62492D01*
X77535Y-62685D01*
X77534Y-62893D01*
X77614Y-63087D01*
X77762Y-63234D01*
X77895Y-63290D01*
X77763Y-63344D01*
X77615Y-63492D01*
X77535Y-63685D01*
X77534Y-63893D01*
X77614Y-64087D01*
X77762Y-64234D01*
X77895Y-64290D01*
X77763Y-64344D01*
X77615Y-64492D01*
X77535Y-64685D01*
X77534Y-64893D01*
X77614Y-65087D01*
X77762Y-65234D01*
X77895Y-65290D01*
X77763Y-65344D01*
X77615Y-65492D01*
X77535Y-65685D01*
X77534Y-65893D01*
X77614Y-66087D01*
X77762Y-66234D01*
X77895Y-66290D01*
X77763Y-66344D01*
X77615Y-66492D01*
X77535Y-66685D01*
X77534Y-66893D01*
X77614Y-67087D01*
X77762Y-67234D01*
X77895Y-67290D01*
X77763Y-67344D01*
X77615Y-67492D01*
X77535Y-67685D01*
X77534Y-67893D01*
X77614Y-68087D01*
X77762Y-68234D01*
X77895Y-68290D01*
X77763Y-68344D01*
X77615Y-68492D01*
X77535Y-68685D01*
X77534Y-68893D01*
X77614Y-69087D01*
X77762Y-69234D01*
X77895Y-69290D01*
X77763Y-69344D01*
X77615Y-69492D01*
X77535Y-69685D01*
X77534Y-69893D01*
X77614Y-70087D01*
X77762Y-70234D01*
X77834Y-70264D01*
X77735Y-70264D01*
X77643Y-70302D01*
X77573Y-70373D01*
X77535Y-70465D01*
X77534Y-70564D01*
X77534Y-71114D01*
X77572Y-71206D01*
X77627Y-71261D01*
X77500Y-71261D01*
X77499Y-71261D01*
X77370Y-71287D01*
X77260Y-71360D01*
X77260Y-71360D01*
X77260Y-71360D01*
X77182Y-71438D01*
X77182Y-62245D01*
X77063Y-61957D01*
X76843Y-61737D01*
X76556Y-61617D01*
X76245Y-61617D01*
X75957Y-61736D01*
X75737Y-61956D01*
X75617Y-62243D01*
X75617Y-62554D01*
X75736Y-62842D01*
X75956Y-63062D01*
X76243Y-63182D01*
X76554Y-63182D01*
X76842Y-63063D01*
X77062Y-62843D01*
X77182Y-62556D01*
X77182Y-62245D01*
X77182Y-71438D01*
X76646Y-71974D01*
X76646Y-71911D01*
X76579Y-71747D01*
X76453Y-71621D01*
X76438Y-71615D01*
X76438Y-70600D01*
X76438Y-70493D01*
X76478Y-70453D01*
X76546Y-70289D01*
X76546Y-70111D01*
X76479Y-69947D01*
X76438Y-69906D01*
X76438Y-68200D01*
X76412Y-68070D01*
X76339Y-67960D01*
X76339Y-67960D01*
X75446Y-67068D01*
X75446Y-67011D01*
X75420Y-66948D01*
X75555Y-66948D01*
X75853Y-67246D01*
X75853Y-67246D01*
X75966Y-67321D01*
X76099Y-67348D01*
X76099Y-67348D01*
X76100Y-67348D01*
X76416Y-67348D01*
X76446Y-67378D01*
X76610Y-67446D01*
X76788Y-67446D01*
X76952Y-67379D01*
X77078Y-67253D01*
X77146Y-67089D01*
X77146Y-66911D01*
X77079Y-66747D01*
X76953Y-66621D01*
X76789Y-66553D01*
X76611Y-66553D01*
X76447Y-66620D01*
X76416Y-66651D01*
X76244Y-66651D01*
X75946Y-66353D01*
X75873Y-66305D01*
X76031Y-66146D01*
X76088Y-66146D01*
X76252Y-66079D01*
X76378Y-65953D01*
X76446Y-65789D01*
X76446Y-65611D01*
X76379Y-65447D01*
X76253Y-65321D01*
X76089Y-65253D01*
X75911Y-65253D01*
X75747Y-65320D01*
X75621Y-65446D01*
X75553Y-65610D01*
X75553Y-65667D01*
X75259Y-65961D01*
X74593Y-65961D01*
X74553Y-65921D01*
X74389Y-65853D01*
X74211Y-65853D01*
X74048Y-65920D01*
X74048Y-63500D01*
X74021Y-63366D01*
X73946Y-63253D01*
X73858Y-63195D01*
X73936Y-63195D01*
X74376Y-63013D01*
X74712Y-62677D01*
X74894Y-62238D01*
X74895Y-61763D01*
X74713Y-61323D01*
X74584Y-61195D01*
X76194Y-61195D01*
X76286Y-61157D01*
X76356Y-61086D01*
X76394Y-60994D01*
X76395Y-60895D01*
X76395Y-59005D01*
X76357Y-58913D01*
X76286Y-58843D01*
X76194Y-58805D01*
X76095Y-58804D01*
X74205Y-58804D01*
X74113Y-58842D01*
X74043Y-58913D01*
X74005Y-59005D01*
X74004Y-59104D01*
X74004Y-60832D01*
X73938Y-60805D01*
X73685Y-60804D01*
X73812Y-60677D01*
X73994Y-60238D01*
X73995Y-59763D01*
X73813Y-59323D01*
X73477Y-58987D01*
X73038Y-58805D01*
X72563Y-58804D01*
X72123Y-58986D01*
X71787Y-59322D01*
X71605Y-59761D01*
X71604Y-60236D01*
X71786Y-60676D01*
X72072Y-60962D01*
X71867Y-61167D01*
X71796Y-61274D01*
X71771Y-61400D01*
X71771Y-63063D01*
X71430Y-63405D01*
X71430Y-63117D01*
X71392Y-63025D01*
X71321Y-62955D01*
X71229Y-62917D01*
X71130Y-62916D01*
X70816Y-62916D01*
X70724Y-62954D01*
X70654Y-63025D01*
X70616Y-63117D01*
X70615Y-63216D01*
X70615Y-63608D01*
X70653Y-63700D01*
X70724Y-63770D01*
X70734Y-63774D01*
X70733Y-63807D01*
X70675Y-63783D01*
X70505Y-63782D01*
X70348Y-63847D01*
X70228Y-63967D01*
X70163Y-64124D01*
X70162Y-64294D01*
X70227Y-64451D01*
X70347Y-64571D01*
X70504Y-64636D01*
X70674Y-64637D01*
X70733Y-64612D01*
X70733Y-64692D01*
X70771Y-64783D01*
X70842Y-64854D01*
X70934Y-64892D01*
X71033Y-64892D01*
X71542Y-64892D01*
X71137Y-65297D01*
X71013Y-65297D01*
X70952Y-65148D01*
X70832Y-65028D01*
X70675Y-64963D01*
X70505Y-64962D01*
X70348Y-65027D01*
X70228Y-65147D01*
X70163Y-65304D01*
X70162Y-65474D01*
X70227Y-65631D01*
X70347Y-65751D01*
X70504Y-65816D01*
X70674Y-65817D01*
X70733Y-65792D01*
X70733Y-65824D01*
X70723Y-65828D01*
X70653Y-65899D01*
X70615Y-65991D01*
X70614Y-66090D01*
X70614Y-66482D01*
X70652Y-66574D01*
X70723Y-66644D01*
X70815Y-66682D01*
X70914Y-66683D01*
X71228Y-66683D01*
X71320Y-66645D01*
X71390Y-66574D01*
X71428Y-66482D01*
X71429Y-66383D01*
X71429Y-66072D01*
X71623Y-66072D01*
X71715Y-66034D01*
X71785Y-65964D01*
X71823Y-65872D01*
X71824Y-65772D01*
X71824Y-65540D01*
X72118Y-65246D01*
X72188Y-65246D01*
X72352Y-65179D01*
X72478Y-65053D01*
X72546Y-64889D01*
X72546Y-64711D01*
X72479Y-64547D01*
X72353Y-64421D01*
X72189Y-64353D01*
X72011Y-64353D01*
X71847Y-64420D01*
X71824Y-64444D01*
X71824Y-64317D01*
X71786Y-64226D01*
X71770Y-64210D01*
X71785Y-64194D01*
X71823Y-64102D01*
X71824Y-64002D01*
X71824Y-63940D01*
X72274Y-63490D01*
X72410Y-63546D01*
X72454Y-63546D01*
X72653Y-63746D01*
X72653Y-63746D01*
X72766Y-63821D01*
X72899Y-63848D01*
X72899Y-63848D01*
X72900Y-63848D01*
X73351Y-63848D01*
X73351Y-66499D01*
X73351Y-66500D01*
X73373Y-66611D01*
X73378Y-66633D01*
X73453Y-66746D01*
X73753Y-67046D01*
X73753Y-67046D01*
X73866Y-67121D01*
X73895Y-67127D01*
X73946Y-67178D01*
X74110Y-67246D01*
X74288Y-67246D01*
X74452Y-67179D01*
X74483Y-67148D01*
X74553Y-67148D01*
X74553Y-67188D01*
X74620Y-67352D01*
X74746Y-67478D01*
X74910Y-67546D01*
X74967Y-67546D01*
X75415Y-67994D01*
X75382Y-67987D01*
X75354Y-67976D01*
X73858Y-67726D01*
X73753Y-67621D01*
X73589Y-67553D01*
X73411Y-67553D01*
X73247Y-67620D01*
X73238Y-67629D01*
X73238Y-67584D01*
X73252Y-67579D01*
X73378Y-67453D01*
X73446Y-67289D01*
X73446Y-67111D01*
X73379Y-66947D01*
X73253Y-66821D01*
X73089Y-66753D01*
X72911Y-66753D01*
X72747Y-66820D01*
X72621Y-66946D01*
X72553Y-67110D01*
X72553Y-67288D01*
X72561Y-67308D01*
X72561Y-68000D01*
X72587Y-68129D01*
X72660Y-68239D01*
X72714Y-68293D01*
X72647Y-68320D01*
X72596Y-68371D01*
X71203Y-68371D01*
X71153Y-68321D01*
X70989Y-68253D01*
X70811Y-68253D01*
X70647Y-68320D01*
X70521Y-68446D01*
X70453Y-68610D01*
X70453Y-68788D01*
X70520Y-68952D01*
X70646Y-69078D01*
X70810Y-69146D01*
X70988Y-69146D01*
X71152Y-69079D01*
X71203Y-69028D01*
X72596Y-69028D01*
X72646Y-69078D01*
X72810Y-69146D01*
X72988Y-69146D01*
X73061Y-69116D01*
X73061Y-71261D01*
X72993Y-71261D01*
X72953Y-71221D01*
X72789Y-71153D01*
X72611Y-71153D01*
X72447Y-71220D01*
X72321Y-71346D01*
X72253Y-71510D01*
X72253Y-71688D01*
X72320Y-71852D01*
X72446Y-71978D01*
X72610Y-72046D01*
X72753Y-72046D01*
X72753Y-72188D01*
X72820Y-72352D01*
X72946Y-72478D01*
X73110Y-72546D01*
X73288Y-72546D01*
X73452Y-72479D01*
X73578Y-72353D01*
X73626Y-72238D01*
X73659Y-72238D01*
X74060Y-72639D01*
X74092Y-72660D01*
X73947Y-72720D01*
X73821Y-72846D01*
X73753Y-73010D01*
X73753Y-73188D01*
X73820Y-73352D01*
X73946Y-73478D01*
X74110Y-73546D01*
X74288Y-73546D01*
X74452Y-73479D01*
X74578Y-73353D01*
X74646Y-73189D01*
X74646Y-73132D01*
X74740Y-73038D01*
X77200Y-73038D01*
X77329Y-73012D01*
X77329Y-73012D01*
X77439Y-72939D01*
X77453Y-72925D01*
X77453Y-72988D01*
X77460Y-73006D01*
X76809Y-74226D01*
X75994Y-75484D01*
X75979Y-75447D01*
X75853Y-75321D01*
X75689Y-75253D01*
X75511Y-75253D01*
X75347Y-75320D01*
X75296Y-75371D01*
X74603Y-75371D01*
X74553Y-75321D01*
X74389Y-75253D01*
X74211Y-75253D01*
X74047Y-75320D01*
X73921Y-75446D01*
X73853Y-75610D01*
X73853Y-75761D01*
X73387Y-75761D01*
X72538Y-74402D01*
X72538Y-73700D01*
X72512Y-73570D01*
X72439Y-73460D01*
X72046Y-73068D01*
X72046Y-73011D01*
X71979Y-72847D01*
X71853Y-72721D01*
X71689Y-72653D01*
X71511Y-72653D01*
X71347Y-72720D01*
X71221Y-72846D01*
X71153Y-73010D01*
X71153Y-73188D01*
X71220Y-73352D01*
X71346Y-73478D01*
X71510Y-73546D01*
X71567Y-73546D01*
X71861Y-73840D01*
X71861Y-74500D01*
X71866Y-74527D01*
X71866Y-74555D01*
X71879Y-74591D01*
X71887Y-74629D01*
X71902Y-74653D01*
X71912Y-74679D01*
X72907Y-76271D01*
X72636Y-76271D01*
X71846Y-75481D01*
X71846Y-75411D01*
X71779Y-75247D01*
X71653Y-75121D01*
X71489Y-75053D01*
X71311Y-75053D01*
X71147Y-75120D01*
X71021Y-75246D01*
X70953Y-75410D01*
X70953Y-75588D01*
X71020Y-75752D01*
X71146Y-75878D01*
X71310Y-75946D01*
X71381Y-75946D01*
X72106Y-76671D01*
X71930Y-76671D01*
X71879Y-76547D01*
X71753Y-76421D01*
X71589Y-76353D01*
X71411Y-76353D01*
X71247Y-76420D01*
X71121Y-76546D01*
X71100Y-76598D01*
X71079Y-76547D01*
X70953Y-76421D01*
X70789Y-76353D01*
X70611Y-76353D01*
X70447Y-76420D01*
X70321Y-76546D01*
X70253Y-76710D01*
X70253Y-76888D01*
X70320Y-77052D01*
X70446Y-77178D01*
X70610Y-77246D01*
X70667Y-77246D01*
X71060Y-77639D01*
X71170Y-77712D01*
X71300Y-77738D01*
X72650Y-77738D01*
X72700Y-77748D01*
X75799Y-77748D01*
X75800Y-77748D01*
X75800Y-77748D01*
X75911Y-77726D01*
X75933Y-77721D01*
X75933Y-77721D01*
X76046Y-77646D01*
X77246Y-76446D01*
X77246Y-76446D01*
X77246Y-76446D01*
X77321Y-76333D01*
X77348Y-76200D01*
X77348Y-76200D01*
X77348Y-76200D01*
X77348Y-75644D01*
X77930Y-75062D01*
X77946Y-75078D01*
X78110Y-75146D01*
X78288Y-75146D01*
X78452Y-75079D01*
X78578Y-74953D01*
X78646Y-74789D01*
X78646Y-74611D01*
X78579Y-74447D01*
X78453Y-74321D01*
X78289Y-74253D01*
X78111Y-74253D01*
X77947Y-74320D01*
X77916Y-74351D01*
X77800Y-74351D01*
X77799Y-74351D01*
X77666Y-74378D01*
X77553Y-74453D01*
X77553Y-74453D01*
X77312Y-74695D01*
X77384Y-74583D01*
X77389Y-74571D01*
X77398Y-74559D01*
X78062Y-73316D01*
X78152Y-73279D01*
X78278Y-73153D01*
X78346Y-72989D01*
X78346Y-72811D01*
X78279Y-72647D01*
X78153Y-72521D01*
X77989Y-72453D01*
X77925Y-72453D01*
X77940Y-72438D01*
X79000Y-72438D01*
X79100Y-72438D01*
X101206Y-72438D01*
X101246Y-72478D01*
X101410Y-72546D01*
X101588Y-72546D01*
X101752Y-72479D01*
X101878Y-72353D01*
X101946Y-72189D01*
X101946Y-72011D01*
X101916Y-71938D01*
X102859Y-71938D01*
X103460Y-72539D01*
X103460Y-72539D01*
X103570Y-72612D01*
X103699Y-72638D01*
X103699Y-72638D01*
X103700Y-72638D01*
X103762Y-72638D01*
X103852Y-72729D01*
X103702Y-72791D01*
X103510Y-72983D01*
X103406Y-73234D01*
X103405Y-73506D01*
X103509Y-73757D01*
X103701Y-73949D01*
X103952Y-74053D01*
X104224Y-74054D01*
X104475Y-73950D01*
X104667Y-73758D01*
X104759Y-73538D01*
X105321Y-74099D01*
X104660Y-74760D01*
X104587Y-74869D01*
X104518Y-74702D01*
X104326Y-74510D01*
X104075Y-74406D01*
X103803Y-74405D01*
X103552Y-74509D01*
X103360Y-74701D01*
X103256Y-74952D01*
X103255Y-75224D01*
X103359Y-75475D01*
X103551Y-75667D01*
X103703Y-75730D01*
X103582Y-75850D01*
X103499Y-76051D01*
X103499Y-76268D01*
X103582Y-76468D01*
X103702Y-76589D01*
X103552Y-76651D01*
X103360Y-76843D01*
X103256Y-77094D01*
X103255Y-77366D01*
X103359Y-77617D01*
X103551Y-77809D01*
X103802Y-77913D01*
X104074Y-77914D01*
X104325Y-77810D01*
X104517Y-77618D01*
X104621Y-77367D01*
X104622Y-77095D01*
X104518Y-76844D01*
X104326Y-76652D01*
X104304Y-76643D01*
X104353Y-76622D01*
X104438Y-76537D01*
X104522Y-76622D01*
X104723Y-76705D01*
X104940Y-76705D01*
X105140Y-76622D01*
X105226Y-76537D01*
X105310Y-76622D01*
X105511Y-76705D01*
X105728Y-76705D01*
X105928Y-76622D01*
X106013Y-76537D01*
X106097Y-76622D01*
X106266Y-76692D01*
X106115Y-76843D01*
X106011Y-77094D01*
X106010Y-77366D01*
X106114Y-77617D01*
X106306Y-77809D01*
X106557Y-77913D01*
X106829Y-77914D01*
X107080Y-77810D01*
X107272Y-77618D01*
X107376Y-77367D01*
X107377Y-77095D01*
X107273Y-76844D01*
X107081Y-76652D01*
X106830Y-76548D01*
X106790Y-76548D01*
X106869Y-76469D01*
X106952Y-76268D01*
X106952Y-76051D01*
X106869Y-75851D01*
X106790Y-75772D01*
X106829Y-75772D01*
X107080Y-75668D01*
X107272Y-75476D01*
X107376Y-75225D01*
X107377Y-74953D01*
X107273Y-74702D01*
X107081Y-74510D01*
X106908Y-74438D01*
X111300Y-74438D01*
X111344Y-74429D01*
X111389Y-74426D01*
X111408Y-74416D01*
X111429Y-74412D01*
X111467Y-74387D01*
X111507Y-74367D01*
X111521Y-74351D01*
X111539Y-74339D01*
X111553Y-74318D01*
X111553Y-74388D01*
X111620Y-74552D01*
X111746Y-74678D01*
X111910Y-74746D01*
X112088Y-74746D01*
X112252Y-74679D01*
X112360Y-74571D01*
X112360Y-78054D01*
X112360Y-78054D01*
G37*
G54D38*
X112360Y-78054D02*
X112143Y-77837D01*
X111856Y-77717D01*
X111545Y-77717D01*
X111257Y-77836D01*
X111037Y-78056D01*
X110917Y-78343D01*
X110917Y-78654D01*
X111036Y-78942D01*
X111214Y-79120D01*
X100625Y-79120D01*
X100625Y-76296D01*
X100545Y-76103D01*
X100397Y-75955D01*
X100204Y-75875D01*
X99996Y-75874D01*
X99803Y-75954D01*
X99655Y-76102D01*
X99599Y-76235D01*
X99545Y-76103D01*
X99397Y-75955D01*
X99204Y-75875D01*
X98996Y-75874D01*
X98803Y-75954D01*
X98655Y-76102D01*
X98599Y-76235D01*
X98545Y-76103D01*
X98397Y-75955D01*
X98204Y-75875D01*
X97996Y-75874D01*
X97803Y-75954D01*
X97655Y-76102D01*
X97625Y-76174D01*
X97625Y-76075D01*
X97587Y-75983D01*
X97516Y-75913D01*
X97424Y-75875D01*
X97325Y-75874D01*
X96775Y-75874D01*
X96683Y-75912D01*
X96613Y-75983D01*
X96595Y-76026D01*
X96577Y-75983D01*
X96506Y-75913D01*
X96414Y-75875D01*
X96315Y-75874D01*
X95765Y-75874D01*
X95673Y-75912D01*
X95603Y-75983D01*
X95565Y-76075D01*
X95564Y-76174D01*
X95564Y-76174D01*
X95535Y-76103D01*
X95387Y-75955D01*
X95194Y-75875D01*
X94986Y-75874D01*
X94793Y-75954D01*
X94645Y-76102D01*
X94589Y-76235D01*
X94535Y-76103D01*
X94387Y-75955D01*
X94194Y-75875D01*
X93986Y-75874D01*
X93793Y-75954D01*
X93645Y-76102D01*
X93589Y-76235D01*
X93535Y-76103D01*
X93387Y-75955D01*
X93194Y-75875D01*
X92986Y-75874D01*
X92793Y-75954D01*
X92645Y-76102D01*
X92589Y-76235D01*
X92535Y-76103D01*
X92387Y-75955D01*
X92194Y-75875D01*
X91986Y-75874D01*
X91793Y-75954D01*
X91645Y-76102D01*
X91589Y-76235D01*
X91535Y-76103D01*
X91387Y-75955D01*
X91194Y-75875D01*
X90986Y-75874D01*
X90793Y-75954D01*
X90645Y-76102D01*
X90589Y-76235D01*
X90535Y-76103D01*
X90387Y-75955D01*
X90194Y-75875D01*
X89986Y-75874D01*
X89793Y-75954D01*
X89645Y-76102D01*
X89589Y-76235D01*
X89535Y-76103D01*
X89387Y-75955D01*
X89194Y-75875D01*
X88986Y-75874D01*
X88793Y-75954D01*
X88645Y-76102D01*
X88589Y-76235D01*
X88535Y-76103D01*
X88387Y-75955D01*
X88194Y-75875D01*
X87986Y-75874D01*
X87793Y-75954D01*
X87645Y-76102D01*
X87589Y-76235D01*
X87535Y-76103D01*
X87387Y-75955D01*
X87194Y-75875D01*
X86986Y-75874D01*
X86793Y-75954D01*
X86645Y-76102D01*
X86594Y-76223D01*
X86545Y-76103D01*
X86397Y-75955D01*
X86204Y-75875D01*
X85996Y-75874D01*
X85803Y-75954D01*
X85655Y-76102D01*
X85625Y-76174D01*
X85625Y-76075D01*
X85587Y-75983D01*
X85516Y-75913D01*
X85424Y-75875D01*
X85325Y-75874D01*
X84775Y-75874D01*
X84683Y-75912D01*
X84613Y-75983D01*
X84575Y-76075D01*
X84574Y-76174D01*
X84574Y-76174D01*
X84545Y-76103D01*
X84397Y-75955D01*
X84204Y-75875D01*
X83996Y-75874D01*
X83803Y-75954D01*
X83655Y-76102D01*
X83599Y-76235D01*
X83545Y-76103D01*
X83397Y-75955D01*
X83204Y-75875D01*
X82996Y-75874D01*
X82803Y-75954D01*
X82655Y-76102D01*
X82599Y-76235D01*
X82545Y-76103D01*
X82397Y-75955D01*
X82204Y-75875D01*
X81996Y-75874D01*
X81803Y-75954D01*
X81655Y-76102D01*
X81599Y-76235D01*
X81545Y-76103D01*
X81397Y-75955D01*
X81204Y-75875D01*
X80996Y-75874D01*
X80803Y-75954D01*
X80655Y-76102D01*
X80625Y-76174D01*
X80625Y-76075D01*
X80587Y-75983D01*
X80516Y-75913D01*
X80424Y-75875D01*
X80325Y-75874D01*
X79903Y-75874D01*
X79939Y-75839D01*
X80012Y-75729D01*
X80038Y-75600D01*
X80038Y-75293D01*
X80078Y-75253D01*
X80146Y-75089D01*
X80146Y-74911D01*
X80079Y-74747D01*
X79953Y-74621D01*
X79789Y-74553D01*
X79611Y-74553D01*
X79447Y-74620D01*
X79321Y-74746D01*
X79253Y-74910D01*
X79253Y-75088D01*
X79320Y-75252D01*
X79361Y-75293D01*
X79361Y-75459D01*
X78668Y-76153D01*
X78611Y-76153D01*
X78447Y-76220D01*
X78321Y-76346D01*
X78253Y-76510D01*
X78253Y-76688D01*
X78320Y-76852D01*
X78446Y-76978D01*
X78610Y-77046D01*
X78788Y-77046D01*
X78952Y-76979D01*
X79078Y-76853D01*
X79146Y-76689D01*
X79146Y-76632D01*
X79574Y-76203D01*
X79574Y-76724D01*
X79612Y-76816D01*
X79683Y-76886D01*
X79775Y-76924D01*
X79874Y-76925D01*
X80424Y-76925D01*
X80516Y-76887D01*
X80586Y-76816D01*
X80624Y-76724D01*
X80625Y-76625D01*
X80625Y-76625D01*
X80654Y-76697D01*
X80802Y-76844D01*
X80995Y-76924D01*
X81203Y-76925D01*
X81397Y-76845D01*
X81544Y-76697D01*
X81600Y-76564D01*
X81654Y-76697D01*
X81802Y-76844D01*
X81995Y-76924D01*
X82203Y-76925D01*
X82397Y-76845D01*
X82544Y-76697D01*
X82600Y-76564D01*
X82654Y-76697D01*
X82802Y-76844D01*
X82995Y-76924D01*
X83203Y-76925D01*
X83397Y-76845D01*
X83544Y-76697D01*
X83600Y-76564D01*
X83654Y-76697D01*
X83802Y-76844D01*
X83995Y-76924D01*
X84203Y-76925D01*
X84397Y-76845D01*
X84544Y-76697D01*
X84574Y-76625D01*
X84574Y-76724D01*
X84612Y-76816D01*
X84683Y-76886D01*
X84775Y-76924D01*
X84874Y-76925D01*
X85424Y-76925D01*
X85516Y-76887D01*
X85586Y-76816D01*
X85624Y-76724D01*
X85625Y-76625D01*
X85625Y-76625D01*
X85654Y-76697D01*
X85802Y-76844D01*
X85995Y-76924D01*
X86203Y-76925D01*
X86397Y-76845D01*
X86544Y-76697D01*
X86595Y-76576D01*
X86644Y-76697D01*
X86792Y-76844D01*
X86985Y-76924D01*
X87193Y-76925D01*
X87387Y-76845D01*
X87534Y-76697D01*
X87590Y-76564D01*
X87644Y-76697D01*
X87792Y-76844D01*
X87985Y-76924D01*
X88193Y-76925D01*
X88387Y-76845D01*
X88534Y-76697D01*
X88590Y-76564D01*
X88644Y-76697D01*
X88792Y-76844D01*
X88985Y-76924D01*
X89193Y-76925D01*
X89387Y-76845D01*
X89534Y-76697D01*
X89590Y-76564D01*
X89644Y-76697D01*
X89792Y-76844D01*
X89985Y-76924D01*
X90193Y-76925D01*
X90387Y-76845D01*
X90534Y-76697D01*
X90590Y-76564D01*
X90644Y-76697D01*
X90792Y-76844D01*
X90985Y-76924D01*
X91193Y-76925D01*
X91387Y-76845D01*
X91534Y-76697D01*
X91590Y-76564D01*
X91644Y-76697D01*
X91792Y-76844D01*
X91985Y-76924D01*
X92193Y-76925D01*
X92387Y-76845D01*
X92534Y-76697D01*
X92590Y-76564D01*
X92644Y-76697D01*
X92792Y-76844D01*
X92985Y-76924D01*
X93193Y-76925D01*
X93387Y-76845D01*
X93534Y-76697D01*
X93590Y-76564D01*
X93644Y-76697D01*
X93792Y-76844D01*
X93985Y-76924D01*
X94193Y-76925D01*
X94387Y-76845D01*
X94534Y-76697D01*
X94590Y-76564D01*
X94644Y-76697D01*
X94792Y-76844D01*
X94985Y-76924D01*
X95193Y-76925D01*
X95387Y-76845D01*
X95534Y-76697D01*
X95564Y-76625D01*
X95564Y-76724D01*
X95602Y-76816D01*
X95673Y-76886D01*
X95765Y-76924D01*
X95864Y-76925D01*
X96414Y-76925D01*
X96506Y-76887D01*
X96576Y-76816D01*
X96594Y-76773D01*
X96612Y-76816D01*
X96683Y-76886D01*
X96775Y-76924D01*
X96874Y-76925D01*
X97424Y-76925D01*
X97516Y-76887D01*
X97586Y-76816D01*
X97624Y-76724D01*
X97625Y-76625D01*
X97625Y-76625D01*
X97654Y-76697D01*
X97802Y-76844D01*
X97995Y-76924D01*
X98203Y-76925D01*
X98397Y-76845D01*
X98544Y-76697D01*
X98600Y-76564D01*
X98654Y-76697D01*
X98802Y-76844D01*
X98995Y-76924D01*
X99203Y-76925D01*
X99397Y-76845D01*
X99544Y-76697D01*
X99600Y-76564D01*
X99654Y-76697D01*
X99802Y-76844D01*
X99995Y-76924D01*
X100203Y-76925D01*
X100397Y-76845D01*
X100544Y-76697D01*
X100624Y-76504D01*
X100625Y-76296D01*
X100625Y-79120D01*
X71285Y-79120D01*
X71462Y-78943D01*
X71582Y-78656D01*
X71582Y-78345D01*
X71463Y-78057D01*
X71243Y-77837D01*
X70956Y-77717D01*
X70645Y-77717D01*
X70357Y-77836D01*
X70137Y-78056D01*
X70129Y-78074D01*
X70129Y-66683D01*
X70363Y-66683D01*
X70455Y-66645D01*
X70525Y-66575D01*
X70563Y-66483D01*
X70564Y-66383D01*
X70564Y-65990D01*
X70526Y-65899D01*
X70455Y-65828D01*
X70363Y-65790D01*
X70264Y-65790D01*
X70129Y-65790D01*
X70129Y-63809D01*
X70363Y-63809D01*
X70455Y-63771D01*
X70525Y-63700D01*
X70563Y-63608D01*
X70564Y-63509D01*
X70564Y-63117D01*
X70526Y-63025D01*
X70455Y-62955D01*
X70363Y-62917D01*
X70264Y-62916D01*
X70129Y-62916D01*
X70129Y-50199D01*
X73462Y-50199D01*
X73335Y-50251D01*
X73124Y-50462D01*
X73010Y-50738D01*
X73010Y-50797D01*
X72770Y-50697D01*
X72389Y-50697D01*
X72036Y-50842D01*
X71766Y-51112D01*
X71653Y-51384D01*
X71654Y-51153D01*
X71555Y-50914D01*
X71372Y-50731D01*
X71133Y-50632D01*
X70875Y-50631D01*
X70636Y-50730D01*
X70453Y-50913D01*
X70354Y-51152D01*
X70353Y-51410D01*
X70452Y-51649D01*
X70586Y-51784D01*
X70453Y-51917D01*
X70354Y-52156D01*
X70353Y-52414D01*
X70452Y-52653D01*
X70635Y-52836D01*
X70874Y-52935D01*
X71132Y-52936D01*
X71371Y-52837D01*
X71554Y-52654D01*
X71653Y-52415D01*
X71654Y-52157D01*
X71555Y-51918D01*
X71421Y-51783D01*
X71554Y-51650D01*
X71620Y-51491D01*
X71620Y-51845D01*
X71765Y-52198D01*
X72035Y-52468D01*
X72387Y-52614D01*
X72768Y-52614D01*
X73121Y-52469D01*
X73181Y-52409D01*
X73181Y-52800D01*
X73205Y-52922D01*
X73274Y-53025D01*
X73626Y-53377D01*
X73626Y-53377D01*
X73678Y-53412D01*
X73729Y-53446D01*
X73729Y-53446D01*
X73852Y-53470D01*
X74507Y-53470D01*
X74527Y-53519D01*
X74651Y-53644D01*
X74528Y-53767D01*
X74429Y-54006D01*
X74428Y-54264D01*
X74527Y-54503D01*
X74671Y-54648D01*
X74528Y-54791D01*
X74429Y-55030D01*
X74428Y-55288D01*
X74527Y-55527D01*
X74710Y-55710D01*
X74949Y-55809D01*
X75207Y-55810D01*
X75432Y-55717D01*
X75432Y-55760D01*
X75531Y-55999D01*
X75714Y-56182D01*
X75953Y-56281D01*
X76211Y-56282D01*
X76450Y-56183D01*
X76633Y-56000D01*
X76732Y-55761D01*
X76732Y-55711D01*
X77560Y-56539D01*
X77622Y-56580D01*
X77575Y-56695D01*
X77574Y-56903D01*
X77606Y-56981D01*
X75732Y-56981D01*
X73125Y-54374D01*
X73022Y-54305D01*
X72900Y-54281D01*
X72500Y-54281D01*
X72377Y-54305D01*
X72326Y-54339D01*
X72274Y-54374D01*
X71529Y-55119D01*
X71372Y-54963D01*
X71133Y-54864D01*
X70875Y-54863D01*
X70636Y-54962D01*
X70453Y-55145D01*
X70354Y-55384D01*
X70353Y-55642D01*
X70452Y-55881D01*
X70586Y-56016D01*
X70453Y-56149D01*
X70354Y-56388D01*
X70353Y-56646D01*
X70452Y-56885D01*
X70635Y-57068D01*
X70685Y-57089D01*
X70685Y-57104D01*
X70709Y-57226D01*
X70778Y-57329D01*
X71574Y-58125D01*
X71574Y-58125D01*
X71626Y-58160D01*
X71677Y-58194D01*
X71677Y-58194D01*
X71800Y-58218D01*
X75267Y-58218D01*
X75574Y-58525D01*
X75574Y-58525D01*
X75677Y-58594D01*
X75799Y-58618D01*
X75800Y-58618D01*
X77606Y-58618D01*
X77575Y-58695D01*
X77574Y-58903D01*
X77654Y-59097D01*
X77802Y-59244D01*
X77935Y-59300D01*
X77803Y-59354D01*
X77655Y-59502D01*
X77575Y-59695D01*
X77574Y-59903D01*
X77654Y-60097D01*
X77802Y-60244D01*
X77935Y-60300D01*
X77803Y-60354D01*
X77655Y-60502D01*
X77575Y-60695D01*
X77574Y-60903D01*
X77654Y-61097D01*
X77802Y-61244D01*
X77935Y-61300D01*
X77803Y-61354D01*
X77655Y-61502D01*
X77575Y-61695D01*
X77574Y-61903D01*
X77654Y-62097D01*
X77802Y-62244D01*
X77903Y-62286D01*
X77763Y-62344D01*
X77615Y-62492D01*
X77535Y-62685D01*
X77534Y-62893D01*
X77614Y-63087D01*
X77762Y-63234D01*
X77895Y-63290D01*
X77763Y-63344D01*
X77615Y-63492D01*
X77535Y-63685D01*
X77534Y-63893D01*
X77614Y-64087D01*
X77762Y-64234D01*
X77895Y-64290D01*
X77763Y-64344D01*
X77615Y-64492D01*
X77535Y-64685D01*
X77534Y-64893D01*
X77614Y-65087D01*
X77762Y-65234D01*
X77895Y-65290D01*
X77763Y-65344D01*
X77615Y-65492D01*
X77535Y-65685D01*
X77534Y-65893D01*
X77614Y-66087D01*
X77762Y-66234D01*
X77895Y-66290D01*
X77763Y-66344D01*
X77615Y-66492D01*
X77535Y-66685D01*
X77534Y-66893D01*
X77614Y-67087D01*
X77762Y-67234D01*
X77895Y-67290D01*
X77763Y-67344D01*
X77615Y-67492D01*
X77535Y-67685D01*
X77534Y-67893D01*
X77614Y-68087D01*
X77762Y-68234D01*
X77895Y-68290D01*
X77763Y-68344D01*
X77615Y-68492D01*
X77535Y-68685D01*
X77534Y-68893D01*
X77614Y-69087D01*
X77762Y-69234D01*
X77895Y-69290D01*
X77763Y-69344D01*
X77615Y-69492D01*
X77535Y-69685D01*
X77534Y-69893D01*
X77614Y-70087D01*
X77762Y-70234D01*
X77834Y-70264D01*
X77735Y-70264D01*
X77643Y-70302D01*
X77573Y-70373D01*
X77535Y-70465D01*
X77534Y-70564D01*
X77534Y-71114D01*
X77572Y-71206D01*
X77627Y-71261D01*
X77500Y-71261D01*
X77499Y-71261D01*
X77370Y-71287D01*
X77260Y-71360D01*
X77260Y-71360D01*
X77260Y-71360D01*
X77182Y-71438D01*
X77182Y-62245D01*
X77063Y-61957D01*
X76843Y-61737D01*
X76556Y-61617D01*
X76245Y-61617D01*
X75957Y-61736D01*
X75737Y-61956D01*
X75617Y-62243D01*
X75617Y-62554D01*
X75736Y-62842D01*
X75956Y-63062D01*
X76243Y-63182D01*
X76554Y-63182D01*
X76842Y-63063D01*
X77062Y-62843D01*
X77182Y-62556D01*
X77182Y-62245D01*
X77182Y-71438D01*
X76646Y-71974D01*
X76646Y-71911D01*
X76579Y-71747D01*
X76453Y-71621D01*
X76438Y-71615D01*
X76438Y-70600D01*
X76438Y-70493D01*
X76478Y-70453D01*
X76546Y-70289D01*
X76546Y-70111D01*
X76479Y-69947D01*
X76438Y-69906D01*
X76438Y-68200D01*
X76412Y-68070D01*
X76339Y-67960D01*
X76339Y-67960D01*
X75446Y-67068D01*
X75446Y-67011D01*
X75420Y-66948D01*
X75555Y-66948D01*
X75853Y-67246D01*
X75853Y-67246D01*
X75966Y-67321D01*
X76099Y-67348D01*
X76099Y-67348D01*
X76100Y-67348D01*
X76416Y-67348D01*
X76446Y-67378D01*
X76610Y-67446D01*
X76788Y-67446D01*
X76952Y-67379D01*
X77078Y-67253D01*
X77146Y-67089D01*
X77146Y-66911D01*
X77079Y-66747D01*
X76953Y-66621D01*
X76789Y-66553D01*
X76611Y-66553D01*
X76447Y-66620D01*
X76416Y-66651D01*
X76244Y-66651D01*
X75946Y-66353D01*
X75873Y-66305D01*
X76031Y-66146D01*
X76088Y-66146D01*
X76252Y-66079D01*
X76378Y-65953D01*
X76446Y-65789D01*
X76446Y-65611D01*
X76379Y-65447D01*
X76253Y-65321D01*
X76089Y-65253D01*
X75911Y-65253D01*
X75747Y-65320D01*
X75621Y-65446D01*
X75553Y-65610D01*
X75553Y-65667D01*
X75259Y-65961D01*
X74593Y-65961D01*
X74553Y-65921D01*
X74389Y-65853D01*
X74211Y-65853D01*
X74048Y-65920D01*
X74048Y-63500D01*
X74021Y-63366D01*
X73946Y-63253D01*
X73858Y-63195D01*
X73936Y-63195D01*
X74376Y-63013D01*
X74712Y-62677D01*
X74894Y-62238D01*
X74895Y-61763D01*
X74713Y-61323D01*
X74584Y-61195D01*
X76194Y-61195D01*
X76286Y-61157D01*
X76356Y-61086D01*
X76394Y-60994D01*
X76395Y-60895D01*
X76395Y-59005D01*
X76357Y-58913D01*
X76286Y-58843D01*
X76194Y-58805D01*
X76095Y-58804D01*
X74205Y-58804D01*
X74113Y-58842D01*
X74043Y-58913D01*
X74005Y-59005D01*
X74004Y-59104D01*
X74004Y-60832D01*
X73938Y-60805D01*
X73685Y-60804D01*
X73812Y-60677D01*
X73994Y-60238D01*
X73995Y-59763D01*
X73813Y-59323D01*
X73477Y-58987D01*
X73038Y-58805D01*
X72563Y-58804D01*
X72123Y-58986D01*
X71787Y-59322D01*
X71605Y-59761D01*
X71604Y-60236D01*
X71786Y-60676D01*
X72072Y-60962D01*
X71867Y-61167D01*
X71796Y-61274D01*
X71771Y-61400D01*
X71771Y-63063D01*
X71430Y-63405D01*
X71430Y-63117D01*
X71392Y-63025D01*
X71321Y-62955D01*
X71229Y-62917D01*
X71130Y-62916D01*
X70816Y-62916D01*
X70724Y-62954D01*
X70654Y-63025D01*
X70616Y-63117D01*
X70615Y-63216D01*
X70615Y-63608D01*
X70653Y-63700D01*
X70724Y-63770D01*
X70734Y-63774D01*
X70733Y-63807D01*
X70675Y-63783D01*
X70505Y-63782D01*
X70348Y-63847D01*
X70228Y-63967D01*
X70163Y-64124D01*
X70162Y-64294D01*
X70227Y-64451D01*
X70347Y-64571D01*
X70504Y-64636D01*
X70674Y-64637D01*
X70733Y-64612D01*
X70733Y-64692D01*
X70771Y-64783D01*
X70842Y-64854D01*
X70934Y-64892D01*
X71033Y-64892D01*
X71542Y-64892D01*
X71137Y-65297D01*
X71013Y-65297D01*
X70952Y-65148D01*
X70832Y-65028D01*
X70675Y-64963D01*
X70505Y-64962D01*
X70348Y-65027D01*
X70228Y-65147D01*
X70163Y-65304D01*
X70162Y-65474D01*
X70227Y-65631D01*
X70347Y-65751D01*
X70504Y-65816D01*
X70674Y-65817D01*
X70733Y-65792D01*
X70733Y-65824D01*
X70723Y-65828D01*
X70653Y-65899D01*
X70615Y-65991D01*
X70614Y-66090D01*
X70614Y-66482D01*
X70652Y-66574D01*
X70723Y-66644D01*
X70815Y-66682D01*
X70914Y-66683D01*
X71228Y-66683D01*
X71320Y-66645D01*
X71390Y-66574D01*
X71428Y-66482D01*
X71429Y-66383D01*
X71429Y-66072D01*
X71623Y-66072D01*
X71715Y-66034D01*
X71785Y-65964D01*
X71823Y-65872D01*
X71824Y-65772D01*
X71824Y-65540D01*
X72118Y-65246D01*
X72188Y-65246D01*
X72352Y-65179D01*
X72478Y-65053D01*
X72546Y-64889D01*
X72546Y-64711D01*
X72479Y-64547D01*
X72353Y-64421D01*
X72189Y-64353D01*
X72011Y-64353D01*
X71847Y-64420D01*
X71824Y-64444D01*
X71824Y-64317D01*
X71786Y-64226D01*
X71770Y-64210D01*
X71785Y-64194D01*
X71823Y-64102D01*
X71824Y-64002D01*
X71824Y-63940D01*
X72274Y-63490D01*
X72410Y-63546D01*
X72454Y-63546D01*
X72653Y-63746D01*
X72653Y-63746D01*
X72766Y-63821D01*
X72899Y-63848D01*
X72899Y-63848D01*
X72900Y-63848D01*
X73351Y-63848D01*
X73351Y-66499D01*
X73351Y-66500D01*
X73373Y-66611D01*
X73378Y-66633D01*
X73453Y-66746D01*
X73753Y-67046D01*
X73753Y-67046D01*
X73866Y-67121D01*
X73895Y-67127D01*
X73946Y-67178D01*
X74110Y-67246D01*
X74288Y-67246D01*
X74452Y-67179D01*
X74483Y-67148D01*
X74553Y-67148D01*
X74553Y-67188D01*
X74620Y-67352D01*
X74746Y-67478D01*
X74910Y-67546D01*
X74967Y-67546D01*
X75415Y-67994D01*
X75382Y-67987D01*
X75354Y-67976D01*
X73858Y-67726D01*
X73753Y-67621D01*
X73589Y-67553D01*
X73411Y-67553D01*
X73247Y-67620D01*
X73238Y-67629D01*
X73238Y-67584D01*
X73252Y-67579D01*
X73378Y-67453D01*
X73446Y-67289D01*
X73446Y-67111D01*
X73379Y-66947D01*
X73253Y-66821D01*
X73089Y-66753D01*
X72911Y-66753D01*
X72747Y-66820D01*
X72621Y-66946D01*
X72553Y-67110D01*
X72553Y-67288D01*
X72561Y-67308D01*
X72561Y-68000D01*
X72587Y-68129D01*
X72660Y-68239D01*
X72714Y-68293D01*
X72647Y-68320D01*
X72596Y-68371D01*
X71203Y-68371D01*
X71153Y-68321D01*
X70989Y-68253D01*
X70811Y-68253D01*
X70647Y-68320D01*
X70521Y-68446D01*
X70453Y-68610D01*
X70453Y-68788D01*
X70520Y-68952D01*
X70646Y-69078D01*
X70810Y-69146D01*
X70988Y-69146D01*
X71152Y-69079D01*
X71203Y-69028D01*
X72596Y-69028D01*
X72646Y-69078D01*
X72810Y-69146D01*
X72988Y-69146D01*
X73061Y-69116D01*
X73061Y-71261D01*
X72993Y-71261D01*
X72953Y-71221D01*
X72789Y-71153D01*
X72611Y-71153D01*
X72447Y-71220D01*
X72321Y-71346D01*
X72253Y-71510D01*
X72253Y-71688D01*
X72320Y-71852D01*
X72446Y-71978D01*
X72610Y-72046D01*
X72753Y-72046D01*
X72753Y-72188D01*
X72820Y-72352D01*
X72946Y-72478D01*
X73110Y-72546D01*
X73288Y-72546D01*
X73452Y-72479D01*
X73578Y-72353D01*
X73626Y-72238D01*
X73659Y-72238D01*
X74060Y-72639D01*
X74092Y-72660D01*
X73947Y-72720D01*
X73821Y-72846D01*
X73753Y-73010D01*
X73753Y-73188D01*
X73820Y-73352D01*
X73946Y-73478D01*
X74110Y-73546D01*
X74288Y-73546D01*
X74452Y-73479D01*
X74578Y-73353D01*
X74646Y-73189D01*
X74646Y-73132D01*
X74740Y-73038D01*
X77200Y-73038D01*
X77329Y-73012D01*
X77329Y-73012D01*
X77439Y-72939D01*
X77453Y-72925D01*
X77453Y-72988D01*
X77460Y-73006D01*
X76809Y-74226D01*
X75994Y-75484D01*
X75979Y-75447D01*
X75853Y-75321D01*
X75689Y-75253D01*
X75511Y-75253D01*
X75347Y-75320D01*
X75296Y-75371D01*
X74603Y-75371D01*
X74553Y-75321D01*
X74389Y-75253D01*
X74211Y-75253D01*
X74047Y-75320D01*
X73921Y-75446D01*
X73853Y-75610D01*
X73853Y-75761D01*
X73387Y-75761D01*
X72538Y-74402D01*
X72538Y-73700D01*
X72512Y-73570D01*
X72439Y-73460D01*
X72046Y-73068D01*
X72046Y-73011D01*
X71979Y-72847D01*
X71853Y-72721D01*
X71689Y-72653D01*
X71511Y-72653D01*
X71347Y-72720D01*
X71221Y-72846D01*
X71153Y-73010D01*
X71153Y-73188D01*
X71220Y-73352D01*
X71346Y-73478D01*
X71510Y-73546D01*
X71567Y-73546D01*
X71861Y-73840D01*
X71861Y-74500D01*
X71866Y-74527D01*
X71866Y-74555D01*
X71879Y-74591D01*
X71887Y-74629D01*
X71902Y-74653D01*
X71912Y-74679D01*
X72907Y-76271D01*
X72636Y-76271D01*
X71846Y-75481D01*
X71846Y-75411D01*
X71779Y-75247D01*
X71653Y-75121D01*
X71489Y-75053D01*
X71311Y-75053D01*
X71147Y-75120D01*
X71021Y-75246D01*
X70953Y-75410D01*
X70953Y-75588D01*
X71020Y-75752D01*
X71146Y-75878D01*
X71310Y-75946D01*
X71381Y-75946D01*
X72106Y-76671D01*
X71930Y-76671D01*
X71879Y-76547D01*
X71753Y-76421D01*
X71589Y-76353D01*
X71411Y-76353D01*
X71247Y-76420D01*
X71121Y-76546D01*
X71100Y-76598D01*
X71079Y-76547D01*
X70953Y-76421D01*
X70789Y-76353D01*
X70611Y-76353D01*
X70447Y-76420D01*
X70321Y-76546D01*
X70253Y-76710D01*
X70253Y-76888D01*
X70320Y-77052D01*
X70446Y-77178D01*
X70610Y-77246D01*
X70667Y-77246D01*
X71060Y-77639D01*
X71170Y-77712D01*
X71300Y-77738D01*
X72650Y-77738D01*
X72700Y-77748D01*
X75799Y-77748D01*
X75800Y-77748D01*
X75800Y-77748D01*
X75911Y-77726D01*
X75933Y-77721D01*
X75933Y-77721D01*
X76046Y-77646D01*
X77246Y-76446D01*
X77246Y-76446D01*
X77246Y-76446D01*
X77321Y-76333D01*
X77348Y-76200D01*
X77348Y-76200D01*
X77348Y-76200D01*
X77348Y-75644D01*
X77930Y-75062D01*
X77946Y-75078D01*
X78110Y-75146D01*
X78288Y-75146D01*
X78452Y-75079D01*
X78578Y-74953D01*
X78646Y-74789D01*
X78646Y-74611D01*
X78579Y-74447D01*
X78453Y-74321D01*
X78289Y-74253D01*
X78111Y-74253D01*
X77947Y-74320D01*
X77916Y-74351D01*
X77800Y-74351D01*
X77799Y-74351D01*
X77666Y-74378D01*
X77553Y-74453D01*
X77553Y-74453D01*
X77312Y-74695D01*
X77384Y-74583D01*
X77389Y-74571D01*
X77398Y-74559D01*
X78062Y-73316D01*
X78152Y-73279D01*
X78278Y-73153D01*
X78346Y-72989D01*
X78346Y-72811D01*
X78279Y-72647D01*
X78153Y-72521D01*
X77989Y-72453D01*
X77925Y-72453D01*
X77940Y-72438D01*
X79000Y-72438D01*
X79100Y-72438D01*
X101206Y-72438D01*
X101246Y-72478D01*
X101410Y-72546D01*
X101588Y-72546D01*
X101752Y-72479D01*
X101878Y-72353D01*
X101946Y-72189D01*
X101946Y-72011D01*
X101916Y-71938D01*
X102859Y-71938D01*
X103460Y-72539D01*
X103460Y-72539D01*
X103570Y-72612D01*
X103699Y-72638D01*
X103699Y-72638D01*
X103700Y-72638D01*
X103762Y-72638D01*
X103852Y-72729D01*
X103702Y-72791D01*
X103510Y-72983D01*
X103406Y-73234D01*
X103405Y-73506D01*
X103509Y-73757D01*
X103701Y-73949D01*
X103952Y-74053D01*
X104224Y-74054D01*
X104475Y-73950D01*
X104667Y-73758D01*
X104759Y-73538D01*
X105321Y-74099D01*
X104660Y-74760D01*
X104587Y-74869D01*
X104518Y-74702D01*
X104326Y-74510D01*
X104075Y-74406D01*
X103803Y-74405D01*
X103552Y-74509D01*
X103360Y-74701D01*
X103256Y-74952D01*
X103255Y-75224D01*
X103359Y-75475D01*
X103551Y-75667D01*
X103703Y-75730D01*
X103582Y-75850D01*
X103499Y-76051D01*
X103499Y-76268D01*
X103582Y-76468D01*
X103702Y-76589D01*
X103552Y-76651D01*
X103360Y-76843D01*
X103256Y-77094D01*
X103255Y-77366D01*
X103359Y-77617D01*
X103551Y-77809D01*
X103802Y-77913D01*
X104074Y-77914D01*
X104325Y-77810D01*
X104517Y-77618D01*
X104621Y-77367D01*
X104622Y-77095D01*
X104518Y-76844D01*
X104326Y-76652D01*
X104304Y-76643D01*
X104353Y-76622D01*
X104438Y-76537D01*
X104522Y-76622D01*
X104723Y-76705D01*
X104940Y-76705D01*
X105140Y-76622D01*
X105226Y-76537D01*
X105310Y-76622D01*
X105511Y-76705D01*
X105728Y-76705D01*
X105928Y-76622D01*
X106013Y-76537D01*
X106097Y-76622D01*
X106266Y-76692D01*
X106115Y-76843D01*
X106011Y-77094D01*
X106010Y-77366D01*
X106114Y-77617D01*
X106306Y-77809D01*
X106557Y-77913D01*
X106829Y-77914D01*
X107080Y-77810D01*
X107272Y-77618D01*
X107376Y-77367D01*
X107377Y-77095D01*
X107273Y-76844D01*
X107081Y-76652D01*
X106830Y-76548D01*
X106790Y-76548D01*
X106869Y-76469D01*
X106952Y-76268D01*
X106952Y-76051D01*
X106869Y-75851D01*
X106790Y-75772D01*
X106829Y-75772D01*
X107080Y-75668D01*
X107272Y-75476D01*
X107376Y-75225D01*
X107377Y-74953D01*
X107273Y-74702D01*
X107081Y-74510D01*
X106908Y-74438D01*
X111300Y-74438D01*
X111344Y-74429D01*
X111389Y-74426D01*
X111408Y-74416D01*
X111429Y-74412D01*
X111467Y-74387D01*
X111507Y-74367D01*
X111521Y-74351D01*
X111539Y-74339D01*
X111553Y-74318D01*
X111553Y-74388D01*
X111620Y-74552D01*
X111746Y-74678D01*
X111910Y-74746D01*
X112088Y-74746D01*
X112252Y-74679D01*
X112360Y-74571D01*
X112360Y-78054D01*
G54D10*
G36*
X112360Y-79120D02*
X112185Y-79120D01*
X112360Y-78946D01*
X112360Y-79120D01*
X112360Y-79120D01*
G37*
G54D38*
X112360Y-79120D02*
X112185Y-79120D01*
X112360Y-78946D01*
X112360Y-79120D01*
M02*
